<?xml version="1.0" encoding="utf-8"?>
<!-- Generator: Adobe Illustrator 25.0.1, SVG Export Plug-In . SVG Version: 6.00 Build 0)  -->
<svg version="1.1" id="Layer_1" xmlns="http://www.w3.org/2000/svg" xmlns:xlink="http://www.w3.org/1999/xlink" x="0px" y="0px"
	 viewBox="0 0 512 512" style="enable-background:new 0 0 512 512;" xml:space="preserve">
<style type="text/css">
	.st0{fill:#FFFFFF;}
</style>
<g id="Cloud_service">
	<path class="st0" d="M256,248c-44.2,0-80,35.8-80,80s35.8,80,80,80s80-35.8,80-80C336,283.8,300.2,248,256,248z M256,392
		c-35.3,0-64-28.7-64-64s28.7-64,64-64s64,28.7,64,64C320,363.3,291.3,392,256,392z"/>
	<path class="st0" d="M256,288c-22.1,0-40,17.9-40,40s17.9,40,40,40s40-17.9,40-40C296,305.9,278.1,288,256,288z M256,352
		c-13.3,0-24-10.7-24-24s10.7-24,24-24c13.3,0,24,10.7,24,24S269.3,352,256,352z"/>
	<path class="st0" d="M440,152.8c0-0.3,0-0.5,0-0.8c-0.1-31-25.2-56.1-56.2-56c-4.7,0-9.4,0.6-14,1.8c-21.1-62.8-89.1-96.7-152-75.6
		c-35.6,12-63.6,39.9-75.6,75.6C112.2,90,81.6,108,73.8,138c-1.2,4.6-1.8,9.3-1.8,14c0,0.3,0,0.5,0,0.8c-48.2,22-69.4,79-47.3,127.1
		c14.4,31.5,44.8,52.8,79.3,55.7V352c0,4.4,3.6,8,8,8h28.3c2.6,9.5,6.4,18.6,11.3,27.2l-20,20c-3.1,3.1-3.1,8.2,0,11.3l33.9,33.9
		c3.1,3.1,8.2,3.1,11.3,0l20-20c8.6,4.9,17.7,8.7,27.2,11.3V472c0,4.4,3.6,8,8,8h48c4.4,0,8-3.6,8-8v-28.3
		c9.5-2.6,18.6-6.4,27.2-11.3l20,20c3.2,3,8.1,3,11.3,0l33.9-33.9c3.1-3.1,3.1-8.2,0-11.3l-20-20c4.9-8.6,8.7-17.7,11.3-27.2H400
		c4.4,0,8-3.6,8-8v-16.4c0.2,0,0.5,0,0.7,0c52.8-4.8,91.7-51.5,86.8-104.3C492.4,197.1,471.2,167.1,440,152.8z M392,344h-26.6
		c-3.8,0-7,2.6-7.8,6.3c-2.6,12-7.4,23.4-14,33.8c-2,3.2-1.6,7.3,1.1,10l18.8,18.8l-22.6,22.6l-18.8-18.8c-2.7-2.7-6.8-3.1-10-1.1
		c-10.3,6.6-21.8,11.4-33.8,14c-3.7,0.8-6.3,4.1-6.3,7.8V464h-32v-26.6c0-3.8-2.6-7-6.3-7.8c-12-2.6-23.5-7.4-33.8-14
		c-3.2-2-7.3-1.6-10,1.1l-18.8,18.8l-22.6-22.6l18.8-18.8c2.7-2.7,3.1-6.8,1.1-10c-6.6-10.3-11.4-21.8-14-33.8
		c-0.8-3.7-4.1-6.3-7.8-6.3H120v-32h26.6c3.8,0,7-2.6,7.8-6.3c2.6-12,7.4-23.4,14-33.8c2-3.2,1.6-7.3-1.1-10l-18.8-18.8l22.6-22.6
		l18.8,18.8c2.7,2.7,6.8,3.1,10,1.1c10.3-6.6,21.8-11.4,33.8-14c3.7-0.8,6.3-4.1,6.3-7.8V192h32v26.6c0,3.8,2.6,7,6.3,7.8
		c12,2.6,23.5,7.4,33.8,14c3.2,2,7.3,1.6,10-1.1l18.8-18.8l22.6,22.6l-18.8,18.8c-2.7,2.7-3.1,6.8-1.1,10
		c6.6,10.3,11.4,21.8,14,33.8c0.8,3.7,4.1,6.3,7.8,6.3H392V344z M408,319.5V304c0-4.4-3.6-8-8-8h-28.3c-2.6-9.5-6.4-18.6-11.3-27.2
		l20-20c3.1-3.1,3.1-8.2,0-11.3l-33.9-33.9c-3.1-3.1-8.2-3.1-11.3,0l-20,20c-8.6-4.9-17.7-8.7-27.2-11.3V184c0-4.4-3.6-8-8-8h-48
		c-4.4,0-8,3.6-8,8v28.3c-9.5,2.6-18.6,6.4-27.2,11.3l-20-20c-3.2-3-8.1-3-11.3,0l-33.9,33.9c-3.1,3.1-3.1,8.2,0,11.3l20,20
		c-4.9,8.6-8.7,17.7-11.3,27.2H112c-4.4,0-8,3.6-8,8v15.6c-44-4.5-76-43.7-71.5-87.7c3-29.9,22.6-55.6,50.7-66.5
		c3.5-1.3,5.6-4.8,5.1-8.5c-2.9-21.8,12.5-41.7,34.3-44.6c1.8-0.2,3.6-0.3,5.4-0.3c5.6,0,11.1,1.1,16.2,3.4c4,1.8,8.8,0.1,10.6-3.9
		c0.2-0.4,0.4-0.9,0.5-1.4c14.3-55.6,71-89.1,126.6-74.8c36.7,9.4,65.4,38.1,74.8,74.8c1.1,4.3,5.5,6.9,9.7,5.8
		c0.5-0.1,0.9-0.3,1.4-0.5c5.1-2.3,10.6-3.5,16.2-3.4c22-0.1,39.9,17.6,40,39.5c0,1.8-0.1,3.6-0.3,5.4c-0.5,3.7,1.6,7.2,5.1,8.5
		c41.2,15.8,61.8,62.1,45.9,103.3C463.8,296.9,438,316.5,408,319.5z"/>
</g>
</svg>
