<svg id="Capa_1" enable-background="new 0 0 512 512" height="512" viewBox="0 0 512 512" width="512" xmlns="http://www.w3.org/2000/svg"><g><path d="m496.567 35.5-17.517-17.517c-17.178-17.178-45.029-17.178-62.207 0l-160.843 160.843-160.844-160.843c-17.178-17.178-45.029-17.178-62.207 0l-17.516 17.517c-17.178 17.178-17.178 45.029 0 62.207l160.844 160.843-160.844 160.843c-17.178 17.178-17.178 45.029 0 62.207l17.517 17.517c17.178 17.178 45.029 17.178 62.207 0l160.843-160.844 160.844 160.843c17.178 17.178 45.029 17.178 62.207 0l17.517-17.517c17.178-17.178 17.178-45.029 0-62.207l-160.844-160.842 160.843-160.843c17.178-17.178 17.178-45.029 0-62.207z" fill="#eda1ab"/><path d="m335.724 258.55 60.282-60.282c-4.616-9.391-10.348-18.263-17.119-26.392l-32.229-38.693c-2.672-3.207-4.142-7.272-4.142-11.446v-29.426l-86.516 86.515-86.516-86.515v29.426c0 4.174-1.471 8.239-4.142 11.445l-32.23 38.695c-6.771 8.129-12.502 17-17.118 26.391l60.282 60.282-73.955 73.955v98.25c0 17.342 5.287 33.472 14.332 46.865l139.347-139.347 139.346 139.346c9.046-13.393 14.332-29.523 14.332-46.865v-98.25z" fill="#e58996"/><path d="m309.55 121.737v-94.366h-107.1v94.367c0 11.891-4.168 23.407-11.778 32.544l-32.229 38.694c-14.962 17.964-23.156 40.603-23.156 63.982v173.798c0 28.154 22.823 50.977 50.977 50.977h139.471c28.154 0 50.977-22.823 50.977-50.977v-173.799c0-23.379-8.193-46.018-23.156-63.982l-32.229-38.694c-7.61-9.137-11.777-20.653-11.777-32.544z" fill="#8de1e0"/><g fill="#58d1b4"><path d="m256 453.696c-4.142 0-7.5-3.357-7.5-7.5v-4.014c0-4.143 3.358-7.5 7.5-7.5s7.5 3.357 7.5 7.5v4.014c0 4.143-3.358 7.5-7.5 7.5z"/><path d="m197.435 453.696c-4.142 0-7.5-3.357-7.5-7.5v-4.014c0-4.143 3.358-7.5 7.5-7.5s7.5 3.357 7.5 7.5v4.014c0 4.143-3.358 7.5-7.5 7.5z"/><path d="m314.565 453.696c-4.142 0-7.5-3.357-7.5-7.5v-4.014c0-4.143 3.358-7.5 7.5-7.5s7.5 3.357 7.5 7.5v4.014c0 4.143-3.358 7.5-7.5 7.5z"/></g><path d="m208.838 73.146c4.574-2.736 10.283-2.736 14.857 0l21.098 12.623c6.901 4.129 15.513 4.129 22.414 0l21.098-12.623c4.574-2.736 10.28-2.738 14.854-.001 1.917 1.147 4.095 2.449 6.389 3.822v-49.596h-107.098v49.598z" fill="#58d1b4"/><path d="m190.964 57.882 17.874-10.694c4.574-2.737 10.283-2.737 14.857 0l21.098 12.623c6.901 4.129 15.513 4.129 22.414 0l21.098-12.623c4.574-2.737 10.28-2.738 14.854-.001 5.021 3.004 11.816 7.069 17.88 10.697 6.356 3.803 14.428-.779 14.428-8.186v-25.781c0-13.209-10.707-23.917-23.916-23.917h-111.102c-13.209 0-23.917 10.707-23.917 23.915v25.789c.001 7.407 8.076 11.981 14.432 8.178z" fill="#4e5660"/><path d="m136.316 242.782c-.669 4.673-1.028 9.407-1.028 14.175v141.045h241.426v-141.045c0-4.768-.359-9.502-1.028-14.175l-105.533-49.955c-8.958-4.24-19.345-4.24-28.303 0z" fill="#fbf1cf"/><path d="m135.287 352.417h241.426v-60.639c-35.221-16.672-93.735-44.37-113.751-53.844-4.408-2.086-9.517-2.086-13.925 0l-113.75 53.844z" fill="#7ca1dc"/><path d="m281.051 316.486h-50.103c-4.142 0-7.5-3.357-7.5-7.5 0-4.142 3.358-7.5 7.5-7.5h50.103c4.142 0 7.5 3.358 7.5 7.5 0 4.143-3.358 7.5-7.5 7.5z" fill="#fff"/><ellipse cx="256" cy="218.161" fill="#eed076" rx="46.75" ry="46.75" transform="matrix(.425 -.905 .905 .425 -50.244 357.246)"/></g></svg>