<?xml version="1.0" encoding="iso-8859-1"?>
<!-- Generator: Adobe Illustrator 19.0.0, SVG Export Plug-In . SVG Version: 6.00 Build 0)  -->
<svg version="1.1" id="Capa_1" xmlns="http://www.w3.org/2000/svg" xmlns:xlink="http://www.w3.org/1999/xlink" x="0px" y="0px"
	 viewBox="0 0 509.637 509.637" style="enable-background:new 0 0 509.637 509.637;" xml:space="preserve">
<circle style="fill:#E1E6E8;" cx="254.031" cy="257.575" r="252.062"/>
<path style="fill:#2AA0DA;" d="M438.351,144.148c2.363-7.089,3.938-14.966,3.938-22.843c0-36.234-29.145-66.166-66.166-66.166
	c-9.452,0-18.117,1.575-25.994,5.514c-16.542-31.508-49.625-53.563-87.434-53.563c-25.206,0-48.837,9.452-66.166,25.994
	c-7.089-6.302-16.542-9.452-27.569-9.452c-24.418,0-44.898,20.48-43.323,45.686c-33.871,5.514-57.502,38.597-49.625,74.043
	c-37.022,3.938-66.166,35.446-66.166,74.043c0,40.96,33.083,74.043,74.043,74.043h339.495c40.96,0,74.043-33.083,74.043-74.043
	C499.791,180.382,473.009,150.449,438.351,144.148z"/>
<path style="fill:#183651;" d="M424.96,299.323H85.465c-45.686,0-81.92-37.022-81.92-81.92c0-39.385,27.569-72.468,64.591-80.345
	c-1.575-15.754,2.363-32.295,11.028-45.686c9.452-14.178,23.631-23.631,39.385-28.357c0.788-11.815,5.514-22.843,14.178-31.508
	c9.452-10.24,23.631-15.754,37.022-15.754c9.452,0,18.905,2.363,26.782,7.877C215.434,8.665,239.065,0,263.483,0
	c37.809,0,71.68,19.692,90.585,51.2c7.877-3.151,14.966-3.938,22.843-3.938c40.96,0,74.043,33.083,74.043,74.043
	c0,5.514-0.788,11.815-2.363,17.329c34.658,10.24,59.077,41.748,59.077,78.769C507.668,262.302,470.646,299.323,424.96,299.323z
	 M170.535,31.508c-9.452,0-18.905,3.938-25.994,11.028c-7.089,7.089-10.24,16.542-9.452,26.782c0,3.938-2.363,7.877-6.302,7.877
	c-14.178,2.363-27.569,11.028-35.446,22.843c-7.877,12.603-11.028,26.782-7.877,41.748c0.788,2.363,0,4.726-1.575,6.302
	c-1.575,1.575-3.151,3.151-5.514,3.151c-33.871,3.938-59.077,32.295-59.077,66.166c0,37.022,29.932,66.166,66.166,66.166H424.96
	c37.022,0,66.166-29.932,66.166-66.166c0-32.295-22.843-59.865-55.138-65.378c-2.363-0.788-3.938-1.575-5.514-3.938
	c-0.788-2.363-1.575-4.726-0.788-6.302c2.363-6.302,3.938-13.391,3.938-20.48c0-32.295-25.994-58.289-58.289-58.289
	c-7.877,0-15.754,1.575-22.843,4.726c-3.938,1.575-7.877,0-10.24-3.938c-15.754-29.932-46.474-48.837-80.345-48.837
	c-22.843,0-44.111,8.665-60.652,23.631c-3.151,2.363-7.089,2.363-10.24,0C186.289,33.871,178.412,31.508,170.535,31.508z"/>
<path style="fill:#FFFFFF;" d="M90.978,284.357h328.468c29.932,0,56.714-24.418,53.563-56.714
	c-2.363-25.994-22.843-46.474-48.049-50.412l-15.754-3.151l6.302-16.542c11.028-29.932-9.452-60.652-38.597-63.803
	c-14.966-1.575-23.631,3.151-37.809,8.665L332.8,89.797c-13.391-28.357-42.535-44.898-74.043-43.323
	c-29.932,1.575-47.262,19.692-57.502,29.145c-10.24-7.877-14.966-14.178-26.782-14.178c-14.966,0-26.782,11.815-26.782,26.782
	l0.788,14.178l-13.391,2.363c-21.268,3.151-36.234,21.268-36.234,43.323c0,7.089,1.575,11.815,4.726,25.994l-14.966,1.575
	c-27.569,3.151-51.2,25.994-51.988,55.926C36.628,260.726,61.834,284.357,90.978,284.357z"/>
<g>
	<path style="fill:#183651;" d="M499.791,233.945H390.302c-2.363,0-4.726-1.575-6.302-3.151l-25.206-37.022h-48.837
		c-4.726,0-7.877-3.151-7.877-7.877c0-4.726,3.151-7.877,7.877-7.877h52.775c2.363,0,4.726,1.575,6.302,3.151l25.206,37.022h105.551
		c4.726,0,7.877,3.151,7.877,7.877C507.668,230.794,503.729,233.945,499.791,233.945z"/>
	<path style="fill:#183651;" d="M120.911,233.945H11.422c-4.726,0-7.877-3.151-7.877-7.877s3.151-7.877,7.877-7.877h105.551
		l25.206-37.022c1.575-2.363,3.938-3.151,6.302-3.151h52.775c4.726,0,7.877,3.151,7.877,7.877c0,4.726-3.151,7.877-7.877,7.877
		h-48.837l-25.206,37.022C125.637,233.157,123.274,233.945,120.911,233.945z"/>
</g>
<circle style="fill:#FFFFFF;" cx="306.018" cy="185.895" r="17.329"/>
<path style="fill:#183651;" d="M306.018,211.889c-14.178,0-25.206-11.815-25.206-25.206c0-14.178,11.815-25.206,25.206-25.206
	c14.178,0,25.206,11.815,25.206,25.206S320.197,211.889,306.018,211.889z M306.018,176.443c-5.514,0-9.452,4.726-9.452,9.452
	c0,5.514,4.726,9.452,9.452,9.452c5.514,0,9.452-4.726,9.452-9.452C315.471,181.169,311.532,176.443,306.018,176.443z"/>
<circle style="fill:#FFFFFF;" cx="201.255" cy="185.895" r="17.329"/>
<g>
	<path style="fill:#183651;" d="M201.255,211.889c-14.178,0-25.206-11.815-25.206-25.206c0-14.178,11.815-25.206,25.206-25.206
		c14.178,0,25.206,11.815,25.206,25.206C226.462,200.074,215.434,211.889,201.255,211.889z M201.255,176.443
		c-5.514,0-9.452,4.726-9.452,9.452c0,5.514,4.726,9.452,9.452,9.452c5.514,0,9.452-4.726,9.452-9.452
		C210.708,181.169,206.769,176.443,201.255,176.443z"/>
	<path style="fill:#183651;" d="M255.606,112.64c-4.726,0-7.877-3.151-7.877-7.877V7.877c0-4.726,3.151-7.877,7.877-7.877
		c4.726,0,7.877,3.151,7.877,7.877v97.674C263.483,109.489,259.545,112.64,255.606,112.64z"/>
</g>
<circle style="fill:#FFFFFF;" cx="255.606" cy="112.64" r="17.329"/>
<path style="fill:#183651;" d="M255.606,138.634c-14.178,0-25.206-11.815-25.206-25.206c0-14.178,11.815-25.206,25.206-25.206
	c14.178,0,25.206,11.815,25.206,25.206S269.785,138.634,255.606,138.634z M255.606,103.188c-5.514,0-9.452,4.726-9.452,9.452
	s4.726,9.452,9.452,9.452c5.514,0,9.452-4.726,9.452-9.452S261.12,103.188,255.606,103.188z"/>
<polygon style="fill:#F05F50;" points="213.858,411.175 213.858,330.831 171.323,330.831 171.323,411.175 147.692,411.175 
	191.803,466.314 236.702,411.175 "/>
<path style="fill:#183651;" d="M191.803,474.191c-2.363,0-4.726-0.788-6.302-3.151l-44.111-55.138
	c-1.575-2.363-2.363-5.514-0.788-8.665c1.575-3.151,3.938-4.726,7.089-4.726h16.542v-72.468c0-4.726,3.151-7.877,7.877-7.877h42.535
	c4.726,0,7.877,3.151,7.877,7.877v72.468h14.966c3.151,0,5.514,1.575,7.089,4.726c1.575,2.363,0.788,6.302-0.788,8.665
	L199.68,471.04C196.529,473.403,194.166,474.191,191.803,474.191z M164.234,419.052l27.569,34.658l27.569-34.658h-6.302
	c-4.726,0-7.877-3.151-7.877-7.877v-72.468h-26.782v72.468c0,4.726-3.151,7.877-7.877,7.877H164.234z"/>
<polygon style="fill:#FCBD5E;" points="297.354,385.969 297.354,466.314 339.102,466.314 339.102,385.969 363.52,385.969 
	318.621,330.831 274.511,385.969 "/>
<g>
	<path style="fill:#183651;" d="M339.102,474.191h-42.535c-4.726,0-7.877-3.151-7.877-7.877v-72.468h-14.966
		c-3.151,0-5.514-1.575-7.089-4.726c-1.575-2.363-0.788-6.302,0.788-8.665l44.111-55.138c3.151-3.938,9.452-3.938,12.603,0
		l43.323,53.563c1.575,1.575,2.363,3.938,2.363,6.302c0,4.726-3.938,7.877-7.877,7.877l0,0h-16.542v72.468
		c0,2.363-0.788,3.938-2.363,5.514C343.04,473.403,341.465,474.191,339.102,474.191z M305.231,458.437h26.782v-72.468
		c0-4.726,3.151-7.877,7.877-7.877h7.877l-27.569-34.658l-27.569,34.658h6.302c4.726,0,7.877,3.151,7.877,7.877v72.468H305.231z"/>
	<path style="fill:#183651;" d="M443.077,474.191c-4.726,0-7.877-3.151-7.877-7.877v-38.597l-37.809-46.474
		c-0.788-1.575-1.575-3.151-1.575-4.726v-85.071c0-4.726,3.151-7.877,7.877-7.877s7.877,3.151,7.877,7.877v81.92l37.809,46.474
		c0.788,1.575,1.575,3.151,1.575,4.726v40.96C450.954,471.04,447.803,474.191,443.077,474.191z"/>
</g>
<circle style="fill:#FFFFFF;" cx="443.077" cy="483.643" r="17.329"/>
<g>
	<path style="fill:#183651;" d="M443.077,509.637c-14.178,0-25.206-11.815-25.206-25.206c0-14.178,11.815-25.206,25.206-25.206
		c14.178,0,25.206,11.815,25.206,25.206C469.071,497.822,457.255,509.637,443.077,509.637z M443.077,474.191
		c-5.514,0-9.452,4.726-9.452,9.452s4.726,9.452,9.452,9.452c5.514,0,9.452-4.726,9.452-9.452S448.591,474.191,443.077,474.191z"/>
	<path style="fill:#183651;" d="M67.348,474.191c-4.726,0-7.877-3.151-7.877-7.877v-40.96c0-1.575,0.788-3.938,1.575-4.726
		l37.809-46.474v-82.708c0-4.726,3.151-7.877,7.877-7.877s7.877,3.151,7.877,7.877v85.071c0,1.575-0.788,3.938-1.575,4.726
		l-37.809,46.474v38.597C75.225,471.04,72.074,474.191,67.348,474.191z"/>
</g>
<circle style="fill:#FFFFFF;" cx="67.348" cy="483.643" r="17.329"/>
<g>
	<path style="fill:#183651;" d="M67.348,509.637c-14.178,0-25.206-11.815-25.206-25.206c0-14.178,11.815-25.206,25.206-25.206
		s25.206,11.815,25.206,25.206C93.342,497.822,81.526,509.637,67.348,509.637z M67.348,474.191c-5.514,0-9.452,4.726-9.452,9.452
		s4.726,9.452,9.452,9.452c5.514,0,9.452-4.726,9.452-9.452S72.862,474.191,67.348,474.191z"/>
	<rect x="139.815" y="244.972" style="fill:#183651;" width="15.754" height="15.754"/>
	<rect x="183.138" y="244.972" style="fill:#183651;" width="15.754" height="15.754"/>
	<rect x="226.462" y="244.972" style="fill:#183651;" width="15.754" height="15.754"/>
	<rect x="268.997" y="244.972" style="fill:#183651;" width="15.754" height="15.754"/>
	<rect x="312.32" y="244.972" style="fill:#183651;" width="15.754" height="15.754"/>
	<rect x="354.855" y="244.972" style="fill:#183651;" width="15.754" height="15.754"/>
</g>
<g>
</g>
<g>
</g>
<g>
</g>
<g>
</g>
<g>
</g>
<g>
</g>
<g>
</g>
<g>
</g>
<g>
</g>
<g>
</g>
<g>
</g>
<g>
</g>
<g>
</g>
<g>
</g>
<g>
</g>
</svg>
