<svg id="Layer_5" enable-background="new 0 0 64 64" height="512" viewBox="0 0 64 64" width="512" xmlns="http://www.w3.org/2000/svg"><g><g><g><path d="m60 2 2 4h-32l2-4z" fill="#aab2bd"/></g><g><path d="m29.33 44h2.67c3.31 0 6-2.69 6-6h24v14h-30.65c.4-.38.65-.92.65-1.5v-1c0-.89-.58-1.69-1.43-1.97-.57-.19-1.04-.62-1.26-1.18-.05-.12-.1-.24-.15-.36-.24-.55-.21-1.18.06-1.72.04-.09.08-.18.11-.27z" fill="#aab2bd"/></g><g><path d="m30 6h32v32h-32z" fill="#969faa"/></g><g><path d="m52 42h6v6h-6z" fill="#ff826e"/></g><g><path d="m42 42h6v6h-6z" fill="#ff826e"/></g><g><path d="m25.73 40.78c-.29.15-.61.22-.93.22-.27 0-.54-.05-.79-.16-.12-.05-.24-.1-.36-.15-.56-.22-.99-.69-1.18-1.26-.28-.85-1.08-1.43-1.97-1.43h-1c-.89 0-1.69.58-1.97 1.43-.19.57-.62 1.04-1.18 1.26-.12.05-.24.1-.36.15-.55.24-1.18.21-1.72-.06-.3-.15-.62-.23-.94-.23-.53 0-1.06.21-1.46.61l-.71.71c-.56.56-.75 1.39-.49 2.13h-2.67c-3.31 0-6-2.69-6-6s2.69-6 6-6h.05c.51-5.6 5.21-10 10.95-10s10.43 4.39 10.94 10c.01.12.02.24.03.36.63-.23 1.32-.36 2.03-.36 3.31 0 6 2.69 6 6s-2.69 6-6 6h-2.67c.08-.22.12-.44.12-.67 0-.53-.21-1.06-.61-1.46l-.71-.71c-.63-.63-1.6-.79-2.4-.38z" fill="#e6e9ed"/></g><g><path d="m32 49.5v1c0 .58-.25 1.12-.65 1.5-.22.21-.48.37-.78.47-.57.19-1.04.62-1.26 1.18-.05.12-.1.24-.15.36-.11.25-.16.52-.16.79 0 .32.07.64.22.93.41.8.25 1.77-.38 2.4l-.71.71c-.4.4-.93.61-1.46.61-.32 0-.64-.08-.94-.23-.54-.27-1.17-.3-1.72-.06-.12.05-.24.1-.36.15-.56.22-.99.69-1.18 1.26-.28.85-1.08 1.43-1.97 1.43h-1c-.89 0-1.69-.58-1.97-1.43-.19-.57-.62-1.04-1.18-1.26-.12-.05-.24-.1-.36-.15-.25-.11-.52-.16-.79-.16-.32 0-.64.07-.93.22-.8.41-1.77.25-2.4-.38l-.71-.71c-.4-.4-.61-.93-.61-1.46 0-.32.08-.64.23-.94.27-.54.3-1.17.06-1.72-.05-.12-.1-.24-.15-.36-.22-.56-.69-.99-1.26-1.18-.85-.28-1.43-1.08-1.43-1.97v-1c0-.89.58-1.69 1.43-1.97.57-.19 1.04-.62 1.26-1.18l.15-.36c.11-.25.16-.52.16-.79 0-.32-.07-.64-.22-.93-.04-.09-.08-.18-.11-.27-.26-.74-.07-1.57.49-2.13l.71-.71c.4-.4.93-.61 1.46-.61.32 0 .64.08.94.23.54.27 1.17.3 1.72.06.12-.05.24-.1.36-.15.56-.22.99-.69 1.18-1.26.28-.85 1.08-1.43 1.97-1.43h1c.89 0 1.69.58 1.97 1.43.19.57.62 1.04 1.18 1.26.12.05.24.1.36.15.25.11.52.16.79.16.32 0 .64-.07.93-.22.8-.41 1.77-.25 2.4.38l.71.71c.4.4.61.93.61 1.46 0 .23-.04.45-.12.67-.03.09-.07.18-.11.27-.27.54-.3 1.17-.06 1.72.05.12.1.24.15.36.22.56.69.99 1.26 1.18.85.28 1.43 1.08 1.43 1.97zm-6 .5c0-3.31-2.69-6-6-6s-6 2.69-6 6 2.69 6 6 6 6-2.69 6-6z" fill="#ffc729"/></g><g><path d="m20 44c3.31 0 6 2.69 6 6s-2.69 6-6 6-6-2.69-6-6 2.69-6 6-6zm2 6c0-1.1-.9-2-2-2s-2 .9-2 2 .9 2 2 2 2-.9 2-2z" fill="#fcd770"/></g></g><g><path d="m20 43c-3.86 0-7 3.14-7 7s3.14 7 7 7 7-3.14 7-7-3.14-7-7-7zm0 12c-2.757 0-5-2.243-5-5s2.243-5 5-5 5 2.243 5 5-2.243 5-5 5z"/><path d="m20 47c-1.654 0-3 1.346-3 3s1.346 3 3 3 3-1.346 3-3-1.346-3-3-3zm0 4c-.551 0-1-.449-1-1s.449-1 1-1 1 .449 1 1-.449 1-1 1z"/><path d="m63 5.764-2.382-4.764h-29.236l-2.382 4.764v20.634c-2.152-3.258-5.839-5.398-10-5.398-5.958 0-10.902 4.263-11.837 10.05-3.467.415-6.163 3.374-6.163 6.95 0 3.86 3.14 7 7 7h1.959c.041.203.044.408-.036.595-.056.129-.11.26-.161.39-.108.28-.345.497-.648.596-1.264.416-2.114 1.59-2.114 2.921v.996c0 1.331.85 2.505 2.116 2.921.302.099.538.316.646.594.051.132.104.263.161.393.118.273.104.591-.038.873-.601 1.188-.372 2.62.57 3.561l.704.705c.942.941 2.373 1.171 3.561.57.282-.144.599-.157.874-.038.129.056.26.11.39.161.28.108.497.345.596.648.417 1.264 1.591 2.114 2.922 2.114h.996c1.331 0 2.505-.85 2.921-2.116.099-.302.316-.538.594-.646.132-.051.263-.104.393-.161.273-.119.592-.104.873.038 1.188.601 2.619.371 3.561-.57l.705-.704c.942-.941 1.171-2.373.57-3.561-.143-.282-.156-.6-.038-.874.056-.129.11-.26.161-.39.108-.28.345-.497.648-.596.3-.099.575-.243.822-.419h31.292zm-24.08 31.236c-.488-3.387-3.401-6-6.92-6-.335 0-.668.037-1 .086v-.086h1 29v6zm-7.92-8v-6h30v6zm0-8v-6h30v6zm0-8v-6h30v6zm28.382-10 1 2h-28.764l1-2zm-56.382 35c0-2.757 2.243-5 4.95-5.001l1.015.004.082-.91c.466-5.184 4.745-9.093 9.953-9.093 5.286 0 9.665 4.137 9.969 9.418l.077 1.337 1.261-.454c.554-.2 1.124-.301 1.693-.301 2.757 0 5 2.243 5 5s-2.243 5-5 5h-1.58c-.074-.679-.367-1.332-.876-1.84l-.704-.704c-.942-.942-2.373-1.171-3.561-.57-.281.143-.599.157-.874.038-.128-.056-.259-.109-.39-.161-.279-.108-.497-.345-.596-.648-.416-1.265-1.59-2.115-2.921-2.115h-.996c-1.331 0-2.505.85-2.921 2.116-.099.302-.316.538-.596.646-.131.051-.261.104-.391.161-.273.118-.591.105-.873-.038-1.188-.601-2.619-.372-3.561.57l-.704.704c-.509.509-.802 1.162-.876 1.841h-1.58c-2.757 0-5-2.243-5-5zm28 12.498c0 .465-.297.875-.74 1.021-.872.286-1.56.932-1.886 1.772-.042.107-.086.214-.131.318-.356.82-.325 1.757.087 2.572.21.415.13.915-.199 1.244l-.705.705c-.329.329-.83.409-1.244.199-.814-.412-1.752-.443-2.571-.087-.105.045-.212.089-.321.132-.839.326-1.484 1.014-1.771 1.887-.145.442-.556.739-1.021.739h-.996c-.465 0-.875-.297-1.021-.74-.286-.872-.932-1.56-1.772-1.886-.107-.042-.214-.086-.318-.131-.378-.165-.781-.247-1.186-.247-.473 0-.947.112-1.386.333-.416.209-.916.13-1.244-.199l-.705-.705c-.329-.329-.409-.829-.199-1.244.412-.815.443-1.752.087-2.571-.045-.105-.089-.212-.132-.321-.326-.839-1.014-1.484-1.887-1.771-.442-.144-.739-.555-.739-1.02v-.996c0-.465.297-.875.739-1.021.873-.286 1.561-.932 1.887-1.772.042-.107.086-.214.131-.318.356-.82.325-1.757-.087-2.572-.21-.415-.13-.916.199-1.245l.704-.704c.329-.33.829-.411 1.245-.199.815.412 1.754.443 2.571.087.106-.046.213-.09.32-.131.839-.327 1.485-1.015 1.772-1.887.145-.443.556-.74 1.021-.74h.996c.465 0 .875.297 1.021.74.287.872.932 1.56 1.771 1.886.107.042.214.086.319.131.819.356 1.757.324 2.572-.087.414-.211.915-.13 1.245.199l.704.704c.329.329.409.83.199 1.245-.412.815-.443 1.752-.087 2.571.045.105.089.212.132.321.326.839 1.014 1.484 1.887 1.771.442.145.739.556.739 1.021zm1.958.502c.027-.164.042-.332.042-.502v-.996c0-1.331-.85-2.505-2.116-2.921-.302-.099-.538-.316-.646-.594-.051-.132-.104-.263-.161-.393-.081-.186-.077-.391-.036-.594h1.959c3.519 0 6.432-2.613 6.92-6h22.08v12z"/><circle cx="34" cy="10" r="1"/><circle cx="38" cy="10" r="1"/><circle cx="42" cy="10" r="1"/><circle cx="58" cy="18" r="1"/><circle cx="54" cy="18" r="1"/><circle cx="50" cy="18" r="1"/><circle cx="34" cy="26" r="1"/><circle cx="38" cy="26" r="1"/><circle cx="42" cy="26" r="1"/><circle cx="58" cy="34" r="1"/><circle cx="54" cy="34" r="1"/><circle cx="50" cy="34" r="1"/><path d="m51 49h8v-8h-8zm2-6h4v4h-4z"/><path d="m41 49h8v-8h-8zm2-6h4v4h-4z"/><path d="m6 6.303v12.697h2v-12.697l2.168 3.252 1.664-1.11-4.832-7.248-4.832 7.248 1.664 1.11z"/><path d="m11.832 12.445-1.664 1.11 4.832 7.248 4.832-7.248-1.664-1.11-2.168 3.252v-12.697h-2v12.697z"/><path d="m22 6.303v12.697h2v-12.697l2.168 3.252 1.664-1.11-4.832-7.248-4.832 7.248 1.664 1.11z"/><path d="m19 27v-2c-4.411 0-8 3.589-8 8h2c0-3.309 2.691-6 6-6z"/></g></g></svg>