<svg enable-background="new 0 0 64 64" height="512" viewBox="0 0 64 64" width="512" xmlns="http://www.w3.org/2000/svg"><g id="Icons"><g><g><path d="m42.145 13.629c-2.761-2.267-6.294-3.629-10.145-3.629-8.837 0-16 7.163-16 16 0 8.837 7.163 16 16 16s16-7.163 16-16c0-1.862-.334-3.642-.919-5.304-2.577-1.464-4.436-4.037-4.936-7.067z" fill="#fab400"/></g><g><path d="m8 42h6v14h-6z" fill="#64c8f0"/></g><g><path d="m8 42h2v14h-2z" fill="#46aad2"/></g><g><path d="m50.876 48.141-14.505 1.813c-.247.031-.496.046-.745.046h-5.626c-1.105 0-2-.895-2-2l8.392-1.678c.935-.187 1.608-1.008 1.608-1.962v-.36h-24v8l15.964 3.547c1.335.297 2.724.246 4.034-.147l17.289-5.187c.423-.126.713-.515.713-.957v-.123c0-.602-.527-1.067-1.124-.992z" fill="#f0c8a0"/></g><g><path d="m20 26c0-8.158 6.11-14.876 14-15.862-.657-.082-1.321-.138-2-.138-8.837 0-16 7.163-16 16 0 8.837 7.163 16 16 16 .679 0 1.343-.056 2-.138-7.89-.986-14-7.704-14-15.862z" fill="#dc9600"/></g><g><circle cx="32" cy="26" fill="#be7800" r="10"/></g><g><path d="m35.2 22.571v-2.285h-2.133v-2.286h-2.134v2.286h-2.133v6.857h4.267v2.286h-4.267v2.285h2.133v2.286h2.134v-2.286h2.133v-6.857h-4.267v-2.286z" fill="#fab400"/></g><g><circle cx="52" cy="12" fill="#3cc8b4" r="8"/></g><g><path d="m46 12c0-4.079 3.055-7.438 7-7.931-.328-.041-.661-.069-1-.069-4.418 0-8 3.582-8 8s3.582 8 8 8c.339 0 .672-.028 1-.069-3.945-.493-7-3.852-7-7.931z" fill="#1eaa96"/></g><g><path d="m57 10-6 6-4-4 2-2 2 2 4-4z" fill="#f0f0f0"/></g></g></g></svg>