<svg height="512" viewBox="0 0 64 64" width="512" xmlns="http://www.w3.org/2000/svg"><g id="Data_Center-Server-Cloud-Network-Technology" data-name="Data Center-Server-Cloud-Network-Technology"><g fill="#ffa733"><path d="m11.707 46.707-1.414-1.414 3-3a1 1 0 0 1 .707-.293h8.22v2h-7.806z"/><path d="m10 36h12v2h-12z"/><path d="m52.293 46.707-2.707-2.707h-7.806v-2h8.22a1 1 0 0 1 .707.293l3 3z"/><path d="m42 36h12v2h-12z"/><path d="m40.293 53.707-3-3a1 1 0 0 1 -.293-.707v-4.81h2v4.4l2.707 2.707z"/><path d="m23.707 53.707-1.414-1.414 2.707-2.707v-4.4h2v4.814a1 1 0 0 1 -.293.707z"/><path d="m31 46h2v8h-2z"/></g><path d="m61 22a9 9 0 0 1 -9 9h-42a7 7 0 0 1 0-14 6.531 6.531 0 0 1 1 .08v-.08a6 6 0 0 1 10.1-4.38 10.988 10.988 0 0 1 20.6-3.8 6 6 0 0 1 10.3 4.18 9 9 0 0 1 9 9z" fill="#5aaae7"/><circle cx="59" cy="37" fill="#ff9811" r="2"/><circle cx="56" cy="49" fill="#ff9811" r="2"/><circle cx="44" cy="56" fill="#ff9811" r="2"/><path d="m43 37v5a2.5 2.5 0 0 1 -.22 1c-.59 1.33-2.35 2.47-4.78 3.19a22.627 22.627 0 0 1 -12 0c-2.43-.72-4.19-1.86-4.78-3.19a2.5 2.5 0 0 1 -.22-1v-7c0 2.76 4.92 5 11 5s11-2.24 11-5z" fill="#acabb1"/><path d="m32 23c-6.08 0-11 2.24-11 5 0 1.13.82 2.17 2.2 3a17.7 17.7 0 0 0 8.8 2 17.7 17.7 0 0 0 8.8-2c1.38-.83 2.2-1.87 2.2-3 0-2.76-4.92-5-11-5z" fill="#acabb1"/><circle cx="32" cy="59" fill="#ff9811" r="2"/><path d="m40.8 31a17.7 17.7 0 0 1 -8.8 2 17.7 17.7 0 0 1 -8.8-2c-1.38-.83-2.2-1.87-2.2-3v7c0 2.76 4.92 5 11 5s11-2.24 11-5v-7c0 1.13-.82 2.17-2.2 3z" fill="#d8d7da"/><circle cx="20" cy="56" fill="#ff9811" r="2"/><circle cx="8" cy="49" fill="#ff9811" r="2"/><circle cx="5" cy="37" fill="#ff9811" r="2"/><path d="m23 34h2v2h-2z" fill="#acabb1"/><path d="m27 35h2v2h-2z" fill="#acabb1"/><path d="m23 41h2v2h-2z" fill="#898890"/><path d="m27 42h2v2h-2z" fill="#898890"/><path d="m26 27h12v2h-12z" fill="#898890"/><path d="m47 12h2v2h-2z" fill="#96c8ef"/><path d="m43 12h2v2h-2z" fill="#96c8ef"/><path d="m52 28v-2a4 4 0 0 0 4-4h2a6.006 6.006 0 0 1 -6 6z" fill="#96c8ef"/></g></svg>