<svg id="Layer_5" enable-background="new 0 0 64 64" height="512" viewBox="0 0 64 64" width="512" xmlns="http://www.w3.org/2000/svg"><g><g><g><path d="m50.24 20.93-1.42.66c-.09-.04-.19-.07-.28-.11l-.54-1.48h-4l-.54 1.48c-.09.04-.19.07-.28.11l-1.42-.66-2.83 2.83.66 1.42c-.04.09-.07.19-.11.28l-1.48.54v2h-15v-2.13c.71-.18 1.33-.54 1.83-1.04.72-.73 1.17-1.73 1.17-2.83 0-2.21-1.79-4-4-4h-8.26c-.25 0-.49.01-.74.02v-1.02c0-.55-.45-1-1-1h-.93c1.38-2.39 3.97-4 6.93-4 .12 0 .24.01.36.02 1.35-5.74 6.49-10.02 12.64-10.02 5.49 0 10.18 3.4 12.09 8.2.61-.13 1.25-.2 1.91-.2 4.1 0 7.55 2.74 8.64 6.48.72-.31 1.52-.48 2.36-.48 3.31 0 6 2.69 6 6s-2.69 6-6 6h-2v-2l-1.48-.54c-.04-.09-.07-.19-.11-.28l.66-1.42z" fill="#e6e9ed"/></g><g><path d="m54 30-1.48.54c-.04.09-.07.19-.11.28l.66 1.42-2.83 2.83-1.42-.66c-.09.04-.19.07-.28.11l-.54 1.48h-4l-.54-1.48c-.09-.04-.19-.07-.28-.11l-1.42.66-2.83-2.83.66-1.42c-.04-.09-.07-.19-.11-.28l-1.48-.54v-2-2l1.48-.54c.04-.09.07-.19.11-.28l-.66-1.42 2.83-2.83 1.42.66c.09-.04.19-.07.28-.11l.54-1.48h4l.54 1.48c.09.04.19.07.28.11l1.42-.66 2.83 2.83-.66 1.42c.04.09.07.19.11.28l1.48.54v2zm-4-2c0-2.21-1.79-4-4-4s-4 1.79-4 4 1.79 4 4 4 4-1.79 4-4z" fill="#fcd770"/></g><g><path d="m34 58v1c0 1.66-1.34 3-3 3h-8.5c1.93 0 3.5-1.57 3.5-3.5 0-.17-.01-.34-.04-.5h6.04z" fill="#969faa"/></g><g><path d="m36 58h18v1c0 1.66-1.34 3-3 3h-20c1.66 0 3-1.34 3-3v-1z" fill="#aab2bd"/></g><g><path d="m36 40v18h-2-2v-17c0-.55.45-1 1-1z" fill="#aab2bd"/></g><g><path d="m54 41v17h-18v-18h17c.55 0 1 .45 1 1z" fill="#ccd1d9"/></g><g><circle cx="45" cy="46" fill="#69d6f4" r="2"/></g><g><path d="m24 53.06v2.28c-.45-.22-.96-.34-1.5-.34h-.05c-.93 0-1.82.37-2.48 1.03l-.97.97-6.02-.55c-.71-.07-1.38-.26-1.98-.57v6.12h-.06c-2.47 0-4.7-1-6.32-2.62s-2.62-3.85-2.62-6.32c0-2.3.86-4.42 2.29-6.04s3.43-2.74 5.71-3.02l3 4 3-4c2.28.28 4.28 1.4 5.71 3.02s2.29 3.74 2.29 6.04z" fill="#ff826e"/></g><g><path d="m22 18c2.21 0 4 1.79 4 4 0 1.1-.45 2.1-1.17 2.83-.5.5-1.12.86-1.83 1.04-.32.09-.65.13-1 .13h-9v-7.98c.25-.01.49-.02.74-.02z" fill="#656d78"/></g><g><path d="m10 36.87v4.13l-1.51-.75c-3.98-1.99-6.49-6.06-6.49-10.51 0-2.4.72-4.62 1.96-6.48 1.23-1.86 2.98-3.35 5.04-4.26v10.54c-1.2.69-2 1.98-2 3.46 0 1.86 1.27 3.43 3 3.87z" fill="#656d78"/></g><g><path d="m13 26v3.54c-.59-.34-1.27-.54-2-.54s-1.41.2-2 .54v-10.54-2c0-.55.45-1 1-1h1.07.93c.55 0 1 .45 1 1v1.02z" fill="#ffeaa7"/></g><g><path d="m13 29.54c1.2.69 2 1.98 2 3.46 0 2.21-1.79 4-4 4-.35 0-.68-.04-1-.13-1.73-.44-3-2.01-3-3.87 0-1.48.8-2.77 2-3.46.59-.34 1.27-.54 2-.54s1.41.2 2 .54z" fill="#fcd770"/></g><g><path d="m22.5 55c.54 0 1.05.12 1.5.34.36.17.69.41.97.69.53.52.88 1.21.99 1.97.03.16.04.33.04.5 0 1.93-1.57 3.5-3.5 3.5h-.5-11v-6.12c.6.31 1.27.5 1.98.57l6.02.55.97-.97c.66-.66 1.55-1.03 2.48-1.03z" fill="#f0d0b4"/></g><g><path d="m23 28v2.09c0 .59.18 1.17.5 1.67l1.24 1.85c.17.26.26.55.26.85 0 .85-.69 1.54-1.54 1.54h-1.46v2c0 1.66-1.34 3-3 3h-3v3l-3 4-3-4v-3-4.13c.32.09.65.13 1 .13 2.21 0 4-1.79 4-4 0-1.48-.8-2.77-2-3.46v-3.54h9c.35 0 .68-.04 1-.13z" fill="#f0d0b4"/></g></g><g><path d="m56 15c-.595 0-1.179.074-1.747.221-1.519-3.71-5.187-6.221-9.253-6.221-.445 0-.88.039-1.31.096-2.292-4.942-7.185-8.096-12.69-8.096-6.253 0-11.656 4.077-13.409 10.009-2.847.131-5.466 1.629-7.053 3.991h-.538c-1.103 0-2 .897-2 2v1.373c-4.271 2.16-7 6.549-7 11.371 0 4.857 2.699 9.225 7.044 11.397l.956.478v1.537c-4.618.993-8 5.105-8 9.906 0 5.48 4.458 9.938 9.938 9.938h11.062.5 28.5c2.206 0 4-1.794 4-4v-18c0-1.103-.897-2-2-2h-20c-1.103 0-2 .897-2 2v16h-4.277c-.326-.913-.925-1.698-1.723-2.232v-1.706c0-4.801-3.382-8.913-8-9.906v-1.156h1.999.003c1.067 0 2.071-.416 2.826-1.171.756-.756 1.172-1.761 1.172-2.829v-.999h.465c1.397 0 2.535-1.138 2.535-2.536 0-.502-.147-.988-.426-1.406l-1.238-1.857c-.22-.331-.336-.715-.336-1.11v-1.092h13v1.701l1.321.48-.596 1.273 3.82 3.82 1.273-.596.481 1.322h5.402l.479-1.321 1.273.596 3.82-3.82-.596-1.273 1.323-.481v-1.701h1c3.859 0 7-3.14 7-7s-3.141-7-7-7zm-44 2v11.101c-.323-.066-.658-.101-1-.101s-.677.035-1 .101v-11.101zm10 8h-8v-6h8c1.654 0 3 1.346 3 3s-1.346 3-3 3zm-14 8c0-1.654 1.346-3 3-3s3 1.346 3 3-1.346 3-3 3-3-1.346-3-3zm.938 6.352c-3.663-1.831-5.938-5.513-5.938-9.609 0-3.716 1.92-7.131 5-9.081v8.364c-1.207.913-2 2.347-2 3.974 0 2.045 1.237 3.802 3 4.576v1.806zm13.062 21.648h-10v-3.7c.29.067.584.122.889.149l6.487.589 1.306-1.306c.465-.465 1.11-.732 1.818-.732 1.379 0 2.5 1.121 2.5 2.5s-1.121 2.5-2.5 2.5zm4.238 0c.391-.583.629-1.268.711-2h6.051c0 1.103-.897 2-2 2zm24.762 0h-16.556c.344-.591.556-1.268.556-2h18c0 1.103-.897 2-2 2zm2-4h-16v-16h16zm-20-16h2v16h-2zm-10 12.063v.992c-.182-.022-.361-.055-.55-.055-1.202 0-2.333.468-3.183 1.318l-.644.644-5.554-.505c-2.319-.211-4.069-2.127-4.069-4.457h-2c0 2.302 1.182 4.324 3 5.473v4.467c-3.936-.466-7-3.818-7-7.877 0-3.903 2.787-7.232 6.567-7.974l3.433 4.578 3.433-4.579c3.78.742 6.567 4.072 6.567 7.975zm.465-18.062h-2.465v2.999c0 .534-.208 1.037-.586 1.415-.378.377-.879.585-1.413.585h-.001-6v2h2v1.667l-2 2.666-2-2.666v-5.667c2.757 0 5-2.243 5-5 0-1.627-.793-3.061-2-3.974v-2.026h8v3.092c0 .792.232 1.559.672 2.219l1.238 1.857c.059.088.09.19.09.297 0 .296-.24.536-.535.536zm29.535-5.702-.823.299-.443.204-.425 1.031.56 1.198-1.838 1.837-1.198-.561-1.08.446-.454 1.247h-2.598l-.3-.823-.202-.442-1.031-.427-1.198.561-1.838-1.837.56-1.198-.445-1.081-1.247-.454v-2.599l.823-.299.443-.204.425-1.031-.56-1.198 1.838-1.837 1.201.562 1.077-.447.454-1.246h2.598l.3.823.212.447 1.019.423 1.201-.562 1.838 1.837-.56 1.198.445 1.081 1.246.454zm3-2.299h-1v-1.701l-1.321-.48.596-1.273-3.82-3.82-1.273.595-.481-1.321h-5.402l-.479 1.321-1.273-.595-3.82 3.82.596 1.273-1.323.48v1.701h-13v-.424c1.763-.774 3-2.531 3-4.576 0-2.757-2.243-5-5-5h-8c0-.778-.451-1.445-1.1-1.776 1.31-1.393 3.15-2.224 5.1-2.224.054 0 .106.004.159.008l.981.046.19-.807c1.281-5.445 6.079-9.247 11.67-9.247 4.58 0 8.667 2.547 10.7 6.571-3.895 1.368-6.7 5.072-6.7 9.429h2c0-4.411 3.589-8 8-8 3.533 0 6.689 2.37 7.677 5.764l.315 1.085 1.038-.445c.626-.268 1.288-.404 1.97-.404 2.757 0 5 2.243 5 5s-2.243 5-5 5z"/><path d="m46 23c-2.757 0-5 2.243-5 5s2.243 5 5 5 5-2.243 5-5-2.243-5-5-5zm0 8c-1.654 0-3-1.346-3-3s1.346-3 3-3 3 1.346 3 3-1.346 3-3 3z"/><path d="m45 49v-2c-.552 0-1-.448-1-1s.448-1 1-1 1 .448 1 1h2c0-1.654-1.346-3-3-3s-3 1.346-3 3 1.346 3 3 3z"/><path d="m21.247 12.778 1.951.443c.831-3.662 4.04-6.221 7.802-6.221v-2c-4.702 0-8.713 3.199-9.753 7.778z"/></g></g></svg>