<svg id="Flat" xmlns="http://www.w3.org/2000/svg" viewBox="0 0 459.64 317.79"><defs><style>.cls-1{fill:#349966;}.cls-2{fill:#e44042;}.cls-3{fill:#a2c32a;}.cls-4{fill:#008051;}.cls-5{fill:#eebe33;}.cls-6{fill:#e88604;}.cls-7{fill:#8acce7;}.cls-8{fill:#379ec3;}.cls-9{fill:#2d80b3;}.cls-10{fill:#396795;}.cls-11{fill:#d1393b;}.cls-12{fill:#ff4155;}.cls-13{fill:#d3dcfb;}.cls-14{fill:#bec8f7;}.cls-15{fill:#1c2e7a;}.cls-16{fill:#112360;}.cls-17{fill:#ffb332;}.cls-18{fill:#ffdd40;}.cls-19{fill:#ff9100;}.cls-20{fill:#e9efff;}</style></defs><path class="cls-1" d="M363.23,179.08v11a16.44,16.44,0,0,1-16.44,16.44H215.29c-9.07,0-15.89-7.36-15.89-16.44v-11a17.48,17.48,0,0,1,.62-4.61,15.71,15.71,0,0,1,15.27-11.82h131.5a16.43,16.43,0,0,1,16.44,16.43Z" transform="translate(-46.53 -42.1)"/><circle class="cls-2" cx="185.2" cy="142.46" r="5.48"/><circle class="cls-3" cx="201.64" cy="142.46" r="5.48"/><path class="cls-4" d="M313.92,179.08h32.87v11H313.92Z" transform="translate(-46.53 -42.1)"/><path class="cls-5" d="M220.77,184.56a5.48,5.48,0,0,1-5.48,5.48h-.15a5.47,5.47,0,1,1,5.63-5.47Z" transform="translate(-46.53 -42.1)"/><path class="cls-1" d="M215.84,102.37h131a16.44,16.44,0,0,1,16.44,16.44v11a16.44,16.44,0,0,1-16.44,16.44H215.29a15.9,15.9,0,0,1-15.89-15.89h0V118.81A16.44,16.44,0,0,1,215.84,102.37Z" transform="translate(-46.53 -42.1)"/><circle class="cls-5" cx="168.76" cy="82.19" r="5.48"/><circle class="cls-2" cx="185.2" cy="82.19" r="5.48"/><circle class="cls-3" cx="201.64" cy="82.19" r="5.48"/><path class="cls-4" d="M313.92,118.81h32.87v11H313.92Z" transform="translate(-46.53 -42.1)"/><path class="cls-1" d="M215.84,42.1h131a16.44,16.44,0,0,1,16.44,16.44v11a16.44,16.44,0,0,1-16.44,16.44H215.29A15.9,15.9,0,0,1,199.4,70.05h0V58.54A16.44,16.44,0,0,1,215.84,42.1Z" transform="translate(-46.53 -42.1)"/><circle class="cls-5" cx="168.76" cy="21.92" r="5.48"/><circle class="cls-2" cx="185.2" cy="21.92" r="5.48"/><circle class="cls-3" cx="201.64" cy="21.92" r="5.48"/><path class="cls-4" d="M313.92,58.54h32.87v11H313.92Z" transform="translate(-46.53 -42.1)"/><path class="cls-4" d="M215.29,146.21h27.4v16.44h-27.4Z" transform="translate(-46.53 -42.1)"/><path class="cls-4" d="M215.29,85.94h27.4v16.43h-27.4Z" transform="translate(-46.53 -42.1)"/><path class="cls-4" d="M319.4,146.21h27.39v16.44H319.4Z" transform="translate(-46.53 -42.1)"/><path class="cls-4" d="M215.29,206.48h27.4v16.44h-27.4Z" transform="translate(-46.53 -42.1)"/><path class="cls-4" d="M319.4,206.48h27.39v16.44H319.4Z" transform="translate(-46.53 -42.1)"/><path class="cls-4" d="M319.4,85.94h27.39v16.43H319.4Z" transform="translate(-46.53 -42.1)"/><path class="cls-4" d="M215.84,195.52v11h-.55c-9.07,0-15.89-7.36-15.89-16.44v-11a17.48,17.48,0,0,1,.62-4.61A22,22,0,0,1,215.84,195.52Z" transform="translate(-46.53 -42.1)"/><path class="cls-6" d="M215.14,190a5.47,5.47,0,0,1-5.33-5.61,5.56,5.56,0,0,1,.94-2.92A21.84,21.84,0,0,1,215.14,190Z" transform="translate(-46.53 -42.1)"/><path class="cls-7" d="M237.76,168.12a16.45,16.45,0,0,1-16.44,16.44H150.09a16.44,16.44,0,1,1,0-32.87,14.92,14.92,0,0,1,1.5.07,11,11,0,0,1,16.3-14.11,27.4,27.4,0,0,1,53.43,8.56,28,28,0,0,1-.55,5.48h.55A16.45,16.45,0,0,1,237.76,168.12Z" transform="translate(-46.53 -42.1)"/><path class="cls-8" d="M168.35,147.71l-7.3,8.16a16.41,16.41,0,0,0-9.46-4.11,11,11,0,0,1-.06-11A27.34,27.34,0,0,1,168.35,147.71Z" transform="translate(-46.53 -42.1)"/><path class="cls-9" d="M62.42,299.63h131.5a16.43,16.43,0,0,1,16.44,16.43v11a16.44,16.44,0,0,1-16.44,16.44H62.42a15.89,15.89,0,0,1-15.89-15.89V315.52a15.88,15.88,0,0,1,15.89-15.89Z" transform="translate(-46.53 -42.1)"/><circle class="cls-5" cx="15.89" cy="279.44" r="5.48"/><circle class="cls-2" cx="32.33" cy="279.44" r="5.48"/><circle class="cls-3" cx="48.77" cy="279.44" r="5.48"/><path class="cls-10" d="M161.05,316.06h32.87v11H161.05Z" transform="translate(-46.53 -42.1)"/><path class="cls-9" d="M62.42,239.35h131.5a16.44,16.44,0,0,1,16.44,16.44v11a16.44,16.44,0,0,1-16.44,16.44H62.42A15.89,15.89,0,0,1,46.53,267.3V255.25a15.89,15.89,0,0,1,15.89-15.9Z" transform="translate(-46.53 -42.1)"/><circle class="cls-5" cx="15.89" cy="219.17" r="5.48"/><circle class="cls-2" cx="32.33" cy="219.17" r="5.48"/><circle class="cls-3" cx="48.77" cy="219.17" r="5.48"/><path class="cls-10" d="M161.05,255.79h32.87v11H161.05Z" transform="translate(-46.53 -42.1)"/><path class="cls-9" d="M62.42,179.08h131.5a16.44,16.44,0,0,1,16.44,16.44v11a16.44,16.44,0,0,1-16.44,16.44H62.42A15.89,15.89,0,0,1,46.53,207V195a15.89,15.89,0,0,1,15.89-15.89Z" transform="translate(-46.53 -42.1)"/><circle class="cls-5" cx="15.89" cy="158.9" r="5.48"/><circle class="cls-2" cx="32.33" cy="158.9" r="5.48"/><circle class="cls-3" cx="48.77" cy="158.9" r="5.48"/><path class="cls-10" d="M161.05,195.52h32.87v11H161.05Z" transform="translate(-46.53 -42.1)"/><path class="cls-10" d="M62.42,283.19h27.4v16.44H62.42Z" transform="translate(-46.53 -42.1)"/><path class="cls-10" d="M62.42,222.92h27.4v16.43H62.42Z" transform="translate(-46.53 -42.1)"/><path class="cls-10" d="M166.53,283.19h27.39v16.44H166.53Z" transform="translate(-46.53 -42.1)"/><path class="cls-10" d="M62.42,343.46h27.4V359.9H62.42Z" transform="translate(-46.53 -42.1)"/><path class="cls-10" d="M166.53,343.46h27.39V359.9H166.53Z" transform="translate(-46.53 -42.1)"/><path class="cls-10" d="M166.53,222.92h27.39v16.43H166.53Z" transform="translate(-46.53 -42.1)"/><path class="cls-7" d="M270.63,250.31a16.44,16.44,0,0,1-16.44,16.44H183a16.44,16.44,0,0,1,0-32.87c.51,0,1,0,1.51.06a11,11,0,0,1,16.29-14.11,27.41,27.41,0,0,1,52.88,14h.55A16.44,16.44,0,0,1,270.63,250.31Z" transform="translate(-46.53 -42.1)"/><path class="cls-8" d="M201.23,229.9l-7.31,8.16a16.4,16.4,0,0,0-9.45-4.12,11,11,0,0,1-.06-11A27.37,27.37,0,0,1,201.23,229.9Z" transform="translate(-46.53 -42.1)"/><path class="cls-2" d="M172,64V75H78.86v43.83h-11V69.5A5.48,5.48,0,0,1,73.38,64H172Z" transform="translate(-46.53 -42.1)"/><path class="cls-2" d="M67.9,129.77h11v11h-11Z" transform="translate(-46.53 -42.1)"/><path class="cls-2" d="M67.9,151.69h11v11h-11Z" transform="translate(-46.53 -42.1)"/><path class="cls-11" d="M172,64V75H156.51L162,69.5,156.51,64Z" transform="translate(-46.53 -42.1)"/><path class="cls-2" d="M159.44,95.29l-7.75-7.75,18.05-18-18.05-18,7.75-7.75,21.92,21.91a5.48,5.48,0,0,1,0,7.75h0Z" transform="translate(-46.53 -42.1)"/><path class="cls-2" d="M341.86,283.19V332.5a5.48,5.48,0,0,1-5.48,5.48H237.76V327H330.9V283.19Z" transform="translate(-46.53 -42.1)"/><path class="cls-2" d="M330.9,261.27h11v11h-11Z" transform="translate(-46.53 -42.1)"/><path class="cls-2" d="M330.9,239.35h11v11h-11Z" transform="translate(-46.53 -42.1)"/><path class="cls-11" d="M247.78,332.5l5.47,5.48H237.76V327h15.49Z" transform="translate(-46.53 -42.1)"/><path class="cls-2" d="M250.32,358.29,228.4,336.38a5.48,5.48,0,0,1,0-7.75h0l21.92-21.92,7.75,7.75-18,18,18,18Z" transform="translate(-46.53 -42.1)"/><path class="cls-12" d="M395.62,90.87a110.56,110.56,0,0,0-31.38,216.56H427A110.56,110.56,0,0,0,395.62,90.87Z" transform="translate(-46.53 -42.1)"/><path class="cls-13" d="M412.9,260V248.48H378.35V260a86.71,86.71,0,0,1-14.11,47.42,111.22,111.22,0,0,0,62.77,0A86.71,86.71,0,0,1,412.9,260Z" transform="translate(-46.53 -42.1)"/><path class="cls-14" d="M395.62,260V248.48H378.35V260a86.71,86.71,0,0,1-14.11,47.42A112.08,112.08,0,0,0,380,310.85C390.55,296.71,395.62,276.45,395.62,260Z" transform="translate(-46.53 -42.1)"/><path class="cls-15" d="M506.17,237.68,395.62,255,285.08,237.68V125.42a8.64,8.64,0,0,1,8.64-8.64H497.53a8.64,8.64,0,0,1,8.64,8.64Z" transform="translate(-46.53 -42.1)"/><path class="cls-16" d="M324.56,116.78H293.72a8.64,8.64,0,0,0-8.64,8.64V237.68l39.48,6.17V129.73a6.48,6.48,0,1,1,0-12.95Z" transform="translate(-46.53 -42.1)"/><path class="cls-17" d="M395.62,255l97.59-15.25v-110H298v110Z" transform="translate(-46.53 -42.1)"/><path class="cls-18" d="M318.05,241.41H465.17c9.56-17.37,10.63-32.84,4.37-44.3-5.59-10.2-15.33-21-20.34-26.17a2.67,2.67,0,0,0-4.57,1.52c-1.77,14.14,13.62,33.8-2.87,45.75-18.43,13.36-34.1-.53-26.62-17.62s16.38-36.69,7.48-56.27C416.49,130.84,405,118,398.38,105.54a42.83,42.83,0,0,1-4.57-12.43,2.66,2.66,0,0,0-4.46-1.5,20.7,20.7,0,0,0-5.11,8c-1.67,4.61-2.29,11-.17,19.54,5.87,23.78,19.5,41.93,2.94,51.55s-24.31-10.42-19.5-21.1a17.46,17.46,0,0,0-.21-14.12,2.67,2.67,0,0,0-5,.3c-1.52,5.53-5.32,13.69-14.78,22.1-16.83,15,8.27,34.19,9.34,49.14,1,13.93-18.13,21.37-27.89,4.69a2.67,2.67,0,0,0-4.65,0,51,51,0,0,0-6.45,26.56c.05,1.08.12,2.14.22,3.16Z" transform="translate(-46.53 -42.1)"/><path class="cls-19" d="M408.09,172.14a2.16,2.16,0,0,1,4.26-.08c1.58,8.59,1.34,21.27-7.62,35.09-16.24,25,15.07,34.26,15.07,34.26H358.65s21.16-7.73,14.88-26.4a45.42,45.42,0,0,1-.32-27.08,2.16,2.16,0,0,1,4.12-.09c5.26,15.39,27,12,30.76-15.7Z" transform="translate(-46.53 -42.1)"/><path class="cls-20" d="M497.53,272.23H293.72a8.64,8.64,0,0,1-8.64-8.64V237.68H506.17v25.91A8.64,8.64,0,0,1,497.53,272.23Z" transform="translate(-46.53 -42.1)"/><path class="cls-13" d="M334,263.59V237.68h-49v25.91a8.64,8.64,0,0,0,8.64,8.64h49A8.64,8.64,0,0,1,334,263.59Z" transform="translate(-46.53 -42.1)"/><path class="cls-13" d="M411.82,258.19H379.43a3.24,3.24,0,1,1,0-6.47h32.39a3.24,3.24,0,1,1,0,6.47Z" transform="translate(-46.53 -42.1)"/></svg>