<?xml version="1.0" encoding="iso-8859-1"?>
<!-- Generator: Adobe Illustrator 24.3.0, SVG Export Plug-In . SVG Version: 6.00 Build 0)  -->
<svg version="1.1" id="Capa_1" xmlns="http://www.w3.org/2000/svg" xmlns:xlink="http://www.w3.org/1999/xlink" x="0px" y="0px"
	 viewBox="675.5 224 450 400" style="enable-background:new 675.5 224 450 400;" xml:space="preserve">
<g>
	<path style="fill:#2AA0DA;" d="M855.742,395.307c0.827-2.481,1.378-5.238,1.378-7.994c0-12.681-10.2-23.156-23.156-23.156
		c-3.308,0-6.34,0.551-9.097,1.93c-5.789-11.027-17.367-18.745-30.599-18.745c-8.821,0-17.091,3.308-23.156,9.097
		c-2.481-2.205-5.789-3.308-9.648-3.308c-8.546,0-15.713,7.167-15.161,15.988c-11.854,1.93-20.123,13.508-17.367,25.912
		c-12.956,1.378-23.156,12.405-23.156,25.912c0,14.335,11.578,25.912,25.912,25.912h118.811c14.335,0,25.912-11.578,25.912-25.912
		C877.243,407.988,867.871,397.513,855.742,395.307z"/>
	<path style="fill:#2AA0DA;" d="M851.055,449.613H732.244c-15.989,0-28.669-12.956-28.669-28.669
		c0-13.783,9.648-25.361,22.604-28.118c-0.551-5.513,0.827-11.302,3.859-15.988c3.308-4.962,8.27-8.27,13.783-9.924
		c0.276-4.135,1.93-7.994,4.962-11.027c3.308-3.584,8.27-5.513,12.956-5.513c3.308,0,6.616,0.827,9.373,2.757
		c6.616-5.238,14.886-8.27,23.431-8.27c13.232,0,25.085,6.892,31.701,17.918c2.757-1.103,5.238-1.378,7.994-1.378
		c14.334,0,25.912,11.578,25.912,25.912c0,1.93-0.276,4.135-0.827,6.065c12.129,3.584,20.675,14.61,20.675,27.566
		C880,436.657,867.044,449.613,851.055,449.613z M762.016,355.887c-3.308,0-6.616,1.378-9.097,3.859
		c-2.481,2.481-3.584,5.789-3.308,9.373c0,1.378-0.827,2.757-2.205,2.757c-4.962,0.827-9.648,3.859-12.405,7.994
		c-2.757,4.411-3.859,9.373-2.757,14.61c0.276,0.827,0,1.654-0.551,2.205s-1.103,1.103-1.93,1.103
		c-11.854,1.378-20.675,11.302-20.675,23.156c0,12.956,10.475,23.156,23.156,23.156h118.811c12.956,0,23.156-10.475,23.156-23.156
		c0-11.302-7.994-20.95-19.296-22.88c-0.827-0.276-1.378-0.551-1.93-1.378c-0.276-0.827-0.551-1.654-0.276-2.205
		c0.827-2.205,1.378-4.686,1.378-7.167c0-11.302-9.097-20.399-20.399-20.399c-2.757,0-5.513,0.551-7.994,1.654
		c-1.378,0.551-2.757,0-3.584-1.378c-5.513-10.475-16.264-17.091-28.118-17.091c-7.994,0-15.437,3.032-21.226,8.27
		c-1.103,0.827-2.481,0.827-3.584,0C767.529,356.714,764.773,355.887,762.016,355.887z"/>
	<path style="display:none;fill:#FFFFFF;" d="M734.174,444.375h114.952c10.475,0,19.848-8.546,18.745-19.848
		c-0.827-9.097-7.994-16.264-16.815-17.642l-5.513-1.103l2.205-5.789c3.859-10.475-3.308-21.226-13.508-22.329
		c-5.238-0.551-8.27,1.103-13.232,3.032l-2.205-4.411c-4.686-9.924-14.886-15.713-25.912-15.161
		c-10.475,0.551-16.54,6.892-20.123,10.2c-3.584-2.757-5.238-4.962-9.373-4.962c-5.238,0-9.373,4.135-9.373,9.373l0.276,4.962
		l-4.686,0.827c-7.443,1.103-12.68,7.443-12.68,15.161c0,2.481,0.551,4.135,1.654,9.097l-5.238,0.551
		c-9.648,1.103-17.918,9.097-18.194,19.572C715.153,436.105,723.975,444.375,734.174,444.375z"/>
</g>
<g>
	<g>

			<line style="fill:none;stroke:#60605F;stroke-width:5;stroke-linecap:round;stroke-miterlimit:10;" x1="861.033" y1="365.339" x2="1014.106" y2="284"/>
		<g>
			<polygon style="fill:#60605F;" points="865.568,369.987 853.111,369.548 859.719,358.979 			"/>
		</g>
	</g>
</g>
<g>
	<g>

			<line style="fill:none;stroke:#FF4155;stroke-width:5;stroke-linecap:round;stroke-miterlimit:10;" x1="875.81" y1="448.801" x2="1002.447" y2="526.723"/>
		<g>
			<polygon style="fill:#FF4155;" points="874.097,455.065 868.17,444.1 880.629,444.448 			"/>
		</g>
	</g>
</g>
<g>
	<g>
		<path d="M993.277,327.21c0,1.081-0.819,1.702-2.413,1.702h-3.007v-6.302h2.827c1.449,0,2.26,0.612,2.26,1.629
			c0,0.684-0.352,1.161-0.847,1.404C992.809,325.842,993.277,326.373,993.277,327.21z M988.758,323.339v2.017h1.846
			c0.918,0,1.44-0.342,1.44-1.008c0-0.666-0.522-1.008-1.44-1.008H988.758z M992.368,327.138c0-0.729-0.541-1.053-1.54-1.053h-2.07
			v2.098h2.07C991.827,328.183,992.368,327.867,992.368,327.138z"/>
		<path d="M998.325,326.031v2.881h-0.819v-0.63c-0.288,0.432-0.819,0.685-1.566,0.685c-1.08,0-1.765-0.576-1.765-1.405
			c0-0.765,0.495-1.395,1.918-1.395h1.368v-0.171c0-0.729-0.423-1.152-1.278-1.152c-0.567,0-1.144,0.198-1.513,0.513l-0.36-0.648
			c0.495-0.396,1.207-0.612,1.972-0.612C997.587,324.095,998.325,324.726,998.325,326.031z M997.461,327.453v-0.666h-1.333
			c-0.854,0-1.098,0.333-1.098,0.738c0,0.477,0.396,0.774,1.053,0.774C996.731,328.299,997.245,328.002,997.461,327.453z"/>
		<path d="M999.512,326.526c0-1.422,1.054-2.431,2.521-2.431c0.855,0,1.566,0.351,1.945,1.017l-0.657,0.423
			c-0.307-0.468-0.774-0.684-1.297-0.684c-0.937,0-1.639,0.657-1.639,1.674c0,1.035,0.702,1.684,1.639,1.684
			c0.522,0,0.99-0.216,1.297-0.684l0.657,0.414c-0.379,0.666-1.09,1.026-1.945,1.026
			C1000.565,328.966,999.512,327.948,999.512,326.526z"/>
		<path d="M1006.883,326.688l-0.99,0.918v1.305h-0.864v-6.68h0.864v4.286l2.602-2.377h1.044l-2.007,1.972l2.205,2.8h-1.062
			L1006.883,326.688z"/>
		<path d="M1014.93,324.14v4.771h-0.819v-0.72c-0.351,0.495-0.945,0.774-1.62,0.774c-1.233,0-2.053-0.675-2.053-2.08v-2.746h0.864
			v2.647c0,0.936,0.468,1.404,1.287,1.404c0.9,0,1.477-0.558,1.477-1.584v-2.467H1014.93z"/>
		<path d="M1021.518,326.526c0,1.467-1.018,2.44-2.413,2.44c-0.675,0-1.269-0.261-1.665-0.774v2.467h-0.864v-6.518h0.828v0.756
			c0.387-0.531,0.999-0.801,1.701-0.801C1020.5,324.095,1021.518,325.067,1021.518,326.526z M1020.645,326.526
			c0-1.008-0.693-1.674-1.611-1.674c-0.909,0-1.603,0.666-1.603,1.674c0,1.018,0.693,1.684,1.603,1.684
			C1019.951,328.209,1020.645,327.543,1020.645,326.526z"/>
		<path d="M1028.915,326.031v2.881h-0.819v-0.63c-0.288,0.432-0.819,0.685-1.566,0.685c-1.08,0-1.765-0.576-1.765-1.405
			c0-0.765,0.495-1.395,1.918-1.395h1.368v-0.171c0-0.729-0.423-1.152-1.278-1.152c-0.567,0-1.144,0.198-1.513,0.513l-0.36-0.648
			c0.495-0.396,1.207-0.612,1.972-0.612C1028.177,324.095,1028.915,324.726,1028.915,326.031z M1028.051,327.453v-0.666h-1.333
			c-0.854,0-1.098,0.333-1.098,0.738c0,0.477,0.396,0.774,1.053,0.774C1027.321,328.299,1027.835,328.002,1028.051,327.453z"/>
		<path d="M1029.912,328.408l0.36-0.685c0.405,0.288,1.054,0.495,1.675,0.495c0.801,0,1.134-0.243,1.134-0.648
			c0-1.071-3.016-0.144-3.016-2.043c0-0.855,0.766-1.432,1.989-1.432c0.621,0,1.323,0.162,1.738,0.432l-0.369,0.684
			c-0.433-0.279-0.91-0.378-1.378-0.378c-0.756,0-1.125,0.279-1.125,0.657c0,1.125,3.024,0.207,3.024,2.062
			c0,0.864-0.792,1.414-2.062,1.414C1031.092,328.966,1030.309,328.723,1029.912,328.408z"/>
		<path d="M1041.227,326.031v2.881h-0.819v-0.63c-0.288,0.432-0.819,0.685-1.566,0.685c-1.08,0-1.765-0.576-1.765-1.405
			c0-0.765,0.495-1.395,1.918-1.395h1.368v-0.171c0-0.729-0.424-1.152-1.278-1.152c-0.567,0-1.144,0.198-1.513,0.513l-0.36-0.648
			c0.495-0.396,1.207-0.612,1.972-0.612C1040.488,324.095,1041.227,324.726,1041.227,326.031z M1040.362,327.453v-0.666h-1.333
			c-0.854,0-1.098,0.333-1.098,0.738c0,0.477,0.396,0.774,1.053,0.774C1039.633,328.299,1040.146,328.002,1040.362,327.453z"/>
		<path d="M1044.798,328.191l0.333-0.702c0.468,0.423,1.27,0.729,2.08,0.729c1.089,0,1.557-0.423,1.557-0.972
			c0-1.54-3.816-0.567-3.816-2.908c0-0.973,0.756-1.801,2.412-1.801c0.738,0,1.504,0.198,2.026,0.558l-0.298,0.72
			c-0.549-0.351-1.17-0.513-1.729-0.513c-1.071,0-1.53,0.45-1.53,1c0,1.54,3.817,0.576,3.817,2.89c0,0.963-0.774,1.792-2.439,1.792
			C1046.247,328.984,1045.302,328.66,1044.798,328.191z"/>
		<path d="M1055.131,326.814h-3.871c0.108,0.837,0.783,1.396,1.729,1.396c0.559,0,1.026-0.189,1.378-0.576l0.477,0.558
			c-0.432,0.504-1.089,0.774-1.881,0.774c-1.54,0-2.566-1.018-2.566-2.44c0-1.414,1.018-2.431,2.395-2.431
			c1.378,0,2.359,0.99,2.359,2.458C1055.149,326.625,1055.14,326.733,1055.131,326.814z M1051.26,326.193h3.062
			c-0.091-0.801-0.693-1.369-1.531-1.369C1051.962,324.824,1051.35,325.382,1051.26,326.193z"/>
		<path d="M1058.91,324.095v0.837c-0.071-0.009-0.135-0.009-0.198-0.009c-0.927,0-1.503,0.567-1.503,1.611v2.377h-0.864v-4.771
			h0.828v0.801C1057.479,324.383,1058.073,324.095,1058.91,324.095z"/>
		<path d="M1064.392,324.14l-2.089,4.771h-0.883l-2.088-4.771h0.899l1.639,3.826l1.675-3.826H1064.392z"/>
		<path d="M1065.047,322.664c0-0.315,0.252-0.567,0.585-0.567c0.334,0,0.586,0.243,0.586,0.549c0,0.324-0.243,0.576-0.586,0.576
			C1065.299,323.222,1065.047,322.979,1065.047,322.664z M1065.2,324.14h0.864v4.771h-0.864V324.14z"/>
		<path d="M1067.27,326.526c0-1.422,1.054-2.431,2.521-2.431c0.855,0,1.566,0.351,1.945,1.017l-0.657,0.423
			c-0.307-0.468-0.774-0.684-1.297-0.684c-0.937,0-1.639,0.657-1.639,1.674c0,1.035,0.702,1.684,1.639,1.684
			c0.522,0,0.99-0.216,1.297-0.684l0.657,0.414c-0.379,0.666-1.09,1.026-1.945,1.026
			C1068.323,328.966,1067.27,327.948,1067.27,326.526z"/>
		<path d="M1077.072,326.814h-3.871c0.108,0.837,0.783,1.396,1.729,1.396c0.559,0,1.026-0.189,1.378-0.576l0.477,0.558
			c-0.432,0.504-1.089,0.774-1.881,0.774c-1.54,0-2.566-1.018-2.566-2.44c0-1.414,1.018-2.431,2.395-2.431
			c1.378,0,2.359,0.99,2.359,2.458C1077.091,326.625,1077.081,326.733,1077.072,326.814z M1073.201,326.193h3.062
			c-0.091-0.801-0.693-1.369-1.531-1.369C1073.903,324.824,1073.291,325.382,1073.201,326.193z"/>
	</g>
</g>
<g>
	<g>
		<path style="fill:#FFFFFF;" d="M749.328,431.22c0,1.089-0.864,1.72-2.521,1.72h-3.259v-6.302h3.079
			c1.575,0,2.386,0.657,2.386,1.638c0,0.631-0.324,1.117-0.837,1.387C748.878,429.888,749.328,430.428,749.328,431.22z
			 M744.997,427.735v1.485h1.45c0.711,0,1.098-0.252,1.098-0.747s-0.387-0.738-1.098-0.738H744.997z M747.86,431.066
			c0-0.531-0.405-0.783-1.161-0.783h-1.702v1.558h1.702C747.455,431.841,747.86,431.606,747.86,431.066z"/>
		<path style="fill:#FFFFFF;" d="M755.213,428.096v4.844h-1.332v-0.576c-0.369,0.423-0.909,0.648-1.504,0.648
			c-1.215,0-2.07-0.685-2.07-2.179v-2.737h1.404v2.53c0,0.81,0.36,1.17,0.981,1.17c0.648,0,1.116-0.414,1.116-1.306v-2.395H755.213z
			"/>
		<path style="fill:#FFFFFF;" d="M756.048,432.489l0.469-1.009c0.432,0.279,1.089,0.469,1.684,0.469
			c0.647,0,0.891-0.171,0.891-0.441c0-0.792-2.926,0.018-2.926-1.918c0-0.918,0.828-1.566,2.242-1.566
			c0.666,0,1.404,0.153,1.863,0.424l-0.468,0.999c-0.478-0.271-0.955-0.36-1.396-0.36c-0.631,0-0.9,0.198-0.9,0.45
			c0,0.828,2.926,0.027,2.926,1.936c0,0.9-0.837,1.54-2.287,1.54C757.326,433.012,756.498,432.786,756.048,432.489z"/>
		<path style="fill:#FFFFFF;" d="M761.125,426.638c0-0.441,0.351-0.783,0.873-0.783c0.521,0,0.873,0.323,0.873,0.756
			c0,0.468-0.352,0.811-0.873,0.811C761.476,427.421,761.125,427.078,761.125,426.638z M761.296,428.096h1.404v4.844h-1.404V428.096
			z"/>
		<path style="fill:#FFFFFF;" d="M768.956,430.166v2.773h-1.404v-2.557c0-0.783-0.36-1.144-0.981-1.144
			c-0.675,0-1.161,0.414-1.161,1.306v2.395h-1.404v-4.844h1.341v0.567c0.379-0.414,0.945-0.64,1.603-0.64
			C768.092,428.023,768.956,428.69,768.956,430.166z"/>
		<path style="fill:#FFFFFF;" d="M774.994,430.914h-3.664c0.136,0.603,0.648,0.972,1.387,0.972c0.514,0,0.882-0.153,1.216-0.468
			l0.747,0.81c-0.45,0.514-1.126,0.784-1.999,0.784c-1.675,0-2.764-1.054-2.764-2.494c0-1.449,1.107-2.494,2.584-2.494
			c1.422,0,2.521,0.955,2.521,2.512C775.021,430.644,775.004,430.797,774.994,430.914z M771.313,430.095h2.386
			c-0.1-0.612-0.559-1.009-1.188-1.009C771.87,429.086,771.411,429.474,771.313,430.095z"/>
		<path style="fill:#FFFFFF;" d="M775.487,432.489l0.469-1.009c0.432,0.279,1.089,0.469,1.684,0.469
			c0.647,0,0.891-0.171,0.891-0.441c0-0.792-2.926,0.018-2.926-1.918c0-0.918,0.828-1.566,2.242-1.566
			c0.666,0,1.404,0.153,1.863,0.424l-0.468,0.999c-0.478-0.271-0.955-0.36-1.396-0.36c-0.631,0-0.9,0.198-0.9,0.45
			c0,0.828,2.926,0.027,2.926,1.936c0,0.9-0.837,1.54-2.287,1.54C776.766,433.012,775.938,432.786,775.487,432.489z"/>
		<path style="fill:#FFFFFF;" d="M780.267,432.489l0.469-1.009c0.432,0.279,1.089,0.469,1.684,0.469
			c0.647,0,0.891-0.171,0.891-0.441c0-0.792-2.926,0.018-2.926-1.918c0-0.918,0.828-1.566,2.242-1.566
			c0.666,0,1.404,0.153,1.863,0.424l-0.468,0.999c-0.478-0.271-0.955-0.36-1.396-0.36c-0.631,0-0.9,0.198-0.9,0.45
			c0,0.828,2.926,0.027,2.926,1.936c0,0.9-0.837,1.54-2.287,1.54C781.545,433.012,780.717,432.786,780.267,432.489z"/>
		<path style="fill:#FFFFFF;" d="M787.765,429.788c0-1.899,1.458-3.259,3.421-3.259c1.089,0,1.998,0.396,2.593,1.116l-0.937,0.864
			c-0.423-0.486-0.954-0.738-1.585-0.738c-1.179,0-2.017,0.828-2.017,2.017s0.838,2.017,2.017,2.017
			c0.631,0,1.162-0.252,1.585-0.747l0.937,0.864c-0.595,0.729-1.504,1.125-2.603,1.125
			C789.223,433.047,787.765,431.688,787.765,429.788z"/>
		<path style="fill:#FFFFFF;" d="M794.127,430.518c0-1.459,1.125-2.494,2.665-2.494c1.539,0,2.655,1.035,2.655,2.494
			c0,1.458-1.116,2.494-2.655,2.494C795.252,433.012,794.127,431.976,794.127,430.518z M798.025,430.518
			c0-0.837-0.531-1.342-1.233-1.342s-1.242,0.505-1.242,1.342s0.54,1.342,1.242,1.342S798.025,431.354,798.025,430.518z"/>
		<path style="fill:#FFFFFF;" d="M805.333,430.166v2.773h-1.404v-2.557c0-0.783-0.36-1.144-0.981-1.144
			c-0.675,0-1.161,0.414-1.161,1.306v2.395h-1.404v-4.844h1.341v0.567c0.379-0.414,0.945-0.64,1.603-0.64
			C804.469,428.023,805.333,428.69,805.333,430.166z"/>
		<path style="fill:#FFFFFF;" d="M809.725,432.705c-0.288,0.207-0.712,0.307-1.144,0.307c-1.144,0-1.81-0.586-1.81-1.738v-1.989
			h-0.747v-1.08h0.747v-1.18h1.404v1.18h1.206v1.08h-1.206v1.972c0,0.414,0.225,0.639,0.604,0.639c0.207,0,0.414-0.063,0.566-0.18
			L809.725,432.705z"/>
		<path style="fill:#FFFFFF;" d="M810.345,426.638c0-0.441,0.351-0.783,0.873-0.783s0.873,0.323,0.873,0.756
			c0,0.468-0.351,0.811-0.873,0.811S810.345,427.078,810.345,426.638z M810.516,428.096h1.404v4.844h-1.404V428.096z"/>
		<path style="fill:#FFFFFF;" d="M818.176,430.166v2.773h-1.404v-2.557c0-0.783-0.36-1.144-0.981-1.144
			c-0.675,0-1.161,0.414-1.161,1.306v2.395h-1.404v-4.844h1.341v0.567c0.379-0.414,0.945-0.64,1.603-0.64
			C817.312,428.023,818.176,428.69,818.176,430.166z"/>
		<path style="fill:#FFFFFF;" d="M824.322,428.096v4.844h-1.332v-0.576c-0.369,0.423-0.909,0.648-1.504,0.648
			c-1.215,0-2.07-0.685-2.07-2.179v-2.737h1.404v2.53c0,0.81,0.36,1.17,0.981,1.17c0.648,0,1.116-0.414,1.116-1.306v-2.395H824.322z
			"/>
		<path style="fill:#FFFFFF;" d="M825.455,426.638c0-0.441,0.351-0.783,0.873-0.783c0.521,0,0.873,0.323,0.873,0.756
			c0,0.468-0.352,0.811-0.873,0.811C825.806,427.421,825.455,427.078,825.455,426.638z M825.626,428.096h1.404v4.844h-1.404V428.096
			z"/>
		<path style="fill:#FFFFFF;" d="M831.459,432.705c-0.288,0.207-0.712,0.307-1.144,0.307c-1.144,0-1.81-0.586-1.81-1.738v-1.989
			h-0.747v-1.08h0.747v-1.18h1.404v1.18h1.206v1.08h-1.206v1.972c0,0.414,0.225,0.639,0.604,0.639c0.207,0,0.414-0.063,0.566-0.18
			L831.459,432.705z"/>
		<path style="fill:#FFFFFF;" d="M836.968,428.096l-2.188,5.141c-0.468,1.17-1.134,1.521-2.007,1.521
			c-0.495,0-1.036-0.162-1.351-0.441l0.513-0.999c0.217,0.189,0.514,0.306,0.793,0.306c0.387,0,0.603-0.171,0.792-0.603l0.018-0.045
			l-2.098-4.88h1.449l1.359,3.286l1.369-3.286H836.968z"/>
		<path style="fill:#FFFFFF;" d="M756.401,443.847l-0.757-0.702c-0.576,0.45-1.296,0.702-2.106,0.702
			c-1.386,0-2.403-0.72-2.403-1.729c0-0.792,0.423-1.341,1.387-1.881c-0.46-0.478-0.648-0.883-0.648-1.333
			c0-0.918,0.774-1.548,1.963-1.548c1.089,0,1.809,0.558,1.809,1.449c0,0.648-0.378,1.125-1.232,1.594l1.152,1.071
			c0.135-0.279,0.242-0.612,0.314-0.981l1.125,0.351c-0.116,0.54-0.306,1.026-0.576,1.432l0.738,0.685L756.401,443.847z
			 M754.816,442.38l-1.521-1.423c-0.576,0.333-0.783,0.621-0.783,1.009c0,0.459,0.433,0.783,1.126,0.783
			C754.069,442.749,754.475,442.623,754.816,442.38z M753.151,438.887c0,0.243,0.099,0.423,0.486,0.801
			c0.621-0.333,0.819-0.566,0.819-0.854c0-0.307-0.217-0.522-0.621-0.522C753.403,438.311,753.151,438.554,753.151,438.887z"/>
		<path style="fill:#FFFFFF;" d="M762.808,440.588c0-1.899,1.458-3.259,3.421-3.259c1.089,0,1.998,0.396,2.593,1.116l-0.937,0.864
			c-0.423-0.486-0.954-0.738-1.585-0.738c-1.179,0-2.017,0.828-2.017,2.017s0.838,2.017,2.017,2.017
			c0.631,0,1.162-0.252,1.585-0.747l0.937,0.864c-0.595,0.729-1.504,1.125-2.603,1.125
			C764.266,443.847,762.808,442.487,762.808,440.588z"/>
		<path style="fill:#FFFFFF;" d="M774.509,438.896l-2.188,5.141c-0.468,1.17-1.134,1.521-2.007,1.521
			c-0.495,0-1.036-0.162-1.351-0.441l0.513-0.999c0.217,0.189,0.514,0.306,0.793,0.306c0.387,0,0.603-0.171,0.792-0.603l0.018-0.045
			l-2.098-4.88h1.449l1.359,3.286l1.369-3.286H774.509z"/>
		<path style="fill:#FFFFFF;" d="M780.358,441.317c0,1.521-1.054,2.494-2.413,2.494c-0.647,0-1.17-0.208-1.521-0.631v0.559h-1.341
			v-6.681h1.404v2.351c0.36-0.396,0.855-0.586,1.458-0.586C779.305,438.823,780.358,439.796,780.358,441.317z M778.936,441.317
			c0-0.837-0.531-1.342-1.233-1.342s-1.233,0.505-1.233,1.342s0.531,1.342,1.233,1.342S778.936,442.154,778.936,441.317z"/>
		<path style="fill:#FFFFFF;" d="M786.01,441.714h-3.664c0.136,0.603,0.648,0.972,1.387,0.972c0.514,0,0.882-0.153,1.216-0.468
			l0.747,0.81c-0.45,0.514-1.126,0.784-1.999,0.784c-1.675,0-2.764-1.054-2.764-2.494c0-1.449,1.107-2.494,2.584-2.494
			c1.422,0,2.521,0.955,2.521,2.512C786.037,441.443,786.02,441.597,786.01,441.714z M782.328,440.895h2.386
			c-0.1-0.612-0.559-1.009-1.188-1.009C782.886,439.886,782.427,440.273,782.328,440.895z"/>
		<path style="fill:#FFFFFF;" d="M789.979,438.823v1.297c-0.117-0.009-0.207-0.019-0.315-0.019c-0.774,0-1.287,0.424-1.287,1.351
			v2.287h-1.404v-4.844h1.341v0.64C788.655,439.066,789.231,438.823,789.979,438.823z"/>
		<path style="fill:#FFFFFF;" d="M793.001,443.118l0.495-1.099c0.531,0.387,1.323,0.657,2.08,0.657c0.864,0,1.215-0.288,1.215-0.675
			c0-1.18-3.664-0.369-3.664-2.71c0-1.071,0.864-1.963,2.656-1.963c0.792,0,1.603,0.189,2.188,0.559l-0.45,1.106
			c-0.585-0.333-1.188-0.495-1.747-0.495c-0.863,0-1.197,0.324-1.197,0.721c0,1.161,3.664,0.36,3.664,2.674
			c0,1.054-0.873,1.953-2.674,1.953C794.567,443.847,793.56,443.55,793.001,443.118z"/>
		<path style="fill:#FFFFFF;" d="M803.856,441.714h-3.664c0.136,0.603,0.648,0.972,1.387,0.972c0.513,0,0.882-0.153,1.216-0.468
			l0.747,0.81c-0.45,0.514-1.126,0.784-1.999,0.784c-1.675,0-2.764-1.054-2.764-2.494c0-1.449,1.107-2.494,2.584-2.494
			c1.422,0,2.521,0.955,2.521,2.512C803.884,441.443,803.866,441.597,803.856,441.714z M800.175,440.895h2.386
			c-0.1-0.612-0.559-1.009-1.188-1.009C800.732,439.886,800.273,440.273,800.175,440.895z"/>
		<path style="fill:#FFFFFF;" d="M804.458,441.317c0-1.459,1.125-2.494,2.701-2.494c1.017,0,1.818,0.441,2.169,1.233l-1.089,0.586
			c-0.261-0.46-0.648-0.667-1.09-0.667c-0.711,0-1.269,0.495-1.269,1.342c0,0.846,0.558,1.342,1.269,1.342
			c0.441,0,0.829-0.198,1.09-0.667l1.089,0.595c-0.351,0.774-1.152,1.225-2.169,1.225
			C805.583,443.812,804.458,442.775,804.458,441.317z"/>
		<path style="fill:#FFFFFF;" d="M815.017,438.896v4.844h-1.332v-0.576c-0.369,0.423-0.909,0.648-1.504,0.648
			c-1.215,0-2.07-0.685-2.07-2.179v-2.737h1.404v2.53c0,0.81,0.36,1.17,0.981,1.17c0.648,0,1.116-0.414,1.116-1.306v-2.395H815.017z
			"/>
		<path style="fill:#FFFFFF;" d="M819.327,438.823v1.297c-0.117-0.009-0.207-0.019-0.315-0.019c-0.774,0-1.287,0.424-1.287,1.351
			v2.287h-1.404v-4.844h1.341v0.64C818.004,439.066,818.58,438.823,819.327,438.823z"/>
		<path style="fill:#FFFFFF;" d="M819.992,437.438c0-0.441,0.351-0.783,0.873-0.783c0.521,0,0.873,0.323,0.873,0.756
			c0,0.468-0.352,0.811-0.873,0.811C820.343,438.221,819.992,437.878,819.992,437.438z M820.163,438.896h1.404v4.844h-1.404V438.896
			z"/>
		<path style="fill:#FFFFFF;" d="M825.996,443.505c-0.288,0.207-0.712,0.307-1.144,0.307c-1.144,0-1.81-0.586-1.81-1.738v-1.989
			h-0.747v-1.08h0.747v-1.18h1.404v1.18h1.206v1.08h-1.206v1.972c0,0.414,0.225,0.639,0.604,0.639c0.207,0,0.414-0.063,0.566-0.18
			L825.996,443.505z"/>
		<path style="fill:#FFFFFF;" d="M831.505,438.896l-2.188,5.141c-0.468,1.17-1.134,1.521-2.007,1.521
			c-0.495,0-1.036-0.162-1.351-0.441l0.513-0.999c0.217,0.189,0.514,0.306,0.793,0.306c0.387,0,0.603-0.171,0.792-0.603l0.018-0.045
			l-2.098-4.88h1.449l1.359,3.286l1.369-3.286H831.505z"/>
	</g>
	<circle style="fill:#FFFFFF;" cx="790.052" cy="389.112" r="29.346"/>
	<g>
		<g>
			<path style="fill:#FF826E;" d="M772.953,406.721l-1.51,1.51c-4.347-4.336-6.948-9.753-7.826-15.395h-2.473l4.282-8.565
				l4.282,8.565h-1.745c0.835,4.528,2.998,8.865,6.499,12.376L772.953,406.721z M772.953,406.721"/>
			<path style="fill:#FF826E;" d="M780.415,367.141c0-1.392-0.268-2.719-0.76-3.939c2.313-1.038,4.722-1.767,7.184-2.152v-2.473
				l8.565,4.282l-0.535,0.268h-0.011l-8.019,4.015v-1.745c-2.216,0.407-4.379,1.135-6.434,2.173
				C780.415,367.43,780.415,367.291,780.415,367.141L780.415,367.141z M780.415,367.141"/>
			<path style="fill:#FF826E;" d="M816.815,388.553h2.141c0,6.145-1.991,11.809-5.364,16.412l1.756,1.756l-9.09,3.03l0.193-0.578
				l2.837-8.511l1.231,1.242c2.624-3.801,4.154-8.393,4.154-13.35H816.815z M816.815,388.553"/>
			<path style="fill:#E6E9ED;" d="M799.686,412.106c0,0.236-0.01,0.46-0.032,0.685c-0.343,4.411-4.036,7.88-8.533,7.88
				s-8.19-3.469-8.533-7.88c-0.022-0.225-0.032-0.45-0.032-0.685c0-4.732,3.833-8.565,8.565-8.565S799.686,407.374,799.686,412.106
				L799.686,412.106z M799.686,412.106"/>
			<path style="fill:#E6E9ED;" d="M780.404,367.569c-0.225,5.718-4.935,10.278-10.696,10.278c-0.643,0-1.263-0.054-1.874-0.171
				c-5.021-0.878-8.833-5.267-8.833-10.535c0-5.91,4.796-10.706,10.706-10.706c4.518,0,8.383,2.805,9.946,6.767
				c0.493,1.22,0.76,2.548,0.76,3.939C780.415,367.291,780.415,367.43,780.404,367.569L780.404,367.569z M780.404,367.569"/>
			<path style="fill:#E6E9ED;" d="M812.533,356.435c5.91,0,10.706,4.796,10.706,10.706c0,5.267-3.811,9.657-8.833,10.535
				c-0.611,0.118-1.231,0.171-1.874,0.171c-5.91,0-10.706-4.796-10.706-10.706c0-0.653,0.054-1.285,0.171-1.895
				C802.897,360.236,807.276,356.435,812.533,356.435L812.533,356.435z M812.533,356.435"/>
			<path style="fill:#FCD770;" d="M801.827,386.412v4.282l-2.612,0.631c-0.118,0.343-0.246,0.664-0.407,0.985l1.403,2.302
				l-3.03,3.03l-2.302-1.403c-0.321,0.161-0.642,0.289-0.985,0.407l-0.631,2.612h-4.282l-0.631-2.612
				c-0.343-0.118-0.664-0.246-0.985-0.407l-2.302,1.403l-3.03-3.03l1.403-2.302c-0.161-0.321-0.289-0.642-0.407-0.985l-2.612-0.631
				v-4.282l2.612-0.632c0.118-0.343,0.246-0.664,0.407-0.985l-1.403-2.302l3.03-3.03l2.302,1.403
				c0.321-0.161,0.642-0.289,0.985-0.407l0.631-2.612h4.282l0.631,2.612c0.343,0.118,0.664,0.246,0.985,0.407l2.302-1.403l3.03,3.03
				l-1.403,2.302c0.161,0.321,0.289,0.642,0.407,0.985L801.827,386.412z M795.403,388.553c0-2.366-1.916-4.282-4.282-4.282
				s-4.282,1.916-4.282,4.282s1.916,4.282,4.282,4.282S795.403,390.92,795.403,388.553L795.403,388.553z M795.403,388.553"/>
			<path d="M824.309,367.141c0-6.493-5.283-11.777-11.777-11.777c-5.329,0-9.836,3.56-11.284,8.425
				c-1.407-0.577-2.852-1.045-4.336-1.373l-11.145-5.572v3.307c-1.882,0.357-3.746,0.923-5.567,1.669
				c-1.947-3.825-5.914-6.456-10.492-6.456c-6.493,0-11.777,5.283-11.777,11.777c0,5.329,3.56,9.835,8.423,11.284
				c-0.575,1.405-1.041,2.849-1.369,4.332l-5.575,11.149h3.306c1.073,5.737,3.815,10.938,7.963,15.087l0.757,0.757l1.535-1.535
				c2.509,2.312,5.463,4.144,8.635,5.352c0.709,4.62,4.698,8.175,9.513,8.175c4.818,0,8.809-3.558,9.513-8.182
				c1.694-0.645,3.322-1.448,4.852-2.423l11.841-3.946l-2.337-2.338c3.299-4.816,5.037-10.432,5.037-16.3v-1.071h-2.17
				c-0.123-3.138-0.777-6.176-1.959-9.06C820.756,376.969,824.309,372.466,824.309,367.141L824.309,367.141z M812.533,357.506
				c5.313,0,9.635,4.323,9.635,9.635c0,5.313-4.323,9.635-9.635,9.635c-5.313,0-9.635-4.323-9.635-9.635
				C802.897,361.829,807.22,357.506,812.533,357.506L812.533,357.506z M787.002,362.111l0.907-0.141v-1.662l5.101,2.55l-5.101,2.55
				v-1.301l-1.264,0.232c-1.794,0.33-3.544,0.864-5.223,1.584c-0.075-0.727-0.223-1.432-0.424-2.113
				C782.961,363.005,784.975,362.425,787.002,362.111L787.002,362.111z M760.073,367.141c0-5.313,4.323-9.635,9.635-9.635
				c5.313,0,9.635,4.323,9.635,9.635c0,5.313-4.323,9.635-9.635,9.635C764.396,376.777,760.073,372.454,760.073,367.141
				L760.073,367.141z M764.679,392.672l-0.141-0.907h-1.662l2.55-5.101l2.55,5.101h-1.301l0.232,1.264
				c0.841,4.568,2.928,8.75,6.061,12.162l-1.516,1.516C767.834,402.793,765.498,397.963,764.679,392.672L764.679,392.672z
				 M791.121,419.601c-4.133,0-7.494-3.363-7.494-7.494c0-4.131,3.362-7.494,7.494-7.494s7.494,3.363,7.494,7.494
				C798.615,416.238,795.253,419.601,791.121,419.601L791.121,419.601z M812.731,404.338l-0.542,0.741l1.175,1.174l-5.409,1.804
				l1.804-5.41l0.92,0.919l0.729-1.057c2.635-3.822,4.117-8.257,4.315-12.885h2.143
				C817.657,394.951,815.892,400.018,812.731,404.338L812.731,404.338z M815.716,387.483h-2.113v1.071
				c0,4.143-1.122,8.146-3.257,11.655l-1.525-1.525l-3.271,9.813c-1.51,1.093-3.132,2.009-4.839,2.731
				c-0.445-4.903-4.573-8.757-9.59-8.757c-5.019,0-9.148,3.859-9.592,8.764c-2.574-1.092-4.971-2.637-7.043-4.534l1.492-1.492
				l-0.757-0.757c-2.93-2.93-4.967-6.555-5.939-10.546h2.157l-4.628-9.256c0.318-1.998,0.887-3.941,1.684-5.796
				c0.4,0.042,0.804,0.063,1.213,0.063c6.11,0,11.145-4.678,11.719-10.641c1.395-0.667,2.846-1.195,4.34-1.561v2.157l9.254-4.627
				c1.998,0.318,3.94,0.886,5.796,1.683c-0.04,0.399-0.062,0.803-0.062,1.212c0,6.493,5.283,11.777,11.777,11.777
				c0.411,0,0.818-0.022,1.22-0.063C814.929,381.593,815.589,384.487,815.716,387.483L815.716,387.483z M815.716,387.483"/>
			<path d="M800.017,384.868l1.54-2.533l-4.218-4.218l-2.533,1.54h-0.001l-0.701-2.881h-5.964l-0.701,2.881h-0.001l-2.534-1.54
				l-4.217,4.218l1.54,2.533v0.001l-2.882,0.701v5.965l2.881,0.701c0,0,0,0.001,0.001,0.001l-1.542,2.533l4.218,4.217l2.533-1.54
				h0.001l0.701,2.882h5.964l0.701-2.881h0.001l2.534,1.54l4.217-4.217l-1.541-2.534l0.001-0.001l2.882-0.703v-5.965l-2.881-0.701
				V384.868z M800.756,389.853l-2.364,0.576l-0.19,0.555c-0.101,0.295-0.222,0.581-0.357,0.858l-0.258,0.526l1.266,2.079
				l-1.839,1.839l-2.08-1.267l-0.527,0.259c-0.277,0.136-0.563,0.256-0.859,0.358l-0.553,0.191l-0.576,2.361h-2.6l-0.575-2.361
				l-0.553-0.191c-0.296-0.102-0.581-0.222-0.859-0.358l-0.527-0.259l-2.08,1.267l-1.839-1.839l1.266-2.079l-0.258-0.526
				c-0.136-0.277-0.256-0.563-0.357-0.858l-0.19-0.555l-2.364-0.576v-2.6l2.364-0.576l0.19-0.555
				c0.101-0.294,0.221-0.58,0.357-0.857l0.259-0.526l-1.266-2.081l1.838-1.838l2.081,1.266l0.526-0.259
				c0.277-0.136,0.562-0.256,0.857-0.357l0.555-0.19l0.576-2.364h2.6l0.577,2.364l0.554,0.19c0.295,0.101,0.581,0.221,0.857,0.357
				l0.527,0.259l2.08-1.266l1.839,1.838l-1.266,2.081l0.259,0.526c0.136,0.277,0.256,0.562,0.356,0.857l0.19,0.555l2.363,0.576
				V389.853z M800.756,389.853"/>
			<path d="M791.121,383.2c-2.952,0-5.353,2.401-5.353,5.353s2.401,5.353,5.353,5.353s5.353-2.401,5.353-5.353
				S794.073,383.2,791.121,383.2L791.121,383.2z M791.121,391.765c-1.771,0-3.212-1.441-3.212-3.212
				c0-1.771,1.441-3.212,3.212-3.212s3.212,1.441,3.212,3.212C794.333,390.324,792.892,391.765,791.121,391.765L791.121,391.765z
				 M791.121,391.765"/>
		</g>
		<g>
			<g>
				<path style="fill:#F9CF58;" d="M764.077,372.319l0.971,0.238l0.971-0.238v-0.476l-0.971-0.238l-0.971,0.238V372.319z"/>
				<path style="fill:#FFAC3E;" d="M767.063,372.319l0.971,0.238l0.971-0.238v-0.476l-0.971-0.238l-0.971,0.238V372.319z"/>
				<path style="fill:#82D361;" d="M770.048,372.319l0.971,0.238l0.971-0.238v-0.476l-0.971-0.238l-0.971,0.238V372.319z"/>
				<path style="fill:#1E9CE2;" d="M773.034,372.319l0.971,0.238l0.971-0.238v-0.476l-0.971-0.238l-0.971,0.238V372.319z"/>
				<path style="fill:#F9CF58;" d="M766.019,371.843h-1.942v-1.921c0-0.146,0.118-0.265,0.265-0.265h1.413
					c0.146,0,0.264,0.118,0.264,0.265V371.843L766.019,371.843z"/>
				<path style="fill:#FFAC3E;" d="M769.004,371.843h-1.942v-3.365c0-0.146,0.118-0.265,0.265-0.265h1.413
					c0.146,0,0.265,0.118,0.265,0.265V371.843z"/>
				<path style="fill:#82D361;" d="M771.99,371.843h-1.942v-4.808c0-0.146,0.118-0.265,0.265-0.265h1.413
					c0.146,0,0.265,0.118,0.265,0.265L771.99,371.843L771.99,371.843z"/>
				<path style="fill:#1E9CE2;" d="M774.976,371.843h-1.942v-6.252c0-0.146,0.118-0.264,0.265-0.264h1.413
					c0.146,0,0.264,0.118,0.264,0.264V371.843L774.976,371.843z"/>
				<path style="fill:#FF4755;" d="M773.907,362.969l-0.233-2.321c-0.008-0.081-0.086-0.135-0.165-0.115l-2.259,0.588
					c-0.109,0.029-0.135,0.172-0.042,0.237l0.59,0.41c0,0-1.513,2.952-6.982,4.639v0.148c1.5,0.008,5.423-0.421,7.883-3.727
					l0.411-0.148l0.59,0.41C773.793,363.156,773.919,363.082,773.907,362.969L773.907,362.969z"/>
				<g>
					<g>
						<g>
							<path style="fill:#FC2B3A;" d="M772.873,362.513c-0.059-0.042-0.14-0.028-0.183,0.03c-2.46,3.306-5.616,3.722-7.784,3.873
								c-0.032,0.002-0.061-0.001-0.088-0.008l-0.002,0.001c-0.28,0.088-0.201,0.504,0.091,0.484
								c2.191-0.152,5.808-0.935,8.203-4.211L772.873,362.513z"/>
						</g>
					</g>
				</g>
			</g>
			<path style="fill:#407093;" d="M776.086,372.716h-13.119c-0.11,0-0.198-0.089-0.198-0.198s0.089-0.198,0.198-0.198h13.119
				c0.11,0,0.198,0.089,0.198,0.198C776.284,372.627,776.196,372.716,776.086,372.716z"/>
		</g>
		<g>
			<g>
				<g>
					<path style="fill:#9BD069;" d="M809.848,362.762L809.848,362.762L809.848,362.762z"/>
				</g>
				<g>
					<path style="fill:#9BD069;" d="M808.78,363.491L808.78,363.491L808.78,363.491z"/>
				</g>
			</g>
			<g>
				<g>
					<path style="fill:#9BD069;" d="M817.344,368.783L817.344,368.783L817.344,368.783z"/>
				</g>
			</g>
			<g>
				<g>
					<path style="fill:#9BD069;" d="M815.522,371.661L815.522,371.661L815.522,371.661z"/>
				</g>
			</g>
			<g>
				<g>
					<g>
						<g>
							<path style="fill:#8BCAFF;" d="M812.58,372.55c-0.243,0-0.486-0.079-0.688-0.236l-1.732-1.344
								c-0.59-0.458-1.075-1.054-1.403-1.724c-0.328-0.67-0.502-1.419-0.502-2.166v-2.892c0-0.131,0.106-0.237,0.236-0.238
								l0.526-0.004c1.499-0.011,2.435-0.448,2.924-0.937c0.114-0.114,0.21-0.227,0.29-0.333c0.175-0.234,0.526-0.234,0.701,0.001
								c0.08,0.107,0.175,0.221,0.287,0.333c0.469,0.469,1.425,0.926,2.924,0.937l0.526,0.004c0.131,0.001,0.236,0.107,0.236,0.238
								v2.892c0,0.747-0.174,1.495-0.502,2.166c-0.328,0.67-0.814,1.267-1.403,1.724l-1.732,1.344
								C813.066,372.471,812.823,372.55,812.58,372.55z"/>
						</g>
					</g>
					<g>
						<path style="fill:#2E8CCC;" d="M816.669,363.949l-0.526-0.004c-0.635-0.005-1.172-0.089-1.617-0.221v1.915
							c0,0.807-0.188,1.616-0.542,2.341c-0.355,0.725-0.879,1.369-1.516,1.864l-1.872,1.453c-0.002,0.002-0.005,0.004-0.007,0.005
							l1.304,1.012c0.203,0.157,0.445,0.236,0.688,0.236c0.243,0,0.486-0.079,0.688-0.236l1.732-1.344
							c0.59-0.458,1.075-1.054,1.403-1.724c0.328-0.67,0.502-1.419,0.502-2.166v-2.892
							C816.906,364.057,816.8,363.95,816.669,363.949z"/>
					</g>
				</g>
				<g>
					<path style="fill:#5B5353;" d="M805.897,360.873"/>
				</g>
			</g>
			<g>
				<g>
					<g>
						<path style="fill:#EEDFDA;" d="M813.776,367.943c-0.203,0-0.368-0.165-0.368-0.368v-1.317c0-0.487-0.396-0.883-0.883-0.883
							s-0.883,0.396-0.883,0.883v1.317c0,0.203-0.165,0.368-0.368,0.368s-0.368-0.165-0.368-0.368v-1.317
							c0-0.893,0.727-1.62,1.62-1.62c0.893,0,1.62,0.727,1.62,1.62v1.317C814.144,367.779,813.979,367.943,813.776,367.943z"/>
					</g>
				</g>
				<g>
					<g>
						<path style="fill:#C9BEB9;" d="M812.524,364.639c-0.092,0-0.182,0.008-0.269,0.023c0.765,0.129,1.351,0.796,1.351,1.597v1.317
							c0,0.097-0.038,0.185-0.099,0.25c0.067,0.072,0.163,0.118,0.269,0.118c0.203,0,0.368-0.165,0.368-0.368v-1.317
							C814.144,365.365,813.418,364.639,812.524,364.639L812.524,364.639z"/>
					</g>
				</g>
				<g>
					<path style="fill:#F9F5F5;" d="M814.093,370.002h-3.025c-0.249,0-0.451-0.202-0.451-0.451v-1.971
						c0-0.249,0.202-0.451,0.451-0.451h3.025c0.249,0,0.451,0.202,0.451,0.451v1.971C814.544,369.8,814.342,370.002,814.093,370.002
						L814.093,370.002z"/>
				</g>
				<g>
					<path style="fill:#EEDFDA;" d="M814.154,367.128h-0.336v1.757c0,0.216-0.175,0.39-0.391,0.39h-2.811v0.336
						c0,0.216,0.175,0.39,0.391,0.39h3.146c0.216,0,0.391-0.175,0.391-0.39v-2.092C814.544,367.303,814.369,367.128,814.154,367.128
						L814.154,367.128z"/>
				</g>
				<g>
					<path style="fill:#5B5353;" d="M813.032,368.44c0-0.246-0.207-0.444-0.457-0.428c-0.213,0.013-0.387,0.187-0.401,0.4
						c-0.012,0.184,0.092,0.345,0.246,0.417c0.012,0.006,0.02,0.017,0.02,0.031v0.385c0,0.028,0.023,0.051,0.051,0.051h0.222
						c0.028,0,0.051-0.023,0.051-0.051v-0.385c0-0.013,0.007-0.026,0.019-0.031C812.931,368.76,813.032,368.612,813.032,368.44
						L813.032,368.44z"/>
				</g>
			</g>
			<g>
				<path d="M818.755,368.845v-0.928c0-0.107-0.048-0.207-0.132-0.274l-1.523-1.213v-2.243c0-0.237-0.193-0.431-0.429-0.432
					l-0.39-0.003v-0.272l1.886-1.886c0.026,0.006,0.053,0.009,0.081,0.009c0.202,0,0.365-0.163,0.365-0.365
					c0-0.202-0.163-0.365-0.365-0.365s-0.365,0.163-0.365,0.365c0,0.028,0.003,0.055,0.009,0.081l-1.897,1.897
					c-0.066,0.066-0.102,0.154-0.102,0.247v0.281c-0.247-0.01-0.472-0.033-0.679-0.065v-0.929l1.157-1.157
					c0.026,0.006,0.053,0.009,0.081,0.009c0.202,0,0.365-0.163,0.365-0.365c0-0.202-0.163-0.365-0.365-0.365
					c-0.201,0-0.365,0.163-0.365,0.365c0,0.028,0.003,0.055,0.009,0.081l-1.168,1.168c-0.066,0.066-0.102,0.154-0.102,0.247v0.87
					c-0.299-0.071-0.547-0.16-0.752-0.255v-1.803c0.102-0.065,0.171-0.178,0.171-0.308c0-0.202-0.163-0.365-0.365-0.365
					c-0.201,0-0.365,0.163-0.365,0.365c0,0.13,0.068,0.244,0.171,0.308v1.588c-0.152-0.1-0.259-0.194-0.328-0.263
					c-0.096-0.096-0.187-0.201-0.269-0.311c-0.12-0.161-0.304-0.254-0.504-0.254c-0.001,0-0.001,0-0.002,0
					c-0.201,0-0.385,0.092-0.506,0.253c-0.082,0.109-0.173,0.214-0.272,0.313c-0.094,0.094-0.227,0.206-0.41,0.319v-1.643
					c0.102-0.065,0.171-0.178,0.171-0.308c0-0.202-0.163-0.365-0.365-0.365c-0.201,0-0.365,0.163-0.365,0.365
					c0,0.13,0.068,0.244,0.171,0.308v1.844c-0.216,0.093-0.474,0.177-0.781,0.241v-0.898c0-0.093-0.036-0.181-0.102-0.247
					l-1.168-1.168c0.006-0.026,0.009-0.053,0.009-0.081c0-0.202-0.163-0.365-0.365-0.365c-0.202,0-0.365,0.163-0.365,0.365
					c0,0.202,0.163,0.365,0.365,0.365c0.028,0,0.055-0.003,0.081-0.009l1.157,1.157v0.947c-0.207,0.027-0.433,0.045-0.679,0.052
					v-0.285c0-0.093-0.036-0.181-0.102-0.247l-1.897-1.897c0.006-0.026,0.009-0.053,0.009-0.081c0-0.202-0.163-0.365-0.365-0.365
					c-0.201,0-0.365,0.163-0.365,0.365c0,0.202,0.163,0.365,0.365,0.365c0.028,0,0.055-0.003,0.081-0.009l1.886,1.886v0.273
					l-0.279,0.002c-0.237,0.002-0.429,0.196-0.429,0.432v0.26c0,0.107,0.087,0.194,0.194,0.194s0.194-0.087,0.194-0.194v-0.26
					c0-0.024,0.02-0.044,0.044-0.044l0.526-0.004c1.019-0.007,1.745-0.206,2.25-0.443c0.011-0.004,0.021-0.009,0.031-0.015
					c0.374-0.18,0.624-0.381,0.779-0.536c0.111-0.111,0.215-0.23,0.308-0.354c0.047-0.062,0.118-0.098,0.195-0.098h0.001
					c0.077,0,0.148,0.036,0.194,0.098c0.093,0.126,0.196,0.245,0.306,0.354c0.294,0.294,1.181,0.98,3.06,0.994l0.526,0.004
					c0.024,0,0.044,0.02,0.044,0.044v2.892c0,0.717-0.167,1.436-0.482,2.081c-0.068,0.138-0.143,0.275-0.225,0.406
					c-0.057,0.091-0.028,0.211,0.063,0.267c0.032,0.02,0.067,0.029,0.102,0.029c0.065,0,0.129-0.033,0.165-0.092
					c0.088-0.143,0.17-0.291,0.243-0.44c0.137-0.28,0.248-0.574,0.332-0.875l0.418,0.316v2.743
					c-0.102,0.065-0.171,0.178-0.171,0.308c0,0.202,0.163,0.365,0.365,0.365s0.365-0.163,0.365-0.365
					c0-0.13-0.068-0.244-0.171-0.309v-2.763c0-0.109-0.052-0.213-0.139-0.279l-0.571-0.432c0.061-0.317,0.092-0.64,0.092-0.962
					v-0.152l1.267,1.009v0.909c-0.102,0.065-0.171,0.178-0.171,0.308c0,0.202,0.163,0.365,0.365,0.365
					c0.201,0,0.365-0.163,0.365-0.365C818.926,369.024,818.858,368.91,818.755,368.845L818.755,368.845z"/>
				<path d="M815.899,373.457v-1.823c0-0.093-0.036-0.181-0.102-0.247l-0.45-0.45c0.177-0.155,0.345-0.323,0.501-0.502
					c0.07-0.081,0.062-0.204-0.019-0.274c-0.081-0.07-0.204-0.062-0.274,0.019c-0.203,0.234-0.429,0.449-0.672,0.637l-1.732,1.344
					c-0.162,0.126-0.364,0.195-0.569,0.195c-0.208,0-0.405-0.067-0.569-0.195l-1.732-1.344c-0.566-0.44-1.033-1.012-1.348-1.656
					c-0.315-0.644-0.482-1.363-0.482-2.08v-1.767c0-0.107-0.087-0.194-0.194-0.194s-0.194,0.087-0.194,0.194v1.03l-1.634,1.301
					c-0.084,0.067-0.132,0.166-0.132,0.274v0.928c-0.102,0.065-0.171,0.178-0.171,0.309c0,0.202,0.163,0.365,0.365,0.365
					s0.356-0.163,0.356-0.365c0-0.129-0.064-0.242-0.162-0.307v-0.911l1.377-1.097v0.241c0,0.298,0.027,0.595,0.079,0.889
					l-0.668,0.505c-0.087,0.066-0.139,0.17-0.139,0.279v2.763c-0.102,0.065-0.171,0.178-0.171,0.309
					c0,0.202,0.163,0.365,0.365,0.365c0.201,0,0.356-0.163,0.356-0.365c0-0.129-0.064-0.242-0.162-0.307v-2.745l0.51-0.385
					c0.086,0.326,0.203,0.643,0.351,0.945c0.287,0.586,0.689,1.116,1.174,1.553l-0.503,0.502c-0.066,0.066-0.102,0.154-0.102,0.247
					v1.823c-0.102,0.065-0.171,0.178-0.171,0.308c0,0.202,0.163,0.365,0.365,0.365c0.201,0,0.365-0.163,0.365-0.365
					c0-0.13-0.068-0.244-0.171-0.308v-1.807l0.516-0.516l1.718,1.333c0.23,0.178,0.517,0.277,0.807,0.277
					c0.291,0,0.577-0.098,0.807-0.277l1.655-1.285l0.467,0.467v1.807c-0.102,0.065-0.171,0.178-0.171,0.308
					c0,0.202,0.163,0.365,0.365,0.365c0.202,0,0.365-0.163,0.365-0.365C816.07,373.635,816.001,373.521,815.899,373.457
					L815.899,373.457z"/>
				<circle cx="812.58" cy="371.823" r="0.223"/>
				<path d="M812.803,363.436c0-0.123-0.1-0.223-0.223-0.223c-0.123,0-0.223,0.1-0.223,0.223c0,0.123,0.1,0.223,0.223,0.223
					C812.703,363.659,812.803,363.559,812.803,363.436z"/>
				<circle cx="816.154" cy="364.748" r="0.223"/>
				<circle cx="808.98" cy="364.748" r="0.223"/>
				<path d="M810.617,368.489c-0.107,0-0.194,0.087-0.194,0.194v0.867c0,0.356,0.29,0.646,0.646,0.646h3.024
					c0.356,0,0.646-0.29,0.646-0.646v-1.97c0-0.269-0.165-0.5-0.4-0.597v-0.725c0-1-0.814-1.814-1.814-1.814
					c-1,0-1.814,0.814-1.814,1.814v0.784c-0.173,0.116-0.288,0.313-0.288,0.537v0.182c0,0.107,0.087,0.194,0.194,0.194
					s0.194-0.087,0.194-0.194v-0.182c0-0.142,0.115-0.257,0.257-0.257h3.024c0.142,0,0.257,0.115,0.257,0.257v1.97
					c0,0.142-0.115,0.257-0.257,0.257h-3.024c-0.142,0-0.257-0.115-0.257-0.257v-0.867
					C810.811,368.576,810.724,368.489,810.617,368.489L810.617,368.489z M812.524,364.833c0.786,0,1.426,0.64,1.426,1.426v0.676
					h-0.348v-0.676c0-0.594-0.483-1.078-1.078-1.078s-1.078,0.483-1.078,1.078v0.676h-0.348v-0.676
					C811.099,365.472,811.738,364.833,812.524,364.833L812.524,364.833z M813.214,366.934h-1.378v-0.676
					c0-0.38,0.309-0.689,0.689-0.689c0.38,0,0.689,0.309,0.689,0.689V366.934z"/>
				<path d="M812.492,369.296h0.222c0.028,0,0.051-0.023,0.051-0.051v-0.385c0-0.013,0.007-0.026,0.019-0.031
					c0.146-0.068,0.248-0.217,0.248-0.389c0-0.246-0.207-0.444-0.457-0.428c-0.213,0.013-0.387,0.187-0.401,0.4
					c-0.012,0.184,0.092,0.345,0.246,0.417c0.012,0.006,0.02,0.017,0.02,0.031v0.385
					C812.441,369.273,812.464,369.296,812.492,369.296L812.492,369.296z"/>
			</g>
		</g>
		<g>
			<g>
				<path style="fill:#E6E2E6;" d="M793.956,414.205l0.53-0.53l0.752,0.752l-0.53,0.53L793.956,414.205z"/>
				<path style="fill:#ECDAEC;" d="M793.956,414.205l0.53-0.53l0.752,0.752l-0.53,0.53L793.956,414.205z"/>
				<path style="fill:#E2CBE2;" d="M793.956,414.205l0.252-0.252l0.752,0.752l-0.252,0.252L793.956,414.205z"/>
				<path style="fill:#F9F6F6;" d="M787.113,407.783c0-0.155,0.126-0.28,0.28-0.28h4.717l1.737,1.737v7.252
					c0,0.155-0.125,0.28-0.28,0.28h-6.174c-0.155,0-0.28-0.126-0.28-0.28V407.783z"/>
				<path style="fill:#ECDAEC;" d="M793.567,416.435h-6.174c-0.155,0-0.28-0.126-0.28-0.28v0.336c0,0.155,0.126,0.28,0.28,0.28
					h6.174c0.155,0,0.28-0.126,0.28-0.28v-0.336C793.847,416.309,793.722,416.435,793.567,416.435z"/>
				<g>
					<path style="fill:#E2CBE2;" d="M792.391,409.239h1.456l-1.737-1.737v1.456C792.11,409.114,792.236,409.239,792.391,409.239z"/>
					<path style="fill:#E2CBE2;" d="M792.391,409.239h1.456l-1.737-1.737v1.456C792.11,409.114,792.236,409.239,792.391,409.239z"/>
					<circle style="fill:#E2CBE2;" cx="792.83" cy="412.547" r="2.326"/>
				</g>
				<path style="fill:#DAB9D8;" d="M794.475,413.855c-0.908,0.908-2.381,0.908-3.29,0c-0.411-0.411-0.636-0.939-0.675-1.477
					c-0.047,0.65,0.178,1.316,0.675,1.813c0.908,0.908,2.381,0.908,3.29,0c0.497-0.497,0.722-1.163,0.675-1.813
					C795.111,412.917,794.886,413.444,794.475,413.855z"/>
				<circle style="fill:#FFE27A;" cx="792.83" cy="412.547" r="1.684"/>
				<path style="fill:#F9CF58;" d="M794.021,413.401c-0.658,0.658-1.724,0.658-2.382,0c-0.286-0.286-0.448-0.649-0.485-1.023
					c-0.048,0.485,0.113,0.987,0.485,1.359c0.658,0.658,1.724,0.658,2.382,0c0.372-0.372,0.533-0.874,0.485-1.359
					C794.468,412.752,794.307,413.115,794.021,413.401z"/>
				<path style="fill:#98DB7C;" d="M792.679,413.24c-0.074,0-0.148-0.028-0.205-0.083l-0.386-0.376
					c-0.117-0.113-0.119-0.3-0.006-0.416c0.113-0.117,0.3-0.119,0.417-0.006l0.176,0.171l0.528-0.541
					c0.114-0.116,0.3-0.119,0.416-0.005c0.116,0.114,0.119,0.3,0.005,0.416l-0.733,0.752
					C792.832,413.21,792.756,413.24,792.679,413.24L792.679,413.24z"/>
				<path style="fill:#82D361;" d="M793.623,412.063l-0.733,0.752c-0.058,0.059-0.134,0.089-0.211,0.089
					c-0.074,0-0.148-0.028-0.205-0.083l-0.387-0.376c-0.014-0.013-0.026-0.028-0.036-0.043c-0.081,0.116-0.069,0.277,0.036,0.379
					l0.387,0.376c0.057,0.056,0.131,0.083,0.205,0.083c0.077,0,0.153-0.03,0.211-0.089l0.733-0.752c0.1-0.103,0.11-0.26,0.031-0.374
					C793.645,412.038,793.635,412.051,793.623,412.063L793.623,412.063z"/>
				<path style="fill:#FF4755;" d="M795.344,414.322l-0.739,0.739l0.884,0.884c0.204,0.204,0.535,0.204,0.739,0
					c0.204-0.204,0.204-0.535,0-0.739L795.344,414.322z"/>
				<path style="fill:#FC2B3A;" d="M795.741,415.693l-0.884-0.884l-0.252,0.252l0.884,0.884c0.204,0.204,0.535,0.204,0.739,0
					c0.044-0.044,0.079-0.095,0.104-0.149C796.139,415.887,795.901,415.853,795.741,415.693L795.741,415.693z"/>
				<g>
					<path style="fill:#98DB7C;" d="M788.858,411.042h-0.613c-0.096,0-0.173-0.078-0.173-0.173v-0.613
						c0-0.096,0.078-0.173,0.173-0.173h0.613c0.096,0,0.173,0.078,0.173,0.173v0.613
						C789.031,410.964,788.953,411.042,788.858,411.042z"/>
					<path style="fill:#98DB7C;" d="M788.858,413.007h-0.613c-0.096,0-0.173-0.078-0.173-0.173v-0.613
						c0-0.096,0.078-0.173,0.173-0.173h0.613c0.096,0,0.173,0.078,0.173,0.173v0.613
						C789.031,412.929,788.953,413.007,788.858,413.007z"/>
					<path style="fill:#98DB7C;" d="M788.858,415.012h-0.613c-0.096,0-0.173-0.078-0.173-0.173v-0.613
						c0-0.096,0.078-0.173,0.173-0.173h0.613c0.096,0,0.173,0.078,0.173,0.173v0.613
						C789.031,414.934,788.953,415.012,788.858,415.012z"/>
				</g>
				<path style="fill:#82D361;" d="M788.858,410.706h-0.613c-0.096,0-0.173-0.078-0.173-0.173v0.336
					c0,0.096,0.078,0.173,0.173,0.173h0.613c0.096,0,0.173-0.078,0.173-0.173v-0.336
					C789.031,410.628,788.953,410.706,788.858,410.706z"/>
				<path style="fill:#82D361;" d="M788.858,412.671h-0.613c-0.096,0-0.173-0.078-0.173-0.173v0.336
					c0,0.096,0.078,0.173,0.173,0.173h0.613c0.096,0,0.173-0.078,0.173-0.173v-0.336
					C789.031,412.593,788.953,412.671,788.858,412.671z"/>
				<path style="fill:#82D361;" d="M788.858,414.676h-0.613c-0.096,0-0.173-0.078-0.173-0.173v0.336
					c0,0.096,0.078,0.173,0.173,0.173h0.613c0.096,0,0.173-0.078,0.173-0.173v-0.336
					C789.031,414.598,788.953,414.676,788.858,414.676z"/>
				<path style="fill:#ECDAEC;" d="M792.11,408.959v0.336c0,0.155,0.125,0.28,0.28,0.28h1.456v-0.336h-1.456
					C792.236,409.239,792.11,409.114,792.11,408.959z"/>
			</g>
			<g>
				<path d="M792.682,413.382c0.118,0,0.229-0.047,0.312-0.131l0.735-0.753c0.168-0.172,0.164-0.448-0.008-0.616
					c-0.172-0.168-0.448-0.164-0.616,0.008l-0.431,0.442l-0.076-0.073c-0.172-0.167-0.448-0.164-0.616,0.009
					c-0.167,0.172-0.164,0.448,0.009,0.616l0.387,0.377C792.46,413.339,792.568,413.382,792.682,413.382z M792.183,412.462
					c0.06-0.061,0.158-0.062,0.219-0.003l0.176,0.171c0.056,0.054,0.144,0.053,0.198-0.003l0.529-0.542
					c0.06-0.061,0.158-0.062,0.219-0.003c0.061,0.06,0.062,0.158,0.003,0.219l-0.735,0.753c-0.057,0.061-0.16,0.062-0.219,0.003
					l-0.387-0.377C792.125,412.622,792.124,412.524,792.183,412.462L792.183,412.462z"/>
				<path d="M791.596,413.478c-0.047-0.062-0.135-0.074-0.197-0.028c-0.062,0.047-0.074,0.135-0.028,0.197
					c0.051,0.068,0.108,0.133,0.168,0.193c0.345,0.345,0.804,0.535,1.293,0.535s0.947-0.19,1.293-0.535
					c0.345-0.345,0.535-0.804,0.535-1.293s-0.19-0.947-0.535-1.293c-0.713-0.713-1.873-0.713-2.586,0
					c-0.486,0.486-0.658,1.195-0.449,1.85c0.024,0.074,0.103,0.115,0.177,0.091c0.074-0.024,0.115-0.103,0.091-0.176
					c-0.177-0.555-0.031-1.155,0.38-1.566c0.603-0.603,1.585-0.603,2.188,0c0.292,0.292,0.453,0.681,0.453,1.094
					s-0.161,0.802-0.453,1.094c-0.292,0.292-0.681,0.453-1.094,0.453s-0.802-0.161-1.094-0.453
					C791.687,413.59,791.639,413.535,791.596,413.478L791.596,413.478z"/>
				<path d="M796.338,415.113l-0.886-0.886c-0.055-0.055-0.144-0.055-0.199,0l-0.005,0.005l-0.341-0.341
					c0.229-0.353,0.366-0.762,0.393-1.188c0.005-0.077-0.054-0.144-0.131-0.149c-0.077-0.005-0.144,0.054-0.149,0.131
					c-0.034,0.532-0.26,1.033-0.637,1.41c-0.427,0.426-0.987,0.64-1.547,0.641c-0.001,0-0.001,0-0.002,0h-0.011
					c-0.557-0.003-1.114-0.216-1.538-0.64c-0.414-0.414-0.642-0.964-0.642-1.549c0-0.585,0.228-1.135,0.642-1.549
					c0.854-0.854,2.244-0.854,3.098,0c0.318,0.318,0.528,0.719,0.607,1.16c0.014,0.076,0.087,0.127,0.163,0.113
					c0.076-0.014,0.127-0.087,0.113-0.163c-0.089-0.498-0.326-0.951-0.685-1.309c-0.178-0.178-0.376-0.323-0.588-0.435v-1.132
					c0-0.037-0.015-0.073-0.041-0.099l-1.74-1.74c-0.026-0.026-0.062-0.041-0.099-0.041h-4.727c-0.232,0-0.421,0.189-0.421,0.421
					v1.18c0,0.078,0.063,0.14,0.14,0.14s0.14-0.063,0.14-0.14v-1.18c0-0.077,0.063-0.14,0.14-0.14h4.587v1.319
					c0,0.232,0.189,0.421,0.421,0.421h1.319v0.864c-0.274-0.104-0.563-0.157-0.852-0.16c-0.001,0-0.003,0-0.004,0h-3.136
					c-0.078,0-0.14,0.063-0.14,0.14c0,0.078,0.063,0.14,0.14,0.14h1.966c-0.2,0.105-0.389,0.239-0.56,0.402h-1.406
					c-0.078,0-0.14,0.063-0.14,0.14c0,0.078,0.063,0.14,0.14,0.14h1.153c-0.229,0.297-0.386,0.639-0.461,1.004h-0.692
					c-0.078,0-0.14,0.063-0.14,0.14c0,0.078,0.063,0.14,0.14,0.14h0.651c-0.006,0.073-0.01,0.147-0.01,0.221
					c0,0.061,0.002,0.122,0.007,0.182h-0.648c-0.078,0-0.14,0.063-0.14,0.14c0,0.078,0.063,0.14,0.14,0.14h0.685
					c0.072,0.38,0.231,0.736,0.469,1.044h-1.154c-0.078,0-0.14,0.063-0.14,0.14s0.063,0.14,0.14,0.14h1.407
					c0.171,0.163,0.359,0.297,0.559,0.402h-1.966c-0.078,0-0.141,0.063-0.141,0.14c0,0.078,0.063,0.14,0.141,0.14h3.113
					c0.298,0,0.597-0.054,0.879-0.161v1.642c0,0.077-0.063,0.14-0.14,0.14h-6.187c-0.077,0-0.14-0.063-0.14-0.14v-6.983
					c0-0.078-0.063-0.14-0.14-0.14s-0.14,0.063-0.14,0.14v6.983c0,0.232,0.189,0.421,0.421,0.421h6.187
					c0.232,0,0.421-0.189,0.421-0.421v-1.77c0.063-0.033,0.124-0.069,0.184-0.108l0.341,0.341c-0.059,0.051-0.062,0.15-0.005,0.204
					l0.886,0.886c0.247,0.258,0.692,0.258,0.939,0C796.595,415.805,796.595,415.36,796.338,415.113L796.338,415.113z
					 M792.393,409.093c-0.077,0-0.14-0.063-0.14-0.14v-1.12l1.261,1.261H792.393z M794.406,414.453
					c0.06-0.05,0.118-0.102,0.174-0.158c0.056-0.056,0.108-0.114,0.158-0.174l0.31,0.31l-0.332,0.332L794.406,414.453z
					 M796.139,415.854c-0.143,0.149-0.399,0.149-0.542,0l-0.787-0.787l0.542-0.542l0.787,0.787
					C796.288,415.454,796.288,415.711,796.139,415.854z"/>
				<path d="M788.238,411.18h0.614c0.173,0,0.314-0.141,0.314-0.314v-0.614c0-0.173-0.141-0.314-0.314-0.314h-0.614
					c-0.173,0-0.314,0.141-0.314,0.314v0.614C787.924,411.039,788.065,411.18,788.238,411.18z M788.205,410.252
					c0-0.018,0.015-0.033,0.033-0.033h0.614c0.018,0,0.033,0.015,0.033,0.033v0.614c0,0.018-0.015,0.033-0.033,0.033h-0.614
					c-0.018,0-0.033-0.015-0.033-0.033V410.252z"/>
				<path d="M787.924,412.835c0,0.173,0.141,0.314,0.314,0.314h0.614c0.173,0,0.314-0.141,0.314-0.314v-0.614
					c0-0.173-0.141-0.314-0.314-0.314h-0.614c-0.173,0-0.314,0.141-0.314,0.314V412.835z M788.205,412.221
					c0-0.018,0.015-0.033,0.033-0.033h0.614c0.018,0,0.033,0.015,0.033,0.033v0.614c0,0.018-0.015,0.033-0.033,0.033h-0.614
					c-0.018,0-0.033-0.015-0.033-0.033V412.221z"/>
				<path d="M787.924,414.844c0,0.173,0.141,0.314,0.314,0.314h0.614c0.173,0,0.314-0.141,0.314-0.314v-0.614
					c0-0.173-0.141-0.314-0.314-0.314h-0.614c-0.173,0-0.314,0.141-0.314,0.314V414.844z M788.205,414.23
					c0-0.018,0.015-0.033,0.033-0.033h0.614c0.018,0,0.033,0.015,0.033,0.033v0.614c0,0.018-0.015,0.033-0.033,0.033h-0.614
					c-0.018,0-0.033-0.015-0.033-0.033V414.23z"/>
			</g>
		</g>
	</g>
</g>
<g>
	<g>
		<g>
			<path d="M964.607,571.067h2.656c2.025,0,3.402,1.278,3.402,3.151c0,1.872-1.377,3.15-3.402,3.15h-2.656V571.067z
				 M967.209,576.586c1.558,0,2.557-0.954,2.557-2.367c0-1.414-0.999-2.368-2.557-2.368h-1.701v4.735H967.209z"/>
			<path d="M971.762,571.121c0-0.314,0.252-0.566,0.585-0.566s0.586,0.243,0.586,0.549c0,0.324-0.243,0.576-0.586,0.576
				C972.014,571.68,971.762,571.437,971.762,571.121z M971.915,572.598h0.864v4.771h-0.864V572.598z"/>
			<path d="M973.822,576.865l0.36-0.685c0.405,0.288,1.054,0.495,1.675,0.495c0.801,0,1.134-0.243,1.134-0.647
				c0-1.071-3.016-0.145-3.016-2.044c0-0.855,0.766-1.432,1.989-1.432c0.621,0,1.323,0.162,1.738,0.433l-0.369,0.684
				c-0.433-0.278-0.91-0.378-1.378-0.378c-0.756,0-1.125,0.279-1.125,0.657c0,1.125,3.024,0.207,3.024,2.062
				c0,0.864-0.792,1.414-2.062,1.414C975.002,577.424,974.219,577.181,973.822,576.865z"/>
			<path d="M982.716,574.488v2.881h-0.819v-0.63c-0.288,0.432-0.819,0.685-1.566,0.685c-1.08,0-1.765-0.576-1.765-1.405
				c0-0.765,0.495-1.395,1.918-1.395h1.368v-0.172c0-0.729-0.424-1.152-1.278-1.152c-0.567,0-1.144,0.198-1.513,0.514l-0.36-0.648
				c0.495-0.396,1.207-0.612,1.972-0.612C981.978,572.553,982.716,573.184,982.716,574.488z M981.852,575.911v-0.666h-1.333
				c-0.854,0-1.098,0.333-1.098,0.738c0,0.477,0.396,0.773,1.053,0.773C981.122,576.757,981.636,576.46,981.852,575.911z"/>
			<path d="M983.713,576.865l0.36-0.685c0.405,0.288,1.054,0.495,1.675,0.495c0.801,0,1.134-0.243,1.134-0.647
				c0-1.071-3.016-0.145-3.016-2.044c0-0.855,0.766-1.432,1.989-1.432c0.621,0,1.323,0.162,1.738,0.433l-0.369,0.684
				c-0.433-0.278-0.91-0.378-1.378-0.378c-0.756,0-1.125,0.279-1.125,0.657c0,1.125,3.024,0.207,3.024,2.062
				c0,0.864-0.792,1.414-2.062,1.414C984.893,577.424,984.109,577.181,983.713,576.865z"/>
			<path d="M991.508,577.09c-0.261,0.226-0.657,0.334-1.044,0.334c-0.964,0-1.513-0.531-1.513-1.495v-2.619h-0.811v-0.712h0.811
				v-1.044h0.864v1.044h1.368v0.712h-1.368v2.583c0,0.514,0.271,0.802,0.747,0.802c0.252,0,0.495-0.081,0.676-0.226L991.508,577.09z
				"/>
			<path d="M996.683,575.271h-3.871c0.108,0.838,0.783,1.396,1.729,1.396c0.559,0,1.026-0.188,1.378-0.576l0.477,0.559
				c-0.432,0.504-1.089,0.774-1.881,0.774c-1.54,0-2.566-1.018-2.566-2.44c0-1.413,1.018-2.431,2.395-2.431
				c1.378,0,2.359,0.99,2.359,2.458C996.701,575.083,996.691,575.19,996.683,575.271z M992.812,574.65h3.062
				c-0.091-0.801-0.693-1.368-1.531-1.368C993.514,573.282,992.901,573.84,992.812,574.65z"/>
			<path d="M1000.462,572.553v0.838c-0.071-0.01-0.135-0.01-0.198-0.01c-0.927,0-1.503,0.567-1.503,1.611v2.377h-0.864v-4.771h0.828
				v0.802C999.03,572.841,999.625,572.553,1000.462,572.553z"/>
			<path d="M1008.346,577.369l-1.359-1.936c-0.126,0.009-0.261,0.019-0.396,0.019h-1.558v1.917h-0.9v-6.302h2.458
				c1.638,0,2.629,0.828,2.629,2.196c0,0.973-0.505,1.675-1.387,1.99l1.494,2.115H1008.346z M1008.319,573.264
				c0-0.899-0.604-1.413-1.756-1.413h-1.53v2.836h1.53C1007.716,574.687,1008.319,574.164,1008.319,573.264z"/>
			<path d="M1014.844,575.271h-3.871c0.108,0.838,0.783,1.396,1.729,1.396c0.559,0,1.026-0.188,1.378-0.576l0.477,0.559
				c-0.432,0.504-1.089,0.774-1.881,0.774c-1.54,0-2.566-1.018-2.566-2.44c0-1.413,1.018-2.431,2.395-2.431
				c1.378,0,2.359,0.99,2.359,2.458C1014.862,575.083,1014.853,575.19,1014.844,575.271z M1010.973,574.65h3.062
				c-0.091-0.801-0.693-1.368-1.531-1.368C1011.675,573.282,1011.063,573.84,1010.973,574.65z"/>
			<path d="M1015.616,574.983c0-1.422,1.054-2.431,2.521-2.431c0.855,0,1.566,0.352,1.945,1.018l-0.657,0.423
				c-0.307-0.468-0.774-0.684-1.297-0.684c-0.937,0-1.639,0.657-1.639,1.674c0,1.035,0.702,1.684,1.639,1.684
				c0.522,0,0.99-0.216,1.297-0.684l0.657,0.414c-0.379,0.666-1.09,1.026-1.945,1.026
				C1016.67,577.424,1015.616,576.406,1015.616,574.983z"/>
			<path d="M1020.684,574.983c0-1.422,1.054-2.431,2.485-2.431c1.431,0,2.476,1.009,2.476,2.431c0,1.423-1.045,2.44-2.476,2.44
				C1021.737,577.424,1020.684,576.406,1020.684,574.983z M1024.771,574.983c0-1.017-0.685-1.674-1.603-1.674
				c-0.919,0-1.612,0.657-1.612,1.674c0,1.018,0.693,1.684,1.612,1.684C1024.087,576.667,1024.771,576.001,1024.771,574.983z"/>
			<path d="M1030.926,572.598l-2.088,4.771h-0.883l-2.088-4.771h0.899l1.639,3.826l1.675-3.826H1030.926z"/>
			<path d="M1035.895,575.271h-3.871c0.108,0.838,0.783,1.396,1.729,1.396c0.559,0,1.026-0.188,1.378-0.576l0.477,0.559
				c-0.432,0.504-1.089,0.774-1.881,0.774c-1.54,0-2.566-1.018-2.566-2.44c0-1.413,1.018-2.431,2.395-2.431
				c1.378,0,2.359,0.99,2.359,2.458C1035.913,575.083,1035.903,575.19,1035.895,575.271z M1032.023,574.65h3.062
				c-0.091-0.801-0.693-1.368-1.531-1.368C1032.726,573.282,1032.113,573.84,1032.023,574.65z"/>
			<path d="M1039.674,572.553v0.838c-0.072-0.01-0.135-0.01-0.198-0.01c-0.927,0-1.503,0.567-1.503,1.611v2.377h-0.864v-4.771h0.828
				v0.802C1038.242,572.841,1038.837,572.553,1039.674,572.553z"/>
			<path d="M1045.154,572.598l-2.313,5.249c-0.423,1.008-0.972,1.323-1.701,1.323c-0.459,0-0.928-0.153-1.225-0.441l0.369-0.647
				c0.234,0.225,0.531,0.351,0.855,0.351c0.414,0,0.675-0.189,0.909-0.738l0.153-0.333l-2.106-4.763h0.899l1.666,3.817l1.647-3.817
				H1045.154z"/>
			<path d="M1052.166,574.488v2.881h-0.819v-0.63c-0.288,0.432-0.819,0.685-1.566,0.685c-1.08,0-1.765-0.576-1.765-1.405
				c0-0.765,0.495-1.395,1.918-1.395h1.368v-0.172c0-0.729-0.423-1.152-1.278-1.152c-0.567,0-1.144,0.198-1.513,0.514l-0.36-0.648
				c0.495-0.396,1.207-0.612,1.972-0.612C1051.428,572.553,1052.166,573.184,1052.166,574.488z M1051.302,575.911v-0.666h-1.333
				c-0.854,0-1.098,0.333-1.098,0.738c0,0.477,0.396,0.773,1.053,0.773C1050.572,576.757,1051.086,576.46,1051.302,575.911z"/>
			<path d="M1053.163,576.865l0.36-0.685c0.405,0.288,1.054,0.495,1.675,0.495c0.801,0,1.134-0.243,1.134-0.647
				c0-1.071-3.016-0.145-3.016-2.044c0-0.855,0.766-1.432,1.989-1.432c0.621,0,1.323,0.162,1.738,0.433l-0.369,0.684
				c-0.433-0.278-0.91-0.378-1.378-0.378c-0.756,0-1.125,0.279-1.125,0.657c0,1.125,3.024,0.207,3.024,2.062
				c0,0.864-0.792,1.414-2.062,1.414C1054.343,577.424,1053.56,577.181,1053.163,576.865z"/>
			<path d="M1064.478,574.488v2.881h-0.819v-0.63c-0.288,0.432-0.819,0.685-1.566,0.685c-1.08,0-1.765-0.576-1.765-1.405
				c0-0.765,0.495-1.395,1.918-1.395h1.368v-0.172c0-0.729-0.424-1.152-1.278-1.152c-0.567,0-1.144,0.198-1.513,0.514l-0.36-0.648
				c0.495-0.396,1.207-0.612,1.972-0.612C1063.739,572.553,1064.478,573.184,1064.478,574.488z M1063.613,575.911v-0.666h-1.333
				c-0.854,0-1.098,0.333-1.098,0.738c0,0.477,0.396,0.773,1.053,0.773C1062.884,576.757,1063.397,576.46,1063.613,575.911z"/>
			<path d="M1068.049,576.649l0.333-0.702c0.468,0.423,1.27,0.729,2.08,0.729c1.089,0,1.557-0.423,1.557-0.972
				c0-1.54-3.816-0.567-3.816-2.908c0-0.973,0.756-1.801,2.412-1.801c0.738,0,1.504,0.198,2.026,0.559l-0.298,0.72
				c-0.549-0.351-1.17-0.513-1.729-0.513c-1.071,0-1.53,0.45-1.53,0.999c0,1.54,3.817,0.576,3.817,2.89
				c0,0.964-0.774,1.792-2.439,1.792C1069.498,577.441,1068.553,577.117,1068.049,576.649z"/>
			<path d="M1078.382,575.271h-3.871c0.108,0.838,0.783,1.396,1.729,1.396c0.559,0,1.026-0.188,1.378-0.576l0.477,0.559
				c-0.432,0.504-1.089,0.774-1.881,0.774c-1.54,0-2.566-1.018-2.566-2.44c0-1.413,1.018-2.431,2.395-2.431
				c1.378,0,2.359,0.99,2.359,2.458C1078.4,575.083,1078.391,575.19,1078.382,575.271z M1074.511,574.65h3.062
				c-0.091-0.801-0.693-1.368-1.531-1.368C1075.213,573.282,1074.601,573.84,1074.511,574.65z"/>
			<path d="M1082.161,572.553v0.838c-0.071-0.01-0.135-0.01-0.198-0.01c-0.927,0-1.503,0.567-1.503,1.611v2.377h-0.864v-4.771h0.828
				v0.802C1080.729,572.841,1081.324,572.553,1082.161,572.553z"/>
			<path d="M1087.643,572.598l-2.088,4.771h-0.883l-2.088-4.771h0.899l1.639,3.826l1.675-3.826H1087.643z"/>
			<path d="M1088.299,571.121c0-0.314,0.252-0.566,0.585-0.566s0.586,0.243,0.586,0.549c0,0.324-0.243,0.576-0.586,0.576
				C1088.551,571.68,1088.299,571.437,1088.299,571.121z M1088.452,572.598h0.864v4.771h-0.864V572.598z"/>
			<path d="M1090.521,574.983c0-1.422,1.054-2.431,2.521-2.431c0.855,0,1.567,0.352,1.945,1.018l-0.657,0.423
				c-0.307-0.468-0.774-0.684-1.297-0.684c-0.937,0-1.639,0.657-1.639,1.674c0,1.035,0.702,1.684,1.639,1.684
				c0.522,0,0.99-0.216,1.297-0.684l0.657,0.414c-0.378,0.666-1.09,1.026-1.945,1.026
				C1091.575,577.424,1090.521,576.406,1090.521,574.983z"/>
			<path d="M1100.323,575.271h-3.871c0.108,0.838,0.783,1.396,1.729,1.396c0.559,0,1.026-0.188,1.378-0.576l0.477,0.559
				c-0.432,0.504-1.089,0.774-1.881,0.774c-1.54,0-2.566-1.018-2.566-2.44c0-1.413,1.018-2.431,2.395-2.431
				c1.378,0,2.359,0.99,2.359,2.458C1100.342,575.083,1100.332,575.19,1100.323,575.271z M1096.452,574.65h3.062
				c-0.091-0.801-0.693-1.368-1.531-1.368C1097.154,573.282,1096.542,573.84,1096.452,574.65z"/>
		</g>
	</g>
</g>
<circle style="fill:#60605F;" cx="1032.195" cy="281.703" r="30.442"/>
<g>
	<g>
		<path style="fill:#1E9CE2;" d="M1021.613,307.076h-18.01c-1.106,0-2.001-0.896-2.001-2.001v-9.005h22.013v9.005
			C1023.614,306.181,1022.718,307.076,1021.613,307.076z"/>
	</g>
	<g>
		<path style="fill:#1E9CE2;" d="M1059.635,307.076h-18.01c-1.106,0-2.001-0.896-2.001-2.001v-9.005h22.013v9.005
			C1061.636,306.181,1060.74,307.076,1059.635,307.076z"/>
	</g>
	<g>
		<path style="fill:#1E9CE2;" d="M1047.628,253.045c-0.782,0-1.563,0.094-2.331,0.279c-2.177-4.453-6.668-7.283-11.677-7.283
			c-4.017,0-7.813,1.873-10.273,5.04c-0.252-0.024-0.495-0.037-0.733-0.037c-2.897,0-5.551,1.571-6.962,4.062
			c-0.346-0.039-0.694-0.06-1.043-0.06c-4.966,0-9.005,4.039-9.005,9.005c0,4.966,4.039,9.005,9.005,9.005h7.004v-2.001
			c0-1.106,0.896-2.001,2.001-2.001v-4.002c-1.106,0-2.001-0.896-2.001-2.001v-2.001c0-1.106,0.896-2.001,2.001-2.001h16.009
			c1.106,0,2.001,0.896,2.001,2.001v2.001c0,1.106-0.896,2.001-2.001,2.001v4.002c1.106,0,2.001,0.896,2.001,2.001v2.001h6.003
			c5.517,0,10.006-4.489,10.006-10.006S1053.145,253.045,1047.628,253.045z"/>
	</g>
	<g>
		<rect x="1014.609" y="292.068" width="6.003" height="2.001"/>
		<g>
			<image style="overflow:visible;" width="69" height="57" xlink:href="9DE0F10A.png"  transform="matrix(1 0 0 1 998 256)">
			</image>
			<g>
				<path style="fill:#FFFFFF;" d="M1059.635,288.065h-7.175c-0.802,0-1.556,0.312-2.123,0.879l-3.123,3.123h-5.589
					c-1.655,0-3.002,1.347-3.002,3.002v4.002h-4.186c-0.302-0.848-0.969-1.515-1.817-1.817v-11.19h7.004
					c1.655,0,3.002-1.347,3.002-3.002v-2.001c0-1.303-0.839-2.403-2.001-2.818v-2.37c1.162-0.414,2.001-1.515,2.001-2.818v-2.001
					c0-1.303-0.839-2.403-2.001-2.818v-2.37c1.162-0.414,2.001-1.515,2.001-2.818v-2.001c0-1.655-1.347-3.002-3.002-3.002h-16.009
					c-1.655,0-3.002,1.347-3.002,3.002v2.001c0,1.303,0.839,2.403,2.001,2.818v2.37c-1.162,0.414-2.001,1.515-2.001,2.818v2.001
					c0,1.303,0.839,2.403,2.001,2.818v2.37c-1.162,0.414-2.001,1.515-2.001,2.818v2.001c0,1.655,1.347,3.002,3.002,3.002h7.004
					v11.19c-0.847,0.302-1.515,0.97-1.817,1.817h-4.186v-8.005c0-1.655-1.347-3.002-3.002-3.002h-7.175
					c-0.801,0-1.556,0.312-2.123,0.879l-3.123,3.123h-5.589c-1.655,0-3.002,1.347-3.002,3.002v10.006
					c0,1.655,1.347,3.002,3.002,3.002h18.01c1.655,0,3.002-1.347,3.002-3.002v-4.002h4.186c0.414,1.162,1.515,2.001,2.818,2.001
					s2.403-0.839,2.818-2.001h4.186v4.002c0,1.655,1.347,3.002,3.002,3.002h18.01c1.655,0,3.002-1.347,3.002-3.002v-14.008
					C1062.636,289.412,1061.29,288.065,1059.635,288.065z M1038.622,276.059v2.001h-14.008v-2.001H1038.622z M1038.622,266.053
					v2.001h-14.008v-2.001H1038.622z M1022.613,261.05c0-0.551,0.449-1.001,1.001-1.001h16.009c0.551,0,1.001,0.449,1.001,1.001
					v2.001c0,0.551-0.449,1.001-1.001,1.001h-16.009c-0.551,0-1.001-0.449-1.001-1.001V261.05z M1022.613,271.056
					c0-0.551,0.449-1.001,1.001-1.001h16.009c0.551,0,1.001,0.449,1.001,1.001v2.001c0,0.551-0.449,1.001-1.001,1.001h-16.009
					c-0.551,0-1.001-0.449-1.001-1.001V271.056z M1022.613,283.063v-2.001c0-0.552,0.449-1.001,1.001-1.001h16.009
					c0.551,0,1.001,0.448,1.001,1.001v2.001c0,0.552-0.449,1.001-1.001,1.001h-16.009
					C1023.063,284.063,1022.613,283.615,1022.613,283.063z M1022.613,305.075c0,0.552-0.449,1.001-1.001,1.001h-18.01
					c-0.551,0-1.001-0.448-1.001-1.001V295.07c0-0.552,0.449-1.001,1.001-1.001h6.418l3.709-3.709
					c0.189-0.189,0.441-0.293,0.708-0.293h7.175c0.551,0,1.001,0.448,1.001,1.001V305.075z M1031.618,301.073
					c-0.551,0-1.001-0.448-1.001-1.001s0.449-1.001,1.001-1.001c0.551,0,1.001,0.448,1.001,1.001S1032.17,301.073,1031.618,301.073z
					 M1060.635,305.075c0,0.552-0.449,1.001-1.001,1.001h-18.01c-0.551,0-1.001-0.448-1.001-1.001V295.07
					c0-0.552,0.449-1.001,1.001-1.001h6.418l3.709-3.709c0.189-0.189,0.441-0.293,0.708-0.293h7.175
					c0.551,0,1.001,0.448,1.001,1.001V305.075z"/>
			</g>
		</g>
		<rect x="1052.631" y="292.068" width="6.003" height="2.001"/>
		<path d="M1053.631,263.051c0-3.311-2.693-6.003-6.003-6.003v2.001c2.207,0,4.002,1.795,4.002,4.002s-1.795,4.002-4.002,4.002
			v2.001C1050.939,269.055,1053.631,266.362,1053.631,263.051z"/>
		<path d="M1014.609,261.05v-2.001c-2.759,0-5.003,2.244-5.003,5.003h2.001C1011.607,262.397,1012.954,261.05,1014.609,261.05z"/>
		<path d="M1033.62,252.045c1.871,0,3.629,0.728,4.953,2.051l1.415-1.415c-1.701-1.701-3.962-2.638-6.368-2.638
			s-4.667,0.937-6.368,2.638l1.415,1.415C1029.99,252.773,1031.749,252.045,1033.62,252.045z"/>
		<polygon style="fill:#FFDD40;" points="1004.603,275.472 1004.603,285.064 1006.604,285.064 1006.604,275.472 1008.898,277.767
			1010.313,276.352 1005.603,271.642 1000.894,276.352 1002.308,277.767 		"/>
		<rect x="1004.603" y="287.065" width="2.001" height="2.001"/>
		<polygon style="fill:#FFDD40;" points="1052.924,281.769 1057.633,286.479 1062.343,281.769 1060.928,280.354 1058.634,282.648
			1058.634,273.057 1056.633,273.057 1056.633,282.648 1054.339,280.354 		"/>
		<rect x="1056.633" y="269.055" width="2.001" height="2.001"/>
	</g>
</g>
<g>
	<g>
		<path style="fill:#FF4155;" d="M1031.948,500.961c-16.895,0-30.592,13.696-30.592,30.592c0,13.878,9.242,25.596,21.907,29.339
			h17.37c12.665-3.743,21.907-15.461,21.907-29.339C1062.54,514.658,1048.843,500.961,1031.948,500.961z"/>
	</g>
	<g>
		<path style="fill:#D3DCFB;" d="M1036.728,547.769v-3.191h-9.56v3.191c0,4.672-1.363,9.23-3.905,13.123
			c2.753,0.814,5.668,1.253,8.685,1.253s5.931-0.439,8.685-1.253C1038.091,556.999,1036.728,552.441,1036.728,547.769z"/>
	</g>
	<g>
		<path style="fill:#BEC8F7;" d="M1031.948,547.769v-3.191h-4.78v3.191c0,4.672-1.363,9.23-3.905,13.123
			c1.41,0.417,2.863,0.735,4.35,0.946C1030.545,557.925,1031.948,552.321,1031.948,547.769z"/>
	</g>
	<g>
		<path style="fill:#1C2E7A;" d="M1062.54,541.591l-30.592,4.78l-30.592-4.78v-31.07c0-1.32,1.07-2.39,2.39-2.39h56.404
			c1.32,0,2.39,1.07,2.39,2.39V541.591z"/>
	</g>
	<g>
		<path style="fill:#112360;" d="M1012.28,508.131h-8.534c-1.32,0-2.39,1.07-2.39,2.39v31.07l10.924,1.707v-31.582
			c-0.99,0-1.793-0.803-1.793-1.792S1011.29,508.131,1012.28,508.131z"/>
	</g>
	<g>
		<path style="fill:#FFB332;" d="M1031.948,546.371l27.007-4.22v-30.435h-54.014v30.435L1031.948,546.371z"/>
	</g>
	<g>
		<path style="fill:#FFDD40;" d="M1010.478,542.623h40.717c2.644-4.807,2.942-9.089,1.208-12.261
			c-1.546-2.823-4.241-5.799-5.628-7.242c-0.429-0.448-1.19-0.197-1.266,0.42c-0.488,3.913,3.77,9.353-0.794,12.663
			c-5.101,3.696-9.438-0.148-7.367-4.879c2.069-4.731,4.534-10.152,2.069-15.573c-1.695-3.729-4.883-7.272-6.707-10.731
			c-0.609-1.154-1.065-2.301-1.264-3.441c-0.102-0.582-0.809-0.824-1.234-0.415c-0.495,0.475-1.046,1.188-1.414,2.206
			c-0.463,1.277-0.636,3.034-0.049,5.41c1.627,6.579,5.397,11.604,0.814,14.265c-4.583,2.66-6.727-2.883-5.397-5.839
			c0.649-1.441,0.385-2.846-0.056-3.909c-0.269-0.647-1.21-0.593-1.396,0.083c-0.42,1.53-1.471,3.788-4.091,6.117
			c-4.656,4.139,2.291,9.46,2.587,13.599c0.275,3.853-5.019,5.912-7.72,1.296c-0.291-0.498-1.007-0.499-1.286,0.005
			c-0.792,1.431-1.931,4.085-1.784,7.348C1010.433,542.048,1010.453,542.339,1010.478,542.623L1010.478,542.623z"/>
	</g>
	<g>
		<path style="fill:#FF9100;" d="M1035.397,523.452c0.091-0.675,1.056-0.693,1.18-0.023c0.438,2.377,0.371,5.887-2.11,9.713
			c-4.493,6.928,4.172,9.48,4.172,9.48h-16.925c0,0,5.858-2.14,4.119-7.305c-1.003-2.977-0.604-5.713-0.087-7.496
			c0.163-0.563,0.951-0.579,1.14-0.024C1028.34,532.055,1034.362,531.124,1035.397,523.452L1035.397,523.452z"/>
	</g>
	<g>
		<path style="fill:#E9EFFF;" d="M1060.15,551.151h-56.404c-1.32,0-2.39-1.07-2.39-2.39v-7.17h61.184v7.17
			C1062.54,550.081,1061.47,551.151,1060.15,551.151z"/>
	</g>
	<g>
		<path style="fill:#D3DCFB;" d="M1014.905,548.761v-7.17h-13.549v7.17c0,1.32,1.07,2.39,2.39,2.39h13.549
			C1015.975,551.151,1014.905,550.081,1014.905,548.761z"/>
	</g>
	<g>
		<path style="fill:#D3DCFB;" d="M1036.429,547.267h-8.962c-0.495,0-0.896-0.401-0.896-0.896c0-0.495,0.401-0.896,0.896-0.896h8.962
			c0.495,0,0.896,0.401,0.896,0.896C1037.325,546.866,1036.924,547.267,1036.429,547.267z"/>
	</g>
</g>
<g>
</g>
</svg>
