<?xml version="1.0" encoding="iso-8859-1"?>
<!-- Generator: Adobe Illustrator 24.3.0, SVG Export Plug-In . SVG Version: 6.00 Build 0)  -->
<svg version="1.1" id="Capa_1" xmlns="http://www.w3.org/2000/svg" xmlns:xlink="http://www.w3.org/1999/xlink" x="0px" y="0px"
	 viewBox="675.5 224 450 400" style="enable-background:new 675.5 224 450 400;" xml:space="preserve">
<g>
	<path style="fill:#2AA0DA;" d="M871.742,402.307c0.827-2.481,1.378-5.238,1.378-7.994c0-12.681-10.2-23.156-23.156-23.156
		c-3.308,0-6.34,0.551-9.097,1.93c-5.789-11.027-17.367-18.745-30.599-18.745c-8.821,0-17.091,3.308-23.156,9.097
		c-2.481-2.205-5.789-3.308-9.648-3.308c-8.546,0-15.713,7.167-15.161,15.988c-11.854,1.93-20.123,13.508-17.367,25.912
		c-12.956,1.378-23.156,12.405-23.156,25.912c0,14.335,11.578,25.912,25.912,25.912h118.811c14.335,0,25.912-11.578,25.912-25.912
		C893.243,414.988,883.871,404.513,871.742,402.307z"/>
	<path style="fill:#183651;" d="M867.055,456.613H748.244c-15.989,0-28.669-12.956-28.669-28.669
		c0-13.783,9.648-25.361,22.604-28.118c-0.551-5.513,0.827-11.302,3.859-15.988c3.308-4.962,8.27-8.27,13.783-9.924
		c0.276-4.135,1.93-7.994,4.962-11.027c3.308-3.584,8.27-5.513,12.956-5.513c3.308,0,6.616,0.827,9.373,2.757
		c6.616-5.238,14.886-8.27,23.431-8.27c13.232,0,25.085,6.892,31.701,17.918c2.757-1.103,5.238-1.378,7.994-1.378
		c14.334,0,25.912,11.578,25.912,25.912c0,1.93-0.276,4.135-0.827,6.065c12.129,3.584,20.675,14.61,20.675,27.566
		C896,443.657,883.044,456.613,867.055,456.613z M778.016,362.887c-3.308,0-6.616,1.378-9.097,3.859
		c-2.481,2.481-3.584,5.789-3.308,9.373c0,1.378-0.827,2.757-2.205,2.757c-4.962,0.827-9.648,3.859-12.405,7.994
		c-2.757,4.411-3.859,9.373-2.757,14.61c0.276,0.827,0,1.654-0.551,2.205s-1.103,1.103-1.93,1.103
		c-11.854,1.378-20.675,11.302-20.675,23.156c0,12.956,10.475,23.156,23.156,23.156h118.811c12.956,0,23.156-10.475,23.156-23.156
		c0-11.302-7.994-20.95-19.296-22.88c-0.827-0.276-1.378-0.551-1.93-1.378c-0.276-0.827-0.551-1.654-0.276-2.205
		c0.827-2.205,1.378-4.686,1.378-7.167c0-11.302-9.097-20.399-20.399-20.399c-2.757,0-5.513,0.551-7.994,1.654
		c-1.378,0.551-2.757,0-3.584-1.378c-5.513-10.475-16.264-17.091-28.118-17.091c-7.994,0-15.437,3.032-21.226,8.27
		c-1.103,0.827-2.481,0.827-3.584,0C783.529,363.714,780.773,362.887,778.016,362.887z"/>
	<path style="fill:#FFFFFF;" d="M750.174,451.375h114.952c10.475,0,19.848-8.546,18.745-19.848
		c-0.827-9.097-7.994-16.264-16.815-17.642l-5.513-1.103l2.205-5.789c3.859-10.475-3.308-21.226-13.508-22.329
		c-5.238-0.551-8.27,1.103-13.232,3.032l-2.205-4.411c-4.686-9.924-14.886-15.713-25.912-15.161
		c-10.475,0.551-16.54,6.892-20.123,10.2c-3.584-2.757-5.238-4.962-9.373-4.962c-5.238,0-9.373,4.135-9.373,9.373l0.276,4.962
		l-4.686,0.827c-7.443,1.103-12.68,7.443-12.68,15.161c0,2.481,0.551,4.135,1.654,9.097l-5.238,0.551
		c-9.648,1.103-17.918,9.097-18.194,19.572C731.153,443.105,739.975,451.375,750.174,451.375z"/>
</g>
<g>
	<path d="M768.258,418.382c0,1.082-0.858,1.708-2.503,1.708h-3.237v-6.259h3.058c1.565,0,2.37,0.652,2.37,1.627
		c0,0.626-0.322,1.108-0.832,1.377C767.811,417.059,768.258,417.595,768.258,418.382z M763.957,414.922v1.475h1.439
		c0.707,0,1.091-0.25,1.091-0.741c0-0.492-0.384-0.733-1.091-0.733H763.957z M766.801,418.229c0-0.527-0.402-0.777-1.153-0.777
		h-1.69v1.547h1.69C766.398,418.999,766.801,418.767,766.801,418.229z"/>
	<path d="M774.101,415.279v4.811h-1.323v-0.572c-0.367,0.42-0.903,0.644-1.493,0.644c-1.207,0-2.057-0.68-2.057-2.164v-2.718h1.395
		v2.513c0,0.805,0.357,1.162,0.975,1.162c0.644,0,1.109-0.411,1.109-1.297v-2.378H774.101z"/>
	<path d="M774.926,419.643l0.465-1.001c0.43,0.277,1.082,0.465,1.672,0.465c0.645,0,0.886-0.17,0.886-0.438
		c0-0.787-2.906,0.018-2.906-1.904c0-0.912,0.823-1.556,2.227-1.556c0.662,0,1.395,0.151,1.851,0.42l-0.465,0.992
		c-0.474-0.268-0.947-0.357-1.386-0.357c-0.626,0-0.895,0.197-0.895,0.447c0,0.822,2.906,0.026,2.906,1.923
		c0,0.894-0.831,1.528-2.271,1.528C776.195,420.161,775.373,419.938,774.926,419.643z"/>
	<path d="M779.965,413.831c0-0.438,0.349-0.778,0.867-0.778c0.52,0,0.868,0.322,0.868,0.751c0,0.465-0.349,0.805-0.868,0.805
		C780.313,414.608,779.965,414.269,779.965,413.831z M780.135,415.279h1.396v4.811h-1.396V415.279z"/>
	<path d="M787.742,417.336v2.754h-1.395v-2.539c0-0.778-0.357-1.136-0.975-1.136c-0.671,0-1.153,0.411-1.153,1.296v2.379h-1.396
		v-4.811h1.333v0.563c0.375-0.411,0.938-0.635,1.591-0.635C786.884,415.208,787.742,415.869,787.742,417.336z"/>
	<path d="M793.736,418.078h-3.639c0.134,0.599,0.644,0.966,1.377,0.966c0.51,0,0.876-0.152,1.207-0.465l0.742,0.805
		c-0.447,0.51-1.118,0.777-1.985,0.777c-1.663,0-2.745-1.046-2.745-2.477c0-1.439,1.1-2.477,2.566-2.477
		c1.413,0,2.504,0.947,2.504,2.494C793.764,417.81,793.745,417.962,793.736,418.078z M790.079,417.265h2.37
		c-0.099-0.608-0.555-1.002-1.181-1.002C790.634,416.263,790.178,416.647,790.079,417.265z"/>
	<path d="M794.224,419.643l0.465-1.001c0.43,0.277,1.082,0.465,1.672,0.465c0.645,0,0.886-0.17,0.886-0.438
		c0-0.787-2.906,0.018-2.906-1.904c0-0.912,0.823-1.556,2.227-1.556c0.662,0,1.395,0.151,1.851,0.42l-0.465,0.992
		c-0.474-0.268-0.947-0.357-1.386-0.357c-0.626,0-0.895,0.197-0.895,0.447c0,0.822,2.906,0.026,2.906,1.923
		c0,0.894-0.831,1.528-2.271,1.528C795.493,420.161,794.671,419.938,794.224,419.643z"/>
	<path d="M798.968,419.643l0.465-1.001c0.43,0.277,1.082,0.465,1.672,0.465c0.645,0,0.886-0.17,0.886-0.438
		c0-0.787-2.906,0.018-2.906-1.904c0-0.912,0.823-1.556,2.227-1.556c0.662,0,1.395,0.151,1.851,0.42l-0.465,0.992
		c-0.474-0.268-0.947-0.357-1.386-0.357c-0.626,0-0.895,0.197-0.895,0.447c0,0.822,2.906,0.026,2.906,1.923
		c0,0.894-0.831,1.528-2.271,1.528C800.237,420.161,799.415,419.938,798.968,419.643z"/>
	<path d="M806.409,416.96c0-1.887,1.448-3.236,3.397-3.236c1.082,0,1.985,0.394,2.575,1.108l-0.93,0.858
		c-0.42-0.482-0.947-0.733-1.573-0.733c-1.172,0-2.003,0.823-2.003,2.003c0,1.181,0.831,2.003,2.003,2.003
		c0.626,0,1.153-0.25,1.573-0.742l0.93,0.858c-0.59,0.725-1.493,1.118-2.584,1.118C807.857,420.197,806.409,418.847,806.409,416.96z
		"/>
	<path d="M812.726,417.685c0-1.448,1.118-2.477,2.646-2.477c1.529,0,2.638,1.028,2.638,2.477s-1.108,2.477-2.638,2.477
		C813.844,420.161,812.726,419.133,812.726,417.685z M816.598,417.685c0-0.832-0.528-1.332-1.226-1.332s-1.233,0.5-1.233,1.332
		s0.536,1.332,1.233,1.332S816.598,418.517,816.598,417.685z"/>
	<path d="M823.853,417.336v2.754h-1.395v-2.539c0-0.778-0.357-1.136-0.975-1.136c-0.671,0-1.153,0.411-1.153,1.296v2.379h-1.396
		v-4.811h1.333v0.563c0.375-0.411,0.938-0.635,1.591-0.635C822.994,415.208,823.853,415.869,823.853,417.336z"/>
	<path d="M828.211,419.857c-0.286,0.206-0.706,0.304-1.135,0.304c-1.136,0-1.798-0.581-1.798-1.726v-1.976h-0.742v-1.073h0.742
		v-1.172h1.396v1.172h1.198v1.073h-1.198v1.958c0,0.411,0.223,0.635,0.599,0.635c0.206,0,0.411-0.063,0.563-0.179L828.211,419.857z"
		/>
	<path d="M828.824,413.831c0-0.438,0.349-0.778,0.867-0.778c0.52,0,0.868,0.322,0.868,0.751c0,0.465-0.349,0.805-0.868,0.805
		C829.173,414.608,828.824,414.269,828.824,413.831z M828.994,415.279h1.396v4.811h-1.396V415.279z"/>
	<path d="M836.602,417.336v2.754h-1.395v-2.539c0-0.778-0.357-1.136-0.975-1.136c-0.671,0-1.153,0.411-1.153,1.296v2.379h-1.396
		v-4.811h1.333v0.563c0.375-0.411,0.938-0.635,1.591-0.635C835.743,415.208,836.602,415.869,836.602,417.336z"/>
	<path d="M842.704,415.279v4.811h-1.323v-0.572c-0.367,0.42-0.903,0.644-1.493,0.644c-1.207,0-2.057-0.68-2.057-2.164v-2.718h1.395
		v2.513c0,0.805,0.357,1.162,0.975,1.162c0.644,0,1.109-0.411,1.109-1.297v-2.378H842.704z"/>
	<path d="M843.824,413.831c0-0.438,0.349-0.778,0.867-0.778c0.52,0,0.868,0.322,0.868,0.751c0,0.465-0.349,0.805-0.868,0.805
		C844.173,414.608,843.824,414.269,843.824,413.831z M843.994,415.279h1.396v4.811h-1.396V415.279z"/>
	<path d="M849.786,419.857c-0.286,0.206-0.706,0.304-1.135,0.304c-1.136,0-1.798-0.581-1.798-1.726v-1.976h-0.742v-1.073h0.742
		v-1.172h1.396v1.172h1.198v1.073h-1.198v1.958c0,0.411,0.224,0.635,0.599,0.635c0.206,0,0.411-0.063,0.563-0.179L849.786,419.857z"
		/>
	<path d="M855.256,415.279l-2.173,5.105c-0.465,1.162-1.127,1.512-1.994,1.512c-0.492,0-1.028-0.161-1.342-0.438l0.51-0.992
		c0.215,0.188,0.51,0.304,0.787,0.304c0.385,0,0.6-0.17,0.787-0.6l0.018-0.044l-2.083-4.847h1.439l1.35,3.264l1.359-3.264H855.256z"
		/>
	<path d="M776.543,430.918l-0.751-0.697c-0.572,0.446-1.288,0.697-2.093,0.697c-1.377,0-2.387-0.716-2.387-1.717
		c0-0.787,0.42-1.332,1.377-1.869c-0.456-0.474-0.645-0.876-0.645-1.323c0-0.912,0.77-1.538,1.949-1.538
		c1.082,0,1.798,0.555,1.798,1.439c0,0.645-0.376,1.118-1.226,1.583l1.145,1.064c0.135-0.277,0.242-0.608,0.313-0.975l1.118,0.349
		c-0.117,0.536-0.305,1.019-0.572,1.422l0.732,0.679L776.543,430.918z M774.97,429.46l-1.512-1.412
		c-0.572,0.33-0.777,0.617-0.777,1.001c0,0.456,0.429,0.778,1.117,0.778C774.228,429.827,774.63,429.702,774.97,429.46z
		 M773.315,425.991c0,0.241,0.098,0.42,0.482,0.796c0.617-0.331,0.813-0.563,0.813-0.85c0-0.304-0.214-0.519-0.617-0.519
		C773.565,425.419,773.315,425.66,773.315,425.991z"/>
	<path d="M780.371,427.681c0-1.887,1.448-3.236,3.397-3.236c1.082,0,1.985,0.394,2.575,1.108l-0.93,0.858
		c-0.42-0.482-0.947-0.733-1.573-0.733c-1.172,0-2.003,0.823-2.003,2.003c0,1.181,0.831,2.003,2.003,2.003
		c0.626,0,1.153-0.25,1.573-0.742l0.93,0.858c-0.59,0.725-1.493,1.118-2.584,1.118C781.819,430.918,780.371,429.567,780.371,427.681
		z"/>
	<path d="M791.99,426l-2.173,5.105c-0.465,1.162-1.127,1.512-1.994,1.512c-0.492,0-1.028-0.161-1.342-0.438l0.51-0.992
		c0.215,0.188,0.51,0.304,0.787,0.304c0.385,0,0.6-0.17,0.787-0.6l0.018-0.044L786.5,426h1.439l1.35,3.264l1.359-3.264H791.99z"/>
	<path d="M797.797,428.405c0,1.511-1.046,2.477-2.396,2.477c-0.644,0-1.162-0.205-1.511-0.626v0.555h-1.333v-6.635h1.396v2.334
		c0.357-0.394,0.849-0.581,1.448-0.581C796.751,425.929,797.797,426.895,797.797,428.405z M796.384,428.405
		c0-0.832-0.527-1.332-1.225-1.332s-1.226,0.5-1.226,1.332s0.528,1.332,1.226,1.332S796.384,429.237,796.384,428.405z"/>
	<path d="M803.407,428.799h-3.639c0.134,0.599,0.644,0.966,1.377,0.966c0.509,0,0.876-0.152,1.207-0.465l0.742,0.805
		c-0.447,0.51-1.118,0.777-1.985,0.777c-1.663,0-2.745-1.046-2.745-2.477c0-1.439,1.1-2.477,2.566-2.477
		c1.413,0,2.504,0.947,2.504,2.494C803.435,428.53,803.416,428.683,803.407,428.799z M799.75,427.985h2.37
		c-0.099-0.608-0.555-1.002-1.181-1.002C800.305,426.983,799.849,427.368,799.75,427.985z"/>
	<path d="M807.345,425.929v1.287c-0.116-0.009-0.205-0.018-0.313-0.018c-0.769,0-1.278,0.42-1.278,1.341v2.271h-1.396V426h1.333
		v0.635C806.03,426.17,806.603,425.929,807.345,425.929z"/>
	<path d="M810.344,430.193l0.492-1.091c0.527,0.385,1.314,0.653,2.065,0.653c0.858,0,1.207-0.286,1.207-0.671
		c0-1.172-3.639-0.367-3.639-2.691c0-1.064,0.858-1.949,2.638-1.949c0.786,0,1.591,0.188,2.173,0.554l-0.447,1.101
		c-0.581-0.331-1.181-0.492-1.735-0.492c-0.857,0-1.188,0.322-1.188,0.716c0,1.153,3.639,0.357,3.639,2.655
		c0,1.046-0.867,1.94-2.655,1.94C811.9,430.918,810.898,430.623,810.344,430.193z"/>
	<path d="M821.123,428.799h-3.639c0.134,0.599,0.644,0.966,1.377,0.966c0.51,0,0.876-0.152,1.207-0.465l0.742,0.805
		c-0.447,0.51-1.118,0.777-1.985,0.777c-1.663,0-2.745-1.046-2.745-2.477c0-1.439,1.1-2.477,2.566-2.477
		c1.413,0,2.504,0.947,2.504,2.494C821.15,428.53,821.132,428.683,821.123,428.799z M817.466,427.985h2.37
		c-0.099-0.608-0.555-1.002-1.181-1.002C818.021,426.983,817.564,427.368,817.466,427.985z"/>
	<path d="M821.717,428.405c0-1.448,1.118-2.477,2.683-2.477c1.011,0,1.806,0.438,2.155,1.225l-1.082,0.581
		c-0.26-0.456-0.645-0.661-1.082-0.661c-0.707,0-1.261,0.491-1.261,1.332s0.554,1.332,1.261,1.332c0.438,0,0.822-0.196,1.082-0.661
		l1.082,0.59c-0.35,0.769-1.145,1.216-2.155,1.216C822.835,430.882,821.717,429.854,821.717,428.405z"/>
	<path d="M832.201,426v4.811h-1.323v-0.572c-0.367,0.42-0.903,0.644-1.493,0.644c-1.207,0-2.057-0.68-2.057-2.164V426h1.395v2.513
		c0,0.805,0.357,1.162,0.975,1.162c0.644,0,1.109-0.411,1.109-1.297V426H832.201z"/>
	<path d="M836.479,425.929v1.287c-0.116-0.009-0.205-0.018-0.313-0.018c-0.769,0-1.278,0.42-1.278,1.341v2.271h-1.396V426h1.333
		v0.635C835.164,426.17,835.736,425.929,836.479,425.929z"/>
	<path d="M837.137,424.552c0-0.438,0.349-0.778,0.867-0.778c0.52,0,0.868,0.322,0.868,0.751c0,0.465-0.349,0.805-0.868,0.805
		C837.485,425.329,837.137,424.989,837.137,424.552z M837.307,426h1.396v4.811h-1.396V426z"/>
	<path d="M843.099,430.578c-0.286,0.206-0.706,0.304-1.135,0.304c-1.136,0-1.798-0.581-1.798-1.726v-1.976h-0.742v-1.073h0.742
		v-1.172h1.396v1.172h1.198v1.073h-1.198v1.958c0,0.411,0.224,0.635,0.599,0.635c0.206,0,0.411-0.063,0.563-0.179L843.099,430.578z"
		/>
	<path d="M848.568,426l-2.173,5.105c-0.465,1.162-1.127,1.512-1.994,1.512c-0.492,0-1.028-0.161-1.342-0.438l0.51-0.992
		c0.215,0.188,0.51,0.304,0.787,0.304c0.385,0,0.6-0.17,0.787-0.6l0.018-0.044L843.078,426h1.439l1.35,3.264l1.359-3.264H848.568z"
		/>
</g>
<g>
	<g>
		
			<line style="fill:none;stroke:#183651;stroke-width:5;stroke-linecap:round;stroke-miterlimit:10;" x1="869.111" y1="376.548" x2="975.264" y2="325.211"/>
		<g>
			<polygon style="fill:#183651;" points="976.336,331.616 983.34,321.305 970.909,320.393 			"/>
		</g>
	</g>
</g>
<g>
	<g>
		
			<line style="fill:none;stroke:#183651;stroke-width:5;stroke-linecap:round;stroke-miterlimit:10;" x1="870.284" y1="455.153" x2="974.895" y2="520.712"/>
		<g>
			<polygon style="fill:#183651;" points="970.039,525.025 982.496,525.475 976.659,514.462 			"/>
		</g>
	</g>
</g>
<g>
	<g>
		<path d="M1026.373,348.238c0,1.081-0.819,1.702-2.413,1.702h-3.007v-6.302h2.827c1.449,0,2.26,0.612,2.26,1.629
			c0,0.684-0.352,1.161-0.847,1.404C1025.904,346.87,1026.373,347.401,1026.373,348.238z M1021.854,344.367v2.017h1.846
			c0.918,0,1.44-0.342,1.44-1.008c0-0.666-0.522-1.008-1.44-1.008H1021.854z M1025.464,348.166c0-0.729-0.541-1.053-1.54-1.053
			h-2.07v2.098h2.07C1024.923,349.21,1025.464,348.895,1025.464,348.166z"/>
		<path d="M1031.421,347.059v2.881h-0.819v-0.63c-0.288,0.432-0.819,0.685-1.566,0.685c-1.08,0-1.765-0.576-1.765-1.405
			c0-0.765,0.495-1.395,1.918-1.395h1.368v-0.171c0-0.729-0.424-1.152-1.278-1.152c-0.567,0-1.144,0.198-1.513,0.513l-0.36-0.648
			c0.495-0.396,1.207-0.612,1.972-0.612C1030.683,345.123,1031.421,345.753,1031.421,347.059z M1030.557,348.481v-0.666h-1.333
			c-0.854,0-1.098,0.333-1.098,0.738c0,0.477,0.396,0.774,1.053,0.774C1029.827,349.327,1030.341,349.03,1030.557,348.481z"/>
		<path d="M1036.804,347.059v2.881h-0.819v-0.63c-0.288,0.432-0.819,0.685-1.566,0.685c-1.08,0-1.765-0.576-1.765-1.405
			c0-0.765,0.495-1.395,1.918-1.395h1.368v-0.171c0-0.729-0.424-1.152-1.278-1.152c-0.567,0-1.144,0.198-1.513,0.513l-0.36-0.648
			c0.495-0.396,1.207-0.612,1.972-0.612C1036.065,345.123,1036.804,345.753,1036.804,347.059z M1035.939,348.481v-0.666h-1.333
			c-0.854,0-1.098,0.333-1.098,0.738c0,0.477,0.396,0.774,1.053,0.774C1035.21,349.327,1035.724,349.03,1035.939,348.481z"/>
		<path d="M1037.801,349.436l0.36-0.685c0.405,0.288,1.054,0.495,1.675,0.495c0.801,0,1.134-0.243,1.134-0.648
			c0-1.071-3.016-0.144-3.016-2.043c0-0.855,0.766-1.432,1.989-1.432c0.621,0,1.323,0.162,1.738,0.432l-0.369,0.684
			c-0.433-0.279-0.91-0.378-1.378-0.378c-0.756,0-1.125,0.279-1.125,0.657c0,1.125,3.024,0.207,3.024,2.062
			c0,0.864-0.792,1.414-2.062,1.414C1038.98,349.994,1038.197,349.75,1037.801,349.436z"/>
	</g>
	<g>
		<g>
			<defs>
				<rect id="SVGID_1_" x="997.35" y="267.912" width="67.402" height="67.402"/>
			</defs>
			<clipPath id="SVGID_2_">
				<use xlink:href="#SVGID_1_"  style="overflow:visible;"/>
			</clipPath>
			<path style="clip-path:url(#SVGID_2_);fill:#F02399;" d="M1049.71,329.68c-5.451,3.631-12.019,5.717-19.079,5.631
				c-18.586-0.227-33.555-15.627-33.277-34.212c0.275-18.376,15.256-33.188,33.698-33.188c18.477,0,33.434,14.735,33.698,33.21
				c0.087,6.098-1.448,11.831-4.198,16.796c-0.458,0.826-1.334,1.335-2.279,1.335c-3.837,0-6.947,3.11-6.947,6.947v0.453
				C1051.324,327.868,1050.721,329.006,1049.71,329.68L1049.71,329.68z M1049.71,329.68"/>
		</g>
		<path style="fill:#FD4FB6;" d="M1053.102,308.722v7.899h-3.291v-7.24c0-1.454-1.179-2.633-2.633-2.633h-14.481v17.772
			c0,0.902-0.727,1.643-1.629,1.643c-0.002,0-0.003,0.671-0.004,1.649c0.903,0.007,1.633,0.741,1.633,1.645
			c0,0.906-0.732,1.641-1.638,1.645c0,0.45-0.001,0.895-0.002,1.318c0.906,0.003,1.639,0.738,1.639,1.645
			c0,0.491-0.216,0.93-0.557,1.231c-0.362,0.012-0.724,0.019-1.089,0.019c-0.365,0-0.727-0.008-1.089-0.019
			c-0.34-0.301-0.557-0.741-0.557-1.231c0-0.907,0.733-1.642,1.639-1.645c-0.001-0.423-0.001-0.868-0.002-1.318
			c-0.905-0.004-1.638-0.739-1.638-1.645c0-0.905,0.73-1.638,1.634-1.645c-0.002-0.978-0.003-1.649-0.005-1.649
			c-0.902,0-1.629-0.741-1.629-1.643v-17.772h-14.481c-1.454,0-2.633,1.179-2.633,2.633v7.24H1009v-7.899
			c0-2.908,2.358-5.266,5.266-5.266h15.139V279.76h3.291v23.696h15.139C1050.744,303.456,1053.102,305.814,1053.102,308.722
			L1053.102,308.722z M1053.102,308.722"/>
		<path style="fill:#FD92D2;" d="M1035,304.772c0,2.181-1.768,3.949-3.949,3.949c-2.181,0-3.949-1.768-3.949-3.949
			s1.768-3.949,3.949-3.949C1033.232,300.823,1035,302.591,1035,304.772L1035,304.772z M1035,304.772"/>
		<path style="fill:#0AB59E;" d="M1018.676,329.785h-16.061c-0.727,0-1.316-0.589-1.316-1.316v-15.534
			c0-0.727,0.589-1.316,1.316-1.316h16.061c0.727,0,1.316,0.589,1.316,1.316v15.534
			C1019.993,329.196,1019.403,329.785,1018.676,329.785L1018.676,329.785z M1018.676,329.785"/>
		<path style="fill:#0ED1B2;" d="M1003.932,325.484v2.984c0,0.727,0.589,1.316,1.316,1.316h13.428c0.727,0,1.316-0.589,1.316-1.316
			v-3.642h-15.403C1004.227,324.826,1003.932,325.121,1003.932,325.484L1003.932,325.484z M1013.147,325.836
			c0.727,0,1.316,0.589,1.316,1.316s-0.589,1.316-1.316,1.316c-0.727,0-1.316-0.589-1.316-1.316S1012.42,325.836,1013.147,325.836
			L1013.147,325.836z M1003.932,319.078v3.116c0,0.363,0.295,0.658,0.658,0.658h15.403v-4.432h-15.403
			C1004.227,318.42,1003.932,318.714,1003.932,319.078L1003.932,319.078z M1013.147,319.253c0.727,0,1.316,0.589,1.316,1.316
			c0,0.727-0.589,1.316-1.316,1.316c-0.727,0-1.316-0.589-1.316-1.316C1011.831,319.843,1012.42,319.253,1013.147,319.253
			L1013.147,319.253z M1018.676,311.618h-13.428c-0.727,0-1.316,0.589-1.316,1.316v2.852c0,0.364,0.295,0.658,0.658,0.658h15.403
			v-3.511C1019.993,312.207,1019.403,311.618,1018.676,311.618L1018.676,311.618z M1013.147,315.304
			c-0.727,0-1.316-0.589-1.316-1.316s0.589-1.316,1.316-1.316c0.727,0,1.316,0.589,1.316,1.316S1013.874,315.304,1013.147,315.304
			L1013.147,315.304z M1013.147,315.304"/>
		<path style="fill:#98E5FB;" d="M1015.78,313.988c0-0.727,0.589-1.316,1.316-1.316c0.727,0,1.316,0.589,1.316,1.316
			s-0.589,1.316-1.316,1.316C1016.37,315.304,1015.78,314.715,1015.78,313.988L1015.78,313.988z M1017.097,319.253
			c-0.727,0-1.316,0.589-1.316,1.316c0,0.727,0.589,1.316,1.316,1.316c0.727,0,1.316-0.589,1.316-1.316
			C1018.413,319.843,1017.824,319.253,1017.097,319.253L1017.097,319.253z M1017.097,325.836c-0.727,0-1.316,0.589-1.316,1.316
			s0.589,1.316,1.316,1.316c0.727,0,1.316-0.589,1.316-1.316S1017.824,325.836,1017.097,325.836L1017.097,325.836z
			 M1017.097,325.836"/>
		<path style="fill:#C7EEFD;" d="M1054.089,288.317c0,3.635-2.947,6.582-6.582,6.582h-32.911c-3.635,0-6.582-2.947-6.582-6.582
			c0-3.635,2.947-6.582,6.582-6.582h0.167c1.498-2.93,4.544-4.937,8.061-4.937c1.42,0,2.764,0.328,3.96,0.911
			c1.979-3.491,5.728-5.847,10.028-5.847c5.817,0,10.625,4.311,11.407,9.912C1051.518,282.128,1054.089,284.922,1054.089,288.317
			L1054.089,288.317z M1054.089,288.317"/>
		<path style="fill:#98E5FB;" d="M1014.464,285.797c-2.886,0.722-5.058,3.246-5.25,6.307c-0.755-1.071-1.2-2.377-1.2-3.787
			c0-3.635,2.947-6.582,6.582-6.582h0.167c1.498-2.93,4.544-4.937,8.061-4.937c1.42,0,2.764,0.328,3.96,0.911
			c1.979-3.491,5.728-5.847,10.028-5.847c4.156,0,7.795,2.201,9.821,5.5c-1.979-1.39-4.389-2.209-6.991-2.209
			c-3.836,0-7.258,1.774-9.49,4.546c-0.697,0.866-1.84,1.247-2.917,0.971c-0.761-0.195-1.558-0.299-2.38-0.299
			c-3.265,0-6.147,1.637-7.873,4.134c-0.462,0.668-1.191,1.099-1.997,1.202C1014.784,285.734,1014.599,285.764,1014.464,285.797
			L1014.464,285.797z M1014.464,285.797"/>
		<path style="fill:#FDCB6B;" d="M1060.583,317.858c-2.656,4.818-6.456,8.915-11.034,11.927h-6.343
			c-0.727,0-1.317-0.589-1.317-1.316v-15.534c0-0.727,0.589-1.316,1.317-1.316h9.435c0.727,0,1.317,0.589,1.317,1.316v0.79h5.309
			c0.727,0,1.316,0.589,1.316,1.316V317.858z M1060.583,317.858"/>
		<path style="fill:#FDBF43;" d="M1046.3,329.785h-3.094c-0.727,0-1.317-0.589-1.317-1.316v-15.534c0-0.727,0.589-1.316,1.317-1.316
			h3.094c-0.727,0-1.316,0.589-1.316,1.316v15.534C1044.983,329.196,1045.573,329.785,1046.3,329.785L1046.3,329.785z
			 M1046.3,329.785"/>
	</g>
</g>
<g>
	<g>
		<path d="M1017.395,574.067h2.655c2.026,0,3.403,1.278,3.403,3.151c0,1.872-1.377,3.15-3.403,3.15h-2.655V574.067z
			 M1019.996,579.586c1.558,0,2.557-0.954,2.557-2.367c0-1.414-0.999-2.368-2.557-2.368h-1.701v4.735H1019.996z"/>
		<path d="M1029.041,580.369l-1.359-1.936c-0.126,0.009-0.261,0.019-0.396,0.019h-1.558v1.917h-0.9v-6.302h2.458
			c1.639,0,2.629,0.828,2.629,2.196c0,0.973-0.505,1.675-1.387,1.99l1.494,2.115H1029.041z M1029.015,576.264
			c0-0.899-0.604-1.413-1.756-1.413h-1.53v2.836h1.53C1028.411,577.687,1029.015,577.164,1029.015,576.264z"/>
		<path d="M1034.981,577.488v2.881h-0.819v-0.63c-0.288,0.432-0.819,0.685-1.566,0.685c-1.08,0-1.765-0.576-1.765-1.405
			c0-0.765,0.495-1.395,1.918-1.395h1.368v-0.172c0-0.729-0.423-1.152-1.278-1.152c-0.567,0-1.144,0.198-1.513,0.514l-0.36-0.648
			c0.495-0.396,1.207-0.612,1.972-0.612C1034.243,575.553,1034.981,576.184,1034.981,577.488z M1034.117,578.911v-0.666h-1.333
			c-0.854,0-1.098,0.333-1.098,0.738c0,0.477,0.396,0.773,1.053,0.773C1033.388,579.757,1033.901,579.46,1034.117,578.911z"/>
		<path d="M1040.363,577.488v2.881h-0.819v-0.63c-0.288,0.432-0.819,0.685-1.566,0.685c-1.08,0-1.765-0.576-1.765-1.405
			c0-0.765,0.495-1.395,1.918-1.395h1.368v-0.172c0-0.729-0.424-1.152-1.278-1.152c-0.567,0-1.144,0.198-1.513,0.514l-0.36-0.648
			c0.495-0.396,1.207-0.612,1.972-0.612C1039.625,575.553,1040.363,576.184,1040.363,577.488z M1039.499,578.911v-0.666h-1.333
			c-0.854,0-1.098,0.333-1.098,0.738c0,0.477,0.396,0.773,1.053,0.773C1038.77,579.757,1039.283,579.46,1039.499,578.911z"/>
		<path d="M1041.36,579.865l0.36-0.685c0.405,0.288,1.054,0.495,1.675,0.495c0.801,0,1.134-0.243,1.134-0.647
			c0-1.071-3.016-0.145-3.016-2.044c0-0.855,0.766-1.432,1.989-1.432c0.621,0,1.323,0.162,1.738,0.433l-0.369,0.684
			c-0.433-0.278-0.91-0.378-1.378-0.378c-0.756,0-1.125,0.279-1.125,0.657c0,1.125,3.024,0.207,3.024,2.062
			c0,0.864-0.792,1.414-2.062,1.414C1042.54,580.424,1041.757,580.181,1041.36,579.865z"/>
	</g>
	<g>
		<path style="fill:#547792;" d="M1031.051,498.428c18.46,0,33.424,14.964,33.424,33.424c0,18.46-14.964,33.424-33.424,33.424
			c-18.46,0-33.424-14.964-33.424-33.424C997.627,513.393,1012.591,498.428,1031.051,498.428L1031.051,498.428z"/>
		<path style="fill:#00BAF2;" d="M1058.038,519.123c-1.981-8.475-9.584-14.787-18.662-14.787c-8.075,0-14.984,4.994-17.806,12.063
			c-0.183,0.457-0.677,0.445-0.652,0.437c-6.557,0-11.973,4.886-12.805,11.216c-0.119,0.908-0.762,1.667-1.651,1.885
			c-2.875,0.704-4.995,3.333-4.915,6.443c0.091,3.524,3.076,6.288,6.601,6.288h49.033c2.216,0,4.297-0.646,6.053-1.758
			c0.809-2.881,1.243-5.918,1.243-9.057c0-3.354-0.496-6.592-1.416-9.647c-0.991-0.599-2.083-1.048-3.246-1.311
			C1058.93,520.694,1058.244,520.006,1058.038,519.123L1058.038,519.123z"/>
		<path style="fill:#00A3E2;" d="M1018.913,531.781c-0.065-5.309,3.623-9.765,8.577-10.887c0.884-0.2,1.569-0.888,1.776-1.771
			c1.66-7.102,7.269-12.685,14.385-14.307c-1.375-0.313-2.806-0.48-4.276-0.48c-8.075,0-14.984,4.994-17.806,12.063
			c-0.183,0.457-0.677,0.445-0.652,0.437c-6.557,0-11.973,4.886-12.805,11.216c-0.119,0.908-0.762,1.667-1.651,1.885
			c-2.875,0.704-4.995,3.333-4.915,6.443c0.091,3.524,3.076,6.288,6.601,6.288h21.978
			C1024.059,542.668,1018.988,537.847,1018.913,531.781L1018.913,531.781z"/>
		<path style="fill:#FCB347;" d="M1056.953,552.976v-18.763c0-0.641-0.52-1.161-1.161-1.161h-31.009
			c-0.577,0-1.045,0.468-1.045,1.045v22.188c0,1.371-1.112,2.483-2.483,2.483h29.613
			C1053.132,557.099,1055.177,555.151,1056.953,552.976L1056.953,552.976z"/>
		<path style="fill:#F8994A;" d="M1027.768,556.285v-22.188c0-0.577,0.468-1.045,1.045-1.045h-4.03
			c-0.577,0-1.045,0.468-1.045,1.045v22.188c0,1.371-1.112,2.483-2.483,2.483h4.03
			C1026.656,558.768,1027.768,557.656,1027.768,556.285L1027.768,556.285z"/>
		<path style="fill:#FDC790;" d="M1023.738,556.285v-22.188c0-0.577,0.468-1.045,1.045-1.045h13.411l-4.289-5.208
			c-0.219-0.266-0.545-0.419-0.889-0.419h-13.012c-0.68,0-1.232,0.552-1.232,1.232v27.63c0,1.371,1.112,2.483,2.483,2.483
			C1022.627,558.768,1023.738,557.656,1023.738,556.285L1023.738,556.285z"/>
		<path style="fill:#FCB347;" d="M1027.765,532.302c0-2.694,2.184-4.879,4.879-4.879h-12.639c-0.68,0-1.232,0.552-1.232,1.232v27.63
			c0,1.371,1.112,2.483,2.483,2.483c1.371,0,2.483-1.112,2.483-2.483v-22.188c0-0.577,0.468-1.045,1.045-1.045h2.981
			L1027.765,532.302L1027.765,532.302L1027.765,532.302z"/>
		<path style="fill:#E8E6E5;" d="M1037.609,554.099v7.948c0,0.346,0.281,0.628,0.628,0.628h3.882c0.328,0,0.594-0.266,0.594-0.594
			v-7.982h3.041c0.528,0,0.843-0.588,0.55-1.027l-5.593-8.406c-0.262-0.393-0.839-0.393-1.101,0l-5.593,8.406
			c-0.292,0.439,0.023,1.027,0.55,1.027L1037.609,554.099L1037.609,554.099L1037.609,554.099z"/>
		<path style="fill:#00AB5D;" d="M1055.987,505.424c-0.16-0.159-0.418-0.159-0.578,0c-2.175,2.162-5.125,3.152-8.038,2.872
			c-0.241-0.023-0.45,0.166-0.45,0.408v8.812c0,6.805,3.379,5.677,8.55,9.113c0.137,0.091,0.317,0.091,0.454,0
			c5.171-3.435,8.55-2.308,8.55-9.113v-8.812c0-0.243-0.209-0.432-0.45-0.408C1061.112,508.576,1058.161,507.585,1055.987,505.424
			L1055.987,505.424z"/>
		<path style="fill:#00AA59;" d="M1050.841,519.87v-11.843c-1.128,0.29-2.305,0.382-3.47,0.27c-0.241-0.023-0.45,0.166-0.45,0.408
			v8.812c0,5.215,1.984,5.771,5.239,7.292C1051.308,523.83,1050.841,522.398,1050.841,519.87L1050.841,519.87z"/>
		<path style="fill:#00AA59;" d="M1064.475,508.705c0-0.243-0.209-0.432-0.45-0.408c-2.913,0.28-5.864-0.711-8.038-2.872
			c-0.08-0.08-0.185-0.119-0.289-0.119v10.697h8.777L1064.475,508.705L1064.475,508.705L1064.475,508.705z"/>
		<path style="fill:#00AA59;" d="M1046.921,517.517c0,6.805,3.379,5.677,8.55,9.112c0.069,0.046,0.148,0.068,0.227,0.068v-10.697
			h-8.777V517.517L1046.921,517.517z"/>
		<path style="fill:#00A851;" d="M1050.841,519.87v-3.868h-3.921v1.516c0,0.002,0,0.004,0,0.005
			c0.001,1.762,0.196,3.702,1.381,5.005c0.946,1.042,2.45,1.624,3.858,2.282C1051.308,523.83,1050.841,522.398,1050.841,519.87
			L1050.841,519.87z"/>
		<path style="fill:#D4D3D2;" d="M1040.161,561.872v-16.776c0-0.252,0.063-0.49,0.171-0.701c-0.26-0.069-0.554,0.021-0.721,0.272
			l-5.593,8.406c-0.292,0.439,0.023,1.027,0.55,1.027h3.041v7.948c0,0.346,0.281,0.628,0.628,0.628h2.154
			C1040.246,562.441,1040.161,562.166,1040.161,561.872L1040.161,561.872z"/>
	</g>
</g>
<g>
</g>
</svg>
