<svg id="Capa_1" enable-background="new 0 0 512.007 512.007" height="512" viewBox="0 0 512.007 512.007" width="512" xmlns="http://www.w3.org/2000/svg"><g><path d="m436.004 60.007c-87.246 0-145.474-39.653-167.402-54.58l-4.277-2.9c-2.52-1.685-5.42-2.527-8.32-2.527s-5.801.842-8.32 2.527l-4.307 2.915c-23.979 16.333-80.142 54.565-167.373 54.565-8.291 0-15 6.709-15 15v159.76c0 119.78 63.354 213.197 188.291 275.658 2.109 1.055 4.409 1.582 6.709 1.582s4.6-.527 6.709-1.582c124.937-62.461 188.291-155.878 188.291-275.658v-159.76c-.001-8.291-6.71-15-15.001-15z" fill="#edf5ff"/><path d="m451.004 234.767v-159.76c0-8.291-6.709-15-15-15-87.246 0-145.474-39.653-167.402-54.58l-4.277-2.9c-2.52-1.685-5.42-2.527-8.32-2.527v512.007c2.3 0 4.6-.527 6.709-1.582 124.935-62.461 188.29-155.878 188.29-275.658z" fill="#d5e8fe"/><path d="m378.494 115.232c-40.151-6.782-78.823-20.874-114.946-41.88-2.329-1.362-4.937-2.043-7.544-2.043s-5.215.681-7.544 2.043c-36.094 20.991-74.766 35.083-114.961 41.88-7.207 1.23-12.495 7.471-12.495 14.795v104.74c0 107.285 60.952 162.807 126.812 205.756 2.49 1.626 5.332 2.432 8.188 2.432s5.698-.806 8.188-2.432c65.859-42.949 126.812-98.471 126.812-205.756v-104.74c0-7.324-5.288-13.565-12.51-14.795z" fill="#8cd96b"/><path d="m391.004 234.767v-104.74c0-7.324-5.288-13.564-12.51-14.795-40.151-6.782-78.823-20.874-114.946-41.88-2.329-1.362-4.937-2.043-7.544-2.043v371.646c2.856 0 5.698-.806 8.188-2.432 65.86-42.949 126.812-98.471 126.812-205.756z" fill="#5ab267"/><path d="m311.609 215.402c-5.859-5.859-15.352-5.859-21.211 0l-34.395 34.395-15 15-19.395-19.395c-5.859-5.859-15.352-5.859-21.211 0s-5.859 15.352 0 21.211l30 30c2.93 2.93 6.768 4.395 10.605 4.395s7.676-1.465 10.605-4.395l4.395-4.395 55.605-55.605c5.862-5.86 5.862-15.352.002-21.211z" fill="#edf5ff"/><path d="m311.609 215.402c-5.859-5.859-15.352-5.859-21.211 0l-34.395 34.395v42.422l55.605-55.605c5.861-5.861 5.861-15.353.001-21.212z" fill="#d5e8fe"/></g></svg>