<svg id="Layer_5" enable-background="new 0 0 64 64" height="512" viewBox="0 0 64 64" width="512" xmlns="http://www.w3.org/2000/svg"><g><g><g><path d="m62 54.01v4c0 2.21-1.79 4-4 4h-52c-2.21 0-4-1.79-4-4v-4h4 18l2 4h12l2-4h18z" fill="#969faa"/></g><g><path d="m6 30v24h18 16 18v-24z" fill="#ccd1d9"/></g><g><path d="m40 54.01-2 4h-12l-2-4z" fill="#fcd770"/></g><g><path d="m10 30v19.01c0 .56.45 1 1 1h42c.55 0 1-.44 1-1v-19.01z" fill="#69d6f4"/></g><g><path d="m14 36h12v10h-12z" fill="#b4dd7f"/></g><g><path d="m45.46 14.19c-.3-1.06-.72-2.07-1.24-3.02l1.22-2.36-4.25-4.25-2.36 1.22c-.95-.52-1.96-.94-3.02-1.24l-.81-2.54h-6l-.81 2.54c-1.06.3-2.07.72-3.02 1.24l-2.36-1.22-4.25 4.25 1.22 2.36c-.52.95-.94 1.96-1.24 3.02l-2.54.81v3 3l2.54.81c.21.76.49 1.49.82 2.19.13.28.27.56.42.83l-.16.31-1.06 2.05 2.81 2.81 1.44 1.43 2.36-1.21c.95.52 1.96.94 3.02 1.24l.81 2.54h6l.81-2.54c1.06-.3 2.07-.72 3.02-1.24l2.36 1.21 1.44-1.43 2.81-2.81-1.06-2.05-.16-.31c.15-.27.29-.55.42-.83.33-.7.61-1.43.82-2.19l2.54-.81v-3-3z" fill="#fcd770"/></g><g><circle cx="4" cy="11" fill="#ff826e" r="2"/></g><g><circle cx="8" cy="18" fill="#ff826e" r="2"/></g><g><circle cx="4" cy="25" fill="#ff826e" r="2"/></g><g><circle cx="60" cy="25" fill="#ff826e" r="2"/></g><g><circle cx="60" cy="11" fill="#ff826e" r="2"/></g><g><circle cx="56" cy="18" fill="#ff826e" r="2"/></g><g><path d="m38 12h4v12h-4z" fill="#ff826e"/></g><g><path d="m30 8h4v16h-4z" fill="#ff826e"/></g><g><path d="m22 14h4v10h-4z" fill="#ff826e"/></g></g><g><path d="m17.734 13.394-2.734.877v2.729h-4.184c-.414-1.161-1.514-2-2.816-2-1.654 0-3 1.346-3 3s1.346 3 3 3c1.302 0 2.402-.839 2.816-2h4.184v2.729l2.734.876c.249.774.557 1.52.919 2.229l-1.312 2.549 5.274 5.274 2.549-1.312c.71.363 1.456.67 2.229.919l.878 2.736h7.459l.876-2.734c.773-.249 1.52-.556 2.229-.919l2.549 1.312 5.274-5.274-1.312-2.549c.362-.709.67-1.455.919-2.229l2.735-.878v-2.729h4.184c.414 1.161 1.514 2 2.816 2 1.654 0 3-1.346 3-3s-1.346-3-3-3c-1.302 0-2.402.839-2.816 2h-4.184v-2.729l-2.734-.876c-.249-.774-.557-1.52-.919-2.229l1.312-2.549-5.274-5.274-2.549 1.312c-.711-.363-1.457-.671-2.229-.919l-.878-2.736h-7.459l-.876 2.734c-.772.248-1.519.556-2.229.919l-2.549-1.312-5.274 5.274 1.312 2.549c-.363.71-.671 1.456-.92 2.23zm-9.734 5.606c-.552 0-1-.449-1-1s.448-1 1-1 1 .449 1 1-.448 1-1 1zm48-2c.552 0 1 .449 1 1s-.448 1-1 1-1-.449-1-1 .448-1 1-1zm-14.999 13.212-2.195-1.129-.468.262c-.868.486-1.809.875-2.797 1.153l-.517.146-.753 2.356h-4.541l-.754-2.356-.517-.146c-.988-.279-1.929-.667-2.797-1.153l-.468-.262-2.195 1.129-3.212-3.211 1.03-2.001h22.366l1.03 2.001zm-16.001-7.212h-2v-8h2zm8 0h-2v-14h2zm8 0h-2v-10h2zm-21.498-8.542c.28-.989.668-1.929 1.152-2.796l.263-.468-1.13-2.195 3.212-3.211 2.194 1.129.469-.262c.87-.487 1.811-.875 2.797-1.153l.517-.146.753-2.356h4.541l.754 2.356.517.146c.986.278 1.927.667 2.797 1.153l.469.262 2.194-1.129 3.212 3.211-1.13 2.195.263.468c.484.867.872 1.807 1.152 2.796l.146.517 2.356.754v4.541l-2.356.755-.146.517c-.142.5-.311.986-.507 1.458h-.991v-12h-6v12h-2v-16h-6v16h-2v-10h-6v10h-.992c-.195-.472-.365-.958-.507-1.458l-.146-.517-2.355-.754v-4.541l2.356-.755z"/><path d="m47 57.014h2v2h-2z"/><path d="m55 57.014h2v2h-2z"/><path d="m51 57.014h2v2h-2z"/><path d="m59 30h-2v23.014h-50v-23.014h-2v23.014h-4v5c0 2.757 2.243 5 5 5h52c2.757 0 5-2.243 5-5v-5h-4zm-20.618 25.014-1 2h-10.764l-1-2zm22.618 3c0 1.654-1.346 3-3 3h-52c-1.654 0-3-1.346-3-3v-3h20.382l2 4h13.236l2-4h20.382z"/><path d="m9 30v19.014c0 1.103.897 2 2 2h42c1.103 0 2-.897 2-2v-19.014h-2v19.014h-42v-19.014z"/><path d="m60 14c1.654 0 3-1.346 3-3s-1.346-3-3-3c-1.302 0-2.402.839-2.816 2h-9.184v2h9.184c.414 1.161 1.514 2 2.816 2zm0-4c.552 0 1 .449 1 1s-.448 1-1 1-1-.449-1-1 .448-1 1-1z"/><path d="m60 22c-1.302 0-2.402.839-2.816 2h-9.184v2h9.184c.414 1.161 1.514 2 2.816 2 1.654 0 3-1.346 3-3s-1.346-3-3-3zm0 4c-.552 0-1-.449-1-1s.448-1 1-1 1 .449 1 1-.448 1-1 1z"/><path d="m4 14c1.302 0 2.402-.839 2.816-2h9.184v-2h-9.184c-.414-1.161-1.514-2-2.816-2-1.654 0-3 1.346-3 3s1.346 3 3 3zm0-4c.552 0 1 .449 1 1s-.448 1-1 1-1-.449-1-1 .448-1 1-1z"/><path d="m4 28c1.302 0 2.402-.839 2.816-2h9.184v-2h-9.184c-.414-1.161-1.514-2-2.816-2-1.654 0-3 1.346-3 3s1.346 3 3 3zm0-4c.552 0 1 .449 1 1s-.448 1-1 1-1-.449-1-1 .448-1 1-1z"/><path d="m13 35v12h14v-12zm12 10h-10v-8h10z"/><path d="m29 37h22v2h-22z"/><path d="m49 41h2v2h-2z"/><path d="m29 41h18v2h-18z"/><path d="m29 45h22v2h-22z"/></g></g></svg>