<?xml version="1.0" encoding="iso-8859-1"?>
<!-- Generator: Adobe Illustrator 19.0.0, SVG Export Plug-In . SVG Version: 6.00 Build 0)  -->
<svg version="1.1" id="Layer_1" xmlns="http://www.w3.org/2000/svg" xmlns:xlink="http://www.w3.org/1999/xlink" x="0px" y="0px"
	 viewBox="0 0 496 496" style="enable-background:new 0 0 496 496;" xml:space="preserve">
<rect x="72" y="184" style="fill:#FFA64D;" width="352" height="136"/>
<g>
	<path style="fill:#333333;" d="M456,112h-96H136H40c-22.056,0-40,17.944-40,40v256c0,22.056,17.944,40,40,40h104v32h-32v16h32h208
		h32v-16h-32v-32h104c22.056,0,40-17.944,40-40V152C496,129.944,478.056,112,456,112z M40,128h416c13.232,0,24,10.768,24,24v224H16
		V152C16,138.768,26.768,128,40,128z M336,480H160v-32h176V480z M456,432H352H144H40c-13.232,0-24-10.768-24-24v-16h464v16
		C480,421.232,469.232,432,456,432z"/>
	<path style="fill:#333333;" d="M192,56c0-30.872-25.128-56-56-56S80,25.128,80,56s25.128,56,56,56S192,86.872,192,56z M144,40
		c0,4.416-3.584,8-8,8s-8-3.584-8-8s3.584-8,8-8S144,35.584,144,40z M96,56c0-20.4,15.408-37.096,35.168-39.512
		C120.24,18.728,112,28.424,112,40c0,13.232,10.768,24,24,24s24-10.768,24-24c0-11.576-8.24-21.272-19.168-23.512
		C160.592,18.904,176,35.6,176,56c0,10.48-4.144,19.96-10.768,27.104C160.264,71.872,149.056,64,136,64s-24.264,7.872-29.232,19.104
		C100.144,75.96,96,66.48,96,56z M120.328,92.784C121.816,85.504,128.28,80,136,80s14.184,5.504,15.672,12.784
		C146.856,94.848,141.56,96,136,96S125.144,94.848,120.328,92.784z"/>
	<path style="fill:#333333;" d="M416,56c0-30.872-25.128-56-56-56s-56,25.128-56,56s25.128,56,56,56S416,86.872,416,56z M368,40
		c0,4.416-3.584,8-8,8s-8-3.584-8-8s3.584-8,8-8S368,35.584,368,40z M320,56c0-20.4,15.408-37.096,35.168-39.512
		C344.24,18.728,336,28.424,336,40c0,13.232,10.768,24,24,24s24-10.768,24-24c0-11.576-8.24-21.272-19.168-23.512
		C384.592,18.904,400,35.6,400,56c0,10.48-4.144,19.96-10.768,27.104C384.264,71.872,373.056,64,360,64s-24.264,7.872-29.232,19.104
		C324.144,75.96,320,66.48,320,56z M344.328,92.784C345.816,85.504,352.28,80,360,80s14.184,5.504,15.672,12.784
		C370.856,94.848,365.56,96,360,96S349.144,94.848,344.328,92.784z"/>
	<path style="fill:#333333;" d="M136,320c30.872,0,56-25.128,56-56s-25.128-56-56-56s-56,25.128-56,56S105.128,320,136,320z
		 M120.328,300.784C121.816,293.504,128.28,288,136,288s14.184,5.504,15.672,12.784C146.856,302.848,141.56,304,136,304
		S125.144,302.848,120.328,300.784z M144,248c0,4.416-3.584,8-8,8s-8-3.584-8-8s3.584-8,8-8S144,243.584,144,248z M131.168,224.488
		C120.24,226.728,112,236.424,112,248c0,13.232,10.768,24,24,24s24-10.768,24-24c0-11.576-8.24-21.272-19.168-23.512
		C160.592,226.904,176,243.6,176,264c0,10.48-4.144,19.96-10.768,27.104C160.264,279.872,149.056,272,136,272
		s-24.264,7.872-29.232,19.104C100.144,283.96,96,274.48,96,264C96,243.6,111.408,226.904,131.168,224.488z"/>
	<path style="fill:#333333;" d="M360,320c30.872,0,56-25.128,56-56s-25.128-56-56-56s-56,25.128-56,56S329.128,320,360,320z
		 M344.328,300.784C345.816,293.504,352.28,288,360,288s14.184,5.504,15.672,12.784C370.856,302.848,365.56,304,360,304
		S349.144,302.848,344.328,300.784z M368,248c0,4.416-3.584,8-8,8s-8-3.584-8-8s3.584-8,8-8S368,243.584,368,248z M355.168,224.488
		C344.24,226.728,336,236.424,336,248c0,13.232,10.768,24,24,24s24-10.768,24-24c0-11.576-8.24-21.272-19.168-23.512
		C384.592,226.904,400,243.6,400,264c0,10.48-4.144,19.96-10.768,27.104C384.264,279.872,373.056,272,360,272
		s-24.264,7.872-29.232,19.104C324.144,283.96,320,274.48,320,264C320,243.6,335.408,226.904,355.168,224.488z"/>
	<rect x="208" y="48" style="fill:#333333;" width="16" height="16"/>
	<rect x="240" y="48" style="fill:#333333;" width="16" height="16"/>
	<rect x="272" y="48" style="fill:#333333;" width="16" height="16"/>
	<rect x="208" y="256" style="fill:#333333;" width="16" height="16"/>
	<rect x="240" y="256" style="fill:#333333;" width="16" height="16"/>
	<rect x="272" y="256" style="fill:#333333;" width="16" height="16"/>
	<rect x="352" y="176" style="fill:#333333;" width="16" height="16"/>
	<rect x="352" y="144" style="fill:#333333;" width="16" height="16"/>
	<rect x="128" y="176" style="fill:#333333;" width="16" height="16"/>
	<rect x="128" y="144" style="fill:#333333;" width="16" height="16"/>
	<polygon style="fill:#333333;" points="440,192 456,192 456,152 416,152 416,168 440,168 	"/>
	<polygon style="fill:#333333;" points="80,336 56,336 56,312 40,312 40,352 80,352 	"/>
	<polygon style="fill:#333333;" points="56,168 80,168 80,152 40,152 40,192 56,192 	"/>
	<polygon style="fill:#333333;" points="440,336 416,336 416,352 456,352 456,312 440,312 	"/>
</g>
<g>
</g>
<g>
</g>
<g>
</g>
<g>
</g>
<g>
</g>
<g>
</g>
<g>
</g>
<g>
</g>
<g>
</g>
<g>
</g>
<g>
</g>
<g>
</g>
<g>
</g>
<g>
</g>
<g>
</g>
</svg>
