<?xml version="1.0" encoding="utf-8"?>
<!-- Generator: Adobe Illustrator 24.3.0, SVG Export Plug-In . SVG Version: 6.00 Build 0)  -->
<svg version="1.1" id="Layer_1" xmlns="http://www.w3.org/2000/svg" xmlns:xlink="http://www.w3.org/1999/xlink" x="0px" y="0px"
	 viewBox="0 0 512 512" style="enable-background:new 0 0 512 512;" xml:space="preserve">
<style type="text/css">
	.st0{fill:none;stroke:#5AD7FF;stroke-width:11;stroke-linecap:round;stroke-miterlimit:10;}
	.st1{fill:#2387C3;}
	.st2{fill:#5AD7FF;}
	.st3{fill:#D7E6F0;}
	.st4{fill:#FAB991;}
	.st5{fill:#463C4B;}
	.st6{fill:#555A6E;}
	.st7{fill:#A5C3DC;}
	.st8{fill:#FFCD05;}
	.st9{fill:none;stroke:#2387C3;stroke-width:11;stroke-linecap:round;stroke-miterlimit:10;}
</style>
<circle class="st0" cx="248" cy="203.8" r="152.2"/>
<g>
	<g>
		<g>
			<circle class="st1" cx="128" cy="128" r="104"/>
			<path class="st2" d="M128,240c-61.8,0-112-50.2-112-112S66.2,16,128,16s112,50.2,112,112S189.8,240,128,240z M128,32
				c-52.9,0-96,43.1-96,96s43.1,96,96,96s96-43.1,96-96S180.9,32,128,32z"/>
		</g>
		<g>
			<path class="st2" d="M152,128h-48c-22.1,0-40,17.9-40,40v42c17.6,13.8,39.9,22,64,22s46.4-8.2,64-22v-42
				C192,145.9,174.1,128,152,128z"/>
		</g>
		<g>
			<path class="st3" d="M128,168c-13.3,0-24-10.7-24-24v-16h48v16C152,157.3,141.3,168,128,168z"/>
		</g>
		<g>
			<circle class="st4" cx="128" cy="80" r="40"/>
		</g>
	</g>
	<g>
		<circle class="st1" cx="384" cy="128" r="104"/>
		<path class="st2" d="M384,240c-61.8,0-112-50.2-112-112S322.2,16,384,16s112,50.2,112,112S445.8,240,384,240z M384,32
			c-52.9,0-96,43.1-96,96s43.1,96,96,96s96-43.1,96-96S436.9,32,384,32z"/>
	</g>
	<g>
		<g>
			<path class="st5" d="M448,152H320V88c0-8.8,7.2-16,16-16h96c8.8,0,16,7.2,16,16V152z"/>
		</g>
		<g>
			<path class="st6" d="M432,152H320V88c0-8.8,7.2-16,16-16h80c8.8,0,16,7.2,16,16V152z"/>
		</g>
		<g>
			<path class="st7" d="M432,168h-96c-8.8,0-16-7.2-16-16h128C448,160.8,440.8,168,432,168z"/>
		</g>
		<g>
			<path class="st3" d="M416,168h-80c-8.8,0-16-7.2-16-16h112C432,160.8,424.8,168,416,168z"/>
		</g>
		<g>
			<path class="st3" d="M404,176h-40c-6.6,0-12,5.4-12,12v4h64v-4C416,181.4,410.6,176,404,176z"/>
		</g>
		<g>
			<path class="st7" d="M404,176c-6.6,0-12,5.4-12,12v4h24v-4C416,181.4,410.6,176,404,176z"/>
		</g>
		<g>
			<path class="st7" d="M376,168h16v8h-16V168z"/>
		</g>
	</g>
	<g>
		<circle class="st8" cx="384" cy="248" r="56"/>
	</g>
	<g>
		<path class="st1" d="M397.2,248l9.4-9.4c3.6-3.6,3.6-9.6,0-13.2s-9.6-3.6-13.2,0l-9.4,9.4l-9.4-9.4c-3.6-3.6-9.6-3.6-13.2,0
			c-3.6,3.6-3.6,9.6,0,13.2l9.4,9.4l-9.4,9.4c-3.6,3.6-3.6,9.6,0,13.2c3.6,3.6,9.6,3.6,13.2,0l9.4-9.4l9.4,9.4
			c3.6,3.6,9.6,3.6,13.2,0c3.6-3.6,3.6-9.6,0-13.2L397.2,248z"/>
	</g>
	<g>
		<circle class="st1" cx="256" cy="384" r="104"/>
		<path class="st2" d="M256,496c-61.8,0-112-50.2-112-112s50.2-112,112-112s112,50.2,112,112S317.8,496,256,496z M256,288
			c-52.9,0-96,43.1-96,96s43.1,96,96,96s96-43.1,96-96S308.9,288,256,288z"/>
	</g>
	<g>
		<g>
			<path class="st5" d="M320,408H192v-64c0-8.8,7.2-16,16-16h96c8.8,0,16,7.2,16,16V408z"/>
		</g>
		<g>
			<path class="st6" d="M304,408H192v-64c0-8.8,7.2-16,16-16h80c8.8,0,16,7.2,16,16V408z"/>
		</g>
		<g>
			<path class="st7" d="M304,424h-96c-8.8,0-16-7.2-16-16h128C320,416.8,312.8,424,304,424z"/>
		</g>
		<g>
			<path class="st3" d="M288,424h-80c-8.8,0-16-7.2-16-16h112C304,416.8,296.8,424,288,424z"/>
		</g>
		<g>
			<path class="st3" d="M276,432h-40c-6.6,0-12,5.4-12,12v4h64v-4C288,437.4,282.6,432,276,432z"/>
		</g>
		<g>
			<path class="st7" d="M276,432c-6.6,0-12,5.4-12,12v4h24v-4C288,437.4,282.6,432,276,432z"/>
		</g>
		<g>
			<path class="st7" d="M248,424h16v8h-16V424z"/>
		</g>
	</g>
	<g>
		<circle class="st2" cx="384" cy="384" r="56"/>
	</g>
</g>
<g>
	<g>
		<path class="st9" d="M420.4,391.5c-3.1,16.1-17.2,28.7-34.2,29.2c-19.7,0.6-36.5-15.1-37.1-34.8s15.1-36.5,34.8-37.1"/>
		<g>
			<polygon class="st1" points="406,396.2 418.6,371.8 433.4,394.9 			"/>
		</g>
	</g>
</g>
</svg>
