<?xml version="1.0" encoding="iso-8859-1"?>
<!-- Generator: Adobe Illustrator 24.3.0, SVG Export Plug-In . SVG Version: 6.00 Build 0)  -->
<svg version="1.1" id="Capa_1" xmlns="http://www.w3.org/2000/svg" xmlns:xlink="http://www.w3.org/1999/xlink" x="0px" y="0px"
	 viewBox="675.5 224 450 400" style="enable-background:new 675.5 224 450 400;" xml:space="preserve">
<g>
	<path style="fill:#2AA0DA;" d="M854.742,413.307c0.827-2.481,1.378-5.238,1.378-7.994c0-12.681-10.2-23.156-23.156-23.156
		c-3.308,0-6.34,0.551-9.097,1.93c-5.789-11.027-17.367-18.745-30.599-18.745c-8.821,0-17.091,3.308-23.156,9.097
		c-2.481-2.205-5.789-3.308-9.648-3.308c-8.546,0-15.713,7.167-15.161,15.988c-11.854,1.93-20.123,13.508-17.367,25.912
		c-12.956,1.378-23.156,12.405-23.156,25.912c0,14.335,11.578,25.912,25.912,25.912h118.811c14.335,0,25.912-11.578,25.912-25.912
		C876.243,425.988,866.871,415.513,854.742,413.307z"/>
	<path style="fill:#183651;" d="M850.055,467.613H731.244c-15.989,0-28.669-12.956-28.669-28.669
		c0-13.783,9.648-25.361,22.604-28.118c-0.551-5.513,0.827-11.302,3.859-15.988c3.308-4.962,8.27-8.27,13.783-9.924
		c0.276-4.135,1.93-7.994,4.962-11.027c3.308-3.584,8.27-5.513,12.956-5.513c3.308,0,6.616,0.827,9.373,2.757
		c6.616-5.238,14.886-8.27,23.431-8.27c13.232,0,25.085,6.892,31.701,17.918c2.757-1.103,5.238-1.378,7.994-1.378
		c14.334,0,25.912,11.578,25.912,25.912c0,1.93-0.276,4.135-0.827,6.065c12.129,3.584,20.675,14.61,20.675,27.566
		C879,454.657,866.044,467.613,850.055,467.613z M761.016,373.887c-3.308,0-6.616,1.378-9.097,3.859
		c-2.481,2.481-3.584,5.789-3.308,9.373c0,1.378-0.827,2.757-2.205,2.757c-4.962,0.827-9.648,3.859-12.405,7.994
		c-2.757,4.411-3.859,9.373-2.757,14.61c0.276,0.827,0,1.654-0.551,2.205s-1.103,1.103-1.93,1.103
		c-11.854,1.378-20.675,11.302-20.675,23.156c0,12.956,10.475,23.156,23.156,23.156h118.811c12.956,0,23.156-10.475,23.156-23.156
		c0-11.302-7.994-20.95-19.296-22.88c-0.827-0.276-1.378-0.551-1.93-1.378c-0.276-0.827-0.551-1.654-0.276-2.205
		c0.827-2.205,1.378-4.686,1.378-7.167c0-11.302-9.097-20.399-20.399-20.399c-2.757,0-5.513,0.551-7.994,1.654
		c-1.378,0.551-2.757,0-3.584-1.378c-5.513-10.475-16.264-17.091-28.118-17.091c-7.994,0-15.437,3.032-21.226,8.27
		c-1.103,0.827-2.481,0.827-3.584,0C766.529,374.714,763.773,373.887,761.016,373.887z"/>
	<path style="fill:#FFFFFF;" d="M733.174,462.375h114.952c10.475,0,19.848-8.546,18.745-19.848
		c-0.827-9.097-7.994-16.264-16.815-17.642l-5.513-1.103l2.205-5.789c3.859-10.475-3.308-21.226-13.508-22.329
		c-5.238-0.551-8.27,1.103-13.232,3.032l-2.205-4.411c-4.686-9.924-14.886-15.713-25.912-15.161
		c-10.475,0.551-16.54,6.892-20.123,10.2c-3.584-2.757-5.238-4.962-9.373-4.962c-5.238,0-9.373,4.135-9.373,9.373l0.276,4.962
		l-4.686,0.827c-7.443,1.103-12.68,7.443-12.68,15.161c0,2.481,0.551,4.135,1.654,9.097l-5.238,0.551
		c-9.648,1.103-17.918,9.097-18.194,19.572C714.153,454.105,722.975,462.375,733.174,462.375z"/>
</g>
<g>
	<g>
		<path style="fill:#73C3F9;" d="M1048.711,302.875c6.207-5.246,10.15-13.088,10.15-21.851c0-15.796-12.805-28.601-28.601-28.601
			c-15.796,0-28.601,12.805-28.601,28.601c0,6.285,2.029,12.095,5.465,16.814L1048.711,302.875z M1048.711,302.875"/>
		<path style="fill:#E9EFFF;" d="M1048.358,278.543c-6.507-2.414-10.801-8.661-10.801-15.676v-4.761h-27.188
			c-1.844,0-3.339,1.495-3.339,3.339v36.265c0.886,1.232,1.868,2.39,2.934,3.463l36.154,3.652c0.946-0.631,1.853-1.316,2.714-2.053
			v-24.145C1048.671,278.628,1048.511,278.6,1048.358,278.543L1048.358,278.543z M1048.358,278.543"/>
		<path style="fill:#BEC8F7;" d="M1021.564,258.106h-11.195c-1.844,0-3.339,1.495-3.339,3.339v36.265
			c0.886,1.232,1.868,2.39,2.934,3.463l11.6,1.172v-41.827C1020.258,259.212,1021.564,258.106,1021.564,258.106L1021.564,258.106z
			 M1021.564,258.106"/>
		<path style="fill:#3C58A0;" d="M1037.557,262.867v-1.422h-25.983c-0.665,0-1.205,0.54-1.205,1.205v7.501
			c0,0.665,0.54,1.205,1.205,1.205h28.262C1038.375,268.842,1037.557,265.927,1037.557,262.867L1037.557,262.867z M1037.557,262.867
			"/>
		<path style="fill:#FFDD40;" d="M1037.162,266.401c0,0.892-0.724,1.617-1.617,1.617c-0.893,0-1.616-0.724-1.616-1.617
			c0-0.893,0.724-1.616,1.616-1.616C1036.438,264.784,1037.162,265.508,1037.162,266.401L1037.162,266.401z M1037.162,266.401"/>
		<path style="fill:#FF7186;" d="M1032.31,266.401c0,0.892-0.723,1.617-1.616,1.617c-0.892,0-1.617-0.724-1.617-1.617
			c0-0.893,0.724-1.616,1.617-1.616C1031.586,264.784,1032.31,265.508,1032.31,266.401L1032.31,266.401z M1032.31,266.401"/>
		<path style="fill:#FFE98D;" d="M1036.55,266.12c0,0.395-0.321,0.716-0.717,0.716c-0.396,0-0.716-0.321-0.716-0.716
			c0-0.396,0.321-0.717,0.716-0.717C1036.229,265.403,1036.55,265.724,1036.55,266.12L1036.55,266.12z M1036.55,266.12"/>
		<path style="fill:#FC90A5;" d="M1031.693,266.12c0,0.395-0.321,0.716-0.716,0.716c-0.396,0-0.717-0.321-0.717-0.716
			c0-0.396,0.321-0.717,0.717-0.717C1031.373,265.403,1031.693,265.724,1031.693,266.12L1031.693,266.12z M1031.693,266.12"/>
		<path style="fill:#3C58A0;" d="M1039.837,271.356h-28.262c-0.665,0-1.205,0.539-1.205,1.205v7.5c0,0.666,0.54,1.205,1.205,1.205
			h32.713c0.666,0,1.206-0.539,1.206-1.205v-2.911C1043.138,275.71,1041.205,273.708,1039.837,271.356L1039.837,271.356z
			 M1039.837,271.356"/>
		<path style="fill:#FFDD40;" d="M1035.912,274.712c0.87,0.204,1.409,1.073,1.206,1.943c-0.204,0.869-1.073,1.409-1.943,1.206
			c-0.869-0.204-1.409-1.073-1.206-1.943C1034.173,275.048,1035.042,274.508,1035.912,274.712L1035.912,274.712z M1035.912,274.712"
			/>
		<path style="fill:#FF7186;" d="M1031.062,274.714c0.87,0.204,1.409,1.074,1.206,1.943c-0.204,0.869-1.074,1.409-1.943,1.206
			c-0.87-0.204-1.409-1.074-1.206-1.943C1029.323,275.05,1030.193,274.511,1031.062,274.714L1031.062,274.714z M1031.062,274.714"/>
		<path style="fill:#4FABF7;" d="M1040.56,274.704c0.888,0.089,1.536,0.882,1.446,1.77c-0.089,0.888-0.882,1.536-1.77,1.446
			c-0.888-0.089-1.535-0.882-1.446-1.769C1038.879,275.262,1039.672,274.615,1040.56,274.704L1040.56,274.704z M1040.56,274.704"/>
		<path style="fill:#73C3F9;" d="M1041.453,276.03c0,0.396-0.321,0.716-0.717,0.716c-0.396,0-0.716-0.32-0.716-0.716
			c0-0.396,0.32-0.717,0.716-0.717C1041.132,275.314,1041.453,275.634,1041.453,276.03L1041.453,276.03z M1041.453,276.03"/>
		<path style="fill:#FFE98D;" d="M1036.55,276.03c0,0.396-0.321,0.716-0.717,0.716c-0.396,0-0.716-0.32-0.716-0.716
			c0-0.396,0.321-0.717,0.716-0.717C1036.229,275.314,1036.55,275.634,1036.55,276.03L1036.55,276.03z M1036.55,276.03"/>
		<path style="fill:#FC90A5;" d="M1031.693,276.03c0,0.396-0.321,0.716-0.717,0.716c-0.395,0-0.716-0.32-0.716-0.716
			c0-0.396,0.321-0.717,0.716-0.717C1031.372,275.313,1031.693,275.634,1031.693,276.03L1031.693,276.03z M1031.693,276.03"/>
		<path style="fill:#3C58A0;" d="M1044.287,281.267h-32.713c-0.665,0-1.205,0.539-1.205,1.205v7.5c0,0.666,0.54,1.205,1.205,1.205
			h32.713c0.666,0,1.206-0.539,1.206-1.205v-7.5C1045.493,281.806,1044.953,281.267,1044.287,281.267L1044.287,281.267z
			 M1044.287,281.267"/>
		<path style="fill:#3C58A0;" d="M1044.287,291.177h-32.713c-0.665,0-1.205,0.539-1.205,1.205v7.5c0,0.666,0.54,1.205,1.205,1.205
			h32.713c0.666,0,1.206-0.539,1.206-1.205v-7.5C1045.493,291.717,1044.953,291.177,1044.287,291.177L1044.287,291.177z
			 M1044.287,291.177"/>
		<path style="fill:#2A428C;" d="M1021.532,270.608c0-0.212-0.092-0.413-0.249-0.556c-0.987-0.906-1.606-2.206-1.606-3.651
			c0-1.445,0.619-2.745,1.606-3.65c0.156-0.143,0.249-0.344,0.249-0.556c0-0.413-0.335-0.748-0.748-0.748h-9.209
			c-0.23,0-0.445,0.066-0.628,0.178v9.554c0.183,0.113,0.398,0.178,0.628,0.178h9.957V270.608z M1021.532,270.608"/>
		<path style="fill:#2A428C;" d="M1021.532,280.518c0-0.212-0.092-0.413-0.249-0.556c-0.987-0.906-1.606-2.206-1.606-3.65
			c0-1.445,0.619-2.745,1.606-3.651c0.156-0.143,0.249-0.344,0.249-0.556v-0.748h-9.957c-0.23,0-0.445,0.066-0.628,0.178v9.554
			c0.183,0.112,0.398,0.178,0.628,0.178h9.957V280.518z M1021.532,280.518"/>
		<path style="fill:#2A428C;" d="M1021.283,282.571c0.156-0.143,0.249-0.344,0.249-0.556v-0.748h-9.957
			c-0.23,0-0.445,0.066-0.628,0.178v9.554c0.183,0.112,0.398,0.178,0.628,0.178h9.957v-0.748c0-0.213-0.092-0.413-0.249-0.557
			c-0.987-0.905-1.606-2.205-1.606-3.651C1019.677,284.777,1020.296,283.477,1021.283,282.571L1021.283,282.571z M1021.283,282.571"
			/>
		<path style="fill:#2A428C;" d="M1021.283,292.482c0.156-0.144,0.249-0.344,0.249-0.557v-0.748h-9.957
			c-0.23,0-0.445,0.066-0.628,0.178v9.554c0.183,0.112,0.398,0.178,0.628,0.178h9.209c0.413,0,0.748-0.335,0.748-0.748
			c0-0.212-0.092-0.412-0.249-0.556c-0.987-0.905-1.606-2.205-1.606-3.65C1019.677,294.688,1020.296,293.388,1021.283,292.482
			L1021.283,292.482z M1021.283,292.482"/>
		<path style="fill:#3C58A0;" d="M1044.287,301.088h-32.713c-0.456,0-0.854,0.254-1.058,0.629
			c5.133,4.899,12.087,7.908,19.743,7.908c5.6,0,10.822-1.611,15.233-4.392v-2.94
			C1045.493,301.627,1044.953,301.088,1044.287,301.088L1044.287,301.088z M1044.287,301.088"/>
		<path style="fill:#2A428C;" d="M1010.947,301.265v0.853c2.609,2.39,5.662,4.302,9.021,5.598c-0.187-0.522-0.291-1.085-0.291-1.672
			c0-1.445,0.619-2.745,1.606-3.65c0.156-0.144,0.249-0.344,0.249-0.556c0-0.413-0.335-0.749-0.748-0.749h-9.209
			C1011.345,301.088,1011.13,301.153,1010.947,301.265L1010.947,301.265z M1010.947,301.265"/>
		<path style="fill:#FFDD40;" d="M1037.161,306.043c0,0.893-0.724,1.616-1.616,1.616s-1.616-0.723-1.616-1.616
			c0-0.892,0.724-1.616,1.616-1.616S1037.161,305.151,1037.161,306.043L1037.161,306.043z M1037.161,306.043"/>
		<path style="fill:#FF7186;" d="M1032.31,306.043c0,0.893-0.723,1.616-1.616,1.616c-0.892,0-1.617-0.723-1.617-1.616
			c0-0.892,0.724-1.616,1.617-1.616C1031.586,304.427,1032.31,305.151,1032.31,306.043L1032.31,306.043z M1032.31,306.043"/>
		<path style="fill:#4FABF7;" d="M1042.013,306.043c0,0.893-0.724,1.616-1.616,1.616s-1.616-0.723-1.616-1.616
			c0-0.892,0.724-1.616,1.616-1.616S1042.013,305.151,1042.013,306.043L1042.013,306.043z M1042.013,306.043"/>
		<path style="fill:#73C3F9;" d="M1041.453,305.762c0,0.396-0.321,0.717-0.717,0.717c-0.396,0-0.716-0.321-0.716-0.717
			c0-0.395,0.32-0.716,0.716-0.716C1041.132,305.046,1041.453,305.367,1041.453,305.762L1041.453,305.762z M1041.453,305.762"/>
		<path style="fill:#FFE98D;" d="M1036.55,305.762c0,0.396-0.321,0.717-0.717,0.717c-0.396,0-0.716-0.321-0.716-0.717
			c0-0.395,0.321-0.716,0.716-0.716C1036.229,305.046,1036.55,305.367,1036.55,305.762L1036.55,305.762z M1036.55,305.762"/>
		<path style="fill:#FC90A5;" d="M1031.693,305.762c0,0.396-0.321,0.717-0.716,0.717c-0.396,0-0.717-0.321-0.717-0.717
			c0-0.395,0.321-0.716,0.717-0.716C1031.373,305.046,1031.693,305.367,1031.693,305.762L1031.693,305.762z M1031.693,305.762"/>
		<path style="fill:#1C2E7A;" d="M1014.598,268.377c-0.513,0-0.928-0.415-0.928-0.927v-2.098c0-0.512,0.415-0.928,0.928-0.928
			c0.512,0,0.927,0.415,0.927,0.928v2.098C1015.526,267.962,1015.11,268.377,1014.598,268.377L1014.598,268.377z M1014.598,268.377"
			/>
		<path style="fill:#1C2E7A;" d="M1018.026,268.377c-0.513,0-0.928-0.415-0.928-0.927v-2.098c0-0.512,0.415-0.928,0.928-0.928
			c0.512,0,0.927,0.415,0.927,0.928v2.098C1018.953,267.962,1018.538,268.377,1018.026,268.377L1018.026,268.377z M1018.026,268.377
			"/>
		<path style="fill:#1C2E7A;" d="M1021.454,268.377c-0.513,0-0.928-0.415-0.928-0.927v-2.098c0-0.512,0.415-0.928,0.928-0.928
			c0.512,0,0.927,0.415,0.927,0.928v2.098C1022.382,267.962,1021.966,268.377,1021.454,268.377L1021.454,268.377z M1021.454,268.377
			"/>
		<path style="fill:#1C2E7A;" d="M1024.882,268.377c-0.513,0-0.927-0.415-0.927-0.927v-2.098c0-0.512,0.415-0.928,0.927-0.928
			c0.512,0,0.928,0.415,0.928,0.928v2.098C1025.81,267.962,1025.394,268.377,1024.882,268.377L1024.882,268.377z M1024.882,268.377"
			/>
		<path style="fill:#1C2E7A;" d="M1014.598,278.288c-0.513,0-0.928-0.415-0.928-0.927v-2.098c0-0.512,0.415-0.927,0.928-0.927
			c0.512,0,0.927,0.415,0.927,0.927v2.098C1015.526,277.873,1015.11,278.288,1014.598,278.288L1014.598,278.288z M1014.598,278.288"
			/>
		<path style="fill:#1C2E7A;" d="M1018.026,278.288c-0.513,0-0.928-0.415-0.928-0.927v-2.098c0-0.512,0.415-0.927,0.928-0.927
			c0.512,0,0.927,0.415,0.927,0.927v2.098C1018.953,277.873,1018.538,278.288,1018.026,278.288L1018.026,278.288z M1018.026,278.288
			"/>
		<path style="fill:#1C2E7A;" d="M1021.454,278.288c-0.513,0-0.928-0.415-0.928-0.927v-2.098c0-0.512,0.415-0.927,0.928-0.927
			c0.512,0,0.927,0.415,0.927,0.927v2.098C1022.382,277.873,1021.966,278.288,1021.454,278.288L1021.454,278.288z M1021.454,278.288
			"/>
		<path style="fill:#1C2E7A;" d="M1024.882,278.288c-0.513,0-0.927-0.415-0.927-0.927v-2.098c0-0.512,0.415-0.927,0.927-0.927
			c0.512,0,0.928,0.415,0.928,0.927v2.098C1025.81,277.873,1025.394,278.288,1024.882,278.288L1024.882,278.288z M1024.882,278.288"
			/>
		<path style="fill:#1C2E7A;" d="M1014.598,288.199c-0.513,0-0.928-0.415-0.928-0.928v-2.098c0-0.512,0.415-0.927,0.928-0.927
			c0.512,0,0.927,0.415,0.927,0.927v2.098C1015.526,287.784,1015.11,288.199,1014.598,288.199L1014.598,288.199z M1014.598,288.199"
			/>
		<path style="fill:#1C2E7A;" d="M1018.026,288.199c-0.513,0-0.928-0.415-0.928-0.928v-2.098c0-0.512,0.415-0.927,0.928-0.927
			c0.512,0,0.927,0.415,0.927,0.927v2.098C1018.953,287.784,1018.538,288.199,1018.026,288.199L1018.026,288.199z M1018.026,288.199
			"/>
		<path style="fill:#1C2E7A;" d="M1021.454,288.199c-0.513,0-0.928-0.415-0.928-0.928v-2.098c0-0.512,0.415-0.927,0.928-0.927
			c0.512,0,0.927,0.415,0.927,0.927v2.098C1022.382,287.784,1021.966,288.199,1021.454,288.199L1021.454,288.199z M1021.454,288.199
			"/>
		<path style="fill:#1C2E7A;" d="M1024.882,288.199c-0.513,0-0.927-0.415-0.927-0.928v-2.098c0-0.512,0.415-0.927,0.927-0.927
			c0.512,0,0.928,0.415,0.928,0.927v2.098C1025.81,287.784,1025.394,288.199,1024.882,288.199L1024.882,288.199z M1024.882,288.199"
			/>
		<path style="fill:#1C2E7A;" d="M1014.598,298.109c-0.513,0-0.928-0.415-0.928-0.928v-2.098c0-0.513,0.415-0.928,0.928-0.928
			c0.512,0,0.927,0.415,0.927,0.928v2.098C1015.526,297.694,1015.11,298.109,1014.598,298.109L1014.598,298.109z M1014.598,298.109"
			/>
		<path style="fill:#1C2E7A;" d="M1018.026,298.109c-0.513,0-0.928-0.415-0.928-0.928v-2.098c0-0.513,0.415-0.928,0.928-0.928
			c0.512,0,0.927,0.415,0.927,0.928v2.098C1018.953,297.694,1018.538,298.109,1018.026,298.109L1018.026,298.109z M1018.026,298.109
			"/>
		<path style="fill:#1C2E7A;" d="M1021.454,298.109c-0.513,0-0.928-0.415-0.928-0.928v-2.098c0-0.513,0.415-0.928,0.928-0.928
			c0.512,0,0.927,0.415,0.927,0.928v2.098C1022.382,297.694,1021.966,298.109,1021.454,298.109L1021.454,298.109z M1021.454,298.109
			"/>
		<path style="fill:#1C2E7A;" d="M1024.882,298.109c-0.513,0-0.927-0.415-0.927-0.928v-2.098c0-0.513,0.415-0.928,0.927-0.928
			c0.512,0,0.928,0.415,0.928,0.928v2.098C1025.81,297.694,1025.394,298.109,1024.882,298.109L1024.882,298.109z M1024.882,298.109"
			/>
		<path style="fill:#1C2E7A;" d="M1014.598,304.067c-0.308,0-0.581,0.151-0.749,0.382c0.545,0.383,1.104,0.747,1.676,1.092v-0.546
			C1015.526,304.482,1015.11,304.067,1014.598,304.067L1014.598,304.067z M1014.598,304.067"/>
		<path style="fill:#1C2E7A;" d="M1018.026,304.067c-0.513,0-0.928,0.415-0.928,0.928v1.427c0.599,0.311,1.211,0.601,1.833,0.869
			c0.014-0.064,0.022-0.13,0.022-0.199v-2.098C1018.953,304.482,1018.538,304.067,1018.026,304.067L1018.026,304.067z
			 M1018.026,304.067"/>
		<path style="fill:#1C2E7A;" d="M1021.454,308.02c-0.513,0-0.928-0.415-0.928-0.927v-2.098c0-0.513,0.415-0.928,0.928-0.928
			c0.512,0,0.927,0.415,0.927,0.928v2.098C1022.382,307.605,1021.966,308.02,1021.454,308.02L1021.454,308.02z M1021.454,308.02"/>
		<path style="fill:#1C2E7A;" d="M1024.882,308.02c-0.513,0-0.927-0.415-0.927-0.927v-2.098c0-0.513,0.415-0.928,0.927-0.928
			c0.512,0,0.928,0.415,0.928,0.928v2.098C1025.81,307.605,1025.394,308.02,1024.882,308.02L1024.882,308.02z M1024.882,308.02"/>
		<path style="fill:#4B6BB2;" d="M1044.565,280.062c0,0.153-0.125,0.277-0.278,0.277h-32.713c-0.153,0-0.277-0.125-0.277-0.277
			v-7.501c0-0.153,0.125-0.277,0.277-0.277h27.669c-0.367-0.597-0.7-1.217-0.995-1.855h-26.673c-0.153,0-0.277-0.125-0.277-0.277
			v-7.5c0-0.153,0.125-0.278,0.277-0.278h25.011v-1.855h-25.011c-1.176,0-2.132,0.956-2.132,2.133v7.5
			c0,0.447,0.139,0.862,0.375,1.205c-0.236,0.343-0.375,0.758-0.375,1.204v7.501c0,0.447,0.139,0.862,0.375,1.205
			c-0.236,0.343-0.375,0.758-0.375,1.205v7.5c0,0.447,0.139,0.862,0.375,1.205c-0.236,0.343-0.375,0.758-0.375,1.205v7.5
			c0,0.375,0.099,0.725,0.268,1.031c0.509,0.526,1.039,1.032,1.587,1.518v-0.139c0-0.153,0.125-0.277,0.277-0.277h32.713
			c0.153,0,0.278,0.125,0.278,0.277v3.502c0.634-0.367,1.253-0.759,1.855-1.172v-2.33c0-0.447-0.139-0.862-0.375-1.205
			c0.237-0.343,0.375-0.758,0.375-1.205v-7.5c0-0.447-0.139-0.862-0.375-1.205c0.237-0.343,0.375-0.758,0.375-1.205v-7.5
			c0-0.447-0.139-0.862-0.375-1.205c0.237-0.344,0.375-0.758,0.375-1.205v-1.226c-0.644-0.318-1.263-0.672-1.855-1.062V280.062z
			 M1044.565,299.883c0,0.153-0.125,0.278-0.278,0.278h-32.713c-0.153,0-0.277-0.125-0.277-0.278v-7.5
			c0-0.153,0.125-0.278,0.277-0.278h32.713c0.153,0,0.278,0.125,0.278,0.278V299.883z M1044.565,289.972
			c0,0.153-0.125,0.277-0.278,0.277h-32.713c-0.153,0-0.277-0.125-0.277-0.277v-7.5c0-0.153,0.125-0.278,0.277-0.278h32.713
			c0.153,0,0.278,0.125,0.278,0.278V289.972z M1044.565,289.972"/>
		<path style="fill:#4B6BB2;" d="M1044.565,280.062c0,0.153-0.125,0.277-0.278,0.277h-32.713c-0.153,0-0.277-0.125-0.277-0.277
			v-7.501c0-0.153,0.125-0.277,0.277-0.277h27.669c-0.367-0.597-0.7-1.217-0.995-1.855h-26.673c-0.153,0-0.277-0.125-0.277-0.277
			v-7.5c0-0.153,0.125-0.278,0.277-0.278h25.011v-1.855h-25.011c-1.176,0-2.132,0.956-2.132,2.133v7.5
			c0,0.447,0.139,0.862,0.375,1.205c-0.236,0.343-0.375,0.758-0.375,1.204v7.501c0,0.447,0.139,0.862,0.375,1.205
			c-0.236,0.343-0.375,0.758-0.375,1.205v7.5c0,0.447,0.139,0.862,0.375,1.205c-0.236,0.343-0.375,0.758-0.375,1.205v7.5
			c0,0.375,0.099,0.725,0.268,1.031c0.509,0.526,1.039,1.032,1.587,1.518v-0.139c0-0.153,0.125-0.277,0.277-0.277h32.713
			c0.153,0,0.278,0.125,0.278,0.277v3.502c0.634-0.367,1.253-0.759,1.855-1.172v-2.33c0-0.447-0.139-0.862-0.375-1.205
			c0.237-0.343,0.375-0.758,0.375-1.205v-7.5c0-0.447-0.139-0.862-0.375-1.205c0.237-0.343,0.375-0.758,0.375-1.205v-7.5
			c0-0.447-0.139-0.862-0.375-1.205c0.237-0.344,0.375-0.758,0.375-1.205v-1.226c-0.644-0.318-1.263-0.672-1.855-1.062V280.062z
			 M1044.565,299.883c0,0.153-0.125,0.278-0.278,0.278h-32.713c-0.153,0-0.277-0.125-0.277-0.278v-7.5
			c0-0.153,0.125-0.278,0.277-0.278h32.713c0.153,0,0.278,0.125,0.278,0.278V299.883z M1044.565,289.972
			c0,0.153-0.125,0.277-0.278,0.277h-32.713c-0.153,0-0.277-0.125-0.277-0.277v-7.5c0-0.153,0.125-0.278,0.277-0.278h32.713
			c0.153,0,0.278,0.125,0.278,0.278V289.972z M1044.565,289.972"/>
		<path style="fill:#49D88B;" d="M1059.807,256.399c-2.676-0.633-2.948-2.834-2.94-3.759c0.002-0.253-0.158-0.479-0.397-0.563
			c-4.947-1.736-10.337-1.736-15.284,0c-0.239,0.084-0.399,0.31-0.397,0.563c0.008,0.925-0.264,3.125-2.94,3.759
			c-0.27,0.064-0.462,0.301-0.462,0.579v5.889c0,7.096,4.356,13.396,10.904,15.825c0.347,0.129,0.728,0.129,1.074,0
			c6.545-2.427,10.904-8.725,10.904-15.825v-5.889C1060.27,256.701,1060.077,256.463,1059.807,256.399L1059.807,256.399z
			 M1059.807,256.399"/>
		<g>
			<defs>
				<rect id="SVGID_1_" x="1001.543" y="249.855" width="59.77" height="59.77"/>
			</defs>
			<clipPath id="SVGID_2_">
				<use xlink:href="#SVGID_1_"  style="overflow:visible;"/>
			</clipPath>
			<path style="clip-path:url(#SVGID_2_);fill:#38C674;" d="M1056.453,272.553c-0.064-0.221-0.264-0.373-0.494-0.382
				c-1.047-0.046-1.392-0.711-1.505-1.175c-0.061-0.248-0.291-0.415-0.545-0.401c-3.585,0.201-4.258-2.699-4.381-3.607
				c-0.025-0.188-0.094-0.367-0.2-0.523l-2.25-3.316c0-0.117-0.064-0.224-0.167-0.281c-3.686-2.076-3.35-5.96-3.072-7.417
				c0.055-0.289-0.132-0.567-0.421-0.623c-1.188-0.23-1.552-1.191-1.661-1.673c-0.038-0.168-0.161-0.299-0.319-0.366
				c-0.281-0.119-0.448-0.295-0.543-0.487c-0.067,0.097-0.106,0.215-0.105,0.339c0.008,0.925-0.264,3.125-2.94,3.759
				c-0.27,0.064-0.462,0.301-0.462,0.579v5.889c0,7.096,4.356,13.396,10.904,15.825c0.347,0.129,0.727,0.129,1.074,0
				c3.021-1.121,5.575-3.068,7.451-5.536C1056.617,272.985,1056.51,272.751,1056.453,272.553L1056.453,272.553z M1056.453,272.553"
				/>
			<path style="clip-path:url(#SVGID_2_);fill:#73F9A9;" d="M1047.969,279.56c-6.962-2.582-11.508-9.257-11.508-16.693v-5.889
				c0-0.708,0.483-1.316,1.175-1.48c1.857-0.44,2.237-1.792,2.228-2.85c-0.005-0.649,0.403-1.23,1.017-1.445
				c5.126-1.798,10.771-1.799,15.896,0.001c0.614,0.215,1.022,0.795,1.017,1.445c-0.009,1.057,0.37,2.41,2.228,2.85
				c0.692,0.164,1.175,0.773,1.175,1.48v5.889c0,7.491-4.595,14.129-11.508,16.693
				C1049.134,279.766,1048.524,279.766,1047.969,279.56L1047.969,279.56z M1038.313,257.236v5.631c0,6.606,4.014,12.625,10.3,14.956
				c0.139,0.052,0.291,0.052,0.43,0c6.182-2.293,10.3-8.236,10.3-14.956v-5.631c-2.927-0.821-3.354-3.294-3.398-4.36
				c-4.599-1.559-9.635-1.559-14.234,0C1041.668,253.942,1041.241,256.415,1038.313,257.236L1038.313,257.236z M1038.313,257.236"/>
		</g>
		<path style="fill:#49D88B;" d="M1056.453,272.553c-0.028-0.099-0.084-0.181-0.157-0.246c-1.79,2.468-4.282,4.415-7.252,5.516
			c-0.139,0.052-0.292,0.052-0.431,0c-6.286-2.332-10.3-8.35-10.3-14.956v-5.631c2.803-0.786,3.314-3.086,3.39-4.216
			c-0.058-0.103-0.153-0.184-0.266-0.232c-0.769-0.325-0.688-1.079-0.607-1.416c0.012-0.051,0.016-0.103,0.013-0.154
			c-0.593,0.225-0.985,0.794-0.979,1.43c0.009,1.057-0.37,2.41-2.228,2.85c-0.692,0.164-1.175,0.773-1.175,1.48v5.889
			c0,7.436,4.547,14.111,11.508,16.693c0.554,0.205,1.164,0.205,1.718,0c3.283-1.217,6.041-3.354,8.034-6.064
			c-0.082-0.058-0.181-0.096-0.289-0.102C1056.803,273.353,1056.552,272.899,1056.453,272.553L1056.453,272.553z M1056.453,272.553"
			/>
		<path style="fill:#38C674;" d="M1048.829,275.147c2.246-0.977,4.161-2.555,5.57-4.598c1.558-2.257,2.38-4.913,2.38-7.682v-3.969
			c-1.512-0.912-2.596-2.319-3.095-4.02c-3.179-0.81-6.532-0.81-9.712,0c-0.499,1.701-1.583,3.108-3.095,4.02v3.969
			c0,2.768,0.823,5.425,2.379,7.681C1044.666,272.591,1046.581,274.17,1048.829,275.147L1048.829,275.147z M1048.829,275.147"/>
		<path style="fill:#24B55E;" d="M1054.278,270.719c-0.101-0.084-0.232-0.132-0.371-0.124c-3.585,0.201-4.257-2.699-4.38-3.607
			c-0.026-0.188-0.094-0.367-0.2-0.523l-2.25-3.316c0-0.117-0.064-0.224-0.167-0.281c-3.686-2.076-3.35-5.96-3.072-7.417
			c0.011-0.059,0.01-0.117,0.002-0.173c-0.543,1.522-1.572,2.781-2.963,3.621v3.969c0,2.768,0.823,5.425,2.379,7.681
			c1.409,2.043,3.324,3.621,5.572,4.599C1051.011,274.198,1052.881,272.678,1054.278,270.719L1054.278,270.719z M1054.278,270.719"
			/>
		<path style="fill:#E9EFFF;" d="M1047.551,266.924l-2.22-2.219c-0.482-0.482-0.482-1.264,0-1.746c0.482-0.482,1.264-0.482,1.746,0
			l1.347,1.346l2.561-2.561c0.482-0.482,1.264-0.482,1.746,0c0.482,0.482,0.482,1.264,0,1.746l-3.434,3.434
			C1048.815,267.406,1048.034,267.406,1047.551,266.924L1047.551,266.924z M1047.551,266.924"/>
		<path style="fill:#3C58A0;" d="M1020.637,301.088c0-0.512,0.415-0.927,0.927-0.927h-9.989c-0.153,0-0.277-0.125-0.277-0.278v-7.5
			c0-0.153,0.125-0.278,0.277-0.278h9.99c-0.513,0-0.928-0.415-0.928-0.927c0-0.513,0.415-0.928,0.928-0.928h-9.99
			c-0.153,0-0.277-0.125-0.277-0.277v-7.5c0-0.153,0.125-0.278,0.277-0.278h9.99c-0.513,0-0.928-0.415-0.928-0.927
			c0-0.512,0.415-0.928,0.928-0.928h-9.99c-0.153,0-0.277-0.125-0.277-0.278v-7.5c0-0.153,0.125-0.277,0.277-0.277h9.99
			c-0.513,0-0.928-0.415-0.928-0.927v-0.001c0-0.512,0.415-0.927,0.928-0.927h-9.99c-0.153,0-0.277-0.125-0.277-0.278v-7.5
			c0-0.153,0.125-0.277,0.277-0.277h9.99c-0.513,0-0.928-0.415-0.928-0.928c0-0.512,0.415-0.927,0.928-0.927h-9.99
			c-1.176,0-2.132,0.956-2.132,2.133v7.5c0,0.447,0.139,0.862,0.375,1.205c-0.236,0.343-0.375,0.758-0.375,1.204v7.501
			c0,0.447,0.139,0.862,0.375,1.205c-0.236,0.343-0.375,0.758-0.375,1.205v7.5c0,0.447,0.139,0.862,0.375,1.205
			c-0.236,0.343-0.375,0.758-0.375,1.205v7.5c0,0.375,0.099,0.725,0.268,1.031c0.509,0.526,1.039,1.032,1.587,1.518v-0.139
			c0-0.153,0.125-0.277,0.277-0.277h9.99C1021.052,302.016,1020.637,301.601,1020.637,301.088L1020.637,301.088z M1020.637,301.088"
			/>
		<path style="fill:#FFDD40;" d="M1037.162,296.133c0,0.893-0.724,1.616-1.617,1.616c-0.893,0-1.616-0.723-1.616-1.616
			c0-0.892,0.724-1.616,1.616-1.616C1036.438,294.517,1037.162,295.24,1037.162,296.133L1037.162,296.133z M1037.162,296.133"/>
		<path style="fill:#FF7186;" d="M1032.31,296.133c0,0.893-0.723,1.616-1.616,1.616c-0.892,0-1.617-0.723-1.617-1.616
			c0-0.892,0.724-1.616,1.617-1.616C1031.586,294.517,1032.31,295.24,1032.31,296.133L1032.31,296.133z M1032.31,296.133"/>
		<path style="fill:#4FABF7;" d="M1042.013,296.133c0,0.893-0.724,1.616-1.616,1.616s-1.616-0.723-1.616-1.616
			c0-0.892,0.724-1.616,1.616-1.616S1042.013,295.24,1042.013,296.133L1042.013,296.133z M1042.013,296.133"/>
		<path style="fill:#73C3F9;" d="M1041.453,295.851c0,0.396-0.321,0.717-0.717,0.717c-0.396,0-0.716-0.321-0.716-0.717
			s0.32-0.716,0.716-0.716C1041.132,295.135,1041.453,295.455,1041.453,295.851L1041.453,295.851z M1041.453,295.851"/>
		<path style="fill:#FFE98D;" d="M1036.55,295.851c0,0.396-0.321,0.717-0.717,0.717c-0.396,0-0.716-0.321-0.716-0.717
			s0.321-0.716,0.716-0.716C1036.229,295.135,1036.55,295.455,1036.55,295.851L1036.55,295.851z M1036.55,295.851"/>
		<path style="fill:#FC90A5;" d="M1031.693,295.851c0,0.396-0.321,0.717-0.716,0.717c-0.396,0-0.717-0.321-0.717-0.717
			s0.321-0.716,0.717-0.716C1031.373,295.135,1031.693,295.455,1031.693,295.851L1031.693,295.851z M1031.693,295.851"/>
		<path style="fill:#FFDD40;" d="M1037.161,286.222c0,0.893-0.724,1.616-1.616,1.616s-1.616-0.723-1.616-1.616
			c0-0.893,0.724-1.616,1.616-1.616S1037.161,285.33,1037.161,286.222L1037.161,286.222z M1037.161,286.222"/>
		<path style="fill:#FF7186;" d="M1032.31,286.222c0,0.893-0.723,1.616-1.616,1.616c-0.892,0-1.617-0.723-1.617-1.616
			c0-0.893,0.724-1.616,1.617-1.616C1031.586,284.606,1032.31,285.33,1032.31,286.222L1032.31,286.222z M1032.31,286.222"/>
		<path style="fill:#4FABF7;" d="M1042.013,286.222c0,0.893-0.724,1.616-1.616,1.616s-1.616-0.723-1.616-1.616
			c0-0.893,0.724-1.616,1.616-1.616S1042.013,285.33,1042.013,286.222L1042.013,286.222z M1042.013,286.222"/>
		<path style="fill:#73C3F9;" d="M1041.453,285.941c0,0.396-0.321,0.717-0.717,0.717c-0.396,0-0.716-0.321-0.716-0.717
			s0.32-0.716,0.716-0.716C1041.132,285.224,1041.453,285.545,1041.453,285.941L1041.453,285.941z M1041.453,285.941"/>
		<path style="fill:#FFE98D;" d="M1036.55,285.941c0,0.396-0.321,0.717-0.717,0.717c-0.396,0-0.716-0.321-0.716-0.717
			s0.321-0.716,0.716-0.716C1036.229,285.224,1036.55,285.545,1036.55,285.941L1036.55,285.941z M1036.55,285.941"/>
		<path style="fill:#FC90A5;" d="M1031.693,285.941c0,0.396-0.321,0.717-0.716,0.717c-0.396,0-0.717-0.321-0.717-0.717
			s0.321-0.716,0.717-0.716C1031.373,285.224,1031.693,285.545,1031.693,285.941L1031.693,285.941z M1031.693,285.941"/>
	</g>
	<g>
		<path d="M973.677,323.191l0.333-0.702c0.468,0.423,1.27,0.729,2.08,0.729c1.089,0,1.557-0.423,1.557-0.972
			c0-1.54-3.816-0.567-3.816-2.908c0-0.973,0.756-1.801,2.412-1.801c0.738,0,1.504,0.198,2.026,0.558l-0.298,0.72
			c-0.549-0.351-1.17-0.513-1.729-0.513c-1.071,0-1.53,0.45-1.53,1c0,1.54,3.817,0.576,3.817,2.89c0,0.963-0.774,1.792-2.439,1.792
			C975.126,323.984,974.181,323.66,973.677,323.191z"/>
		<path d="M984.01,321.814h-3.871c0.108,0.837,0.783,1.396,1.729,1.396c0.559,0,1.026-0.189,1.378-0.576l0.477,0.558
			c-0.432,0.504-1.089,0.774-1.881,0.774c-1.54,0-2.566-1.018-2.566-2.44c0-1.414,1.018-2.431,2.395-2.431
			c1.378,0,2.359,0.99,2.359,2.458C984.028,321.625,984.019,321.733,984.01,321.814z M980.139,321.193h3.062
			c-0.091-0.801-0.693-1.369-1.531-1.369C980.841,319.824,980.229,320.382,980.139,321.193z"/>
		<path d="M984.782,321.526c0-1.422,1.054-2.431,2.521-2.431c0.855,0,1.567,0.351,1.945,1.017l-0.657,0.423
			c-0.307-0.468-0.774-0.684-1.297-0.684c-0.937,0-1.639,0.657-1.639,1.674c0,1.035,0.702,1.684,1.639,1.684
			c0.522,0,0.99-0.216,1.297-0.684l0.657,0.414c-0.378,0.666-1.09,1.026-1.945,1.026
			C985.836,323.966,984.782,322.948,984.782,321.526z"/>
		<path d="M994.811,319.14v4.771h-0.819v-0.72c-0.351,0.495-0.945,0.774-1.62,0.774c-1.233,0-2.053-0.675-2.053-2.08v-2.746h0.864
			v2.647c0,0.936,0.468,1.404,1.287,1.404c0.9,0,1.477-0.558,1.477-1.584v-2.467H994.811z"/>
		<path d="M999.021,319.095v0.837c-0.071-0.009-0.135-0.009-0.198-0.009c-0.927,0-1.503,0.567-1.503,1.611v2.377h-0.864v-4.771
			h0.828v0.801C997.59,319.383,998.185,319.095,999.021,319.095z"/>
		<path d="M1004.332,321.814h-3.871c0.108,0.837,0.783,1.396,1.729,1.396c0.559,0,1.026-0.189,1.378-0.576l0.477,0.558
			c-0.432,0.504-1.089,0.774-1.881,0.774c-1.54,0-2.566-1.018-2.566-2.44c0-1.414,1.018-2.431,2.395-2.431
			c1.378,0,2.359,0.99,2.359,2.458C1004.351,321.625,1004.341,321.733,1004.332,321.814z M1000.461,321.193h3.062
			c-0.091-0.801-0.693-1.369-1.531-1.369C1001.163,319.824,1000.551,320.382,1000.461,321.193z"/>
		<path d="M1012.702,324.011l-0.837-0.837c-0.55,0.531-1.27,0.811-2.107,0.811c-1.278,0-2.205-0.675-2.205-1.639
			c0-0.774,0.441-1.314,1.53-1.936c-0.567-0.567-0.756-0.972-0.756-1.44c0-0.846,0.666-1.414,1.701-1.414
			c0.954,0,1.566,0.495,1.566,1.314c0,0.639-0.378,1.098-1.342,1.647l1.558,1.548c0.171-0.324,0.307-0.702,0.388-1.143l0.693,0.225
			c-0.108,0.558-0.298,1.044-0.55,1.44l0.847,0.846L1012.702,324.011z M1011.352,322.669l-1.791-1.783
			c-0.883,0.495-1.162,0.864-1.162,1.369c0,0.603,0.567,1.008,1.414,1.008C1010.415,323.263,1010.946,323.065,1011.352,322.669z
			 M1009.128,318.951c0,0.324,0.126,0.558,0.64,1.08c0.828-0.468,1.098-0.756,1.098-1.152c0-0.414-0.297-0.693-0.837-0.693
			C1009.461,318.186,1009.128,318.501,1009.128,318.951z"/>
		<path d="M1016.175,320.761c0-1.864,1.422-3.223,3.34-3.223c0.972,0,1.818,0.333,2.395,0.981l-0.585,0.567
			c-0.486-0.513-1.081-0.748-1.773-0.748c-1.423,0-2.477,1.026-2.477,2.422s1.054,2.422,2.477,2.422
			c0.692,0,1.287-0.243,1.773-0.756l0.585,0.567c-0.576,0.648-1.423,0.991-2.404,0.991
			C1017.597,323.984,1016.175,322.624,1016.175,320.761z"/>
		<path d="M1027.362,319.14v4.771h-0.819v-0.72c-0.351,0.495-0.945,0.774-1.62,0.774c-1.233,0-2.053-0.675-2.053-2.08v-2.746h0.864
			v2.647c0,0.936,0.468,1.404,1.287,1.404c0.9,0,1.477-0.558,1.477-1.584v-2.467H1027.362z"/>
		<path d="M1028.405,323.408l0.36-0.685c0.405,0.288,1.054,0.495,1.675,0.495c0.801,0,1.134-0.243,1.134-0.648
			c0-1.071-3.016-0.144-3.016-2.043c0-0.855,0.766-1.432,1.989-1.432c0.621,0,1.323,0.162,1.738,0.432l-0.369,0.684
			c-0.433-0.279-0.91-0.378-1.378-0.378c-0.756,0-1.125,0.279-1.125,0.657c0,1.125,3.024,0.207,3.024,2.062
			c0,0.864-0.792,1.414-2.062,1.414C1029.585,323.966,1028.802,323.723,1028.405,323.408z"/>
		<path d="M1036.2,323.632c-0.261,0.225-0.657,0.333-1.044,0.333c-0.964,0-1.513-0.531-1.513-1.495v-2.62h-0.811v-0.711h0.811
			v-1.044h0.864v1.044h1.368v0.711h-1.368v2.583c0,0.513,0.271,0.801,0.747,0.801c0.252,0,0.495-0.081,0.676-0.225L1036.2,323.632z"
			/>
		<path d="M1036.64,321.526c0-1.422,1.054-2.431,2.485-2.431c1.431,0,2.476,1.008,2.476,2.431s-1.045,2.44-2.476,2.44
			C1037.693,323.966,1036.64,322.948,1036.64,321.526z M1040.728,321.526c0-1.017-0.685-1.674-1.603-1.674
			c-0.919,0-1.612,0.657-1.612,1.674c0,1.018,0.693,1.684,1.612,1.684C1040.043,323.209,1040.728,322.543,1040.728,321.526z"/>
		<path d="M1050.718,321.166v2.746h-0.864v-2.647c0-0.936-0.45-1.395-1.233-1.395c-0.864,0-1.431,0.549-1.431,1.584v2.458h-0.864
			v-2.647c0-0.936-0.45-1.395-1.233-1.395c-0.864,0-1.432,0.549-1.432,1.584v2.458h-0.864v-4.771h0.828v0.711
			c0.342-0.486,0.928-0.756,1.647-0.756c0.729,0,1.342,0.288,1.656,0.882c0.36-0.54,1.026-0.882,1.837-0.882
			C1049.926,319.095,1050.718,319.761,1050.718,321.166z"/>
		<path d="M1060.276,317.61v6.302h-0.9v-2.809h-3.619v2.809h-0.9v-6.302h0.9v2.709h3.619v-2.709H1060.276z"/>
		<path d="M1061.597,321.526c0-1.422,1.054-2.431,2.485-2.431c1.431,0,2.476,1.008,2.476,2.431s-1.045,2.44-2.476,2.44
			C1062.65,323.966,1061.597,322.948,1061.597,321.526z M1065.685,321.526c0-1.017-0.685-1.674-1.603-1.674
			c-0.919,0-1.612,0.657-1.612,1.674c0,1.018,0.693,1.684,1.612,1.684C1065,323.209,1065.685,322.543,1065.685,321.526z"/>
		<path d="M1067.149,323.408l0.36-0.685c0.405,0.288,1.054,0.495,1.675,0.495c0.801,0,1.134-0.243,1.134-0.648
			c0-1.071-3.016-0.144-3.016-2.043c0-0.855,0.766-1.432,1.989-1.432c0.621,0,1.323,0.162,1.738,0.432l-0.369,0.684
			c-0.433-0.279-0.91-0.378-1.378-0.378c-0.756,0-1.125,0.279-1.125,0.657c0,1.125,3.024,0.207,3.024,2.062
			c0,0.864-0.792,1.414-2.062,1.414C1068.329,323.966,1067.546,323.723,1067.149,323.408z"/>
		<path d="M1074.944,323.632c-0.261,0.225-0.657,0.333-1.044,0.333c-0.964,0-1.513-0.531-1.513-1.495v-2.62h-0.811v-0.711h0.811
			v-1.044h0.864v1.044h1.368v0.711h-1.368v2.583c0,0.513,0.271,0.801,0.747,0.801c0.252,0,0.495-0.081,0.676-0.225L1074.944,323.632
			z"/>
		<path d="M1080.12,321.814h-3.871c0.108,0.837,0.783,1.396,1.729,1.396c0.559,0,1.026-0.189,1.378-0.576l0.477,0.558
			c-0.432,0.504-1.089,0.774-1.881,0.774c-1.54,0-2.566-1.018-2.566-2.44c0-1.414,1.018-2.431,2.395-2.431
			c1.378,0,2.359,0.99,2.359,2.458C1080.139,321.625,1080.129,321.733,1080.12,321.814z M1076.249,321.193h3.062
			c-0.091-0.801-0.693-1.369-1.531-1.369C1076.951,319.824,1076.339,320.382,1076.249,321.193z"/>
		<path d="M1085.835,317.231v6.68h-0.828v-0.756c-0.387,0.541-0.999,0.811-1.701,0.811c-1.396,0-2.413-0.981-2.413-2.44
			s1.018-2.431,2.413-2.431c0.675,0,1.27,0.252,1.665,0.765v-2.629H1085.835z M1084.979,321.526c0-1.017-0.692-1.674-1.602-1.674
			c-0.919,0-1.612,0.657-1.612,1.674c0,1.018,0.693,1.684,1.612,1.684C1084.287,323.209,1084.979,322.543,1084.979,321.526z"/>
		<path d="M979.959,328.41h0.9v6.302h-0.9V328.41z"/>
		<path d="M987.151,331.966v2.746h-0.864v-2.647c0-0.936-0.468-1.395-1.287-1.395c-0.919,0-1.513,0.549-1.513,1.584v2.458h-0.864
			v-4.771h0.828v0.72c0.352-0.486,0.963-0.765,1.72-0.765C986.332,329.895,987.151,330.561,987.151,331.966z"/>
		<path d="M989.725,329.526v0.414h1.386v0.711h-1.368v4.06h-0.864v-4.06h-0.811v-0.711h0.811v-0.423c0-0.928,0.559-1.54,1.575-1.54
			c0.369,0,0.729,0.09,0.973,0.279l-0.261,0.657c-0.181-0.135-0.415-0.225-0.667-0.225
			C989.985,328.688,989.725,328.977,989.725,329.526z"/>
		<path d="M995.214,329.895v0.837c-0.072-0.009-0.135-0.009-0.198-0.009c-0.927,0-1.503,0.567-1.503,1.611v2.377h-0.864v-4.771
			h0.828v0.801C993.782,330.183,994.377,329.895,995.214,329.895z"/>
		<path d="M1000.048,331.831v2.881h-0.819v-0.63c-0.288,0.432-0.819,0.685-1.566,0.685c-1.08,0-1.765-0.576-1.765-1.405
			c0-0.765,0.495-1.395,1.918-1.395h1.368v-0.171c0-0.729-0.423-1.152-1.278-1.152c-0.567,0-1.144,0.198-1.513,0.513l-0.36-0.648
			c0.495-0.396,1.207-0.612,1.972-0.612C999.31,329.895,1000.048,330.525,1000.048,331.831z M999.184,333.253v-0.666h-1.333
			c-0.854,0-1.098,0.333-1.098,0.738c0,0.477,0.396,0.774,1.053,0.774C998.454,334.099,998.968,333.802,999.184,333.253z"/>
		<path d="M1001.045,334.208l0.36-0.685c0.405,0.288,1.054,0.495,1.675,0.495c0.801,0,1.134-0.243,1.134-0.648
			c0-1.071-3.016-0.144-3.016-2.043c0-0.855,0.766-1.432,1.989-1.432c0.621,0,1.323,0.162,1.738,0.432l-0.369,0.684
			c-0.433-0.279-0.91-0.378-1.378-0.378c-0.756,0-1.125,0.279-1.125,0.657c0,1.125,3.024,0.207,3.024,2.062
			c0,0.864-0.792,1.414-2.062,1.414C1002.225,334.766,1001.441,334.522,1001.045,334.208z"/>
		<path d="M1008.84,334.432c-0.261,0.225-0.657,0.333-1.044,0.333c-0.964,0-1.513-0.531-1.513-1.495v-2.62h-0.811v-0.711h0.811
			v-1.044h0.864v1.044h1.368v0.711h-1.368v2.583c0,0.513,0.271,0.801,0.747,0.801c0.252,0,0.495-0.081,0.676-0.225L1008.84,334.432z
			"/>
		<path d="M1012.449,329.895v0.837c-0.071-0.009-0.135-0.009-0.198-0.009c-0.927,0-1.503,0.567-1.503,1.611v2.377h-0.864v-4.771
			h0.828v0.801C1011.018,330.183,1011.612,329.895,1012.449,329.895z"/>
		<path d="M1018.021,329.94v4.771h-0.819v-0.72c-0.351,0.495-0.945,0.774-1.62,0.774c-1.233,0-2.053-0.675-2.053-2.08v-2.746h0.864
			v2.647c0,0.936,0.468,1.404,1.287,1.404c0.9,0,1.477-0.558,1.477-1.584v-2.467H1018.021z"/>
		<path d="M1019.225,332.326c0-1.422,1.054-2.431,2.521-2.431c0.855,0,1.566,0.351,1.945,1.017l-0.657,0.423
			c-0.307-0.468-0.774-0.684-1.297-0.684c-0.937,0-1.639,0.657-1.639,1.674c0,1.035,0.702,1.684,1.639,1.684
			c0.522,0,0.99-0.216,1.297-0.684l0.657,0.414c-0.379,0.666-1.09,1.026-1.945,1.026
			C1020.278,334.766,1019.225,333.748,1019.225,332.326z"/>
		<path d="M1027.551,334.432c-0.261,0.225-0.657,0.333-1.044,0.333c-0.964,0-1.513-0.531-1.513-1.495v-2.62h-0.811v-0.711h0.811
			v-1.044h0.864v1.044h1.368v0.711h-1.368v2.583c0,0.513,0.271,0.801,0.747,0.801c0.252,0,0.495-0.081,0.676-0.225L1027.551,334.432
			z"/>
		<path d="M1033.041,329.94v4.771h-0.819v-0.72c-0.351,0.495-0.945,0.774-1.62,0.774c-1.233,0-2.053-0.675-2.053-2.08v-2.746h0.864
			v2.647c0,0.936,0.468,1.404,1.287,1.404c0.9,0,1.477-0.558,1.477-1.584v-2.467H1033.041z"/>
		<path d="M1037.252,329.895v0.837c-0.071-0.009-0.135-0.009-0.198-0.009c-0.927,0-1.503,0.567-1.503,1.611v2.377h-0.864v-4.771
			h0.828v0.801C1035.82,330.183,1036.415,329.895,1037.252,329.895z"/>
		<path d="M1042.563,332.614h-3.871c0.108,0.837,0.783,1.396,1.729,1.396c0.559,0,1.026-0.189,1.378-0.576l0.477,0.558
			c-0.432,0.504-1.089,0.774-1.881,0.774c-1.54,0-2.566-1.018-2.566-2.44c0-1.414,1.018-2.431,2.395-2.431
			c1.378,0,2.359,0.99,2.359,2.458C1042.581,332.425,1042.571,332.533,1042.563,332.614z M1038.691,331.993h3.062
			c-0.091-0.801-0.693-1.369-1.531-1.369C1039.394,330.624,1038.781,331.182,1038.691,331.993z"/>
		<path d="M1045.748,333.991l0.333-0.702c0.468,0.423,1.27,0.729,2.08,0.729c1.089,0,1.557-0.423,1.557-0.972
			c0-1.54-3.816-0.567-3.816-2.908c0-0.973,0.756-1.801,2.412-1.801c0.738,0,1.504,0.198,2.026,0.558l-0.298,0.72
			c-0.549-0.351-1.17-0.513-1.729-0.513c-1.071,0-1.53,0.45-1.53,1c0,1.54,3.817,0.576,3.817,2.89c0,0.963-0.774,1.792-2.439,1.792
			C1047.197,334.784,1046.252,334.459,1045.748,333.991z"/>
		<path d="M1051.346,332.326c0-1.422,1.054-2.431,2.485-2.431c1.431,0,2.476,1.008,2.476,2.431s-1.045,2.44-2.476,2.44
			C1052.399,334.766,1051.346,333.748,1051.346,332.326z M1055.433,332.326c0-1.017-0.684-1.674-1.602-1.674
			c-0.919,0-1.612,0.657-1.612,1.674c0,1.018,0.693,1.684,1.612,1.684C1054.749,334.009,1055.433,333.343,1055.433,332.326z"/>
		<path d="M1057.502,328.031h0.864v6.68h-0.864V328.031z"/>
		<path d="M1064.46,329.94v4.771h-0.819v-0.72c-0.351,0.495-0.945,0.774-1.62,0.774c-1.233,0-2.053-0.675-2.053-2.08v-2.746h0.864
			v2.647c0,0.936,0.468,1.404,1.287,1.404c0.9,0,1.477-0.558,1.477-1.584v-2.467H1064.46z"/>
		<path d="M1068.788,334.432c-0.261,0.225-0.657,0.333-1.044,0.333c-0.964,0-1.513-0.531-1.513-1.495v-2.62h-0.811v-0.711h0.811
			v-1.044h0.864v1.044h1.368v0.711h-1.368v2.583c0,0.513,0.271,0.801,0.747,0.801c0.252,0,0.495-0.081,0.676-0.225L1068.788,334.432
			z"/>
		<path d="M1069.678,328.463c0-0.315,0.252-0.567,0.585-0.567c0.334,0,0.586,0.243,0.586,0.549c0,0.324-0.243,0.576-0.586,0.576
			C1069.93,329.022,1069.678,328.779,1069.678,328.463z M1069.831,329.94h0.864v4.771h-0.864V329.94z"/>
		<path d="M1071.9,332.326c0-1.422,1.054-2.431,2.485-2.431c1.431,0,2.476,1.008,2.476,2.431s-1.045,2.44-2.476,2.44
			C1072.954,334.766,1071.9,333.748,1071.9,332.326z M1075.987,332.326c0-1.017-0.684-1.674-1.602-1.674
			c-0.919,0-1.612,0.657-1.612,1.674c0,1.018,0.693,1.684,1.612,1.684C1075.304,334.009,1075.987,333.343,1075.987,332.326z"/>
		<path d="M1082.586,331.966v2.746h-0.864v-2.647c0-0.936-0.468-1.395-1.287-1.395c-0.919,0-1.513,0.549-1.513,1.584v2.458h-0.864
			v-4.771h0.828v0.72c0.352-0.486,0.963-0.765,1.72-0.765C1081.767,329.895,1082.586,330.561,1082.586,331.966z"/>
	</g>
</g>
<g>
	<g>
		<path style="fill:#EF4272;" d="M1031.427,382.103c16.333,0,29.574,13.241,29.574,29.574c0,16.333-13.241,29.574-29.574,29.574
			c-16.333,0-29.574-13.241-29.574-29.574C1001.853,395.344,1015.094,382.103,1031.427,382.103L1031.427,382.103z"/>
		<path style="fill:#93B0DC;" d="M1006.561,427.692c1.692,2.621,3.786,4.957,6.196,6.921h37.34c2.41-1.964,4.505-4.3,6.196-6.921
			V386.57h-49.733V427.692L1006.561,427.692z"/>
		<path style="fill:#6492CC;" d="M1006.561,386.57v41.122c0.726,1.125,1.527,2.198,2.395,3.211V386.57H1006.561L1006.561,386.57z"/>
		<path style="fill:#DEECF8;" d="M1051.166,390.195h-39.476c-0.332,0-0.604,0.272-0.604,0.604v8.254
			c0,0.332,0.272,0.604,0.604,0.604h9.661c0.534-5.089,4.849-9.07,10.077-9.07c5.229,0,9.544,3.98,10.078,9.07h9.661
			c0.332,0,0.604-0.272,0.604-0.604v-8.254C1051.769,390.467,1051.498,390.195,1051.166,390.195L1051.166,390.195z"/>
		<path style="fill:#DEECF8;" d="M1031.427,395.174c-2.694,0-4.945,1.932-5.443,4.483h10.887
			C1036.373,397.106,1034.122,395.174,1031.427,395.174L1031.427,395.174z"/>
		<path style="fill:#DEECF8;" d="M1051.166,403.557h-39.476c-0.332,0-0.604,0.272-0.604,0.604v2.234
			c0,0.332,0.272,0.604,0.604,0.604h5.813c0.251-0.236,0.588-0.381,0.958-0.381h25.934c0.37,0,0.707,0.145,0.958,0.381h5.813
			c0.332,0,0.604-0.272,0.604-0.604v-2.234C1051.769,403.828,1051.498,403.557,1051.166,403.557L1051.166,403.557z"/>
		<path style="fill:#DEECF8;" d="M1017.057,408.264h-5.368c-0.332,0-0.604,0.272-0.604,0.604v2.234c0,0.332,0.272,0.604,0.604,0.604
			h5.368V408.264L1017.057,408.264z"/>
		<path style="fill:#DEECF8;" d="M1051.166,408.264h-5.368v3.441h5.368c0.332,0,0.604-0.272,0.604-0.604v-2.234
			C1051.769,408.536,1051.498,408.264,1051.166,408.264L1051.166,408.264z"/>
		<path style="fill:#DEECF8;" d="M1017.057,412.972h-5.368c-0.332,0-0.604,0.272-0.604,0.604v2.234c0,0.332,0.272,0.604,0.604,0.604
			h5.368V412.972L1017.057,412.972z"/>
		<path style="fill:#DEECF8;" d="M1051.166,412.972h-5.368v3.441h5.368c0.332,0,0.604-0.272,0.604-0.604v-2.234
			C1051.769,413.243,1051.498,412.972,1051.166,412.972L1051.166,412.972z"/>
		<path style="fill:#DEECF8;" d="M1017.057,417.679h-5.368c-0.332,0-0.604,0.272-0.604,0.604v2.233c0,0.332,0.272,0.604,0.604,0.604
			h5.368V417.679L1017.057,417.679z"/>
		<path style="fill:#DEECF8;" d="M1051.166,417.679h-5.368v3.441h5.368c0.332,0,0.604-0.272,0.604-0.604v-2.233
			C1051.769,417.951,1051.498,417.679,1051.166,417.679L1051.166,417.679z"/>
		<path style="fill:#DEECF8;" d="M1017.057,422.387h-5.368c-0.332,0-0.604,0.272-0.604,0.604v2.234c0,0.332,0.272,0.604,0.604,0.604
			h5.368V422.387L1017.057,422.387z"/>
		<path style="fill:#DEECF8;" d="M1051.166,422.387h-5.368v3.441h5.368c0.332,0,0.604-0.272,0.604-0.604v-2.234
			C1051.769,422.658,1051.498,422.387,1051.166,422.387L1051.166,422.387z"/>
		<path style="fill:#DEECF8;" d="M1051.166,427.094h-5.368v0.285c0,0.774-0.63,1.403-1.403,1.403h-25.934
			c-0.774,0-1.403-0.629-1.403-1.403v-0.285h-5.368c-0.332,0-0.604,0.272-0.604,0.604v2.234c0,0.332,0.272,0.604,0.604,0.604h39.476
			c0.332,0,0.604-0.272,0.604-0.604v-2.234C1051.769,427.366,1051.498,427.094,1051.166,427.094L1051.166,427.094z"/>
		<path style="fill:#C0DDF4;" d="M1013.481,399.053v-8.254c0-0.332,0.272-0.604,0.604-0.604h-2.395
			c-0.332,0-0.604,0.272-0.604,0.604v8.254c0,0.332,0.272,0.604,0.604,0.604h2.395
			C1013.753,399.657,1013.481,399.385,1013.481,399.053L1013.481,399.053z"/>
		<path style="fill:#C0DDF4;" d="M1013.481,406.394v-2.234c0-0.332,0.272-0.604,0.604-0.604h-2.395
			c-0.332,0-0.604,0.272-0.604,0.604v2.234c0,0.332,0.272,0.604,0.604,0.604h2.395
			C1013.753,406.998,1013.481,406.726,1013.481,406.394L1013.481,406.394z"/>
		<path style="fill:#C0DDF4;" d="M1013.481,411.101v-2.234c0-0.332,0.272-0.604,0.604-0.604h-2.395
			c-0.332,0-0.604,0.272-0.604,0.604v2.234c0,0.332,0.272,0.604,0.604,0.604h2.395
			C1013.753,411.705,1013.481,411.433,1013.481,411.101L1013.481,411.101z"/>
		<path style="fill:#C0DDF4;" d="M1013.481,415.809v-2.234c0-0.332,0.272-0.604,0.604-0.604h-2.395
			c-0.332,0-0.604,0.272-0.604,0.604v2.234c0,0.332,0.272,0.604,0.604,0.604h2.395
			C1013.753,416.413,1013.481,416.141,1013.481,415.809L1013.481,415.809z"/>
		<path style="fill:#C0DDF4;" d="M1013.481,420.516v-2.233c0-0.332,0.272-0.604,0.604-0.604h-2.395
			c-0.332,0-0.604,0.272-0.604,0.604v2.233c0,0.332,0.272,0.604,0.604,0.604h2.395
			C1013.753,421.12,1013.481,420.848,1013.481,420.516L1013.481,420.516z"/>
		<path style="fill:#C0DDF4;" d="M1013.481,425.224v-2.234c0-0.332,0.272-0.604,0.604-0.604h-2.395
			c-0.332,0-0.604,0.272-0.604,0.604v2.234c0,0.332,0.272,0.604,0.604,0.604h2.395
			C1013.753,425.827,1013.481,425.556,1013.481,425.224L1013.481,425.224z"/>
		<path style="fill:#C0DDF4;" d="M1013.481,429.931v-2.234c0-0.332,0.272-0.604,0.604-0.604h-2.395
			c-0.332,0-0.604,0.272-0.604,0.604v2.234c0,0.332,0.272,0.604,0.604,0.604h2.395
			C1013.753,430.535,1013.481,430.263,1013.481,429.931L1013.481,429.931z"/>
		<path style="fill:#375D9D;" d="M1026.001,406.617v-5.895c0-2.992,2.434-5.426,5.426-5.426c2.992,0,5.426,2.434,5.426,5.426v5.895
			h4.828v-5.895c0-5.654-4.6-10.255-10.255-10.255s-10.254,4.6-10.254,10.255v5.895H1026.001L1026.001,406.617z"/>
		<path style="fill:#36417F;" d="M1023.568,406.617v-5.895c0-5.249,3.965-9.587,9.057-10.182c-0.393-0.046-0.792-0.072-1.198-0.072
			c-5.654,0-10.254,4.6-10.254,10.255v5.895L1023.568,406.617L1023.568,406.617L1023.568,406.617z"/>
		<path style="fill:#F68633;" d="M1045.919,427.38c0,0.838-0.686,1.524-1.524,1.524h-25.934c-0.838,0-1.524-0.686-1.524-1.524
			v-19.36c0-0.838,0.686-1.524,1.524-1.524h25.934c0.838,0,1.524,0.686,1.524,1.524V427.38L1045.919,427.38z"/>
		<path style="fill:#F47830;" d="M1019.331,427.38v-19.36c0-0.838,0.686-1.524,1.524-1.524h-2.395c-0.838,0-1.524,0.686-1.524,1.524
			v19.36c0,0.838,0.686,1.524,1.524,1.524h2.395C1020.017,428.904,1019.331,428.218,1019.331,427.38L1019.331,427.38z"/>
		<path style="fill:#F26933;" d="M1034.323,413.404c0-1.599-1.297-2.896-2.896-2.896s-2.896,1.297-2.896,2.896
			c0,1.283,0.835,2.37,1.99,2.751v4.717c0,0.5,0.405,0.905,0.905,0.905s0.905-0.405,0.905-0.905v-4.717
			C1033.489,415.774,1034.323,414.687,1034.323,413.404L1034.323,413.404z"/>
		<path style="fill:#F26933;" d="M1016.936,424.834v2.545c0,0.838,0.686,1.524,1.524,1.524h25.934c0.838,0,1.524-0.686,1.524-1.524
			v-2.545H1016.936L1016.936,424.834z"/>
		<path style="fill:#36417F;" d="M1055.087,379.448h-47.319c-0.664,0-1.207,0.543-1.207,1.207v6.036h49.733v-6.036
			C1056.294,379.991,1055.751,379.448,1055.087,379.448L1055.087,379.448z"/>
		<path style="fill:#F05889;" d="M1010.225,384.311c-0.258,0-0.51-0.104-0.692-0.286c-0.181-0.183-0.286-0.434-0.286-0.692
			c0-0.257,0.104-0.509,0.286-0.691c0.183-0.183,0.434-0.287,0.692-0.287c0.257,0,0.51,0.104,0.691,0.287
			c0.183,0.183,0.287,0.434,0.287,0.691c0,0.258-0.104,0.51-0.287,0.692C1010.735,384.206,1010.482,384.311,1010.225,384.311
			L1010.225,384.311z"/>
		<path style="fill:#F99F2D;" d="M1013.432,384.311c-0.257,0-0.51-0.104-0.691-0.287c-0.182-0.181-0.287-0.433-0.287-0.691
			c0-0.257,0.104-0.509,0.287-0.691c0.183-0.183,0.434-0.287,0.691-0.287c0.258,0,0.51,0.104,0.692,0.287
			c0.181,0.183,0.285,0.434,0.285,0.691c0,0.257-0.104,0.51-0.285,0.691C1013.942,384.206,1013.69,384.311,1013.432,384.311
			L1013.432,384.311z"/>
		<path style="fill:#00AD72;" d="M1016.64,384.311c-0.258,0-0.51-0.104-0.691-0.286c-0.183-0.183-0.287-0.434-0.287-0.692
			c0-0.257,0.104-0.509,0.287-0.691c0.181-0.183,0.433-0.287,0.691-0.287c0.257,0,0.51,0.104,0.691,0.287
			c0.183,0.183,0.287,0.434,0.287,0.691c0,0.258-0.104,0.51-0.287,0.692C1017.149,384.206,1016.897,384.311,1016.64,384.311
			L1016.64,384.311z"/>
	</g>
	<g>
		<path d="M986.639,457.237c0,1.081-0.819,1.702-2.413,1.702h-3.007v-6.302h2.827c1.449,0,2.26,0.612,2.26,1.629
			c0,0.685-0.352,1.161-0.847,1.404C986.17,455.869,986.639,456.4,986.639,457.237z M982.119,453.366v2.017h1.846
			c0.918,0,1.44-0.342,1.44-1.008s-0.522-1.009-1.44-1.009H982.119z M985.729,457.166c0-0.729-0.541-1.054-1.54-1.054h-2.07v2.098
			h2.07C985.188,458.21,985.729,457.895,985.729,457.166z"/>
		<path d="M992.353,454.168v4.771h-0.819v-0.721c-0.351,0.495-0.945,0.774-1.62,0.774c-1.233,0-2.053-0.675-2.053-2.079v-2.746
			h0.864v2.646c0,0.937,0.468,1.404,1.287,1.404c0.9,0,1.477-0.558,1.477-1.584v-2.467H992.353z"/>
		<path d="M993.396,458.436l0.36-0.685c0.405,0.288,1.054,0.495,1.675,0.495c0.801,0,1.134-0.243,1.134-0.648
			c0-1.071-3.016-0.144-3.016-2.043c0-0.855,0.766-1.432,1.989-1.432c0.621,0,1.323,0.162,1.738,0.432l-0.369,0.685
			c-0.433-0.279-0.91-0.378-1.378-0.378c-0.756,0-1.125,0.278-1.125,0.657c0,1.125,3.024,0.207,3.024,2.062
			c0,0.864-0.792,1.413-2.062,1.413C994.575,458.993,993.792,458.75,993.396,458.436z"/>
		<path d="M998.354,452.691c0-0.315,0.252-0.567,0.585-0.567s0.586,0.243,0.586,0.55c0,0.323-0.243,0.576-0.586,0.576
			C998.606,453.25,998.354,453.007,998.354,452.691z M998.508,454.168h0.864v4.771h-0.864V454.168z"/>
		<path d="M1005.547,456.193v2.746h-0.864v-2.647c0-0.936-0.468-1.395-1.287-1.395c-0.919,0-1.513,0.549-1.513,1.584v2.458h-0.864
			v-4.771h0.828v0.72c0.352-0.485,0.963-0.765,1.72-0.765C1004.728,454.123,1005.547,454.789,1005.547,456.193z"/>
		<path d="M1011.468,456.842h-3.871c0.108,0.837,0.783,1.396,1.729,1.396c0.559,0,1.026-0.189,1.378-0.576l0.477,0.558
			c-0.432,0.505-1.089,0.774-1.881,0.774c-1.54,0-2.566-1.018-2.566-2.439c0-1.414,1.018-2.431,2.395-2.431
			c1.378,0,2.359,0.99,2.359,2.457C1011.486,456.652,1011.477,456.761,1011.468,456.842z M1007.597,456.221h3.062
			c-0.091-0.802-0.693-1.369-1.531-1.369C1008.299,454.852,1007.687,455.41,1007.597,456.221z"/>
		<path d="M1012.079,458.436l0.36-0.685c0.405,0.288,1.054,0.495,1.675,0.495c0.801,0,1.134-0.243,1.134-0.648
			c0-1.071-3.016-0.144-3.016-2.043c0-0.855,0.766-1.432,1.989-1.432c0.621,0,1.323,0.162,1.738,0.432l-0.369,0.685
			c-0.433-0.279-0.91-0.378-1.378-0.378c-0.756,0-1.125,0.278-1.125,0.657c0,1.125,3.024,0.207,3.024,2.062
			c0,0.864-0.792,1.413-2.062,1.413C1013.259,458.993,1012.476,458.75,1012.079,458.436z"/>
		<path d="M1016.588,458.436l0.36-0.685c0.405,0.288,1.054,0.495,1.675,0.495c0.801,0,1.134-0.243,1.134-0.648
			c0-1.071-3.016-0.144-3.016-2.043c0-0.855,0.766-1.432,1.989-1.432c0.621,0,1.323,0.162,1.738,0.432l-0.369,0.685
			c-0.433-0.279-0.91-0.378-1.378-0.378c-0.756,0-1.125,0.278-1.125,0.657c0,1.125,3.024,0.207,3.024,2.062
			c0,0.864-0.792,1.413-2.062,1.413C1017.768,458.993,1016.984,458.75,1016.588,458.436z"/>
		<path d="M1023.733,455.788c0-1.863,1.423-3.223,3.341-3.223c0.972,0,1.818,0.333,2.395,0.981l-0.585,0.567
			c-0.486-0.514-1.081-0.748-1.773-0.748c-1.423,0-2.477,1.026-2.477,2.422s1.054,2.422,2.477,2.422
			c0.692,0,1.287-0.243,1.773-0.756l0.585,0.566c-0.576,0.648-1.423,0.991-2.404,0.991
			C1025.156,459.012,1023.733,457.651,1023.733,455.788z"/>
		<path d="M1029.988,456.554c0-1.423,1.054-2.431,2.485-2.431c1.431,0,2.476,1.008,2.476,2.431c0,1.422-1.045,2.439-2.476,2.439
			C1031.042,458.993,1029.988,457.976,1029.988,456.554z M1034.075,456.554c0-1.018-0.684-1.675-1.602-1.675
			c-0.919,0-1.612,0.657-1.612,1.675s0.693,1.684,1.612,1.684C1033.392,458.237,1034.075,457.571,1034.075,456.554z"/>
		<path d="M1040.674,456.193v2.746h-0.864v-2.647c0-0.936-0.468-1.395-1.287-1.395c-0.919,0-1.513,0.549-1.513,1.584v2.458h-0.864
			v-4.771h0.828v0.72c0.352-0.485,0.963-0.765,1.72-0.765C1039.854,454.123,1040.674,454.789,1040.674,456.193z"/>
		<path d="M1044.957,458.66c-0.261,0.225-0.657,0.333-1.044,0.333c-0.964,0-1.513-0.531-1.513-1.494v-2.62h-0.811v-0.711h0.811
			v-1.045h0.864v1.045h1.368v0.711h-1.368v2.584c0,0.513,0.271,0.801,0.747,0.801c0.252,0,0.495-0.081,0.676-0.225L1044.957,458.66z
			"/>
		<path d="M1045.847,452.691c0-0.315,0.252-0.567,0.585-0.567s0.586,0.243,0.586,0.55c0,0.323-0.243,0.576-0.586,0.576
			C1046.099,453.25,1045.847,453.007,1045.847,452.691z M1046,454.168h0.864v4.771H1046V454.168z"/>
		<path d="M1053.039,456.193v2.746h-0.864v-2.647c0-0.936-0.468-1.395-1.287-1.395c-0.919,0-1.513,0.549-1.513,1.584v2.458h-0.864
			v-4.771h0.828v0.72c0.352-0.485,0.963-0.765,1.72-0.765C1052.22,454.123,1053.039,454.789,1053.039,456.193z"/>
		<path d="M1059.087,454.168v4.771h-0.819v-0.721c-0.351,0.495-0.945,0.774-1.62,0.774c-1.233,0-2.053-0.675-2.053-2.079v-2.746
			h0.864v2.646c0,0.937,0.468,1.404,1.287,1.404c0.9,0,1.477-0.558,1.477-1.584v-2.467H1059.087z"/>
		<path d="M1060.579,452.691c0-0.315,0.252-0.567,0.585-0.567s0.586,0.243,0.586,0.55c0,0.323-0.243,0.576-0.586,0.576
			C1060.831,453.25,1060.579,453.007,1060.579,452.691z M1060.732,454.168h0.864v4.771h-0.864V454.168z"/>
		<path d="M1065.927,458.66c-0.261,0.225-0.657,0.333-1.044,0.333c-0.964,0-1.513-0.531-1.513-1.494v-2.62h-0.811v-0.711h0.811
			v-1.045h0.864v1.045h1.368v0.711h-1.368v2.584c0,0.513,0.271,0.801,0.747,0.801c0.252,0,0.495-0.081,0.676-0.225L1065.927,458.66z
			"/>
		<path d="M1071.103,454.168l-2.314,5.248c-0.423,1.009-0.972,1.324-1.701,1.324c-0.459,0-0.928-0.153-1.225-0.441l0.369-0.648
			c0.234,0.226,0.531,0.352,0.855,0.352c0.414,0,0.675-0.189,0.909-0.738l0.153-0.333l-2.106-4.763h0.899l1.666,3.817l1.647-3.817
			H1071.103z"/>
		<path d="M1079.067,459.038l-0.837-0.837c-0.55,0.531-1.27,0.811-2.107,0.811c-1.278,0-2.205-0.676-2.205-1.639
			c0-0.774,0.441-1.314,1.53-1.936c-0.567-0.567-0.756-0.973-0.756-1.44c0-0.847,0.666-1.414,1.701-1.414
			c0.954,0,1.566,0.495,1.566,1.314c0,0.64-0.378,1.099-1.342,1.647l1.558,1.549c0.171-0.324,0.307-0.702,0.388-1.144l0.693,0.226
			c-0.108,0.558-0.298,1.044-0.55,1.44l0.847,0.846L1079.067,459.038z M1077.717,457.697l-1.791-1.783
			c-0.883,0.495-1.162,0.864-1.162,1.369c0,0.603,0.567,1.008,1.414,1.008C1076.78,458.291,1077.312,458.093,1077.717,457.697z
			 M1075.493,453.979c0,0.324,0.126,0.559,0.64,1.08c0.828-0.468,1.098-0.756,1.098-1.152c0-0.414-0.297-0.692-0.837-0.692
			C1075.826,453.214,1075.493,453.528,1075.493,453.979z"/>
		<path d="M975.95,466.588c0-1.863,1.422-3.223,3.34-3.223c0.972,0,1.818,0.333,2.395,0.981l-0.585,0.567
			c-0.486-0.514-1.081-0.748-1.773-0.748c-1.423,0-2.477,1.026-2.477,2.422s1.054,2.422,2.477,2.422
			c0.692,0,1.287-0.243,1.773-0.756l0.585,0.566c-0.576,0.648-1.423,0.991-2.404,0.991
			C977.372,469.812,975.95,468.451,975.95,466.588z"/>
		<path d="M987.065,464.968l-2.313,5.248c-0.423,1.009-0.972,1.324-1.701,1.324c-0.459,0-0.928-0.153-1.225-0.441l0.369-0.648
			c0.234,0.226,0.531,0.352,0.855,0.352c0.414,0,0.675-0.189,0.909-0.738l0.153-0.333l-2.106-4.763h0.899l1.666,3.817l1.647-3.817
			H987.065z"/>
		<path d="M992.817,467.354c0,1.458-1.018,2.439-2.413,2.439c-0.702,0-1.314-0.27-1.701-0.811v0.757h-0.828v-6.681h0.864v2.629
			c0.396-0.513,0.99-0.765,1.665-0.765C991.8,464.923,992.817,465.895,992.817,467.354z M991.944,467.354
			c0-1.018-0.693-1.675-1.611-1.675c-0.909,0-1.603,0.657-1.603,1.675s0.693,1.684,1.603,1.684
			C991.251,469.037,991.944,468.371,991.944,467.354z"/>
		<path d="M998.307,467.642h-3.871c0.108,0.837,0.783,1.396,1.729,1.396c0.559,0,1.026-0.189,1.378-0.576l0.477,0.558
			c-0.432,0.505-1.089,0.774-1.881,0.774c-1.54,0-2.566-1.018-2.566-2.439c0-1.414,1.018-2.431,2.395-2.431
			c1.378,0,2.359,0.99,2.359,2.457C998.325,467.452,998.315,467.561,998.307,467.642z M994.436,467.021h3.062
			c-0.091-0.802-0.693-1.369-1.531-1.369C995.138,465.651,994.525,466.21,994.436,467.021z"/>
		<path d="M1002.086,464.923v0.837c-0.071-0.009-0.135-0.009-0.198-0.009c-0.927,0-1.503,0.567-1.503,1.611v2.377h-0.864v-4.771
			h0.828v0.801C1000.654,465.211,1001.249,464.923,1002.086,464.923z"/>
		<path d="M1005.182,469.019l0.333-0.702c0.468,0.423,1.27,0.729,2.08,0.729c1.089,0,1.557-0.423,1.557-0.973
			c0-1.539-3.816-0.566-3.816-2.907c0-0.973,0.756-1.801,2.412-1.801c0.738,0,1.504,0.198,2.026,0.558l-0.298,0.721
			c-0.549-0.352-1.17-0.514-1.729-0.514c-1.071,0-1.53,0.45-1.53,1c0,1.539,3.817,0.576,3.817,2.89c0,0.963-0.774,1.792-2.439,1.792
			C1006.631,469.812,1005.686,469.487,1005.182,469.019z"/>
		<path d="M1015.515,467.642h-3.871c0.108,0.837,0.783,1.396,1.729,1.396c0.559,0,1.026-0.189,1.378-0.576l0.477,0.558
			c-0.432,0.505-1.089,0.774-1.881,0.774c-1.54,0-2.566-1.018-2.566-2.439c0-1.414,1.018-2.431,2.395-2.431
			c1.378,0,2.359,0.99,2.359,2.457C1015.533,467.452,1015.523,467.561,1015.515,467.642z M1011.644,467.021h3.062
			c-0.091-0.802-0.693-1.369-1.531-1.369C1012.346,465.651,1011.733,466.21,1011.644,467.021z"/>
		<path d="M1016.287,467.354c0-1.423,1.054-2.431,2.521-2.431c0.855,0,1.566,0.351,1.945,1.017l-0.657,0.424
			c-0.307-0.469-0.774-0.685-1.297-0.685c-0.937,0-1.639,0.657-1.639,1.675c0,1.035,0.702,1.684,1.639,1.684
			c0.522,0,0.99-0.217,1.297-0.685l0.657,0.414c-0.379,0.666-1.09,1.026-1.945,1.026
			C1017.341,469.793,1016.287,468.775,1016.287,467.354z"/>
		<path d="M1026.314,464.968v4.771h-0.819v-0.721c-0.351,0.495-0.945,0.774-1.62,0.774c-1.233,0-2.053-0.675-2.053-2.079v-2.746
			h0.864v2.646c0,0.937,0.468,1.404,1.287,1.404c0.9,0,1.477-0.558,1.477-1.584v-2.467H1026.314z"/>
		<path d="M1030.525,464.923v0.837c-0.071-0.009-0.135-0.009-0.198-0.009c-0.927,0-1.503,0.567-1.503,1.611v2.377h-0.864v-4.771
			h0.828v0.801C1029.094,465.211,1029.688,464.923,1030.525,464.923z"/>
		<path d="M1031.434,463.491c0-0.315,0.252-0.567,0.585-0.567c0.334,0,0.586,0.243,0.586,0.55c0,0.323-0.243,0.576-0.586,0.576
			C1031.686,464.05,1031.434,463.807,1031.434,463.491z M1031.587,464.968h0.864v4.771h-0.864V464.968z"/>
		<path d="M1036.781,469.46c-0.261,0.225-0.657,0.333-1.044,0.333c-0.964,0-1.513-0.531-1.513-1.494v-2.62h-0.811v-0.711h0.811
			v-1.045h0.864v1.045h1.368v0.711h-1.368v2.584c0,0.513,0.271,0.801,0.747,0.801c0.252,0,0.495-0.081,0.676-0.225L1036.781,469.46z
			"/>
		<path d="M1041.956,464.968l-2.313,5.248c-0.423,1.009-0.972,1.324-1.701,1.324c-0.459,0-0.928-0.153-1.225-0.441l0.369-0.648
			c0.234,0.226,0.531,0.352,0.855,0.352c0.414,0,0.675-0.189,0.909-0.738l0.153-0.333l-2.106-4.763h0.899l1.666,3.817l1.647-3.817
			H1041.956z"/>
		<path d="M1044.735,469.019l0.333-0.702c0.468,0.423,1.27,0.729,2.08,0.729c1.089,0,1.557-0.423,1.557-0.973
			c0-1.539-3.816-0.566-3.816-2.907c0-0.973,0.756-1.801,2.412-1.801c0.738,0,1.504,0.198,2.026,0.558l-0.298,0.721
			c-0.549-0.352-1.17-0.514-1.729-0.514c-1.071,0-1.53,0.45-1.53,1c0,1.539,3.817,0.576,3.817,2.89c0,0.963-0.774,1.792-2.439,1.792
			C1046.185,469.812,1045.239,469.487,1044.735,469.019z"/>
		<path d="M1050.334,467.354c0-1.423,1.054-2.431,2.485-2.431c1.431,0,2.476,1.008,2.476,2.431c0,1.422-1.045,2.439-2.476,2.439
			C1051.388,469.793,1050.334,468.775,1050.334,467.354z M1054.421,467.354c0-1.018-0.684-1.675-1.602-1.675
			c-0.919,0-1.612,0.657-1.612,1.675s0.693,1.684,1.612,1.684C1053.737,469.037,1054.421,468.371,1054.421,467.354z"/>
		<path d="M1056.49,463.059h0.864v6.681h-0.864V463.059z"/>
		<path d="M1063.448,464.968v4.771h-0.819v-0.721c-0.351,0.495-0.945,0.774-1.62,0.774c-1.233,0-2.053-0.675-2.053-2.079v-2.746
			h0.864v2.646c0,0.937,0.468,1.404,1.287,1.404c0.9,0,1.477-0.558,1.477-1.584v-2.467H1063.448z"/>
		<path d="M1067.776,469.46c-0.261,0.225-0.657,0.333-1.044,0.333c-0.964,0-1.513-0.531-1.513-1.494v-2.62h-0.811v-0.711h0.811
			v-1.045h0.864v1.045h1.368v0.711h-1.368v2.584c0,0.513,0.271,0.801,0.747,0.801c0.252,0,0.495-0.081,0.676-0.225L1067.776,469.46z
			"/>
		<path d="M1068.666,463.491c0-0.315,0.252-0.567,0.585-0.567c0.334,0,0.586,0.243,0.586,0.55c0,0.323-0.243,0.576-0.586,0.576
			C1068.918,464.05,1068.666,463.807,1068.666,463.491z M1068.819,464.968h0.864v4.771h-0.864V464.968z"/>
		<path d="M1070.889,467.354c0-1.423,1.054-2.431,2.485-2.431c1.431,0,2.476,1.008,2.476,2.431c0,1.422-1.045,2.439-2.476,2.439
			C1071.942,469.793,1070.889,468.775,1070.889,467.354z M1074.976,467.354c0-1.018-0.684-1.675-1.602-1.675
			c-0.919,0-1.612,0.657-1.612,1.675s0.693,1.684,1.612,1.684C1074.292,469.037,1074.976,468.371,1074.976,467.354z"/>
		<path d="M1081.574,466.993v2.746h-0.864v-2.647c0-0.936-0.468-1.395-1.287-1.395c-0.919,0-1.513,0.549-1.513,1.584v2.458h-0.864
			v-4.771h0.828v0.72c0.352-0.485,0.963-0.765,1.72-0.765C1080.755,464.923,1081.574,465.589,1081.574,466.993z"/>
		<path d="M1082.571,469.235l0.36-0.685c0.405,0.288,1.054,0.495,1.675,0.495c0.801,0,1.134-0.243,1.134-0.648
			c0-1.071-3.016-0.144-3.016-2.043c0-0.855,0.766-1.432,1.989-1.432c0.621,0,1.323,0.162,1.738,0.432l-0.369,0.685
			c-0.433-0.279-0.91-0.378-1.378-0.378c-0.756,0-1.125,0.278-1.125,0.657c0,1.125,3.024,0.207,3.024,2.062
			c0,0.864-0.792,1.413-2.062,1.413C1083.751,469.793,1082.968,469.55,1082.571,469.235z"/>
	</g>
</g>
<g>
	<g>
		<g>
			<defs>
				<rect id="SVGID_3_" x="1001.069" y="515.639" width="60.243" height="60.361"/>
			</defs>
			<clipPath id="SVGID_4_">
				<use xlink:href="#SVGID_3_"  style="overflow:visible;"/>
			</clipPath>
			<path style="clip-path:url(#SVGID_4_);fill:#FD7D43;" d="M1008.889,566.088c-4.816-5.309-7.767-12.34-7.819-20.06
				c-0.113-16.709,13.471-30.389,30.18-30.389c16.669,0,30.181,13.513,30.181,30.181c0,7.136-2.478,13.694-6.619,18.86
				c-0.757,0.943-1.973,1.39-3.16,1.16c-6.35-1.231-13.224-1.904-20.402-1.904c-7.813,0-15.267,0.798-22.075,2.244
				C1009.07,566.202,1008.961,566.167,1008.889,566.088L1008.889,566.088z M1008.889,566.088"/>
		</g>
		<path style="fill:#EE4424;" d="M1054.121,534.502v29.473h-3.537v-29.473c0-0.651-0.528-1.179-1.179-1.179h-14.147v-3.537h14.147
			C1052.009,529.786,1054.121,531.897,1054.121,534.502L1054.121,534.502z M1054.121,534.502"/>
		<path style="fill:#FDE5BD;" d="M1055.3,549.238c0,1.628-1.319,2.947-2.947,2.947c-1.628,0-2.947-1.319-2.947-2.947
			c0-1.628,1.319-2.947,2.947-2.947C1053.98,546.291,1055.3,547.61,1055.3,549.238L1055.3,549.238z M1055.3,549.238"/>
		<path style="fill:#235967;" d="M1043.51,522.712v47.157c0,1.302-1.055,2.358-2.358,2.358h-22.158
			c-3.668-1.632-6.951-3.974-9.673-6.852v-42.663c0-1.302,1.055-2.358,2.358-2.358h29.473
			C1042.455,520.355,1043.51,521.41,1043.51,522.712L1043.51,522.712z M1043.51,522.712"/>
		<path style="fill:#2B6C7E;" d="M1012.858,538.628v4.716c0,0.326,0.264,0.589,0.589,0.589h30.063v-5.895h-30.063
			C1013.122,538.039,1012.858,538.302,1012.858,538.628L1012.858,538.628z M1030.542,539.512c0.814,0,1.474,0.66,1.474,1.474
			c0,0.814-0.66,1.474-1.474,1.474s-1.474-0.66-1.474-1.474C1029.069,540.172,1029.729,539.512,1030.542,539.512L1030.542,539.512z
			 M1012.858,530.375v4.716c0,0.326,0.264,0.589,0.589,0.589h30.063v-5.895h-30.063
			C1013.122,529.786,1012.858,530.05,1012.858,530.375L1012.858,530.375z M1030.542,531.378c0.814,0,1.474,0.66,1.474,1.474
			c0,0.814-0.66,1.474-1.474,1.474s-1.474-0.66-1.474-1.474C1029.069,532.038,1029.729,531.378,1030.542,531.378L1030.542,531.378z
			 M1012.858,546.88v4.716c0,0.326,0.264,0.589,0.589,0.589h30.063v-5.895h-30.063
			C1013.122,546.291,1012.858,546.555,1012.858,546.88L1012.858,546.88z M1030.542,547.765c0.814,0,1.474,0.66,1.474,1.474
			c0,0.814-0.66,1.474-1.474,1.474s-1.474-0.66-1.474-1.474C1029.069,548.425,1029.729,547.765,1030.542,547.765L1030.542,547.765z
			 M1013.448,554.544h30.063v8.253c0,1.302-1.055,2.358-2.358,2.358h-25.936c-1.302,0-2.358-1.055-2.358-2.358v-7.663
			C1012.858,554.807,1013.122,554.544,1013.448,554.544L1013.448,554.544z M1041.153,520.355h-25.936
			c-1.302,0-2.358,1.055-2.358,2.358v4.126c0,0.326,0.264,0.589,0.589,0.589h30.063v-4.716
			C1043.51,521.41,1042.455,520.355,1041.153,520.355L1041.153,520.355z M1030.542,525.365c-0.814,0-1.474-0.66-1.474-1.474
			c0-0.814,0.66-1.474,1.474-1.474s1.474,0.66,1.474,1.474C1032.016,524.705,1031.356,525.365,1030.542,525.365L1030.542,525.365z
			 M1030.542,525.365"/>
		<path style="fill:#0ED1B2;" d="M1033.784,523.891c0-0.814,0.66-1.474,1.474-1.474s1.474,0.66,1.474,1.474
			c0,0.814-0.66,1.474-1.474,1.474S1033.784,524.705,1033.784,523.891L1033.784,523.891z M1035.258,531.378
			c-0.814,0-1.474,0.66-1.474,1.474c0,0.814,0.66,1.474,1.474,1.474s1.474-0.66,1.474-1.474
			C1036.732,532.038,1036.072,531.378,1035.258,531.378L1035.258,531.378z M1035.258,539.512c-0.814,0-1.474,0.66-1.474,1.474
			c0,0.814,0.66,1.474,1.474,1.474s1.474-0.66,1.474-1.474C1036.732,540.172,1036.072,539.512,1035.258,539.512L1035.258,539.512z
			 M1035.258,547.765c-0.814,0-1.474,0.66-1.474,1.474c0,0.814,0.66,1.474,1.474,1.474s1.474-0.66,1.474-1.474
			C1036.732,548.425,1036.072,547.765,1035.258,547.765L1035.258,547.765z M1035.258,547.765"/>
		<path style="fill:#FDE5BD;" d="M1038.5,523.891c0-0.814,0.66-1.474,1.474-1.474s1.474,0.66,1.474,1.474
			c0,0.814-0.66,1.474-1.474,1.474S1038.5,524.705,1038.5,523.891L1038.5,523.891z M1039.974,531.378
			c-0.814,0-1.474,0.66-1.474,1.474c0,0.814,0.66,1.474,1.474,1.474s1.474-0.66,1.474-1.474
			C1041.447,532.038,1040.787,531.378,1039.974,531.378L1039.974,531.378z M1039.974,539.512c-0.814,0-1.474,0.66-1.474,1.474
			c0,0.814,0.66,1.474,1.474,1.474s1.474-0.66,1.474-1.474C1041.447,540.172,1040.787,539.512,1039.974,539.512L1039.974,539.512z
			 M1039.974,547.765c-0.814,0-1.474,0.66-1.474,1.474c0,0.814,0.66,1.474,1.474,1.474s1.474-0.66,1.474-1.474
			C1041.447,548.425,1040.787,547.765,1039.974,547.765L1039.974,547.765z M1039.974,547.765"/>
		<path style="fill:#C7EEFD;" d="M1031.25,576c-8.887,0-16.875-3.841-22.398-9.953c1.126-2.285,3.477-3.857,6.196-3.857h0.176
			c1.572-3.073,4.767-5.178,8.456-5.178c1.49,0,2.899,0.344,4.154,0.956c2.076-3.663,6.009-6.135,10.52-6.135
			c6.102,0,11.146,4.523,11.966,10.398c1.81,0.194,3.41,1.089,4.526,2.406C1049.314,571.562,1040.801,576,1031.25,576L1031.25,576z
			 M1031.25,576"/>
		<path style="fill:#98E5FB;" d="M1048.656,557.602c-2.076-1.458-4.604-2.317-7.333-2.317c-4.025,0-7.614,1.861-9.955,4.77
			c-0.731,0.908-1.931,1.308-3.061,1.019c-0.798-0.205-1.634-0.313-2.497-0.313c-3.425,0-6.449,1.717-8.259,4.337
			c-0.485,0.701-1.25,1.153-2.095,1.261c-0.21,0.027-0.404,0.058-0.546,0.094c-1.375,0.344-2.594,1.078-3.536,2.078
			c-0.888-0.778-1.731-1.607-2.522-2.483c1.126-2.285,3.477-3.857,6.196-3.857h0.176c1.572-3.073,4.767-5.179,8.456-5.179
			c1.49,0,2.899,0.344,4.154,0.956c2.076-3.663,6.009-6.135,10.52-6.135C1042.712,551.832,1046.53,554.141,1048.656,557.602
			L1048.656,557.602z M1048.656,557.602"/>
	</g>
	<g>
		<path d="M1007.393,581.067l-2.106,6.302h-0.945l-1.72-5.032l-1.719,5.032h-0.964l-2.106-6.302h0.928l1.701,5.123l1.773-5.123
			h0.828l1.737,5.149l1.738-5.149H1007.393z"/>
		<path d="M1007.561,584.983c0-1.422,1.054-2.431,2.485-2.431c1.431,0,2.476,1.009,2.476,2.431c0,1.423-1.045,2.44-2.476,2.44
			C1008.614,587.424,1007.561,586.406,1007.561,584.983z M1011.647,584.983c0-1.017-0.684-1.674-1.602-1.674
			c-0.919,0-1.612,0.657-1.612,1.674c0,1.018,0.693,1.684,1.612,1.684C1010.964,586.667,1011.647,586.001,1011.647,584.983z"/>
		<path d="M1016.282,582.553v0.838c-0.072-0.01-0.135-0.01-0.198-0.01c-0.927,0-1.503,0.567-1.503,1.611v2.377h-0.864v-4.771h0.828
			v0.802C1014.851,582.841,1015.445,582.553,1016.282,582.553z"/>
		<path d="M1019.198,585.146l-0.99,0.919v1.305h-0.864v-6.68h0.864v4.285l2.602-2.377h1.045l-2.008,1.972l2.205,2.8h-1.063
			L1019.198,585.146z"/>
		<path d="M1022.132,586.865l0.36-0.685c0.405,0.288,1.054,0.495,1.675,0.495c0.801,0,1.134-0.243,1.134-0.647
			c0-1.071-3.016-0.145-3.016-2.044c0-0.855,0.766-1.432,1.989-1.432c0.621,0,1.323,0.162,1.738,0.433l-0.369,0.684
			c-0.433-0.278-0.91-0.378-1.378-0.378c-0.756,0-1.125,0.279-1.125,0.657c0,1.125,3.024,0.207,3.024,2.062
			c0,0.864-0.792,1.414-2.062,1.414C1023.312,587.424,1022.528,587.181,1022.132,586.865z"/>
		<path d="M1032.187,584.983c0,1.468-1.018,2.44-2.413,2.44c-0.675,0-1.269-0.262-1.665-0.774v2.467h-0.864v-6.519h0.828v0.757
			c0.387-0.531,0.999-0.802,1.701-0.802C1031.169,582.553,1032.187,583.525,1032.187,584.983z M1031.313,584.983
			c0-1.008-0.693-1.674-1.611-1.674c-0.909,0-1.603,0.666-1.603,1.674c0,1.018,0.693,1.684,1.603,1.684
			C1030.62,586.667,1031.313,586.001,1031.313,584.983z"/>
		<path d="M1037.118,584.488v2.881h-0.819v-0.63c-0.288,0.432-0.819,0.685-1.566,0.685c-1.08,0-1.765-0.576-1.765-1.405
			c0-0.765,0.495-1.395,1.918-1.395h1.368v-0.172c0-0.729-0.423-1.152-1.278-1.152c-0.567,0-1.144,0.198-1.513,0.514l-0.36-0.648
			c0.495-0.396,1.207-0.612,1.972-0.612C1036.38,582.553,1037.118,583.184,1037.118,584.488z M1036.254,585.911v-0.666h-1.333
			c-0.854,0-1.098,0.333-1.098,0.738c0,0.477,0.396,0.773,1.053,0.773C1035.524,586.757,1036.038,586.46,1036.254,585.911z"/>
		<path d="M1038.305,584.983c0-1.422,1.054-2.431,2.521-2.431c0.855,0,1.566,0.352,1.945,1.018l-0.657,0.423
			c-0.307-0.468-0.774-0.684-1.297-0.684c-0.937,0-1.639,0.657-1.639,1.674c0,1.035,0.702,1.684,1.639,1.684
			c0.522,0,0.99-0.216,1.297-0.684l0.657,0.414c-0.379,0.666-1.09,1.026-1.945,1.026
			C1039.358,587.424,1038.305,586.406,1038.305,584.983z"/>
		<path d="M1048.107,585.271h-3.871c0.108,0.838,0.783,1.396,1.729,1.396c0.559,0,1.026-0.188,1.378-0.576l0.477,0.559
			c-0.432,0.504-1.089,0.774-1.881,0.774c-1.54,0-2.566-1.018-2.566-2.44c0-1.413,1.018-2.431,2.395-2.431
			c1.378,0,2.359,0.99,2.359,2.458C1048.126,585.083,1048.116,585.19,1048.107,585.271z M1044.236,584.65h3.062
			c-0.091-0.801-0.693-1.368-1.531-1.368C1044.938,583.282,1044.326,583.84,1044.236,584.65z"/>
		<path d="M1048.718,586.865l0.36-0.685c0.405,0.288,1.054,0.495,1.675,0.495c0.801,0,1.134-0.243,1.134-0.647
			c0-1.071-3.016-0.145-3.016-2.044c0-0.855,0.766-1.432,1.989-1.432c0.621,0,1.323,0.162,1.738,0.433l-0.369,0.684
			c-0.433-0.278-0.91-0.378-1.378-0.378c-0.756,0-1.125,0.279-1.125,0.657c0,1.125,3.024,0.207,3.024,2.062
			c0,0.864-0.792,1.414-2.062,1.414C1049.897,587.424,1049.114,587.181,1048.718,586.865z"/>
		<path d="M1055.81,584.983c0-1.422,1.054-2.431,2.485-2.431c1.431,0,2.476,1.009,2.476,2.431c0,1.423-1.045,2.44-2.476,2.44
			C1056.863,587.424,1055.81,586.406,1055.81,584.983z M1059.897,584.983c0-1.017-0.685-1.674-1.603-1.674
			c-0.919,0-1.612,0.657-1.612,1.674c0,1.018,0.693,1.684,1.612,1.684C1059.213,586.667,1059.897,586.001,1059.897,584.983z"/>
		<path d="M1064.531,582.553v0.838c-0.071-0.01-0.135-0.01-0.198-0.01c-0.927,0-1.503,0.567-1.503,1.611v2.377h-0.864v-4.771h0.828
			v0.802C1063.1,582.841,1063.694,582.553,1064.531,582.553z"/>
		<path d="M1006.901,591.867l-2.764,6.302h-0.892l-2.772-6.302h0.972l2.27,5.177l2.286-5.177H1006.901z"/>
		<path d="M1007.7,591.867h2.656c2.025,0,3.402,1.278,3.402,3.151c0,1.872-1.377,3.15-3.402,3.15h-2.656V591.867z M1010.302,597.386
			c1.558,0,2.557-0.954,2.557-2.367c0-1.414-0.999-2.368-2.557-2.368h-1.701v4.735H1010.302z"/>
		<path d="M1015.135,591.867h0.9v6.302h-0.9V591.867z"/>
		<path d="M1019.77,597.449l0.333-0.702c0.468,0.423,1.27,0.729,2.08,0.729c1.089,0,1.557-0.423,1.557-0.972
			c0-1.54-3.816-0.567-3.816-2.908c0-0.973,0.756-1.801,2.412-1.801c0.738,0,1.504,0.198,2.026,0.559l-0.298,0.72
			c-0.549-0.351-1.17-0.513-1.729-0.513c-1.071,0-1.53,0.45-1.53,0.999c0,1.54,3.817,0.576,3.817,2.89
			c0,0.964-0.774,1.792-2.439,1.792C1021.219,598.241,1020.273,597.917,1019.77,597.449z"/>
		<path d="M1025.367,595.783c0-1.422,1.054-2.431,2.485-2.431c1.431,0,2.476,1.009,2.476,2.431c0,1.423-1.045,2.44-2.476,2.44
			C1026.421,598.224,1025.367,597.206,1025.367,595.783z M1029.454,595.783c0-1.017-0.684-1.674-1.602-1.674
			c-0.919,0-1.612,0.657-1.612,1.674c0,1.018,0.693,1.684,1.612,1.684C1028.771,597.467,1029.454,596.801,1029.454,595.783z"/>
		<path d="M1031.523,591.489h0.864v6.68h-0.864V591.489z"/>
		<path d="M1038.481,593.397v4.771h-0.819v-0.72c-0.351,0.495-0.945,0.774-1.62,0.774c-1.233,0-2.053-0.676-2.053-2.08v-2.746h0.864
			v2.647c0,0.936,0.468,1.404,1.287,1.404c0.9,0,1.477-0.559,1.477-1.585v-2.467H1038.481z"/>
		<path d="M1042.81,597.89c-0.261,0.226-0.657,0.334-1.044,0.334c-0.964,0-1.513-0.531-1.513-1.495v-2.619h-0.811v-0.712h0.811
			v-1.044h0.864v1.044h1.368v0.712h-1.368v2.583c0,0.514,0.271,0.802,0.747,0.802c0.252,0,0.495-0.081,0.676-0.226L1042.81,597.89z"
			/>
		<path d="M1043.7,591.921c0-0.314,0.252-0.566,0.585-0.566s0.586,0.243,0.586,0.549c0,0.324-0.243,0.576-0.586,0.576
			C1043.952,592.479,1043.7,592.236,1043.7,591.921z M1043.854,593.397h0.864v4.771h-0.864V593.397z"/>
		<path d="M1045.923,595.783c0-1.422,1.054-2.431,2.485-2.431c1.431,0,2.476,1.009,2.476,2.431c0,1.423-1.045,2.44-2.476,2.44
			C1046.977,598.224,1045.923,597.206,1045.923,595.783z M1050.011,595.783c0-1.017-0.685-1.674-1.603-1.674
			c-0.919,0-1.612,0.657-1.612,1.674c0,1.018,0.693,1.684,1.612,1.684C1049.326,597.467,1050.011,596.801,1050.011,595.783z"/>
		<path d="M1056.607,595.424v2.745h-0.864v-2.646c0-0.937-0.468-1.396-1.287-1.396c-0.919,0-1.513,0.549-1.513,1.585v2.457h-0.864
			v-4.771h0.828v0.721c0.352-0.486,0.963-0.766,1.72-0.766C1055.788,593.353,1056.607,594.019,1056.607,595.424z"/>
		<path d="M1057.604,597.665l0.36-0.685c0.405,0.288,1.054,0.495,1.675,0.495c0.801,0,1.134-0.243,1.134-0.647
			c0-1.071-3.016-0.145-3.016-2.044c0-0.855,0.766-1.432,1.989-1.432c0.621,0,1.323,0.162,1.738,0.433l-0.369,0.684
			c-0.433-0.278-0.91-0.378-1.378-0.378c-0.756,0-1.125,0.279-1.125,0.657c0,1.125,3.024,0.207,3.024,2.062
			c0,0.864-0.792,1.414-2.062,1.414C1058.784,598.224,1058.001,597.98,1057.604,597.665z"/>
	</g>
</g>
<g>
	<path d="M808.385,428.96c0-1.887,1.448-3.236,3.397-3.236c1.082,0,1.985,0.394,2.575,1.108l-0.93,0.858
		c-0.42-0.482-0.947-0.733-1.573-0.733c-1.172,0-2.003,0.823-2.003,2.003c0,1.181,0.831,2.003,2.003,2.003
		c0.626,0,1.153-0.25,1.573-0.742l0.93,0.858c-0.59,0.725-1.493,1.118-2.584,1.118C809.833,432.197,808.385,430.847,808.385,428.96z
		"/>
	<path d="M815.229,425.455h1.396v6.635h-1.396V425.455z"/>
	<path d="M817.56,429.685c0-1.448,1.118-2.477,2.646-2.477c1.529,0,2.638,1.028,2.638,2.477s-1.108,2.477-2.638,2.477
		C818.678,432.161,817.56,431.133,817.56,429.685z M821.432,429.685c0-0.832-0.528-1.332-1.226-1.332s-1.233,0.5-1.233,1.332
		s0.536,1.332,1.233,1.332S821.432,430.517,821.432,429.685z"/>
	<path d="M828.615,427.279v4.811h-1.323v-0.572c-0.367,0.42-0.903,0.644-1.493,0.644c-1.207,0-2.057-0.68-2.057-2.164v-2.718h1.395
		v2.513c0,0.805,0.357,1.162,0.975,1.162c0.644,0,1.109-0.411,1.109-1.297v-2.378H828.615z"/>
	<path d="M834.807,425.455v6.635h-1.332v-0.555c-0.35,0.421-0.858,0.626-1.503,0.626c-1.358,0-2.405-0.966-2.405-2.477
		s1.047-2.477,2.405-2.477c0.591,0,1.091,0.188,1.44,0.581v-2.334H834.807z M833.438,429.685c0-0.832-0.536-1.332-1.225-1.332
		c-0.698,0-1.234,0.5-1.234,1.332s0.536,1.332,1.234,1.332C832.902,431.017,833.438,430.517,833.438,429.685z"/>
</g>
<g>
	<g>
		
			<line style="fill:none;stroke:#183651;stroke-width:5;stroke-linecap:round;stroke-miterlimit:10;" x1="852.111" y1="387.548" x2="958.264" y2="336.211"/>
		<g>
			<polygon style="fill:#183651;" points="959.336,342.616 966.34,332.305 953.909,331.393 			"/>
		</g>
	</g>
</g>
<g>
	<g>
		
			<line style="fill:none;stroke:#183651;stroke-width:5;stroke-linecap:round;stroke-miterlimit:10;" x1="872.508" y1="427.157" x2="961.583" y2="427.157"/>
		<g>
			<polygon style="fill:#183651;" points="959.759,433.389 970.553,427.157 959.759,420.924 			"/>
		</g>
	</g>
</g>
<g>
	<g>
		
			<line style="fill:none;stroke:#183651;stroke-width:5;stroke-linecap:round;stroke-miterlimit:10;" x1="853.284" y1="466.153" x2="957.895" y2="531.712"/>
		<g>
			<polygon style="fill:#183651;" points="953.039,536.025 965.496,536.475 959.659,525.462 			"/>
		</g>
	</g>
</g>
<g>
	<g>
		<defs>
			<rect id="SVGID_5_" x="738.22" y="422.172" width="66.414" height="12.619"/>
		</defs>
		<clipPath id="SVGID_6_">
			<use xlink:href="#SVGID_5_"  style="overflow:visible;"/>
		</clipPath>
		<g style="clip-path:url(#SVGID_6_);">
			<defs>
				<rect id="SVGID_7_" x="738.22" y="422.172" width="66.414" height="12.619"/>
			</defs>
			<clipPath id="SVGID_8_">
				<use xlink:href="#SVGID_7_"  style="overflow:visible;"/>
			</clipPath>
			<path style="clip-path:url(#SVGID_8_);fill:#047CC1;" d="M744.838,426.844c-0.239-0.398-0.897-0.777-1.654-0.777
				c-0.976,0-1.444,0.408-1.444,0.926c0,0.608,0.717,0.777,1.554,0.877c1.454,0.179,2.809,0.558,2.809,2.222
				c0,1.554-1.375,2.221-2.929,2.221c-1.424,0-2.52-0.439-3.038-1.713l1.096-0.568c0.309,0.767,1.116,1.106,1.962,1.106
				c0.827,0,1.604-0.289,1.604-1.046c0-0.658-0.687-0.926-1.614-1.026c-1.425-0.169-2.74-0.548-2.74-2.112
				c0-1.434,1.415-2.022,2.7-2.032c1.086,0,2.212,0.309,2.74,1.385L744.838,426.844z"/>
			<polygon style="clip-path:url(#SVGID_8_);fill:#047CC1;" points="750.746,428.04 752.599,425.161 754.183,425.161 
				754.183,425.221 751.404,429.255 751.404,432.134 750.089,432.134 750.089,429.255 747.409,425.221 747.409,425.161 
				748.973,425.161 			"/>
			<polygon style="clip-path:url(#SVGID_8_);fill:#047CC1;" points="760.339,425.151 761.654,425.151 761.654,432.134 
				760.837,432.134 760.837,432.144 757.172,427.432 757.172,432.134 755.857,432.134 755.857,425.161 756.922,425.161 
				760.339,429.484 			"/>
			<polygon style="clip-path:url(#SVGID_8_);fill:#047CC1;" points="769.056,432.134 763.836,432.134 763.836,425.161 
				769.056,425.161 769.056,426.436 765.141,426.436 765.141,428.04 768.917,428.04 768.917,429.265 765.141,429.265 
				765.141,430.839 769.056,430.839 			"/>
			<path style="clip-path:url(#SVGID_8_);fill:#047CC1;" d="M777.215,431.257c-0.717,0.707-1.644,1.036-2.65,1.036
				c-2.59,0-3.686-1.783-3.696-3.596c-0.01-1.823,1.175-3.676,3.696-3.676c0.946,0,1.843,0.359,2.56,1.066l-0.876,0.847
				c-0.458-0.448-1.076-0.657-1.684-0.657c-1.684,0-2.411,1.255-2.401,2.421c0.01,1.156,0.677,2.361,2.401,2.361
				c0.608,0,1.295-0.249,1.753-0.707L777.215,431.257z"/>
			<polygon style="clip-path:url(#SVGID_8_);fill:#047CC1;" points="780.652,426.356 778.44,426.356 778.44,425.161 
				784.178,425.161 784.178,426.356 781.967,426.356 781.967,432.134 780.652,432.134 			"/>
			<rect x="785.982" y="425.161" style="clip-path:url(#SVGID_8_);fill:#EE284B;" width="1.305" height="6.973"/>
			<polygon style="clip-path:url(#SVGID_8_);fill:#047CC1;" points="795.116,425.201 792.018,428.538 795.376,432.054 
				795.376,432.134 793.752,432.134 790.833,429.046 790.833,432.134 789.518,432.134 789.518,425.161 790.833,425.161 
				790.833,428.109 793.483,425.161 795.116,425.161 			"/>
			<path style="clip-path:url(#SVGID_8_);fill:#047CC1;" d="M801.343,426.844c-0.239-0.398-0.896-0.777-1.654-0.777
				c-0.976,0-1.445,0.408-1.445,0.926c0,0.608,0.717,0.777,1.554,0.877c1.454,0.179,2.809,0.558,2.809,2.222
				c0,1.554-1.375,2.221-2.929,2.221c-1.424,0-2.52-0.439-3.038-1.713l1.096-0.568c0.309,0.767,1.116,1.106,1.963,1.106
				c0.827,0,1.604-0.289,1.604-1.046c0-0.658-0.687-0.926-1.614-1.026c-1.425-0.169-2.74-0.548-2.74-2.112
				c0-1.434,1.415-2.022,2.7-2.032c1.086,0,2.211,0.309,2.739,1.385L801.343,426.844z"/>
		</g>
	</g>
</g>
<g>
</g>
</svg>
