<?xml version="1.0" encoding="utf-8"?>
<!-- Generator: Adobe Illustrator 24.3.0, SVG Export Plug-In . SVG Version: 6.00 Build 0)  -->
<svg version="1.1" id="Flat" xmlns="http://www.w3.org/2000/svg" xmlns:xlink="http://www.w3.org/1999/xlink" x="0px" y="0px"
	 viewBox="0 0 311.5 275.7" style="enable-background:new 0 0 311.5 275.7;" xml:space="preserve">
<style type="text/css">
	.st0{fill:#FF4155;}
	.st1{fill:#D3DCFB;}
	.st2{fill:#BEC8F7;}
	.st3{fill:#1C2E7A;}
	.st4{fill:#112360;}
	.st5{fill:#FFB332;}
	.st6{fill:#FFDD40;}
	.st7{fill:#FF9100;}
	.st8{fill:#E9EFFF;}
	.st9{fill:#00DD80;}
	.st10{fill:#00AA63;}
	.st11{fill:#FFFFFF;}
	.st12{fill:#E1EBF0;}
	.st13{fill:#B4D2D7;}
	.st14{fill:#6FA5AA;}
</style>
<g>
	<g>
		<path class="st0" d="M141.4,37.2c-61.1,0-110.5,49.5-110.5,110.5c0,50.1,33.4,92.5,79.2,106h62.7c45.8-13.5,79.2-55.9,79.2-106
			C252,86.7,202.5,37.2,141.4,37.2z"/>
	</g>
	<g>
		<path class="st1" d="M158.7,206.3v-11.5h-34.5v11.5c0,16.9-4.9,33.4-14.1,47.4c9.9,2.9,20.5,4.5,31.4,4.5s21.4-1.6,31.4-4.5
			C163.6,239.7,158.7,223.2,158.7,206.3z"/>
	</g>
	<g>
		<path class="st2" d="M141.4,206.3v-11.5h-17.3v11.5c0,16.9-4.9,33.4-14.1,47.4c5.1,1.5,10.3,2.7,15.7,3.4
			C136.4,243,141.4,222.8,141.4,206.3z"/>
	</g>
	<g>
		<path class="st3" d="M252,184l-110.6,17.3L30.9,184V71.7c0-4.8,3.9-8.6,8.6-8.6h203.8c4.8,0,8.6,3.9,8.6,8.6V184H252z"/>
	</g>
	<g>
		<path class="st4" d="M70.4,63.1H39.6c-4.8,0-8.6,3.9-8.6,8.6V184l39.5,6.2V76c-3.6,0-6.5-2.9-6.5-6.5S66.8,63.1,70.4,63.1z"/>
	</g>
	<g>
		<path class="st5" d="M141.4,201.3l97.6-15.2v-110H43.8v110L141.4,201.3z"/>
	</g>
	<g>
		<path class="st6" d="M63.8,187.7h147.1c9.6-17.4,10.6-32.8,4.4-44.3c-5.6-10.2-15.3-21-20.3-26.2c-1.6-1.6-4.3-0.7-4.6,1.5
			c-1.8,14.1,13.6,33.8-2.9,45.8c-18.4,13.4-34.1-0.5-26.6-17.6s16.4-36.7,7.5-56.3c-6.1-13.5-17.6-26.3-24.2-38.8
			c-2.2-4.2-3.8-8.3-4.6-12.4c-0.4-2.1-2.9-3-4.5-1.5c-1.8,1.7-3.8,4.3-5.1,8c-1.7,4.6-2.3,11-0.2,19.5c5.9,23.8,19.5,41.9,2.9,51.5
			c-16.6,9.6-24.3-10.4-19.5-21.1c2.3-5.2,1.4-10.3-0.2-14.1c-1-2.3-4.4-2.1-5,0.3c-1.5,5.5-5.3,13.7-14.8,22.1
			c-16.8,15,8.3,34.2,9.3,49.1c1,13.9-18.1,21.4-27.9,4.7c-1.1-1.8-3.6-1.8-4.6,0c-2.9,5.2-7,14.8-6.4,26.6
			C63.7,185.6,63.8,186.7,63.8,187.7L63.8,187.7z"/>
	</g>
	<g>
		<path class="st7" d="M153.9,118.4c0.3-2.4,3.8-2.5,4.3-0.1c1.6,8.6,1.3,21.3-7.6,35.1c-16.2,25,15.1,34.3,15.1,34.3h-61.2
			c0,0,21.2-7.7,14.9-26.4c-3.6-10.8-2.2-20.6-0.3-27.1c0.6-2,3.4-2.1,4.1-0.1C128.4,149.5,150.1,146.2,153.9,118.4L153.9,118.4z"/>
	</g>
	<g>
		<path class="st8" d="M243.3,218.5H39.5c-4.8,0-8.6-3.9-8.6-8.6V184H252v25.9C252,214.7,248.1,218.5,243.3,218.5z"/>
	</g>
	<g>
		<path class="st1" d="M79.8,209.9V184h-49v25.9c0,4.8,3.9,8.6,8.6,8.6h49C83.7,218.5,79.8,214.7,79.8,209.9z"/>
	</g>
	<g>
		<path class="st1" d="M157.6,204.5h-32.4c-1.8,0-3.2-1.4-3.2-3.2s1.4-3.2,3.2-3.2h32.4c1.8,0,3.2,1.4,3.2,3.2
			C160.9,203,159.4,204.5,157.6,204.5z"/>
	</g>
</g>
<g id="surface1">
	<path class="st9" d="M291.4,96.3c-3.2,8.7-8.1,16.3-14.5,22.5c-7.3,7.1-16.8,12.7-28.3,16.8c-0.4,0.1-0.8,0.2-1.2,0.3
		c-0.5,0.1-1.1,0.2-1.6,0.2h-0.1c-0.6,0-1.1-0.1-1.7-0.2c-0.4-0.1-0.8-0.2-1.2-0.3c-11.5-4-21-9.7-28.3-16.7
		c-6.4-6.2-11.3-13.8-14.5-22.5c-5.8-15.9-5.5-33.3-5.2-47.4l0-0.2c0.1-1.2,0.1-2.4,0.1-3.7c0.1-6.6,5.3-12.1,12-12.4
		c13.8-0.8,24.4-5.3,33.5-14.1l0.1-0.1c1.5-1.4,3.4-2.1,5.3-2c1.8,0,3.6,0.7,5.1,2l0.1,0.1c9.1,8.9,19.8,13.4,33.5,14.1
		c6.6,0.4,11.9,5.8,12,12.4c0,1.4,0.1,2.6,0.1,3.7l0,0.1C297,62.8,297.3,80.4,291.4,96.3z"/>
	<path class="st10" d="M291.4,96.3c-3.2,8.7-8.1,16.3-14.5,22.5c-7.3,7.1-16.8,12.7-28.3,16.8c-0.4,0.1-0.8,0.2-1.2,0.3
		c-0.5,0.1-1.1,0.2-1.6,0.2V16.3c1.8,0,3.6,0.7,5.1,2l0.1,0.1c9.1,8.9,19.8,13.4,33.5,14.1c6.6,0.4,11.9,5.8,12,12.4
		c0,1.4,0.1,2.6,0.1,3.7l0,0.1C297,62.8,297.3,80.4,291.4,96.3z"/>
	<path class="st11" d="M275.7,76.2c0,16.4-13.3,29.8-29.7,29.8h-0.1c-16.5,0-29.8-13.4-29.8-29.8c0-16.5,13.4-29.8,29.8-29.8h0.1
		C262.3,46.4,275.7,59.7,275.7,76.2z"/>
	<path class="st12" d="M275.7,76.2c0,16.4-13.3,29.8-29.7,29.8V46.3C262.3,46.4,275.7,59.7,275.7,76.2z"/>
	<path class="st13" d="M259.4,71.9l-13.4,13.4l-2.9,2.9c-0.7,0.7-1.6,1-2.5,1c-0.9,0-1.8-0.3-2.5-1l-6.2-6.2c-1.4-1.4-1.4-3.6,0-5
		c1.4-1.4,3.6-1.4,5,0l3.8,3.8l13.9-13.9c1.4-1.4,3.6-1.4,5,0C260.7,68.3,260.7,70.5,259.4,71.9z"/>
	<path class="st14" d="M259.4,71.9l-13.4,13.4v-9.9l8.5-8.5c1.4-1.4,3.6-1.4,5,0C260.7,68.3,260.7,70.5,259.4,71.9z"/>
</g>
</svg>
