<?xml version="1.0" encoding="utf-8"?>
<!-- Generator: Adobe Illustrator 24.2.1, SVG Export Plug-In . SVG Version: 6.00 Build 0)  -->
<svg version="1.1" id="Layer_1" xmlns="http://www.w3.org/2000/svg" xmlns:xlink="http://www.w3.org/1999/xlink" x="0px" y="0px"
	 viewBox="0 0 384 357.2" style="enable-background:new 0 0 384 357.2;" xml:space="preserve">
<style type="text/css">
	.st0{fill:#2AA0DA;}
	.st1{fill:#FFFFFF;}
	.st2{clip-path:url(#SVGID_2_);}
	.st3{clip-path:url(#SVGID_4_);}
	.st4{fill:#047CC1;}
	.st5{clip-path:url(#SVGID_6_);}
	.st6{clip-path:url(#SVGID_8_);}
	.st7{clip-path:url(#SVGID_10_);}
	.st8{clip-path:url(#SVGID_12_);}
	.st9{clip-path:url(#SVGID_14_);}
	.st10{clip-path:url(#SVGID_16_);}
	.st11{fill:#EE284B;}
	.st12{clip-path:url(#SVGID_18_);}
	.st13{clip-path:url(#SVGID_20_);}
	.st14{fill:none;stroke:#93B0DC;stroke-width:5;stroke-linecap:round;stroke-miterlimit:10;}
	.st15{fill:#93B0DC;}
	.st16{fill:none;stroke:#2A428C;stroke-width:5;stroke-linecap:round;stroke-miterlimit:10;}
	.st17{fill:#2A428C;}
	.st18{fill:#73C3F9;}
	.st19{fill:#E9EFFF;}
	.st20{fill:#BEC8F7;}
	.st21{fill:#3C58A0;}
	.st22{fill:#FFDD40;}
	.st23{fill:#FF7186;}
	.st24{fill:#FFE98D;}
	.st25{fill:#FC90A5;}
	.st26{fill:#4FABF7;}
	.st27{fill:#1C2E7A;}
	.st28{fill:#4B6BB2;}
	.st29{fill:#49D88B;}
	.st30{clip-path:url(#SVGID_22_);}
	.st31{fill:#38C674;}
	.st32{clip-path:url(#SVGID_24_);}
	.st33{fill:#73F9A9;}
	.st34{fill:#24B55E;}
	.st35{fill:#FF826E;}
	.st36{fill:#E6E9ED;}
	.st37{fill:#FCD770;}
	.st38{fill:#F9CF58;}
	.st39{fill:#FFAC3E;}
	.st40{fill:#82D361;}
	.st41{fill:#1E9CE2;}
	.st42{fill:#FF4755;}
	.st43{fill:#FC2B3A;}
	.st44{fill:#407093;}
	.st45{fill:#8BCAFF;}
	.st46{fill:#2E8CCC;}
	.st47{fill:#EEDFDA;}
	.st48{fill:#C9BEB9;}
	.st49{fill:#F9F5F5;}
	.st50{fill:#5B5353;}
	.st51{fill:#E6E2E6;}
	.st52{fill:#ECDAEC;}
	.st53{fill:#E2CBE2;}
	.st54{fill:#F9F6F6;}
	.st55{fill:#DAB9D8;}
	.st56{fill:#FFE27A;}
	.st57{fill:#98DB7C;}
	.st58{clip-path:url(#SVGID_26_);fill:#FD7D43;}
	.st59{fill:#EE4424;}
	.st60{fill:#FDE5BD;}
	.st61{fill:#235967;}
	.st62{fill:#2B6C7E;}
	.st63{fill:#0ED1B2;}
	.st64{fill:#C7EEFD;}
	.st65{fill:#98E5FB;}
</style>
<g id="Layer_2_1_">
	<g id="Capa_1">
		<path class="st0" d="M152.2,159.8c0.9-2.6,1.3-5.3,1.4-8c0-12.8-10.3-23.1-23.1-23.2c0,0,0,0-0.1,0c-3.1-0.1-6.3,0.6-9.1,1.9
			c-6-11.4-17.7-18.6-30.6-18.7c-8.6-0.1-16.9,3.2-23.2,9.1c-2.7-2.3-6.1-3.4-9.7-3.3c-8.4,0-15.2,6.7-15.2,15.1c0,0.3,0,0.6,0,0.9
			c-11.7,1.9-19.6,12.9-17.6,24.6c0.1,0.4,0.2,0.9,0.3,1.3c-14.3,1.7-24.5,14.6-22.8,28.9c1.5,13,12.5,22.8,25.5,23h118.8
			c14.3,0,25.9-11.6,25.9-25.8c0,0,0,0,0-0.1C173.7,172.5,164.3,162,152.2,159.8z"/>
		<path class="st0" d="M147.5,214.1H28.7C12.8,214.1,0,201.2,0,185.3c0-13.5,9.4-25.1,22.6-28c-0.5-5.6,0.8-11.2,3.9-16
			c3.3-4.8,8.2-8.3,13.8-9.9c0.3-4.2,2-8.1,5-11c3.4-3.5,8-5.5,12.9-5.5c3.3-0.1,6.6,0.9,9.4,2.8c6.7-5.3,14.9-8.2,23.5-8.3
			c13,0,25,6.8,31.7,17.9c2.5-1,5.3-1.5,8-1.4c14.3,0,25.9,11.6,25.9,25.9c0,0,0,0.1,0,0.1c0,2-0.3,4.1-0.8,6.1
			c15.2,4.4,24,20.3,19.5,35.6C171.7,205.8,160.3,214.3,147.5,214.1L147.5,214.1z M58.5,120.4c-3.4,0-6.7,1.4-9.1,3.9
			c-2.4,2.5-3.7,5.9-3.3,9.4c0,1.4-0.8,2.8-2.2,2.8c-5,0.9-9.5,3.8-12.4,8c-2.8,4.3-3.8,9.6-2.8,14.6c0.2,0.8,0,1.6-0.5,2.2
			c-0.5,0.6-1.2,1-1.9,1.1c-12.8,1.4-22,12.9-20.5,25.6c1.3,11.7,11.2,20.7,23,20.7h118.8c12.8-0.1,23.1-10.6,23-23.4
			c-0.1-11.2-8.1-20.7-19.1-22.6c-0.8-0.2-1.5-0.7-1.9-1.4c-0.3-0.7-0.4-1.5-0.3-2.2c0.9-2.3,1.3-4.7,1.4-7.2
			c0-11.2-9.1-20.4-20.3-20.4c0,0-0.1,0-0.1,0c-2.8,0-5.5,0.6-8,1.7c-1.4,0.6-2.9,0-3.6-1.4c-8-15.5-27-21.6-42.5-13.6
			c-2.5,1.3-4.8,2.9-6.8,4.8c-1.1,0.8-2.5,0.8-3.6,0C63.6,121.2,61.1,120.3,58.5,120.4L58.5,120.4z"/>
		<path class="st1" d="M139.7,184.9H38.4c-3.3,0-5.9-2.6-5.9-5.9l0,0v-13.6c0-3.3,2.6-5.9,5.9-5.9h0h101.4c3.3,0,5.9,2.6,5.9,5.9
			v13.5C145.7,182.2,143,184.9,139.7,184.9C139.8,184.9,139.7,184.9,139.7,184.9z"/>
		<path d="M111.4,173.1c0.1-2,1.8-3.5,3.8-3.3c0.9,0.1,1.8,0.5,2.4,1.1l-1,0.9c-0.4-0.5-1-0.8-1.6-0.8c-1.1,0-2.1,0.9-2.1,2.1
			s0.9,2.1,2.1,2.1c0.6,0,1.2-0.3,1.6-0.8l1,0.9c-0.7,0.8-1.7,1.2-2.7,1.2c-1.9,0.1-3.4-1.3-3.5-3.2
			C111.4,173.2,111.4,173.2,111.4,173.1z"/>
		<path d="M118.5,169.5h1.5v6.9h-1.4L118.5,169.5z"/>
		<path d="M121,173.9c-0.1-1.5,1.1-2.8,2.6-2.9c1.5-0.1,2.8,1.1,2.9,2.6c0.1,1.5-1.1,2.8-2.6,2.9c-0.1,0-0.1,0-0.2,0
			c-1.4,0.1-2.6-1-2.7-2.4C121,174,121,173.9,121,173.9z M125,173.9c-0.1-0.7-0.7-1.2-1.4-1.2c-0.7,0.1-1.2,0.7-1.2,1.4
			c0.1,0.7,0.6,1.2,1.3,1.2c0.7,0,1.3-0.5,1.3-1.2C125,174,125,173.9,125,173.9z"/>
		<path d="M132.5,171.4v5h-1.4v-0.6c-0.8,0.9-2.2,0.9-3,0.1c-0.5-0.4-0.7-1-0.7-1.7v-2.8h1.4v2.6c0,0.8,0.4,1.2,1,1.2
			s1.2-0.4,1.2-1.3v-2.5H132.5z"/>
		<path d="M138.9,169.5v6.9h-1.4v-0.6c-0.4,0.4-1,0.7-1.6,0.6c-1.4-0.1-2.5-1.3-2.4-2.7c0.1-1.3,1.1-2.3,2.4-2.4
			c0.6,0,1.1,0.2,1.5,0.6v-2.4H138.9z M137.5,173.9c-0.1-0.7-0.7-1.2-1.4-1.2c-0.7,0.1-1.2,0.7-1.2,1.4c0.1,0.7,0.6,1.2,1.3,1.2
			c0.7,0,1.3-0.6,1.3-1.3C137.5,174,137.5,173.9,137.5,173.9z"/>
		<g>
			<defs>
				<rect id="SVGID_1_" x="38.4" y="166.1" width="69.1" height="13.1"/>
			</defs>
			<clipPath id="SVGID_2_">
				<use xlink:href="#SVGID_1_"  style="overflow:visible;"/>
			</clipPath>
			<g class="st2">
				<g>
					<defs>
						<rect id="SVGID_3_" x="38.4" y="166.1" width="69.1" height="13.1"/>
					</defs>
					<clipPath id="SVGID_4_">
						<use xlink:href="#SVGID_3_"  style="overflow:visible;"/>
					</clipPath>
					<g class="st3">
						<path class="st4" d="M45.3,170.9c-0.4-0.5-1.1-0.8-1.7-0.8c-1,0-1.5,0.4-1.5,1s0.7,0.8,1.6,0.9c1.5,0.2,2.9,0.6,2.9,2.3
							s-1.4,2.3-3,2.3s-2.6-0.4-3.2-1.8l1.1-0.6c0.4,0.8,1.2,1.2,2,1.1c0.9,0,1.7-0.3,1.7-1.1s-0.7-1-1.7-1.1
							c-1.5-0.2-2.8-0.6-2.8-2.2s1.5-2.1,2.8-2.1c1.2-0.1,2.3,0.4,2.8,1.4L45.3,170.9z"/>
					</g>
				</g>
				<g>
					<defs>
						<rect id="SVGID_5_" x="38.4" y="166.1" width="69.1" height="13.1"/>
					</defs>
					<clipPath id="SVGID_6_">
						<use xlink:href="#SVGID_5_"  style="overflow:visible;"/>
					</clipPath>
					<g class="st5">
						<polygon class="st4" points="51.4,172.2 53.4,169.2 55,169.2 55,169.2 52.1,173.4 52.1,176.4 50.8,176.4 50.8,173.4 48,169.2 
							48,169.2 49.6,169.2 						"/>
					</g>
				</g>
				<g>
					<defs>
						<rect id="SVGID_7_" x="38.4" y="166.1" width="69.1" height="13.1"/>
					</defs>
					<clipPath id="SVGID_8_">
						<use xlink:href="#SVGID_7_"  style="overflow:visible;"/>
					</clipPath>
					<g class="st6">
						<polygon class="st4" points="61.4,169.2 62.8,169.2 62.8,176.4 61.9,176.4 61.9,176.4 58.1,171.5 58.1,176.4 56.8,176.4 
							56.8,169.2 57.9,169.2 61.4,173.7 						"/>
					</g>
				</g>
				<g>
					<defs>
						<rect id="SVGID_9_" x="38.4" y="166.1" width="69.1" height="13.1"/>
					</defs>
					<clipPath id="SVGID_10_">
						<use xlink:href="#SVGID_9_"  style="overflow:visible;"/>
					</clipPath>
					<g class="st7">
						<polygon class="st4" points="70.5,176.4 65.1,176.4 65.1,169.2 70.5,169.2 70.5,170.5 66.4,170.5 66.4,172.2 70.3,172.2 
							70.3,173.4 66.4,173.4 66.4,175.1 70.5,175.1 						"/>
					</g>
				</g>
				<g>
					<defs>
						<rect id="SVGID_11_" x="38.4" y="166.1" width="69.1" height="13.1"/>
					</defs>
					<clipPath id="SVGID_12_">
						<use xlink:href="#SVGID_11_"  style="overflow:visible;"/>
					</clipPath>
					<g class="st8">
						<path class="st4" d="M79,175.5c-0.7,0.7-1.7,1.1-2.8,1.1c-2,0.2-3.7-1.3-3.9-3.2c0-0.2,0-0.3,0-0.5c-0.1-2,1.5-3.7,3.5-3.8
							c0.1,0,0.2,0,0.4,0c1,0,2,0.4,2.7,1.1L78,171c-0.5-0.5-1.1-0.7-1.8-0.7c-1.3-0.1-2.4,0.9-2.5,2.3c0,0.1,0,0.2,0,0.3
							c-0.1,1.3,0.9,2.4,2.2,2.5c0.1,0,0.2,0,0.3,0c0.7,0,1.3-0.3,1.8-0.7L79,175.5z"/>
					</g>
				</g>
				<g>
					<defs>
						<rect id="SVGID_13_" x="38.4" y="166.1" width="69.1" height="13.1"/>
					</defs>
					<clipPath id="SVGID_14_">
						<use xlink:href="#SVGID_13_"  style="overflow:visible;"/>
					</clipPath>
					<g class="st9">
						<polygon class="st4" points="82.6,170.4 80.3,170.4 80.3,169.2 86.2,169.2 86.2,170.4 83.9,170.4 83.9,176.4 82.6,176.4 
													"/>
					</g>
				</g>
				<g>
					<defs>
						<rect id="SVGID_15_" x="38.4" y="166.1" width="69.1" height="13.1"/>
					</defs>
					<clipPath id="SVGID_16_">
						<use xlink:href="#SVGID_15_"  style="overflow:visible;"/>
					</clipPath>
					<g class="st10">
						<rect x="88.1" y="169.2" class="st11" width="1.4" height="7.3"/>
					</g>
				</g>
				<g>
					<defs>
						<rect id="SVGID_17_" x="38.4" y="166.1" width="69.1" height="13.1"/>
					</defs>
					<clipPath id="SVGID_18_">
						<use xlink:href="#SVGID_17_"  style="overflow:visible;"/>
					</clipPath>
					<g class="st12">
						<polygon class="st4" points="97.6,169.2 94.4,172.7 97.9,176.3 97.9,176.4 96.2,176.4 93.2,173.2 93.2,176.4 91.8,176.4 
							91.8,169.2 93.2,169.2 93.2,172.2 95.9,169.2 97.6,169.2 						"/>
					</g>
				</g>
				<g>
					<defs>
						<rect id="SVGID_19_" x="38.4" y="166.1" width="69.1" height="13.1"/>
					</defs>
					<clipPath id="SVGID_20_">
						<use xlink:href="#SVGID_19_"  style="overflow:visible;"/>
					</clipPath>
					<g class="st13">
						<path class="st4" d="M104.1,170.9c-0.4-0.5-1.1-0.8-1.7-0.8c-1,0-1.5,0.4-1.5,1s0.8,0.8,1.6,0.9c1.5,0.2,2.9,0.6,2.9,2.3
							s-1.4,2.3-3.1,2.3s-2.6-0.4-3.2-1.8l1.1-0.6c0.4,0.8,1.2,1.2,2,1.1c0.8,0,1.7-0.3,1.7-1.1s-0.7-1-1.7-1.1
							c-1.5-0.2-2.8-0.6-2.8-2.2s1.5-2.1,2.8-2.1c1.2-0.1,2.3,0.4,2.8,1.4L104.1,170.9z"/>
					</g>
				</g>
			</g>
		</g>
		<line class="st14" x1="157.5" y1="129.8" x2="310.5" y2="48.5"/>
		<polygon class="st15" points="162,134.5 149.5,134.1 156.1,123.5 		"/>
		<line class="st16" x1="183.4" y1="174.8" x2="303.7" y2="174.8"/>
		<polygon class="st17" points="185.2,181.1 174.4,174.8 185.2,168.6 		"/>
		<path class="st18" d="M346.1,193.4c12.1-10.2,13.6-28.2,3.4-40.3c-10.2-12.1-28.2-13.6-40.3-3.4c-11.4,9.7-13.5,26.6-4.6,38.7
			L346.1,193.4z"/>
		<path class="st19" d="M345.8,169.1c-6.5-2.5-10.8-8.7-10.8-15.7v-4.8h-27.2c-1.8,0-3.3,1.5-3.3,3.3v36.3c0.9,1.2,1.9,2.4,2.9,3.5
			l36.1,3.6c0.9-0.6,1.9-1.3,2.7-2.1v-24.2C346.1,169.1,345.9,169.1,345.8,169.1z"/>
		<path class="st20" d="M319,148.6h-11.2c-1.8,0-3.3,1.5-3.3,3.3v36.3c0.9,1.2,1.9,2.4,2.9,3.5l11.6,1.2V151
			c-0.7-0.5-0.8-1.5-0.2-2.2C318.9,148.7,318.9,148.7,319,148.6L319,148.6z"/>
		<path class="st21" d="M335,153.4V152h-26c-0.7,0-1.2,0.5-1.2,1.2v7.5c0,0.7,0.5,1.2,1.2,1.2h28.3C335.8,159.3,335,156.4,335,153.4
			z"/>
		<path class="st22" d="M334.6,156.9c0,0.9-0.7,1.6-1.6,1.6c-0.9,0-1.6-0.7-1.6-1.6c0-0.9,0.7-1.6,1.6-1.6l0,0
			C333.9,155.3,334.6,156,334.6,156.9z"/>
		<path class="st23" d="M329.7,156.9c0,0.9-0.7,1.6-1.6,1.6c-0.9,0-1.6-0.7-1.6-1.6c0-0.9,0.7-1.6,1.6-1.6l0,0
			C329,155.3,329.7,156,329.7,156.9z"/>
		<path class="st24" d="M334,156.6c0,0.4-0.3,0.7-0.7,0.7s-0.7-0.3-0.7-0.7s0.3-0.7,0.7-0.7S334,156.2,334,156.6L334,156.6z"/>
		<path class="st25" d="M329.1,156.6c0,0.4-0.3,0.7-0.7,0.7s-0.7-0.3-0.7-0.7s0.3-0.7,0.7-0.7S329.1,156.2,329.1,156.6z"/>
		<path class="st21" d="M337.3,161.9H309c-0.7,0-1.2,0.5-1.2,1.2v7.5c0,0.7,0.5,1.2,1.2,1.2h32.7c0.7,0,1.2-0.5,1.2-1.2v-2.9
			C340.6,166.2,338.6,164.2,337.3,161.9L337.3,161.9z"/>
		<path class="st22" d="M333.3,165.2c0.9,0.2,1.4,1.1,1.1,2c-0.2,0.8-1,1.3-1.8,1.1c-0.9-0.2-1.5-1-1.3-1.9s1-1.5,1.9-1.3
			C333.2,165.2,333.3,165.2,333.3,165.2z"/>
		<path class="st23" d="M328.5,165.2c0.9,0.2,1.4,1.1,1.1,2c-0.2,0.8-1,1.3-1.8,1.1c-0.9-0.2-1.5-1-1.3-1.9s1-1.5,1.9-1.3
			C328.4,165.2,328.4,165.2,328.5,165.2z"/>
		<path class="st26" d="M338,165.2c0.9,0.1,1.5,0.9,1.5,1.8s-0.9,1.5-1.8,1.5c-0.9-0.1-1.5-0.9-1.5-1.8c0,0,0,0,0,0
			C336.3,165.8,337.1,165.1,338,165.2z"/>
		<path class="st18" d="M338.9,166.5c0,0.4-0.3,0.7-0.7,0.7c0,0,0,0,0,0c-0.4,0-0.7-0.4-0.6-0.8c0-0.3,0.3-0.6,0.6-0.6
			C338.6,165.8,338.9,166.1,338.9,166.5L338.9,166.5L338.9,166.5z"/>
		<path class="st24" d="M334,166.5c0,0.4-0.3,0.7-0.7,0.7s-0.7-0.3-0.7-0.7s0.3-0.7,0.7-0.7S334,166.1,334,166.5L334,166.5z"/>
		<path class="st25" d="M329.1,166.5c0,0.4-0.3,0.7-0.7,0.7s-0.7-0.3-0.7-0.7s0.3-0.7,0.7-0.7S329.1,166.1,329.1,166.5z"/>
		<path class="st21" d="M341.7,171.8H309c-0.7,0-1.2,0.5-1.2,1.2v7.5c0,0.7,0.5,1.2,1.2,1.2h32.7c0.7,0,1.2-0.5,1.2-1.2V173
			C342.9,172.3,342.4,171.8,341.7,171.8z"/>
		<path class="st21" d="M341.7,181.7H309c-0.7,0-1.2,0.5-1.2,1.2v7.5c0,0.7,0.5,1.2,1.2,1.2h32.7c0.7,0,1.2-0.5,1.2-1.2v-7.5
			C342.9,182.2,342.4,181.7,341.7,181.7L341.7,181.7z"/>
		<path class="st17" d="M319,161.1c0-0.2-0.1-0.4-0.3-0.6c-2-1.8-2.2-5-0.3-7c0.1-0.1,0.2-0.2,0.3-0.3c0.2-0.1,0.2-0.3,0.3-0.6
			c0-0.4-0.3-0.7-0.8-0.8H309c-0.2,0-0.4,0.1-0.6,0.2v9.6c0.2,0.1,0.4,0.2,0.6,0.2h10V161.1z"/>
		<path class="st17" d="M319,171c0-0.2-0.1-0.4-0.3-0.6c-2-1.8-2.2-5-0.3-7c0.1-0.1,0.2-0.2,0.3-0.3c0.2-0.1,0.2-0.3,0.3-0.6v-0.7
			h-10c-0.2,0-0.4,0.1-0.6,0.2v9.6c0.2,0.1,0.4,0.2,0.6,0.2h10V171z"/>
		<path class="st17" d="M318.7,173.1c0.2-0.1,0.2-0.3,0.3-0.6v-0.8h-10c-0.2,0-0.4,0.1-0.6,0.2v9.6c0.2,0.1,0.4,0.2,0.6,0.2h10v-0.7
			c0-0.2-0.1-0.4-0.3-0.6c-2-1.8-2.2-5-0.3-7C318.5,173.3,318.6,173.2,318.7,173.1L318.7,173.1z"/>
		<path class="st17" d="M318.7,183c0.2-0.1,0.2-0.3,0.3-0.6v-0.8h-10c-0.2,0-0.4,0.1-0.6,0.2v9.6c0.2,0.1,0.4,0.2,0.6,0.2h9.2
			c0.4,0,0.8-0.3,0.8-0.7c0,0,0,0,0,0c0-0.2-0.1-0.4-0.3-0.6c-2-1.8-2.2-5-0.3-7C318.5,183.2,318.6,183.1,318.7,183L318.7,183z"/>
		<path class="st21" d="M341.7,191.6H309c-0.4,0-0.8,0.2-1.1,0.6c9.5,9.1,23.9,10.5,35,3.5v-2.9
			C342.9,192.1,342.4,191.6,341.7,191.6L341.7,191.6z"/>
		<path class="st17" d="M308.4,191.8v0.9c2.6,2.4,5.7,4.3,9,5.6c-0.2-0.5-0.3-1.1-0.3-1.7c0-1.4,0.6-2.7,1.6-3.6
			c0.2-0.1,0.2-0.3,0.3-0.6c0-0.4-0.3-0.7-0.8-0.7H309C308.8,191.6,308.6,191.7,308.4,191.8L308.4,191.8z"/>
		<path class="st22" d="M334.6,196.6c0,0.9-0.7,1.6-1.6,1.6c-0.9,0-1.6-0.7-1.6-1.6c0-0.9,0.7-1.6,1.6-1.6l0,0
			C333.9,194.9,334.6,195.7,334.6,196.6z"/>
		<path class="st23" d="M329.7,196.6c0,0.9-0.7,1.6-1.6,1.6c-0.9,0-1.6-0.7-1.6-1.6c0-0.9,0.7-1.6,1.6-1.6l0,0
			C329,194.9,329.7,195.7,329.7,196.6z"/>
		<path class="st26" d="M339.4,196.6c0,0.9-0.7,1.6-1.6,1.6c-0.9,0-1.6-0.7-1.6-1.6c0-0.9,0.7-1.6,1.6-1.6l0,0
			C338.7,194.9,339.4,195.7,339.4,196.6z"/>
		<path class="st18" d="M338.9,196.3c0,0.4-0.3,0.7-0.7,0.7c0,0,0,0,0,0c-0.4,0-0.7-0.4-0.6-0.8c0-0.3,0.3-0.6,0.6-0.6
			C338.6,195.6,338.9,195.9,338.9,196.3L338.9,196.3L338.9,196.3z"/>
		<path class="st24" d="M334,196.3c0,0.4-0.3,0.7-0.7,0.7s-0.7-0.3-0.7-0.7s0.3-0.7,0.7-0.7S334,195.9,334,196.3L334,196.3z"/>
		<path class="st25" d="M329.1,196.3c0,0.4-0.3,0.7-0.7,0.7s-0.7-0.3-0.7-0.7s0.3-0.7,0.7-0.7S329.1,195.9,329.1,196.3z"/>
		<path class="st27" d="M312,158.9c-0.5,0-0.9-0.4-0.9-0.9v0v-2.1c-0.1-0.5,0.3-1,0.8-1c0.5-0.1,1,0.3,1,0.8c0,0.1,0,0.1,0,0.2v2.1
			C312.9,158.5,312.5,158.9,312,158.9L312,158.9z"/>
		<path class="st27" d="M315.5,158.9c-0.5,0-0.9-0.4-0.9-0.9v-2.1c0-0.5,0.4-0.9,0.9-0.9c0.5,0,0.9,0.4,0.9,0.9c0,0,0,0,0,0v2.1
			C316.4,158.5,316,158.9,315.5,158.9L315.5,158.9z"/>
		<path class="st27" d="M318.9,158.9c-0.5,0-0.9-0.4-0.9-0.9v-2.1c0-0.5,0.4-0.9,0.9-0.9c0.5,0,0.9,0.4,0.9,0.9v2.1
			C319.8,158.5,319.4,158.9,318.9,158.9L318.9,158.9z"/>
		<path class="st27" d="M322.3,158.9c-0.5,0-0.9-0.4-0.9-0.9c0,0,0,0,0,0v-2.1c-0.1-0.5,0.3-1,0.8-1c0.5-0.1,1,0.3,1,0.8
			c0,0.1,0,0.1,0,0.2v2.1C323.2,158.5,322.8,158.9,322.3,158.9C322.3,158.9,322.3,158.9,322.3,158.9L322.3,158.9z"/>
		<path class="st27" d="M312,168.8c-0.5,0-0.9-0.4-0.9-0.9v0v-2.1c-0.1-0.5,0.3-1,0.8-1c0.5-0.1,1,0.3,1,0.8c0,0.1,0,0.1,0,0.2v2.1
			C312.9,168.4,312.5,168.8,312,168.8z"/>
		<path class="st27" d="M315.5,168.8c-0.5,0-0.9-0.4-0.9-0.9v-2.1c0-0.5,0.4-0.9,0.9-0.9c0.5,0,0.9,0.4,0.9,0.9c0,0,0,0,0,0v2.1
			C316.4,168.4,316,168.8,315.5,168.8z"/>
		<path class="st27" d="M318.9,168.8c-0.5,0-0.9-0.4-0.9-0.9v-2.1c0-0.5,0.4-0.9,0.9-0.9c0.5,0,0.9,0.4,0.9,0.9v2.1
			C319.9,168.4,319.4,168.8,318.9,168.8L318.9,168.8z"/>
		<path class="st27" d="M322.3,168.8c-0.5,0-0.9-0.4-0.9-0.9c0,0,0,0,0,0v-2.1c-0.1-0.5,0.3-1,0.8-1c0.5-0.1,1,0.3,1,0.8
			c0,0.1,0,0.1,0,0.2v2.1C323.2,168.4,322.8,168.8,322.3,168.8C322.3,168.8,322.3,168.8,322.3,168.8z"/>
		<path class="st27" d="M312,178.7c-0.5,0-0.9-0.4-0.9-0.9v0v-2.1c-0.1-0.5,0.3-1,0.8-1c0.5-0.1,1,0.3,1,0.8c0,0.1,0,0.1,0,0.2v2.1
			C312.9,178.3,312.5,178.7,312,178.7z"/>
		<path class="st27" d="M315.5,178.7c-0.5,0-0.9-0.4-0.9-0.9v-2.1c0-0.5,0.4-0.9,0.9-0.9c0.5,0,0.9,0.4,0.9,0.9v2.1
			C316.4,178.3,316,178.7,315.5,178.7z"/>
		<path class="st27" d="M318.9,178.7c-0.5,0-0.9-0.4-0.9-0.9v-2.1c0-0.5,0.4-0.9,0.9-0.9c0.5,0,0.9,0.4,0.9,0.9v2.1
			C319.8,178.3,319.4,178.7,318.9,178.7z"/>
		<path class="st27" d="M322.3,178.7c-0.5,0-0.9-0.4-0.9-0.9c0,0,0,0,0,0v-2.1c-0.1-0.5,0.3-1,0.8-1c0.5-0.1,1,0.3,1,0.8
			c0,0.1,0,0.1,0,0.2v2.1C323.2,178.3,322.8,178.7,322.3,178.7C322.3,178.7,322.3,178.7,322.3,178.7z"/>
		<path class="st27" d="M312,188.6c-0.5,0-0.9-0.4-0.9-0.9v0v-2.1c-0.1-0.5,0.3-1,0.8-1c0.5-0.1,1,0.3,1,0.8c0,0.1,0,0.1,0,0.2v2.1
			C312.9,188.2,312.5,188.6,312,188.6z"/>
		<path class="st27" d="M315.5,188.6c-0.5,0-0.9-0.4-0.9-0.9v-2.1c0-0.5,0.4-0.9,0.9-0.9c0.5,0,0.9,0.4,0.9,0.9c0,0,0,0,0,0v2.1
			C316.4,188.2,316,188.6,315.5,188.6z"/>
		<path class="st27" d="M318.9,188.6c-0.5,0-0.9-0.4-0.9-0.9v-2.1c0-0.5,0.4-0.9,0.9-0.9c0.5,0,0.9,0.4,0.9,0.9v2.1
			C319.8,188.2,319.4,188.6,318.9,188.6z"/>
		<path class="st27" d="M322.3,188.6c-0.5,0-0.9-0.4-0.9-0.9c0,0,0,0,0,0v-2.1c-0.1-0.5,0.3-1,0.8-1c0.5-0.1,1,0.3,1,0.8
			c0,0.1,0,0.1,0,0.2v2.1C323.2,188.2,322.8,188.6,322.3,188.6C322.3,188.6,322.3,188.6,322.3,188.6z"/>
		<path class="st27" d="M312,194.6c-0.3,0-0.6,0.1-0.8,0.4c0.5,0.4,1.1,0.8,1.7,1.1v-0.6C312.9,195,312.5,194.6,312,194.6L312,194.6
			z"/>
		<path class="st27" d="M315.5,194.6c-0.5,0-0.9,0.4-0.9,0.9v1.4c0.6,0.3,1.2,0.6,1.8,0.9c0-0.1,0-0.1,0-0.2v-2.1
			C316.4,195,315.9,194.6,315.5,194.6L315.5,194.6z"/>
		<path class="st27" d="M318.9,198.5c-0.5,0-0.9-0.4-0.9-0.9v-2.1c0-0.5,0.4-0.9,0.9-0.9c0.5,0,0.9,0.4,0.9,0.9v2.1
			C319.8,198.1,319.4,198.5,318.9,198.5z"/>
		<path class="st27" d="M322.3,198.5c-0.5,0-0.9-0.4-0.9-0.9v-2.1c-0.1-0.5,0.3-1,0.8-1c0.5-0.1,1,0.3,1,0.8c0,0.1,0,0.1,0,0.2v2.1
			C323.2,198.1,322.8,198.5,322.3,198.5C322.3,198.5,322.3,198.5,322.3,198.5z"/>
		<path class="st28" d="M342,170.6c0,0.2-0.1,0.3-0.3,0.3H309c-0.2,0-0.3-0.1-0.3-0.3v-7.5c0-0.2,0.1-0.3,0.3-0.3h27.7
			c-0.4-0.6-0.7-1.2-1-1.9H309c-0.2,0-0.3-0.1-0.3-0.3v-7.5c0-0.2,0.1-0.3,0.3-0.3c0,0,0,0,0,0h25V151h-25c-1.2,0-2.1,1-2.1,2.1
			c0,0,0,0,0,0v7.5c0,0.4,0.1,0.8,0.4,1.2c-0.2,0.4-0.4,0.8-0.4,1.2v7.5c0,0.4,0.1,0.8,0.4,1.2c-0.2,0.4-0.4,0.8-0.4,1.2v7.5
			c0,0.4,0.1,0.8,0.4,1.2c-0.2,0.4-0.4,0.8-0.4,1.2v7.5c0,0.4,0.1,0.7,0.3,1c0.5,0.5,1,1,1.6,1.5v-0.1c0-0.2,0.1-0.3,0.3-0.3h32.7
			c0.2,0,0.3,0.1,0.3,0.3v3.5c0.6-0.4,1.2-0.8,1.9-1.2v-2.3c0-0.4-0.1-0.9-0.4-1.2c0.2-0.4,0.4-0.8,0.4-1.2v-7.5
			c0-0.4-0.1-0.9-0.4-1.2c0.2-0.4,0.4-0.8,0.4-1.2V173c0-0.4-0.1-0.9-0.4-1.2c0.2-0.4,0.4-0.8,0.4-1.2v-1.2
			c-0.6-0.3-1.3-0.7-1.9-1.1L342,170.6L342,170.6z M342,190.4c0,0.2-0.1,0.3-0.3,0.3H309c-0.2,0-0.3-0.1-0.3-0.3v-7.5
			c0-0.2,0.1-0.3,0.3-0.3h32.7c0.2,0,0.3,0.1,0.3,0.3L342,190.4z M342,180.5c0,0.2-0.1,0.3-0.3,0.3H309c-0.2,0-0.3-0.1-0.3-0.3V173
			c0-0.2,0.1-0.3,0.3-0.3h32.7c0.2,0,0.3,0.1,0.3,0.3L342,180.5z"/>
		<path class="st28" d="M342,170.6c0,0.2-0.1,0.3-0.3,0.3H309c-0.2,0-0.3-0.1-0.3-0.3v-7.5c0-0.2,0.1-0.3,0.3-0.3h27.7
			c-0.4-0.6-0.7-1.2-1-1.9H309c-0.2,0-0.3-0.1-0.3-0.3v-7.5c0-0.2,0.1-0.3,0.3-0.3c0,0,0,0,0,0h25V151h-25c-1.2,0-2.1,1-2.1,2.1
			c0,0,0,0,0,0v7.5c0,0.4,0.1,0.8,0.4,1.2c-0.2,0.4-0.4,0.8-0.4,1.2v7.5c0,0.4,0.1,0.8,0.4,1.2c-0.2,0.4-0.4,0.8-0.4,1.2v7.5
			c0,0.4,0.1,0.8,0.4,1.2c-0.2,0.4-0.4,0.8-0.4,1.2v7.5c0,0.4,0.1,0.7,0.3,1c0.5,0.5,1,1,1.6,1.5v-0.1c0-0.2,0.1-0.3,0.3-0.3h32.7
			c0.2,0,0.3,0.1,0.3,0.3v3.5c0.6-0.4,1.2-0.8,1.9-1.2v-2.3c0-0.4-0.1-0.9-0.4-1.2c0.2-0.4,0.4-0.8,0.4-1.2v-7.5
			c0-0.4-0.1-0.9-0.4-1.2c0.2-0.4,0.4-0.8,0.4-1.2V173c0-0.4-0.1-0.9-0.4-1.2c0.2-0.4,0.4-0.8,0.4-1.2v-1.2
			c-0.6-0.3-1.3-0.7-1.9-1.1L342,170.6L342,170.6z M342,190.4c0,0.2-0.1,0.3-0.3,0.3H309c-0.2,0-0.3-0.1-0.3-0.3v-7.5
			c0-0.2,0.1-0.3,0.3-0.3h32.7c0.2,0,0.3,0.1,0.3,0.3L342,190.4z M342,180.5c0,0.2-0.1,0.3-0.3,0.3H309c-0.2,0-0.3-0.1-0.3-0.3V173
			c0-0.2,0.1-0.3,0.3-0.3h32.7c0.2,0,0.3,0.1,0.3,0.3L342,180.5z"/>
		<path class="st29" d="M357.2,146.9c-1.8-0.3-3-1.9-2.9-3.8c0-0.3-0.2-0.5-0.4-0.6c-4.9-1.7-10.3-1.7-15.3,0
			c-0.2,0.1-0.4,0.3-0.4,0.6c0.1,1.8-1.2,3.4-2.9,3.8c-0.3,0.1-0.5,0.3-0.5,0.6v5.9c0,7,4.3,13.4,10.9,15.8c0.3,0.1,0.7,0.1,1.1,0
			c6.6-2.5,10.9-8.8,10.9-15.8v-5.9C357.7,147.2,357.5,147,357.2,146.9L357.2,146.9z"/>
		<g>
			<defs>
				<rect id="SVGID_21_" x="299" y="140.4" width="59.8" height="59.8"/>
			</defs>
			<clipPath id="SVGID_22_">
				<use xlink:href="#SVGID_21_"  style="overflow:visible;"/>
			</clipPath>
			<g class="st30">
				<path class="st31" d="M353.9,163.1c-0.1-0.2-0.3-0.4-0.5-0.4c-0.7,0-1.4-0.5-1.5-1.2c-0.1-0.2-0.3-0.4-0.5-0.4
					c-2.2,0.3-4.1-1.3-4.4-3.4c0-0.1,0-0.1,0-0.2c0-0.2-0.1-0.4-0.2-0.5l-2.3-3.3c0-0.1-0.1-0.2-0.2-0.3c-3.7-2.1-3.4-6-3.1-7.4
					c0.1-0.3-0.1-0.6-0.4-0.6c0,0,0,0,0,0c-0.8-0.2-1.5-0.8-1.7-1.7c0-0.2-0.2-0.3-0.3-0.4c-0.2-0.1-0.4-0.3-0.5-0.5
					c-0.1,0.1-0.1,0.2-0.1,0.3c0.1,1.8-1.2,3.4-2.9,3.8c-0.3,0.1-0.5,0.3-0.5,0.6v5.9c0,7,4.3,13.4,10.9,15.8c0.3,0.1,0.7,0.1,1.1,0
					c3-1.1,5.5-3,7.5-5.5C354.1,163.5,353.9,163.3,353.9,163.1L353.9,163.1z"/>
			</g>
		</g>
		<g>
			<defs>
				<rect id="SVGID_23_" x="299" y="140.4" width="59.8" height="59.8"/>
			</defs>
			<clipPath id="SVGID_24_">
				<use xlink:href="#SVGID_23_"  style="overflow:visible;"/>
			</clipPath>
			<g class="st32">
				<path class="st33" d="M345.4,170.1c-6.9-2.6-11.5-9.3-11.5-16.7v-5.9c0-0.7,0.5-1.3,1.2-1.5c1.4-0.2,2.3-1.5,2.2-2.9
					c0-0.6,0.4-1.2,1-1.4c5.1-1.8,10.7-1.8,15.9,0c0.6,0.2,1,0.8,1,1.4c-0.1,1.4,0.9,2.6,2.2,2.9c0.7,0.2,1.2,0.8,1.2,1.5v5.9
					c0,7.4-4.6,14.1-11.5,16.7C346.5,170.3,345.9,170.3,345.4,170.1L345.4,170.1z M335.7,147.7v5.6c-0.1,6.7,4.1,12.7,10.3,15
					c0.1,0,0.3,0,0.4,0c6.2-2.3,10.4-8.3,10.3-15v-5.6c-2-0.5-3.4-2.3-3.4-4.4c-4.6-1.6-9.6-1.6-14.2,0
					C339.1,145.4,337.7,147.2,335.7,147.7L335.7,147.7z"/>
			</g>
		</g>
		<path class="st29" d="M353.9,163.1c0-0.1-0.1-0.2-0.2-0.3c-1.8,2.5-4.3,4.4-7.3,5.5c-0.1,0-0.3,0-0.4,0c-6.2-2.3-10.4-8.3-10.3-15
			v-5.6c1.9-0.5,3.3-2.2,3.4-4.2c-0.1-0.1-0.2-0.2-0.3-0.2c-0.5-0.2-0.8-0.9-0.6-1.4c0-0.1,0-0.1,0-0.2c-0.6,0.2-1,0.8-1,1.4
			c0.1,1.4-0.9,2.6-2.2,2.9c-0.7,0.2-1.2,0.8-1.2,1.5v5.9c0,7.4,4.6,14.1,11.5,16.7c0.6,0.2,1.2,0.2,1.7,0c3.2-1.2,6-3.3,8-6.1
			c-0.1-0.1-0.2-0.1-0.3-0.1C354.3,163.8,353.9,163.5,353.9,163.1L353.9,163.1z"/>
		<path class="st31" d="M346.3,165.7c2.3-1,4.2-2.6,5.6-4.6c1.6-2.3,2.4-4.9,2.4-7.7v-4c-1.5-0.9-2.6-2.3-3.1-4
			c-3.2-0.8-6.5-0.8-9.7,0c-0.5,1.7-1.6,3.1-3.1,4v4c0,2.7,0.8,5.4,2.4,7.7C342.1,163.1,344,164.7,346.3,165.7L346.3,165.7z"/>
		<path class="st34" d="M351.7,161.2c-0.1-0.1-0.2-0.1-0.4-0.1c-2.2,0.3-4.1-1.3-4.4-3.4c0-0.1,0-0.1,0-0.2c0-0.2-0.1-0.4-0.2-0.5
			l-2.3-3.3c0-0.1-0.1-0.2-0.2-0.3c-3.7-2.1-3.4-6-3.1-7.4c0-0.1,0-0.1,0-0.2c-0.5,1.5-1.6,2.8-3,3.6v4c0,2.7,0.8,5.4,2.4,7.7
			c1.4,2,3.3,3.6,5.6,4.6C348.4,164.7,350.3,163.2,351.7,161.2L351.7,161.2z"/>
		<path class="st19" d="M345,157.4l-2.2-2.2c-0.5-0.5-0.5-1.3,0-1.7c0.5-0.5,1.3-0.5,1.7,0l1.4,1.3l2.6-2.6c0.5-0.5,1.3-0.4,1.8,0.1
			c0.4,0.5,0.4,1.2,0,1.6l-3.4,3.4C346.3,157.9,345.5,157.9,345,157.4C345,157.4,345,157.4,345,157.4L345,157.4z"/>
		<path class="st21" d="M318.1,191.6c0-0.5,0.4-0.9,0.9-0.9h-10c-0.2,0-0.3-0.1-0.3-0.3v-7.5c0-0.2,0.1-0.3,0.3-0.3h10
			c-0.5,0.1-1-0.3-1-0.8c-0.1-0.5,0.3-1,0.8-1c0.1,0,0.1,0,0.2,0h-10c-0.2,0-0.3-0.1-0.3-0.3V173c0-0.2,0.1-0.3,0.3-0.3h10
			c-0.5,0.1-1-0.3-1-0.8c-0.1-0.5,0.3-1,0.8-1c0.1,0,0.1,0,0.2,0h-10c-0.2,0-0.3-0.1-0.3-0.3v-7.5c0-0.2,0.1-0.3,0.3-0.3h10
			c-0.5,0-0.9-0.4-0.9-0.9l0,0c0-0.5,0.4-0.9,0.9-0.9h-10c-0.2,0-0.3-0.1-0.3-0.3v-7.5c0-0.2,0.1-0.3,0.3-0.3h10
			c-0.5,0.1-1-0.3-1-0.8c-0.1-0.5,0.3-1,0.8-1c0.1,0,0.1,0,0.2,0h-10c-1.2,0-2.1,1-2.1,2.1c0,0,0,0,0,0v7.5c0,0.4,0.1,0.8,0.4,1.2
			c-0.2,0.4-0.4,0.8-0.4,1.2v7.5c0,0.4,0.1,0.8,0.4,1.2c-0.2,0.4-0.4,0.8-0.4,1.2v7.5c0,0.4,0.1,0.8,0.4,1.2
			c-0.2,0.4-0.4,0.8-0.4,1.2v7.5c0,0.4,0.1,0.7,0.3,1c0.5,0.5,1,1,1.6,1.5v-0.1c0-0.2,0.1-0.3,0.3-0.3h10
			C318.5,192.5,318.1,192.1,318.1,191.6L318.1,191.6z"/>
		<path class="st22" d="M334.6,186.6c0,0.9-0.7,1.6-1.6,1.6c-0.9,0-1.6-0.7-1.6-1.6c0-0.9,0.7-1.6,1.6-1.6l0,0
			C333.9,185,334.6,185.7,334.6,186.6z"/>
		<path class="st23" d="M329.7,186.6c0,0.9-0.7,1.6-1.6,1.6c-0.9,0-1.6-0.7-1.6-1.6c0-0.9,0.7-1.6,1.6-1.6l0,0
			C329,185,329.7,185.7,329.7,186.6z"/>
		<path class="st26" d="M339.4,186.6c0,0.9-0.7,1.6-1.6,1.6c-0.9,0-1.6-0.7-1.6-1.6c0-0.9,0.7-1.6,1.6-1.6l0,0
			C338.7,185,339.4,185.7,339.4,186.6z"/>
		<path class="st18" d="M338.9,186.4c0,0.4-0.3,0.7-0.7,0.7c0,0,0,0,0,0c-0.4,0-0.7-0.4-0.6-0.8c0-0.3,0.3-0.6,0.6-0.6
			C338.6,185.6,338.9,186,338.9,186.4L338.9,186.4L338.9,186.4z"/>
		<path class="st24" d="M334,186.4c0,0.4-0.3,0.7-0.7,0.7s-0.7-0.3-0.7-0.7s0.3-0.7,0.7-0.7S334,186,334,186.4L334,186.4z"/>
		<path class="st25" d="M329.1,186.4c0,0.4-0.3,0.7-0.7,0.7s-0.7-0.3-0.7-0.7s0.3-0.7,0.7-0.7S329.1,186,329.1,186.4z"/>
		<path class="st22" d="M334.6,176.7c0,0.9-0.7,1.6-1.6,1.6c-0.9,0-1.6-0.7-1.6-1.6c0-0.9,0.7-1.6,1.6-1.6l0,0
			C333.9,175.1,334.6,175.8,334.6,176.7z"/>
		<path class="st23" d="M329.7,176.7c0,0.9-0.7,1.6-1.6,1.6c-0.9,0-1.6-0.7-1.6-1.6c0-0.9,0.7-1.6,1.6-1.6l0,0
			C329,175.1,329.7,175.8,329.7,176.7z"/>
		<path class="st26" d="M339.4,176.7c0,0.9-0.7,1.6-1.6,1.6c-0.9,0-1.6-0.7-1.6-1.6c0-0.9,0.7-1.6,1.6-1.6l0,0
			C338.7,175.1,339.4,175.8,339.4,176.7z"/>
		<path class="st18" d="M338.9,176.5c0,0.4-0.3,0.7-0.7,0.7c0,0,0,0,0,0c-0.4,0-0.7-0.4-0.6-0.8c0-0.3,0.3-0.6,0.6-0.6
			C338.6,175.7,338.9,176.1,338.9,176.5L338.9,176.5L338.9,176.5z"/>
		<path class="st24" d="M334,176.5c0,0.4-0.3,0.7-0.7,0.7s-0.7-0.3-0.7-0.7s0.3-0.7,0.7-0.7S334,176.1,334,176.5L334,176.5z"/>
		<path class="st25" d="M329.1,176.5c0,0.4-0.3,0.7-0.7,0.7s-0.7-0.3-0.7-0.7s0.3-0.7,0.7-0.7S329.1,176.1,329.1,176.5z"/>
		<path d="M271.1,213.7l0.3-0.7c0.6,0.5,1.3,0.7,2.1,0.7c1.1,0,1.5-0.4,1.5-1c0-1.5-3.8-0.6-3.8-2.9c0-1,0.8-1.8,2.4-1.8
			c0.7,0,1.4,0.2,2,0.6l-0.3,0.7c-0.5-0.3-1.1-0.5-1.7-0.5c-1.1,0-1.5,0.4-1.5,1c0,1.5,3.8,0.6,3.8,2.9c0,1-0.8,1.8-2.4,1.8
			C272.6,214.5,271.8,214.2,271.1,213.7z"/>
		<path d="M281.4,212.3h-3.9c0.1,0.8,0.9,1.5,1.7,1.4c0.5,0,1-0.2,1.4-0.6l0.5,0.6c-1,1-2.7,1-3.7,0c-0.4-0.4-0.7-1-0.8-1.7
			c-0.1-1.3,1-2.4,2.2-2.4c0.1,0,0.1,0,0.2,0c1.3,0,2.3,1,2.4,2.3c0,0.1,0,0.1,0,0.2C281.5,212.1,281.4,212.2,281.4,212.3z
			 M277.6,211.7h3.1c-0.1-0.8-0.8-1.5-1.7-1.4C278.2,210.4,277.6,210.9,277.6,211.7z"/>
		<path d="M282.2,212c0-1.3,1-2.4,2.3-2.4c0.1,0,0.1,0,0.2,0c0.8-0.1,1.5,0.3,1.9,1L286,211c-0.3-0.4-0.8-0.7-1.3-0.7
			c-0.9,0-1.7,0.8-1.7,1.7c0,0.9,0.8,1.7,1.7,1.7c0.5,0,1-0.2,1.3-0.7l0.6,0.4c-0.4,0.7-1.2,1-1.9,1c-1.3,0.1-2.4-0.9-2.5-2.3
			C282.2,212.1,282.2,212.1,282.2,212z"/>
		<path d="M292.2,209.7v4.8h-0.8v-0.7c-0.4,0.5-1,0.8-1.6,0.8c-1,0.1-2-0.6-2.1-1.7c0-0.1,0-0.3,0-0.4v-2.7h0.9v2.6
			c0,0.9,0.5,1.4,1.3,1.4c0.8,0,1.4-0.5,1.5-1.3c0-0.1,0-0.2,0-0.3v-2.5L292.2,209.7L292.2,209.7z"/>
		<path d="M296.5,209.6v0.8h-0.2c-0.8-0.1-1.5,0.5-1.5,1.3c0,0.1,0,0.2,0,0.3v2.4h-0.9v-4.8h0.8v0.8
			C295.1,209.9,295.8,209.5,296.5,209.6z"/>
		<path d="M301.8,212.3h-3.9c0.1,0.8,0.9,1.5,1.7,1.4c0.5,0,1-0.2,1.4-0.6l0.5,0.6c-1,1-2.7,1-3.7,0c-0.4-0.4-0.7-1-0.8-1.7
			c-0.1-1.3,1-2.4,2.2-2.4c0.1,0,0.1,0,0.2,0c1.3,0,2.3,1,2.4,2.2c0,0.1,0,0.2,0,0.2C301.8,212.1,301.8,212.2,301.8,212.3z
			 M297.9,211.7h3.1c-0.1-0.8-0.9-1.5-1.7-1.4C298.6,210.4,298,211,297.9,211.7L297.9,211.7z"/>
		<path d="M310.1,214.5l-0.8-0.8c-0.6,0.5-1.3,0.8-2.1,0.8c-1.3,0-2.2-0.7-2.2-1.6c0-0.8,0.4-1.3,1.5-1.9c-0.4-0.4-0.7-0.9-0.8-1.4
			c0-0.8,0.7-1.4,1.7-1.4s1.6,0.5,1.6,1.3c0,0.6-0.4,1.1-1.3,1.6l1.6,1.6c0.2-0.4,0.3-0.7,0.4-1.1l0.7,0.2c-0.1,0.5-0.3,1-0.5,1.4
			l0.8,0.9L310.1,214.5z M308.8,213.2l-1.8-1.8c-0.9,0.5-1.2,0.9-1.2,1.4s0.6,1,1.4,1C307.8,213.8,308.4,213.6,308.8,213.2z
			 M306.5,209.5c0,0.3,0.1,0.6,0.6,1.1c0.8-0.5,1.1-0.8,1.1-1.2s-0.3-0.7-0.8-0.7S306.5,209,306.5,209.5z"/>
		<path d="M313.6,211.3c0.1-1.9,1.7-3.3,3.5-3.2c0.8,0,1.6,0.4,2.2,1l-0.6,0.6c-0.5-0.5-1.1-0.7-1.8-0.7c-1.3,0-2.4,1.1-2.4,2.4
			c0,1.3,1.1,2.4,2.4,2.4c0.7,0,1.3-0.3,1.8-0.8l0.6,0.6c-0.6,0.7-1.5,1-2.4,1c-1.8,0.1-3.3-1.3-3.3-3
			C313.6,211.4,313.6,211.4,313.6,211.3z"/>
		<path d="M324.8,209.7v4.8H324v-0.7c-0.4,0.5-1,0.8-1.6,0.8c-1,0.1-1.9-0.6-2.1-1.7c0-0.1,0-0.3,0-0.4v-2.7h0.9v2.6
			c0,0.9,0.5,1.4,1.3,1.4c0.8,0,1.4-0.5,1.5-1.3c0-0.1,0-0.2,0-0.3v-2.5L324.8,209.7L324.8,209.7z"/>
		<path d="M325.8,213.9l0.4-0.7c0.5,0.3,1.1,0.5,1.7,0.5c0.8,0,1.1-0.2,1.1-0.6c0-1.1-3-0.1-3-2.1c0-0.9,0.8-1.4,2-1.4
			c0.6,0,1.2,0.1,1.7,0.4l-0.4,0.7c-0.4-0.3-0.9-0.4-1.4-0.4c-0.8,0-1.1,0.3-1.1,0.7c0,1.1,3,0.2,3,2.1c0,0.9-0.8,1.4-2.1,1.4
			C327.1,214.5,326.4,214.3,325.8,213.9z"/>
		<path d="M333.6,214.1c-0.3,0.2-0.6,0.3-1,0.3c-0.7,0.1-1.4-0.4-1.5-1.2c0-0.1,0-0.2,0-0.3v-2.6h-0.8v-0.7h0.8v-1.1h0.9v1.1h1.4
			v0.7H332v2.6c-0.1,0.4,0.2,0.7,0.6,0.8c0.1,0,0.1,0,0.2,0c0.2,0,0.5-0.1,0.7-0.2L333.6,214.1z"/>
		<path d="M334.1,212c0-1.4,1.1-2.5,2.4-2.5c1.4,0,2.5,1.1,2.5,2.4c0,1.4-1.1,2.5-2.4,2.5c0,0,0,0,0,0c-1.3,0.1-2.4-0.9-2.5-2.3
			C334.1,212.2,334.1,212.1,334.1,212z M338.1,212c0.1-0.9-0.6-1.7-1.5-1.7s-1.7,0.6-1.7,1.5c0,0.1,0,0.2,0,0.3
			c-0.1,0.9,0.6,1.7,1.5,1.7s1.7-0.6,1.7-1.5C338.2,212.2,338.2,212.1,338.1,212z"/>
		<path d="M348.1,211.7v2.8h-0.9v-2.7c0-0.9-0.5-1.4-1.2-1.4c-0.8,0-1.4,0.6-1.5,1.3c0,0.1,0,0.2,0,0.3v2.5h-0.9v-2.7
			c0-0.9-0.5-1.4-1.2-1.4s-1.4,0.6-1.4,1.6v2.5h-0.9v-4.8h0.8v0.7c0.4-0.5,1-0.8,1.6-0.8c0.7,0,1.3,0.3,1.6,0.9
			c0.4-0.6,1.1-0.9,1.8-0.9c1-0.1,1.9,0.7,2,1.7C348.2,211.4,348.2,211.5,348.1,211.7z"/>
		<path d="M357.7,208.1v6.3h-0.9v-2.8h-3.6v2.8h-0.9v-6.3h0.9v2.8h3.6v-2.7L357.7,208.1z"/>
		<path d="M359,212c0-1.4,1.1-2.5,2.4-2.5c1.4,0,2.5,1.1,2.5,2.4c0,1.4-1.1,2.5-2.4,2.5c0,0,0,0,0,0c-1.3,0.1-2.4-1-2.5-2.3
			C359,212.1,359,212.1,359,212z M363.1,212c0-0.9-0.7-1.6-1.6-1.6c-0.9,0-1.6,0.7-1.6,1.6s0.7,1.6,1.6,1.6
			C362.4,213.6,363.1,212.9,363.1,212L363.1,212z"/>
		<path d="M364.6,213.9l0.4-0.7c0.5,0.3,1.1,0.5,1.7,0.5c0.8,0,1.1-0.2,1.1-0.6c0-1.1-3-0.1-3-2.1c0-0.9,0.8-1.4,2-1.4
			c0.6,0,1.2,0.1,1.7,0.4l-0.4,0.7c-0.4-0.3-0.9-0.4-1.4-0.4c-0.8,0-1.1,0.3-1.1,0.7c0,1.1,3,0.2,3,2.1c0,0.9-0.8,1.4-2.1,1.4
			C365.8,214.4,365.2,214.3,364.6,213.9z"/>
		<path d="M372.4,214.1c-0.3,0.2-0.6,0.3-1,0.3c-0.7,0.1-1.4-0.4-1.5-1.2c0-0.1,0-0.2,0-0.3v-2.6H369v-0.7h0.8v-1.1h0.9v1.1h1.3v0.7
			h-1.4v2.6c-0.1,0.4,0.2,0.7,0.6,0.8c0,0,0.1,0,0.1,0c0.2,0,0.5-0.1,0.7-0.2L372.4,214.1z"/>
		<path d="M377.5,212.3h-3.9c0.1,0.8,0.9,1.5,1.7,1.4c0.5,0,1-0.2,1.4-0.6l0.5,0.6c-1,1-2.7,1-3.7,0c-0.4-0.4-0.7-1-0.8-1.7
			c-0.1-1.3,1-2.4,2.2-2.4c0.1,0,0.1,0,0.2,0c1.3,0,2.3,1,2.4,2.3c0,0.1,0,0.1,0,0.2C377.6,212.1,377.5,212.2,377.5,212.3z
			 M373.7,211.7h3.1c-0.1-0.8-0.8-1.5-1.7-1.4C374.3,210.4,373.7,210.9,373.7,211.7z"/>
		<path d="M383.3,207.7v6.7h-0.8v-0.8c-0.4,0.5-1,0.8-1.7,0.8c-1.3-0.1-2.4-1.2-2.3-2.6c0.1-1.2,1.1-2.2,2.3-2.3
			c0.6,0,1.3,0.3,1.7,0.8v-2.6H383.3z M382.4,212c0-0.9-0.8-1.6-1.7-1.5c-0.9,0-1.6,0.8-1.5,1.7c0,0.9,0.8,1.5,1.6,1.5
			c0.9,0,1.6-0.7,1.6-1.5C382.4,212.1,382.4,212.1,382.4,212L382.4,212z"/>
		<path d="M277.4,218.9h0.9v6.3h-0.9V218.9z"/>
		<path d="M284.6,222.5v2.8h-0.9v-2.7c0-0.9-0.5-1.4-1.3-1.4c-0.8-0.1-1.5,0.5-1.5,1.3c0,0.1,0,0.2,0,0.3v2.5H280v-4.8h0.8v0.7
			c0.4-0.5,1.1-0.8,1.7-0.8c1-0.1,1.9,0.7,2,1.7C284.6,222.2,284.6,222.4,284.6,222.5z"/>
		<path d="M287.1,220v0.4h1.4v0.7h-1.4v4.1h-0.9v-4.1h-0.8v-0.7h0.8V220c-0.1-0.8,0.5-1.5,1.3-1.5c0.1,0,0.2,0,0.3,0
			c0.4,0,0.7,0.1,1,0.3l-0.3,0.7c-0.2-0.1-0.4-0.2-0.7-0.2C287.4,219.2,287.1,219.5,287.1,220z"/>
		<path d="M292.6,220.4v0.8h-0.2c-0.8-0.1-1.5,0.5-1.5,1.3c0,0.1,0,0.2,0,0.3v2.4h-0.9v-4.8h0.8v0.8
			C291.3,220.7,291.9,220.3,292.6,220.4z"/>
		<path d="M297.5,222.3v2.9h-0.8v-0.6c-0.4,0.5-1,0.7-1.6,0.7c-1.1,0-1.8-0.6-1.8-1.4s0.5-1.4,1.9-1.4h1.4v-0.2
			c0-0.7-0.4-1.1-1.3-1.1c-0.5,0-1.1,0.2-1.5,0.5l-0.4-0.6c0.6-0.4,1.3-0.6,2-0.6c1-0.1,1.9,0.6,2,1.5
			C297.5,222.1,297.5,222.2,297.5,222.3z M296.6,223.8v-0.7h-1.3c-0.9,0-1.1,0.3-1.1,0.7s0.4,0.8,1,0.8
			C295.8,224.7,296.4,224.3,296.6,223.8L296.6,223.8z"/>
		<path d="M298.5,224.7l0.4-0.7c0.5,0.3,1.1,0.5,1.7,0.5c0.8,0,1.1-0.2,1.1-0.6c0-1.1-3-0.1-3-2c0-0.9,0.8-1.4,2-1.4
			c0.6,0,1.2,0.1,1.7,0.4l-0.4,0.7c-0.4-0.3-0.9-0.4-1.4-0.4c-0.8,0-1.1,0.3-1.1,0.7c0,1.1,3,0.2,3,2.1c0,0.9-0.8,1.4-2.1,1.4
			C299.7,225.3,299.1,225.1,298.5,224.7z"/>
		<path d="M306.3,224.9c-0.3,0.2-0.6,0.3-1,0.3c-0.7,0.1-1.4-0.4-1.5-1.2c0-0.1,0-0.2,0-0.3v-2.6h-0.8v-0.7h0.8v-1.1h0.9v1.1h1.4
			v0.7h-1.4v2.6c-0.1,0.4,0.2,0.7,0.6,0.8c0.1,0,0.1,0,0.2,0c0.2,0,0.5-0.1,0.7-0.2L306.3,224.9z"/>
		<path d="M309.9,220.4v0.8h-0.2c-0.8-0.1-1.5,0.5-1.5,1.3c0,0.1,0,0.2,0,0.3v2.4h-0.9v-4.8h0.8v0.8
			C308.5,220.7,309.2,220.3,309.9,220.4z"/>
		<path d="M315.5,220.4v4.8h-0.8v-0.7c-0.4,0.5-1,0.8-1.6,0.8c-1,0.1-2-0.6-2.1-1.7c0-0.1,0-0.3,0-0.4v-2.8h0.9v2.6
			c0,0.9,0.5,1.4,1.3,1.4c0.8,0.1,1.4-0.5,1.5-1.3c0-0.1,0-0.2,0-0.3v-2.5L315.5,220.4z"/>
		<path d="M316.6,222.9c0-1.3,1-2.4,2.3-2.4c0.1,0,0.1,0,0.2,0c0.8-0.1,1.5,0.3,2,1l-0.7,0.4c-0.3-0.4-0.8-0.7-1.3-0.7
			c-0.9,0-1.7,0.8-1.7,1.7c0,0.9,0.8,1.7,1.7,1.7l0,0c0.5,0,1-0.2,1.3-0.7l0.7,0.4c-0.4,0.7-1.2,1.1-2,1c-1.3,0.1-2.4-0.9-2.5-2.3
			C316.7,223,316.6,222.9,316.6,222.9z"/>
		<path d="M325,224.9c-0.3,0.2-0.7,0.3-1,0.3c-0.7,0.1-1.4-0.4-1.5-1.2c0-0.1,0-0.2,0-0.3v-2.6h-0.8v-0.7h0.8v-1.1h0.9v1.1h1.4v0.7
			h-1.4v2.6c-0.1,0.4,0.2,0.7,0.6,0.8c0.1,0,0.1,0,0.2,0c0.2,0,0.5-0.1,0.7-0.2L325,224.9z"/>
		<path d="M330.5,220.4v4.8h-0.8v-0.7c-0.4,0.5-1,0.8-1.6,0.8c-1,0.1-2-0.6-2.1-1.7c0-0.1,0-0.3,0-0.4v-2.8h0.9v2.6
			c0,0.9,0.5,1.4,1.3,1.4c0.8,0.1,1.4-0.5,1.5-1.3c0-0.1,0-0.2,0-0.3v-2.5L330.5,220.4z"/>
		<path d="M334.7,220.4v0.8h-0.2c-0.8,0-1.5,0.6-1.5,1.3c0,0.1,0,0.2,0,0.3v2.4h-0.9v-4.8h0.8v0.8
			C333.3,220.7,334,220.3,334.7,220.4z"/>
		<path d="M340,223.1h-3.9c0.1,0.9,0.9,1.5,1.7,1.4c0.5,0,1-0.2,1.4-0.6l0.5,0.6c-1,1-2.7,1-3.7,0c-0.4-0.4-0.7-1-0.8-1.7
			c-0.1-1.3,1-2.4,2.2-2.4c0.1,0,0.1,0,0.2,0c1.3,0,2.3,1,2.3,2.3c0,0.1,0,0.1,0,0.2C340,223,340,223,340,223.1z M336.1,222.5h3.1
			c-0.1-0.8-0.9-1.5-1.7-1.4C336.8,221.2,336.2,221.8,336.1,222.5z"/>
		<path d="M343.2,224.5l0.3-0.7c0.6,0.5,1.3,0.7,2.1,0.7c1.1,0,1.5-0.4,1.5-1c0-1.5-3.8-0.6-3.8-2.9c0-1,0.8-1.8,2.4-1.8
			c0.7,0,1.4,0.2,2,0.6l-0.3,0.7c-0.5-0.3-1.1-0.5-1.7-0.5c-1.1,0-1.5,0.4-1.5,1c0,1.5,3.8,0.6,3.8,2.9c0,1-0.8,1.8-2.4,1.8
			C344.7,225.3,343.9,225,343.2,224.5z"/>
		<path d="M348.8,222.9c0-1.4,1.1-2.5,2.4-2.5c1.4,0,2.5,1.1,2.5,2.4c0,1.4-1.1,2.5-2.4,2.5c0,0,0,0,0,0c-1.3,0.1-2.4-0.9-2.5-2.2
			C348.8,223,348.8,222.9,348.8,222.9z M352.9,222.9c0-0.9-0.7-1.6-1.6-1.6c-0.9,0-1.6,0.7-1.6,1.6s0.7,1.6,1.6,1.6
			C352.1,224.5,352.9,223.8,352.9,222.9z"/>
		<path d="M354.9,218.5h0.9v6.7h-0.9V218.5z"/>
		<path d="M361.9,220.4v4.8h-0.8v-0.7c-0.4,0.5-1,0.8-1.6,0.8c-1,0.1-2-0.6-2.1-1.7c0-0.1,0-0.3,0-0.4v-2.8h0.9v2.6
			c0,0.9,0.5,1.4,1.3,1.4c0.8,0,1.4-0.5,1.5-1.3c0-0.1,0-0.2,0-0.3v-2.5L361.9,220.4z"/>
		<path d="M366.2,224.9c-0.3,0.2-0.6,0.3-1,0.3c-0.7,0.1-1.4-0.4-1.5-1.2c0-0.1,0-0.2,0-0.3v-2.6h-0.8v-0.7h0.8v-1.1h0.9v1.1h1.4
			v0.7h-1.4v2.6c-0.1,0.4,0.2,0.7,0.6,0.8c0.1,0,0.1,0,0.2,0c0.2,0,0.5-0.1,0.7-0.2L366.2,224.9z"/>
		<path d="M367.1,219c0-0.3,0.3-0.6,0.6-0.6c0,0,0,0,0,0c0.3,0,0.6,0.2,0.6,0.5s-0.2,0.6-0.5,0.6c0,0-0.1,0-0.2,0
			C367.4,219.5,367.1,219.3,367.1,219C367.1,219,367.1,219,367.1,219z M367.3,220.4h0.9v4.8h-0.9V220.4z"/>
		<path d="M369.3,222.9c0-1.4,1.1-2.5,2.4-2.5c1.4,0,2.5,1.1,2.5,2.4c0,1.4-1.1,2.5-2.4,2.5c0,0,0,0,0,0c-1.3,0.1-2.4-0.9-2.5-2.3
			C369.3,223,369.3,222.9,369.3,222.9z M373.4,222.9c0.1-0.9-0.6-1.7-1.5-1.7s-1.7,0.6-1.7,1.5c0,0.1,0,0.2,0,0.3
			c-0.1,0.9,0.6,1.7,1.5,1.7s1.7-0.6,1.7-1.5C373.4,223,373.4,223,373.4,222.9z"/>
		<path d="M380,222.5v2.8h-0.9v-2.7c0-0.9-0.5-1.4-1.3-1.4c-0.8-0.1-1.5,0.5-1.5,1.3c0,0.1,0,0.2,0,0.3v2.5h-0.9v-4.8h0.8v0.7
			c0.4-0.5,1.1-0.8,1.7-0.8c1-0.1,1.9,0.7,2,1.7C380,222.2,380,222.4,380,222.5z"/>
		<path d="M284.1,84.7c0,1.1-0.8,1.7-2.4,1.7h-3v-6.3h2.8c1.5,0,2.3,0.6,2.3,1.6c0,0.6-0.3,1.2-0.9,1.4
			C283.6,83.4,284.1,84,284.1,84.7z M279.5,80.9v2h1.9c0.9,0,1.4-0.3,1.4-1s-0.5-1-1.4-1H279.5z M283.1,84.7c0-0.7-0.5-1-1.5-1h-2.1
			v2.1h2.1C282.6,85.7,283.1,85.4,283.1,84.7z"/>
		<path d="M289.8,81.7v4.8H289v-0.7c-0.4,0.5-1,0.8-1.6,0.8c-1,0.1-1.9-0.7-2-1.7c0-0.1,0-0.2,0-0.3v-2.7h0.9v2.7
			c0,0.9,0.5,1.4,1.3,1.4c0.8,0.1,1.4-0.5,1.5-1.3c0-0.1,0-0.2,0-0.3v-2.5H289.8z"/>
		<path d="M290.8,85.9l0.4-0.7c0.5,0.3,1.1,0.5,1.7,0.5c0.8,0,1.1-0.2,1.1-0.7c0-1.1-3-0.1-3-2c0-0.8,0.8-1.4,2-1.4
			c0.6,0,1.2,0.1,1.7,0.4l-0.4,0.7c-0.4-0.3-0.9-0.4-1.4-0.4c-0.8,0-1.1,0.3-1.1,0.7c0,1.1,3,0.2,3,2.1c0,0.9-0.8,1.4-2.1,1.4
			C292.1,86.5,291.4,86.3,290.8,85.9z"/>
		<path d="M295.8,80.2c0-0.3,0.3-0.6,0.6-0.6c0,0,0,0,0,0c0.3,0,0.6,0.2,0.6,0.5c0,0,0,0,0,0c0,0.3-0.2,0.6-0.6,0.6c0,0,0,0,0,0
			C296.1,80.8,295.8,80.5,295.8,80.2C295.8,80.2,295.8,80.2,295.8,80.2z M295.9,81.7h0.9v4.8h-0.9V81.7z"/>
		<path d="M303,83.7v2.8h-0.9v-2.7c0-0.9-0.5-1.4-1.3-1.4c-0.8-0.1-1.5,0.5-1.5,1.3c0,0.1,0,0.2,0,0.3v2.5h-0.9v-4.8h0.8v0.7
			c0.4-0.5,1.1-0.8,1.7-0.8c1-0.1,1.9,0.7,2,1.7C303,83.5,303,83.6,303,83.7z"/>
		<path d="M308.9,84.4H305c0.1,0.9,0.9,1.5,1.7,1.4c0.5,0,1-0.2,1.4-0.6l0.5,0.6c-1,1-2.7,1-3.7,0c-0.5-0.4-0.7-1-0.8-1.7
			c-0.1-1.3,1-2.4,2.2-2.4c0,0,0.1,0,0.1,0c1.3,0,2.3,1,2.4,2.2c0,0.1,0,0.2,0,0.2C308.9,84.2,308.9,84.3,308.9,84.4z M305,83.7h3.1
			c-0.1-0.8-0.9-1.5-1.7-1.4C305.6,82.5,305.1,83,305,83.7z"/>
		<path d="M309.5,85.9l0.4-0.7c0.5,0.3,1.1,0.5,1.7,0.5c0.8,0,1.1-0.2,1.1-0.7c0-1.1-3-0.1-3-2c0-0.8,0.8-1.4,2-1.4
			c0.6,0,1.2,0.1,1.7,0.4l-0.4,0.7c-0.4-0.3-0.9-0.4-1.4-0.4c-0.8,0-1.1,0.3-1.1,0.7c0,1.1,3,0.2,3,2.1c0,0.9-0.8,1.4-2.1,1.4
			C310.8,86.6,310.1,86.3,309.5,85.9z"/>
		<path d="M314,85.9l0.4-0.7c0.5,0.3,1.1,0.5,1.7,0.5c0.8,0,1.1-0.2,1.1-0.7c0-1.1-3-0.1-3-2c0-0.8,0.8-1.4,2-1.4
			c0.6,0,1.2,0.1,1.7,0.4l-0.4,0.7c-0.4-0.3-0.9-0.4-1.4-0.4c-0.8,0-1.1,0.3-1.1,0.7c0,1.1,3,0.2,3,2.1c0,0.9-0.8,1.4-2.1,1.4
			C315.3,86.6,314.6,86.3,314,85.9z"/>
		<path d="M321.2,83.3c0-1.8,1.4-3.2,3.2-3.2c0.1,0,0.1,0,0.2,0c0.9,0,1.8,0.3,2.4,1l-0.6,0.6c-0.5-0.5-1.1-0.8-1.8-0.8
			c-1.3,0-2.4,1.1-2.4,2.4c0,1.3,1.1,2.4,2.4,2.4c0.7,0,1.3-0.3,1.8-0.8l0.6,0.6c-0.6,0.7-1.5,1-2.4,1c-1.8,0.1-3.2-1.3-3.3-3
			C321.2,83.4,321.2,83.4,321.2,83.3z"/>
		<path d="M327.4,84.1c0-1.4,1.1-2.5,2.4-2.5c1.4,0,2.5,1.1,2.5,2.4c0,1.4-1.1,2.5-2.4,2.5c0,0,0,0,0,0c-1.3,0.1-2.4-1-2.5-2.3
			C327.4,84.2,327.4,84.1,327.4,84.1z M331.5,84.1c0-0.9-0.7-1.6-1.6-1.6c-0.9,0-1.6,0.7-1.6,1.6s0.7,1.6,1.6,1.6
			C330.8,85.7,331.5,85,331.5,84.1z"/>
		<path d="M338.1,83.7v2.8h-0.9v-2.7c0-0.9-0.5-1.4-1.3-1.4c-0.8-0.1-1.5,0.5-1.5,1.3c0,0.1,0,0.2,0,0.3v2.5h-0.9v-4.8h0.8v0.7
			c0.4-0.5,1.1-0.8,1.7-0.8c1-0.1,1.9,0.7,2,1.7C338.1,83.5,338.1,83.6,338.1,83.7z"/>
		<path d="M342.4,86.2c-0.3,0.2-0.6,0.3-1,0.3c-0.8,0.1-1.4-0.5-1.5-1.2c0-0.1,0-0.2,0-0.3v-2.6H339v-0.7h0.8v-1h0.9v1h1.4v0.7h-1.4
			V85c-0.1,0.4,0.2,0.7,0.6,0.8c0.1,0,0.1,0,0.2,0c0.2,0,0.5-0.1,0.7-0.2L342.4,86.2z"/>
		<path d="M343.3,80.2c0-0.3,0.3-0.6,0.6-0.6c0,0,0,0,0,0c0.3,0,0.6,0.2,0.6,0.5c0,0,0,0,0,0c0,0.3-0.3,0.6-0.7,0.5
			C343.5,80.7,343.3,80.4,343.3,80.2L343.3,80.2z M343.4,81.7h0.9v4.8h-0.9V81.7z"/>
		<path d="M350.5,83.7v2.8h-0.9v-2.7c0-0.9-0.5-1.4-1.3-1.4c-0.8-0.1-1.5,0.5-1.5,1.3c0,0.1,0,0.2,0,0.3v2.5h-0.9v-4.8h0.8v0.7
			c0.4-0.5,1.1-0.8,1.7-0.8c1-0.1,1.9,0.7,2,1.7C350.5,83.5,350.5,83.6,350.5,83.7z"/>
		<path d="M356.5,81.7v4.8h-0.8v-0.7c-0.4,0.5-1,0.8-1.6,0.8c-1,0.1-2-0.6-2.1-1.7c0-0.1,0-0.3,0-0.4v-2.8h0.9v2.7
			c0,0.9,0.5,1.4,1.3,1.4c0.8,0.1,1.4-0.5,1.5-1.3c0-0.1,0-0.2,0-0.3v-2.5H356.5z"/>
		<path d="M358,80.2c0-0.3,0.3-0.6,0.6-0.6c0,0,0,0,0,0c0.3,0,0.6,0.2,0.6,0.5c0,0,0,0,0,0c0,0.3-0.3,0.6-0.7,0.5
			C358.2,80.7,358,80.4,358,80.2L358,80.2z M358.2,81.7h0.8v4.8h-0.9L358.2,81.7z"/>
		<path d="M363.4,86.2c-0.3,0.2-0.6,0.3-1,0.3c-0.8,0.1-1.4-0.5-1.5-1.2c0-0.1,0-0.2,0-0.3v-2.6H360v-0.7h0.8v-1h0.9v1h1.3v0.7h-1.4
			V85c-0.1,0.4,0.2,0.7,0.6,0.8c0.1,0,0.1,0,0.2,0c0.2,0,0.5-0.1,0.7-0.2L363.4,86.2z"/>
		<path d="M368.5,81.7l-2.3,5.3c-0.4,1-1,1.3-1.7,1.3c-0.4,0-0.9-0.1-1.2-0.4l0.4-0.7c0.2,0.2,0.5,0.3,0.9,0.3
			c0.4,0,0.7-0.2,0.9-0.7l0.1-0.3l-2.1-4.8h0.9l1.6,3.8l1.6-3.8H368.5z"/>
		<path d="M376.5,86.5l-0.8-0.8c-0.6,0.5-1.3,0.8-2.1,0.8c-1.3,0-2.2-0.7-2.2-1.6c0-0.8,0.4-1.3,1.5-1.9c-0.4-0.3-0.7-0.9-0.8-1.4
			c0-0.8,0.7-1.4,1.7-1.4s1.6,0.5,1.6,1.3c0,0.6-0.4,1.1-1.3,1.7l1.6,1.6c0.2-0.4,0.3-0.7,0.4-1.1l0.7,0.2c-0.1,0.5-0.3,1-0.5,1.4
			L377,86L376.5,86.5z M375.1,85.2l-1.8-1.8c-0.9,0.5-1.2,0.9-1.2,1.4s0.6,1,1.4,1C374.2,85.8,374.7,85.6,375.1,85.2L375.1,85.2z
			 M372.9,81.5c0,0.3,0.1,0.6,0.6,1.1c0.8-0.5,1.1-0.8,1.1-1.2s-0.3-0.7-0.8-0.7S372.9,81,372.9,81.5L372.9,81.5z"/>
		<path d="M273.4,94.1c0-1.8,1.4-3.2,3.2-3.2c0.1,0,0.1,0,0.2,0c0.9,0,1.8,0.3,2.4,1l-0.6,0.6c-0.5-0.5-1.1-0.8-1.8-0.8
			c-1.3,0-2.4,1.1-2.4,2.4c0,1.3,1.1,2.4,2.4,2.4c0.7,0,1.3-0.3,1.8-0.8l0.6,0.6c-0.6,0.7-1.5,1-2.4,1c-1.8,0.1-3.3-1.3-3.3-3
			C273.4,94.2,273.4,94.2,273.4,94.1z"/>
		<path d="M284.5,92.5l-2.3,5.3c-0.4,1-1,1.3-1.7,1.3c-0.4,0-0.9-0.1-1.2-0.4l0.4-0.7c0.2,0.2,0.5,0.3,0.9,0.3
			c0.4,0,0.7-0.2,0.9-0.7l0.2-0.3l-2.1-4.8h0.9l1.7,3.8l1.6-3.8H284.5z"/>
		<path d="M290.2,94.9c0.1,1.3-0.9,2.4-2.2,2.4c-0.1,0-0.1,0-0.2,0c-0.7,0-1.3-0.3-1.7-0.8v0.8h-0.8v-6.7h0.9v2.6
			c0.4-0.5,1-0.8,1.7-0.8c1.3-0.1,2.4,0.9,2.4,2.2C290.2,94.7,290.2,94.8,290.2,94.9z M289.4,94.9c0-0.9-0.8-1.6-1.7-1.5
			c-0.9,0-1.6,0.8-1.5,1.7c0,0.9,0.7,1.5,1.6,1.5c0.9,0,1.6-0.7,1.6-1.5C289.4,95,289.4,94.9,289.4,94.9z"/>
		<path d="M295.7,95.2h-3.9c0.1,0.8,0.9,1.5,1.7,1.4c0.5,0,1-0.2,1.4-0.6l0.5,0.6c-1,1-2.6,1.1-3.7,0.1c-0.5-0.5-0.8-1.1-0.8-1.7
			c-0.1-1.3,1-2.4,2.2-2.4c0,0,0.1,0,0.1,0c1.3,0,2.3,1,2.4,2.2c0,0.1,0,0.1,0,0.2C295.7,95,295.7,95.1,295.7,95.2z M291.9,94.5h3.1
			c-0.1-0.8-0.9-1.5-1.7-1.4C292.5,93.3,291.9,93.8,291.9,94.5z"/>
		<path d="M299.5,92.4v0.8h-0.2c-0.8-0.1-1.5,0.5-1.5,1.3c0,0.1,0,0.2,0,0.3v2.4H297v-4.8h0.8v0.8C298.2,92.7,298.8,92.4,299.5,92.4
			z"/>
		<path d="M302.6,96.5l0.3-0.7c0.6,0.5,1.3,0.7,2.1,0.7c1.1,0,1.6-0.4,1.6-1c0-1.5-3.8-0.6-3.8-2.9c0-1,0.8-1.8,2.4-1.8
			c0.7,0,1.4,0.2,2,0.6l-0.3,0.7c-0.5-0.3-1.1-0.5-1.7-0.5c-1.1,0-1.5,0.4-1.5,1c0,1.5,3.8,0.6,3.8,2.9c0,1-0.8,1.8-2.4,1.8
			C304.1,97.3,303.3,97,302.6,96.5z"/>
		<path d="M312.9,95.2h-3.9c0.1,0.8,0.9,1.5,1.7,1.4c0.5,0,1-0.2,1.4-0.6l0.5,0.6c-1,1-2.7,1-3.7,0c-0.4-0.4-0.7-1-0.8-1.7
			c-0.1-1.3,0.9-2.4,2.2-2.4c0.1,0,0.1,0,0.2,0c1.3-0.1,2.3,0.9,2.4,2.2c0,0.1,0,0.2,0,0.2C313,95,313,95.1,312.9,95.2z M309.1,94.5
			h3.1c-0.1-0.8-0.9-1.5-1.7-1.4C309.7,93.3,309.2,93.8,309.1,94.5z"/>
		<path d="M313.7,94.9c0-1.3,1-2.4,2.3-2.4c0.1,0,0.1,0,0.2,0c0.8-0.1,1.5,0.3,2,1l-0.7,0.4c-0.3-0.4-0.8-0.7-1.3-0.7
			c-0.9,0.1-1.6,0.9-1.5,1.8c0.1,0.8,0.7,1.5,1.5,1.5c0.5,0,1-0.2,1.3-0.7l0.7,0.4c-0.4,0.7-1.2,1.1-2,1c-1.3,0.1-2.5-1-2.5-2.3
			C313.7,94.9,313.7,94.9,313.7,94.9z"/>
		<path d="M323.7,92.5v4.8h-0.8v-0.7c-0.4,0.5-1,0.8-1.6,0.8c-1,0.1-2-0.7-2.1-1.7c0-0.1,0-0.3,0-0.4v-2.7h0.9v2.7
			c0,0.9,0.5,1.4,1.3,1.4c0.8,0.1,1.4-0.5,1.5-1.3c0-0.1,0-0.2,0-0.3v-2.5H323.7z"/>
		<path d="M328,92.4v0.8h-0.2c-0.8-0.1-1.5,0.5-1.5,1.3c0,0.1,0,0.2,0,0.3v2.4h-0.9v-4.8h0.8v0.8C326.6,92.7,327.3,92.4,328,92.4z"
			/>
		<path d="M328.9,91c0-0.3,0.3-0.6,0.6-0.6c0,0,0,0,0,0c0.3,0,0.6,0.3,0.6,0.6c0,0.3-0.3,0.6-0.6,0.6
			C329.1,91.6,328.9,91.3,328.9,91C328.9,91,328.9,91,328.9,91z M329,92.5h0.9v4.8H329V92.5z"/>
		<path d="M334.2,97c-0.3,0.2-0.6,0.3-1,0.3c-0.7,0.1-1.4-0.4-1.5-1.2c0-0.1,0-0.2,0-0.3v-2.6h-0.8v-0.7h0.8v-1h0.9v1h1.4v0.7h-1.4
			v2.6c-0.1,0.4,0.2,0.7,0.6,0.8c0.1,0,0.1,0,0.2,0c0.2,0,0.5-0.1,0.7-0.2L334.2,97z"/>
		<path d="M339.4,92.5l-2.3,5.3c-0.4,1-1,1.3-1.7,1.3c-0.4,0-0.9-0.1-1.2-0.4l0.4-0.7c0.2,0.2,0.5,0.3,0.9,0.3
			c0.4,0,0.7-0.2,0.9-0.7l0.2-0.3l-2.1-4.8h0.9l1.7,3.8l1.6-3.8H339.4z"/>
		<path d="M342.2,96.5l0.3-0.7c0.6,0.5,1.3,0.7,2.1,0.7c1.1,0,1.6-0.4,1.6-1c0-1.5-3.8-0.6-3.8-2.9c0-1,0.8-1.8,2.4-1.8
			c0.7,0,1.4,0.2,2,0.6l-0.3,0.7c-0.5-0.3-1.1-0.5-1.7-0.5c-1.1,0-1.5,0.4-1.5,1c0,1.5,3.8,0.6,3.8,2.9c0,1-0.8,1.8-2.4,1.8
			C343.7,97.3,342.8,97,342.2,96.5z"/>
		<path d="M347.8,94.9c0-1.4,1.1-2.5,2.4-2.5c1.4,0,2.5,1.1,2.5,2.4c0,1.4-1.1,2.5-2.4,2.5c0,0,0,0,0,0c-1.3,0.1-2.4-0.9-2.5-2.3
			C347.8,95,347.8,94.9,347.8,94.9z M351.9,94.9c0-0.9-0.8-1.6-1.7-1.5c-0.9,0-1.6,0.8-1.5,1.7c0,0.9,0.7,1.5,1.6,1.5
			c0.9,0,1.6-0.7,1.6-1.5C351.9,95,351.9,94.9,351.9,94.9z"/>
		<path d="M353.9,90.6h0.9v6.7h-0.9V90.6z"/>
		<path d="M360.9,92.5v4.8H360v-0.7c-0.4,0.5-1,0.8-1.6,0.8c-1,0.1-2-0.7-2.1-1.7c0-0.1,0-0.3,0-0.4v-2.7h0.9v2.7
			c0,0.9,0.5,1.4,1.3,1.4c0.8,0,1.4-0.5,1.5-1.3c0-0.1,0-0.2,0-0.3v-2.5H360.9z"/>
		<path d="M365.2,97c-0.3,0.2-0.6,0.3-1,0.3c-0.8,0.1-1.4-0.5-1.5-1.2c0-0.1,0-0.2,0-0.3v-2.6h-0.8v-0.7h0.8v-1h0.9v1h1.4v0.7h-1.4
			v2.6c-0.1,0.4,0.2,0.7,0.6,0.8c0,0,0.1,0,0.1,0c0.2,0,0.5-0.1,0.7-0.2L365.2,97z"/>
		<path d="M366.1,91c0-0.3,0.3-0.6,0.6-0.6c0,0,0,0,0,0c0.3,0,0.6,0.3,0.6,0.6c0,0.3-0.3,0.6-0.6,0.6
			C366.4,91.6,366.1,91.3,366.1,91C366.1,91,366.1,91,366.1,91z M366.2,92.5h0.9v4.8h-0.9V92.5z"/>
		<path d="M368.3,94.9c0-1.4,1.1-2.5,2.4-2.5c1.4,0,2.5,1.1,2.5,2.4c0,1.4-1.1,2.5-2.4,2.5c0,0,0,0,0,0c-1.3,0.1-2.4-1-2.5-2.3
			C368.3,95,368.3,94.9,368.3,94.9z M372.4,94.9c0.1-0.9-0.6-1.7-1.5-1.7s-1.7,0.6-1.7,1.5c0,0.1,0,0.2,0,0.3
			c-0.1,0.9,0.6,1.7,1.5,1.7s1.7-0.6,1.7-1.5C372.4,95,372.4,95,372.4,94.9z"/>
		<path d="M379,94.5v2.8h-0.9v-2.6c0-0.9-0.5-1.4-1.3-1.4c-0.8-0.1-1.5,0.5-1.5,1.3c0,0.1,0,0.2,0,0.3v2.5h-0.9v-4.8h0.8v0.7
			c0.4-0.5,1.1-0.8,1.7-0.8c1-0.1,1.9,0.7,2,1.7C379,94.3,379,94.4,379,94.5z"/>
		<path d="M380,96.7l0.4-0.7c0.5,0.3,1.1,0.5,1.7,0.5c0.8,0,1.1-0.2,1.1-0.7c0-1.1-3-0.1-3-2c0-0.9,0.8-1.4,2-1.4
			c0.6,0,1.2,0.1,1.7,0.4l-0.4,0.7c-0.4-0.3-0.9-0.4-1.4-0.4c-0.8,0-1.1,0.3-1.1,0.7c0,1.1,3,0.2,3,2.1c0,0.9-0.8,1.4-2.1,1.4
			C381.3,97.3,380.6,97.1,380,96.7z"/>
		<circle class="st15" cx="333.5" cy="41.6" r="29.4"/>
		<path class="st35" d="M315.3,59.2l-1.5,1.5c-4.2-4.2-6.9-9.6-7.8-15.4h-2.5l4.3-8.6l4.3,8.6h-1.7c0.9,4.7,3.1,9,6.5,12.4
			L315.3,59.2z"/>
		<path class="st35" d="M322.8,19.7c0-1.4-0.3-2.7-0.8-3.9c2.3-1,4.7-1.8,7.2-2.1v-2.5l8.6,4.3l-0.5,0.3l0,0l-8,4v-1.8
			c-2.2,0.4-4.4,1.2-6.4,2.2C322.8,19.9,322.8,19.8,322.8,19.7L322.8,19.7z"/>
		<path class="st35" d="M359.2,41.1h2.1c0,5.9-1.8,11.6-5.3,16.4l1.8,1.8l-9.1,3l0.2-0.6l2.8-8.5l1.2,1.2c2.7-3.9,4.1-8.6,4.1-13.3
			H359.2z"/>
		<path class="st36" d="M342,64.6c0,0.2,0,0.5,0,0.7c-0.4,4.7-4.5,8.2-9.2,7.9c-4.2-0.3-7.6-3.7-7.9-7.9c0-0.2,0-0.5,0-0.7
			c0.2-4.7,4.1-8.4,8.9-8.3C338.3,56.5,341.9,60.1,342,64.6L342,64.6z"/>
		<path class="st36" d="M322.8,20.1c-0.2,5.7-4.9,10.3-10.7,10.3c-0.6,0-1.3-0.1-1.9-0.2c-5.8-1-9.7-6.6-8.7-12.4
			c1-5.8,6.6-9.7,12.4-8.7c3.7,0.6,6.7,3.1,8.1,6.6c0.5,1.3,0.8,2.6,0.8,3.9C322.8,19.8,322.8,19.9,322.8,20.1z"/>
		<path class="st36" d="M354.9,8.9c5.9,0,10.7,4.8,10.7,10.7c0,5.2-3.7,9.7-8.9,10.6c-0.6,0.1-1.2,0.2-1.9,0.2
			c-5.9,0.2-10.9-4.5-11-10.4s4.5-10.9,10.4-11C354.5,8.9,354.7,8.9,354.9,8.9z"/>
		<path class="st37" d="M344.2,38.9v4.3l-2.6,0.6c-0.1,0.3-0.2,0.7-0.4,1l1.4,2.3l-3,3l-2.3-1.4c-0.3,0.2-0.7,0.3-1,0.4l-0.6,2.6
			h-4.3l-0.6-2.6c-0.3-0.1-0.7-0.2-1-0.4l-2.3,1.4l-3-3l1.4-2.3c-0.2-0.3-0.3-0.7-0.4-1l-2.6-0.6v-4.3l2.6-0.6
			c0.1-0.3,0.2-0.7,0.4-1l-1.4-2.3l3-3l2.3,1.4c0.3-0.2,0.7-0.3,1-0.4l0.6-2.6h4.3l0.6,2.6c0.3,0.1,0.7,0.2,1,0.4l2.3-1.4l3,3
			l-1.4,2.3c0.2,0.3,0.3,0.7,0.4,1L344.2,38.9z M337.8,41.1c0-2.4-1.9-4.3-4.3-4.3c-2.4,0-4.3,1.9-4.3,4.3c0,2.4,1.9,4.3,4.3,4.3
			l0,0C335.8,45.3,337.8,43.4,337.8,41.1z"/>
		<path d="M366.7,19.7c0-6.5-5.3-11.8-11.8-11.8c-5.2,0-9.8,3.4-11.3,8.4c-1.4-0.6-2.8-1-4.3-1.4l-11.2-5.6v3.3
			c-1.9,0.4-3.8,0.9-5.6,1.7c-2.9-5.8-10-8.1-15.8-5.2s-8.1,10-5.2,15.8c1.5,2.9,4,5,7.2,6c-0.6,1.4-1,2.9-1.4,4.3l-5.6,11.1h3.3
			c1.1,5.7,3.9,11,8,15.1l0.8,0.8l1.5-1.5c2.5,2.3,5.4,4.1,8.6,5.4c0.8,5.2,5.8,8.8,11,8c4.1-0.7,7.3-3.9,8-8
			c1.7-0.6,3.3-1.5,4.9-2.4l11.8-3.9l-2.3-2.3c3.3-4.8,5-10.5,5-16.3V40h-2.2c-0.1-3.1-0.8-6.2-2-9.1
			C363.2,29.4,366.6,24.9,366.7,19.7L366.7,19.7z M354.9,10c5.3,0,9.6,4.3,9.6,9.6s-4.3,9.6-9.6,9.6c-5.3,0-9.6-4.3-9.6-9.6
			C345.3,14.3,349.6,10,354.9,10L354.9,10z M329.4,14.6l0.9-0.1v-1.7l5.1,2.5l-5.1,2.5v-1.3l-1.3,0.3c-1.8,0.3-3.5,0.9-5.2,1.6
			c-0.1-0.7-0.2-1.4-0.4-2.1C325.3,15.5,327.3,15,329.4,14.6L329.4,14.6z M302.4,19.6c0-5.3,4.3-9.6,9.6-9.6c5.3,0,9.6,4.3,9.6,9.6
			s-4.3,9.6-9.6,9.6c0,0,0,0,0,0C306.8,29.2,302.4,24.9,302.4,19.6z M307,45.2l-0.1-0.9h-1.7l2.5-5.1l2.5,5.1H309l0.2,1.3
			c0.8,4.5,2.9,8.8,6.1,12.2l-1.5,1.5C310.2,55.3,307.8,50.5,307,45.2L307,45.2z M333.4,72.1c-4.1,0-7.5-3.3-7.5-7.5
			c0-4.1,3.3-7.5,7.5-7.5c4.1,0,7.5,3.3,7.5,7.5c0,0,0,0,0,0C340.9,68.7,337.6,72.1,333.4,72.1z M355.1,56.9l-0.5,0.7l1.2,1.2
			l-5.4,1.8l1.8-5.4l0.9,0.9l0.7-1.1c2.6-3.8,4.1-8.3,4.3-12.9h2.1C360,47.5,358.2,52.6,355.1,56.9z M358.1,40H356v1.1
			c0,4.1-1.1,8.1-3.3,11.7l-1.5-1.5L348,61c-1.5,1.1-3.1,2-4.8,2.7c-0.5-5.3-5.2-9.2-10.5-8.7c-4.6,0.4-8.3,4.1-8.7,8.7
			c-2.6-1.1-5-2.6-7-4.5l1.5-1.5l-0.8-0.8c-2.9-2.9-5-6.6-5.9-10.5h2.2l-4.6-9.3c0.3-2,0.9-3.9,1.7-5.8c0.4,0,0.8,0.1,1.2,0.1
			c6.1,0,11.1-4.6,11.7-10.6c1.4-0.7,2.8-1.2,4.3-1.6v2.2l9.3-4.6c2,0.3,3.9,0.9,5.8,1.7c0,0.4-0.1,0.8-0.1,1.2
			c0,6.5,5.3,11.8,11.8,11.8c0.4,0,0.8,0,1.2-0.1C357.3,34.1,358,37,358.1,40L358.1,40z"/>
		<path d="M342.4,37.4l1.5-2.5l-4.2-4.2l-2.5,1.5l0,0l-0.7-2.9h-6l-0.7,2.9l0,0l-2.5-1.5l-4.2,4.2l1.5,2.5l0,0l-2.9,0.7v6l2.9,0.7
			l0,0l-1.5,2.5l4.2,4.2l2.5-1.5l0,0l0.7,2.9h6l0.7-2.9l0,0l2.5,1.5l4.2-4.2l-1.5-2.5l0,0l2.9-0.7v-6L342.4,37.4L342.4,37.4z
			 M343.1,42.4l-2.4,0.6l-0.2,0.6c-0.1,0.3-0.2,0.6-0.4,0.9l-0.3,0.5l1.3,2.1l-1.8,1.8l-2.1-1.3l-0.5,0.3c-0.3,0.1-0.6,0.3-0.9,0.4
			l-0.5,0.2l-0.6,2.4h-2.6l-0.6-2.4l-0.5-0.2c-0.3-0.1-0.6-0.2-0.9-0.4l-0.5-0.3l-2.1,1.3l-1.8-1.8l1.3-2.1l-0.3-0.5
			c-0.1-0.3-0.3-0.6-0.4-0.9l-0.2-0.6l-2.4-0.6v-2.6l2.4-0.6l0.2-0.5c0.1-0.3,0.2-0.6,0.4-0.9l0.3-0.5l-1.3-2.1l1.8-1.8l2.1,1.3
			l0.5-0.3c0.3-0.1,0.6-0.2,0.9-0.4l0.5-0.2l0.6-2.4h2.6l0.6,2.4l0.6,0.2c0.3,0.1,0.6,0.2,0.9,0.3l0.5,0.3l2.1-1.3l1.8,1.8l-1.3,2.1
			l0.3,0.5c0.1,0.3,0.3,0.6,0.4,0.9l0.2,0.5l2.4,0.6L343.1,42.4L343.1,42.4z"/>
		<path d="M333.5,35.7c-3,0-5.4,2.4-5.4,5.4c0,3,2.4,5.3,5.4,5.3c3,0,5.4-2.4,5.4-5.4C338.8,38.1,336.4,35.7,333.5,35.7z
			 M333.5,44.3c-1.8,0-3.2-1.4-3.2-3.2c0-1.8,1.4-3.2,3.2-3.2c1.8,0,3.2,1.4,3.2,3.2c0,0,0,0,0,0C336.7,42.8,335.3,44.3,333.5,44.3z
			"/>
		<path class="st38" d="M306.4,24.9l1,0.2l1-0.2v-0.5l-1-0.2l-1,0.2V24.9z"/>
		<path class="st39" d="M309.4,24.9l1,0.2l1-0.2v-0.5l-1-0.2l-1,0.2V24.9z"/>
		<path class="st40" d="M312.4,24.9l1,0.2l1-0.2v-0.5l-1-0.2l-1,0.2V24.9z"/>
		<path class="st41" d="M315.4,24.9l1,0.2l1-0.2v-0.5l-1-0.2l-1,0.2V24.9z"/>
		<path class="st38" d="M308.4,24.4h-2v-1.9c0-0.1,0.1-0.3,0.3-0.3h1.4c0.1,0,0.3,0.1,0.3,0.3L308.4,24.4L308.4,24.4z"/>
		<path class="st39" d="M311.4,24.4h-1.9V21c0-0.1,0.1-0.3,0.3-0.3l0,0h1.4c0.1,0,0.3,0.1,0.3,0.3c0,0,0,0,0,0L311.4,24.4
			L311.4,24.4z"/>
		<path class="st40" d="M314.4,24.4h-2v-4.8c0-0.1,0.1-0.3,0.3-0.3c0,0,0,0,0,0h1.4c0.1,0,0.3,0.1,0.3,0.2c0,0,0,0,0,0L314.4,24.4
			L314.4,24.4z"/>
		<path class="st41" d="M317.3,24.4h-1.9v-6.3c0-0.1,0.1-0.3,0.3-0.3h1.4c0.1,0,0.3,0.1,0.3,0.3c0,0,0,0,0,0V24.4z"/>
		<path class="st42" d="M316.3,15.5l-0.3-2.3c0-0.1-0.1-0.1-0.1-0.1c0,0,0,0,0,0l-2.3,0.6c-0.1,0-0.1,0.1-0.1,0.2c0,0,0,0,0.1,0.1
			l0.6,0.4c0,0-1.5,3-7,4.6v0.1c3.1,0,6-1.3,7.9-3.7l0.4-0.1l0.6,0.4C316.1,15.6,316.2,15.6,316.3,15.5
			C316.3,15.5,316.3,15.5,316.3,15.5z"/>
		<path class="st43" d="M315.2,15c-0.1,0-0.1,0-0.2,0c-1.8,2.4-4.7,3.9-7.8,3.9h-0.1c-0.1,0-0.2,0.2-0.2,0.3c0,0.1,0.1,0.2,0.3,0.2
			c3.2-0.1,6.2-1.7,8.2-4.2L315.2,15z"/>
		<path class="st44" d="M318.4,25.2h-13.1c-0.1,0-0.2-0.1-0.2-0.2c0,0,0,0,0,0c0-0.1,0.1-0.2,0.2-0.2c0,0,0,0,0,0h13.1
			c0.1,0,0.2,0.1,0.2,0.2c0,0,0,0,0,0C318.6,25.1,318.6,25.2,318.4,25.2L318.4,25.2z"/>
		<path class="st45" d="M354.9,25.1c-0.3,0-0.5-0.1-0.7-0.2l-1.7-1.3c-1.2-0.9-1.9-2.4-1.9-3.9v-2.9c0-0.1,0.1-0.2,0.2-0.2
			c0,0,0,0,0,0h0.5c1.1,0.1,2.1-0.3,2.9-0.9c0.1-0.1,0.2-0.2,0.3-0.3c0.1-0.2,0.4-0.2,0.6-0.1c0,0,0.1,0.1,0.1,0.1
			c0.1,0.1,0.2,0.2,0.3,0.3c0.8,0.7,1.9,1,2.9,0.9h0.5c0.1,0,0.2,0.1,0.2,0.2c0,0,0,0,0,0v2.9c0,0.7-0.2,1.5-0.5,2.2
			c-0.3,0.7-0.8,1.3-1.4,1.7l-1.7,1.4C355.4,25,355.2,25.1,354.9,25.1z"/>
		<path class="st46" d="M359,16.5h-0.5c-0.5,0-1.1-0.1-1.6-0.2v1.9c0,0.8-0.2,1.6-0.5,2.4c-0.4,0.7-0.9,1.4-1.5,1.9l-1.8,1.5l0,0
			l1.3,1c0.2,0.2,0.4,0.2,0.7,0.2c0.3,0,0.5-0.1,0.7-0.2l1.7-1.3c0.6-0.5,1.1-1.1,1.4-1.7c0.3-0.7,0.5-1.4,0.5-2.2v-2.9
			C359.3,16.6,359.2,16.4,359,16.5C359.1,16.4,359,16.4,359,16.5z"/>
		<path class="st47" d="M356.1,20.5c-0.2,0-0.4-0.2-0.4-0.4v-1.3c0-0.5-0.4-0.9-0.9-0.9s-0.9,0.4-0.9,0.9v1.3c0,0.2-0.2,0.4-0.4,0.4
			c-0.2,0-0.4-0.2-0.4-0.4v-1.3c0-0.9,0.7-1.6,1.6-1.6c0.9,0,1.6,0.7,1.6,1.6c0,0,0,0,0,0v1.3C356.5,20.3,356.3,20.5,356.1,20.5z"/>
		<path class="st48" d="M354.9,17.1c-0.1,0-0.2,0-0.3,0c0.8,0.1,1.4,0.8,1.4,1.6v1.3c0,0.1,0,0.2-0.1,0.3c0.1,0.1,0.2,0.1,0.3,0.1
			c0.2,0,0.4-0.2,0.4-0.3c0,0,0,0,0,0v-1.3C356.5,17.9,355.8,17.1,354.9,17.1L354.9,17.1z"/>
		<path class="st49" d="M356.5,22.5h-3c-0.2,0-0.5-0.2-0.5-0.4c0,0,0,0,0,0v-2c0-0.2,0.2-0.5,0.5-0.5l0,0h3c0.2,0,0.5,0.2,0.5,0.4
			c0,0,0,0,0,0v2C356.9,22.3,356.7,22.5,356.5,22.5L356.5,22.5z"/>
		<path class="st47" d="M356.5,19.6h-0.3v1.8c0,0.2-0.2,0.4-0.4,0.4c0,0,0,0,0,0H353v0.3c0,0.2,0.2,0.4,0.4,0.4h3.1
			c0.2,0,0.4-0.2,0.4-0.4V20C356.9,19.8,356.8,19.6,356.5,19.6C356.5,19.6,356.5,19.6,356.5,19.6L356.5,19.6z"/>
		<path class="st50" d="M355.4,21c0-0.2-0.2-0.4-0.4-0.4c0,0,0,0,0,0c-0.2,0-0.4,0.2-0.4,0.4c0,0.2,0.1,0.3,0.3,0.4l0,0v0.4
			 M354.8,21.7h0.2 M355.1,21.7v-0.3l0,0c0.2-0.1,0.3-0.2,0.3-0.4L355.1,21.7z"/>
		<path d="M361.1,21.4v-0.9c0-0.1-0.1-0.2-0.1-0.3l-1.5-1.2v-2.2c0-0.2-0.2-0.4-0.4-0.4h-0.4V16l1.9-1.9h0.1c0.2,0,0.4-0.2,0.4-0.4
			c0-0.2-0.2-0.4-0.4-0.4c-0.2,0-0.4,0.2-0.4,0.4c0,0,0,0,0,0c0,0,0,0.1,0,0.1l-1.9,1.9c-0.1,0.1-0.1,0.2-0.1,0.3v0.3
			c-0.2,0-0.5,0-0.7-0.1v-0.9l1.2-1.2h0.1c0.2,0,0.4-0.2,0.4-0.4c0-0.2-0.2-0.4-0.4-0.4c-0.2,0-0.4,0.2-0.4,0.4c0,0,0,0.1,0,0.1
			l-1.2,1.2c-0.1,0.1-0.1,0.2-0.1,0.3v0.9c-0.3-0.1-0.5-0.1-0.8-0.3v-1.8c0.1-0.1,0.2-0.2,0.2-0.3c0-0.2-0.2-0.3-0.4-0.3
			c-0.2,0-0.3,0.1-0.3,0.3c0,0.1,0.1,0.2,0.2,0.3v1.6c-0.1-0.1-0.2-0.2-0.3-0.3c-0.1-0.1-0.2-0.2-0.3-0.3c-0.1-0.2-0.3-0.3-0.5-0.3
			l0,0c-0.2,0-0.4,0.1-0.5,0.3c-0.1,0.1-0.2,0.2-0.3,0.3c-0.1,0.1-0.3,0.2-0.4,0.3v-1.7c0.1-0.1,0.2-0.2,0.2-0.3
			c0-0.2-0.2-0.3-0.4-0.3c-0.2,0-0.3,0.1-0.3,0.3c0,0.1,0.1,0.2,0.2,0.3v1.8c-0.3,0.1-0.5,0.2-0.8,0.2v-0.9c0-0.1,0-0.2-0.1-0.3
			l-1.1-1.1c0,0,0-0.1,0-0.1c0-0.2-0.2-0.3-0.4-0.3c-0.2,0-0.3,0.1-0.3,0.3c0,0.2,0.2,0.4,0.3,0.4c0,0,0,0,0,0h0.1l1.1,1.2v0.9
			c-0.2,0-0.5,0.1-0.7,0.1V16c0-0.1,0-0.2-0.1-0.3l-1.9-1.9v-0.1c0-0.2-0.2-0.4-0.3-0.4c0,0,0,0,0,0c-0.2,0-0.4,0.1-0.4,0.3
			s0.1,0.4,0.3,0.4c0,0,0.1,0,0.1,0h0.1l1.9,1.9v0.3h-0.3c-0.2,0-0.4,0.2-0.4,0.4V17c0,0.1,0,0.2,0.2,0.2s0.2,0,0.2-0.2
			c0,0,0-0.1,0-0.1v-0.3l0,0h0.5c0.8,0,1.5-0.1,2.3-0.5l0,0c0.3-0.1,0.6-0.3,0.8-0.5c0.1-0.1,0.2-0.2,0.3-0.3c0-0.1,0.1-0.1,0.2-0.1
			l0,0c0.1,0,0.1,0,0.2,0.1c0.1,0.1,0.2,0.2,0.3,0.3c0.8,0.7,1.9,1.1,3.1,1h0.6l0,0v2.9c0,0.7-0.2,1.4-0.5,2.1l-0.2,0.4
			c-0.1,0.1,0,0.2,0.1,0.3c0,0,0.1,0,0.1,0c0.1,0,0.1,0,0.2-0.1l0.3-0.4c0.1-0.3,0.2-0.6,0.3-0.9l0.4,0.3V24
			c-0.2,0.1-0.2,0.3-0.1,0.5c0.1,0.1,0.2,0.2,0.3,0.2c0.2,0,0.4-0.2,0.4-0.4c0-0.1-0.1-0.3-0.2-0.3v-2.7c0-0.1-0.1-0.2-0.1-0.3
			l-0.6-0.4c0.1-0.3,0.1-0.7,0.1-1v-0.1l1.3,1v0.9c-0.1,0.1-0.2,0.2-0.2,0.3c0,0.2,0.2,0.3,0.4,0.3c0.2,0,0.3-0.1,0.3-0.3
			C361.2,21.5,361.1,21.4,361.1,21.4L361.1,21.4z"/>
		<path d="M358.3,26v-1.8c0-0.1,0-0.2-0.1-0.3l-0.5-0.5c0.2-0.2,0.4-0.3,0.5-0.5c0.1-0.1,0.1-0.2,0-0.3c0,0,0,0,0,0
			c-0.1-0.1-0.2-0.1-0.3,0c0,0,0,0,0,0c-0.2,0.2-0.4,0.4-0.7,0.6l-1.7,1.4c-0.2,0.1-0.4,0.2-0.6,0.2c-0.2,0-0.4-0.1-0.6-0.2
			l-1.7-1.4c-0.6-0.4-1-1-1.4-1.6c-0.3-0.6-0.5-1.4-0.5-2.1v-1.7c0-0.1-0.1-0.2-0.2-0.2c0,0,0,0,0,0c-0.1,0-0.2,0.1-0.2,0.2
			c0,0,0,0,0,0v1l-1.6,1.3c-0.1,0.1-0.1,0.2-0.1,0.3v0.9c-0.1,0.1-0.2,0.2-0.2,0.3c0,0.2,0.2,0.4,0.4,0.4c0.2,0,0.4-0.2,0.4-0.4
			c0,0,0,0,0,0c0-0.1-0.1-0.2-0.2-0.3v-0.9l1.4-1.1v0.2c0,0.3,0,0.6,0.1,0.9l-0.7,0.5c-0.1,0.1-0.1,0.2-0.1,0.3V24
			c-0.1,0.1-0.2,0.2-0.2,0.3c0,0.2,0.2,0.4,0.4,0.4c0.2,0,0.4-0.2,0.4-0.4c0,0,0,0,0,0c0-0.1-0.1-0.2-0.2-0.3v-2.8l0.5-0.4
			c0.1,0.3,0.2,0.6,0.4,0.9c0.3,0.6,0.7,1.1,1.2,1.5l-0.5,0.5c-0.1,0.1-0.1,0.1-0.1,0.2V26c-0.1,0.1-0.2,0.2-0.2,0.3
			c0,0.2,0.2,0.4,0.3,0.4c0,0,0,0,0,0c0.2,0,0.4-0.2,0.4-0.4c0-0.1-0.1-0.2-0.2-0.3v-1.8l0.5-0.5l1.7,1.3c0.2,0.2,0.5,0.3,0.8,0.3
			c0.3,0,0.6-0.1,0.8-0.3l1.7-1.3l0.5,0.5V26c-0.1,0.1-0.2,0.2-0.2,0.3c0,0.2,0.2,0.4,0.3,0.4c0,0,0,0,0,0c0.2,0,0.4-0.2,0.4-0.4
			C358.5,26.1,358.4,26,358.3,26L358.3,26z"/>
		<circle cx="354.9" cy="24.3" r="0.2"/>
		<path d="M355.2,15.9c0-0.1-0.1-0.2-0.2-0.2l0,0c-0.1,0-0.2,0.1-0.2,0.2c0,0.1,0.1,0.2,0.2,0.2C355.1,16.2,355.2,16.1,355.2,15.9
			C355.2,15.9,355.2,15.9,355.2,15.9z"/>
		<circle cx="358.5" cy="17.3" r="0.2"/>
		<circle cx="351.3" cy="17.3" r="0.2"/>
		<path d="M353,21c-0.1,0-0.2,0.1-0.2,0.2c0,0,0,0,0,0v0.9c0,0.4,0.3,0.6,0.6,0.6h3c0.4,0,0.6-0.3,0.6-0.6v-2c0-0.3-0.2-0.5-0.4-0.6
			v-0.7c-0.1-1-0.9-1.8-1.9-1.7c-0.9,0.1-1.6,0.8-1.7,1.7v0.8c-0.2,0.1-0.3,0.3-0.3,0.5v0.2c0,0.1,0.1,0.2,0.2,0.2
			c0.1,0,0.2-0.1,0.2-0.2v-0.2c0-0.1,0.1-0.3,0.3-0.3h3c0.1,0,0.3,0.1,0.3,0.3v2c0,0.1-0.1,0.3-0.3,0.3l0,0h-3
			c-0.1,0-0.3-0.1-0.3-0.2c0,0,0,0,0,0v-0.9C353.2,21.1,353.1,21,353,21C353,21,353,21,353,21L353,21z M354.9,17.3
			c0.8,0,1.4,0.6,1.4,1.4v0.7H356v-0.7c0-0.6-0.5-1.1-1.1-1.1c-0.6,0-1.1,0.5-1.1,1.1l0,0v0.7h-0.3v-0.7
			C353.5,18,354.1,17.3,354.9,17.3L354.9,17.3z M355.6,19.4h-1.4v-0.7c0-0.4,0.3-0.7,0.7-0.7s0.7,0.3,0.7,0.7V19.4z"/>
		<path d="M354.9,21.8h0.2 M355.1,21.8v-0.4l0,0c0.2-0.1,0.3-0.2,0.3-0.4c0-0.2-0.2-0.4-0.4-0.4c-0.2,0-0.4,0.2-0.4,0.4
			c0,0.2,0.1,0.3,0.3,0.4l0,0v0.4L355.1,21.8z"/>
		<path class="st51" d="M336.3,66.7l0.5-0.5l0.8,0.8l-0.5,0.5L336.3,66.7z"/>
		<path class="st52" d="M336.3,66.7l0.5-0.5l0.8,0.8l-0.5,0.5L336.3,66.7z"/>
		<path class="st53" d="M336.3,66.7l0.3-0.3l0.8,0.8l-0.3,0.3L336.3,66.7z"/>
		<path class="st54" d="M329.5,60.3c0-0.2,0.1-0.3,0.3-0.3h4.7l1.7,1.7V69c0,0.2-0.1,0.3-0.3,0.3h-6.2c-0.2,0-0.3-0.1-0.3-0.3V60.3z
			"/>
		<path class="st52" d="M335.9,68.9h-6.2c-0.2,0-0.3-0.1-0.3-0.3V69c0,0.2,0.1,0.3,0.3,0.3h6.2c0.2,0,0.3-0.1,0.3-0.3v-0.3
			C336.2,68.8,336.1,68.9,335.9,68.9z"/>
		<path class="st53" d="M334.8,61.8h1.5l-1.7-1.7v1.5C334.5,61.6,334.6,61.7,334.8,61.8C334.7,61.8,334.7,61.8,334.8,61.8z"/>
		<path class="st53" d="M334.8,61.8h1.5l-1.7-1.7v1.5C334.5,61.6,334.6,61.7,334.8,61.8C334.7,61.8,334.7,61.8,334.8,61.8z"/>
		<circle class="st53" cx="335.2" cy="65.1" r="2.3"/>
		<path class="st55" d="M336.8,66.4c-0.9,0.9-2.4,0.9-3.3,0c0,0,0,0,0,0c-0.4-0.4-0.6-0.9-0.7-1.5c-0.1,0.7,0.2,1.3,0.7,1.8
			c0.9,0.9,2.4,1,3.3,0.1c0.5-0.5,0.8-1.2,0.7-1.9C337.5,65.4,337.2,66,336.8,66.4z"/>
		<circle class="st56" cx="335.2" cy="65.1" r="1.7"/>
		<path class="st38" d="M336.4,65.9c-0.7,0.7-1.7,0.7-2.4,0c-0.3-0.3-0.4-0.6-0.5-1c-0.1,0.5,0.1,1,0.5,1.4c0.7,0.7,1.7,0.7,2.4,0
			c0.4-0.4,0.5-0.9,0.5-1.4C336.8,65.3,336.6,65.6,336.4,65.9z"/>
		<path class="st57" d="M335,65.8c-0.1,0-0.2,0-0.2-0.1l-0.4-0.4c-0.1-0.1-0.1-0.3,0-0.4c0.1-0.1,0.3-0.1,0.4,0L335,65l0.5-0.5
			c0.1-0.1,0.3-0.1,0.4,0c0.1,0.1,0.1,0.3,0,0.4l-0.7,0.8C335.2,65.7,335.1,65.8,335,65.8L335,65.8z"/>
		<path class="st40" d="M336,64.6l-0.7,0.8c-0.1,0.1-0.1,0.1-0.2,0.1c-0.1,0-0.2,0-0.2-0.1l-0.4-0.4l0,0c-0.1,0.1-0.1,0.3,0,0.4
			l0.4,0.4c0.1,0.1,0.1,0.1,0.2,0.1c0.1,0,0.2,0,0.2-0.1l0.7-0.8C336.1,64.8,336.1,64.6,336,64.6L336,64.6L336,64.6z"/>
		<path class="st42" d="M337.7,66.9l-0.7,0.7l0.9,0.9c0.2,0.2,0.5,0.2,0.7,0c0,0,0,0,0,0c0.2-0.2,0.2-0.5,0-0.7L337.7,66.9z"/>
		<path class="st43" d="M338.1,68.2l-0.9-0.9l-0.3,0.3l0.9,0.9c0.2,0.2,0.5,0.2,0.7,0c0,0,0,0,0,0c0,0,0.1-0.1,0.1-0.2
			C338.5,68.4,338.3,68.4,338.1,68.2z"/>
		<path class="st57" d="M331.2,63.6h-0.6c-0.1,0-0.2-0.1-0.2-0.2c0,0,0,0,0,0v-0.6c0-0.1,0.1-0.2,0.2-0.2h0.6c0.1,0,0.2,0.1,0.2,0.2
			v0.6C331.4,63.5,331.3,63.6,331.2,63.6z"/>
		<path class="st57" d="M331.2,65.5h-0.6c-0.1,0-0.2-0.1-0.2-0.2c0,0,0,0,0,0v-0.6c0-0.1,0.1-0.2,0.2-0.2h0.6c0.1,0,0.2,0.1,0.2,0.2
			v0.6C331.4,65.4,331.3,65.5,331.2,65.5z"/>
		<path class="st57" d="M331.2,67.5h-0.6c-0.1,0-0.2-0.1-0.2-0.2c0,0,0,0,0,0v-0.6c0-0.1,0.1-0.2,0.2-0.2h0.6c0.1,0,0.2,0.1,0.2,0.2
			v0.6C331.4,67.4,331.3,67.5,331.2,67.5z"/>
		<path class="st40" d="M331.2,63.2h-0.6c-0.1,0-0.2-0.1-0.2-0.2c0,0,0,0,0,0v0.3c0,0.1,0.1,0.2,0.2,0.2h0.6c0.1,0,0.2-0.1,0.2-0.2
			V63C331.4,63.1,331.3,63.2,331.2,63.2z"/>
		<path class="st40" d="M331.2,65.2h-0.6c-0.1,0-0.2-0.1-0.2-0.2c0,0,0,0,0,0v0.3c0,0.1,0.1,0.2,0.2,0.2l0,0h0.6
			c0.1,0,0.2-0.1,0.2-0.2V65C331.4,65.1,331.3,65.2,331.2,65.2z"/>
		<path class="st40" d="M331.2,67.2h-0.6c-0.1,0-0.2-0.1-0.2-0.2c0,0,0,0,0,0v0.3c0,0.1,0.1,0.2,0.2,0.2h0.6c0.1,0,0.2-0.1,0.2-0.2
			V67C331.4,67.1,331.3,67.2,331.2,67.2z"/>
		<path class="st52" d="M334.5,61.5v0.3c0,0.1,0.1,0.3,0.3,0.3c0,0,0,0,0,0h1.5v-0.3h-1.5C334.6,61.8,334.5,61.6,334.5,61.5z"/>
		<path d="M335,65.9c0.1,0,0.2,0,0.3-0.1L336,65c0.2-0.2,0.2-0.4,0-0.6c-0.2-0.2-0.4-0.2-0.6,0c0,0,0,0,0,0l-0.4,0.5l-0.1-0.1
			c-0.2-0.2-0.4-0.2-0.6,0c-0.2,0.2-0.2,0.4,0,0.6l0.4,0.4C334.8,65.9,334.9,65.9,335,65.9z M334.5,65c0.1-0.1,0.2-0.1,0.2,0
			l0.2,0.2c0.1,0.1,0.1,0.1,0.2,0c0,0,0,0,0,0l0.5-0.5c0.1,0,0.2,0,0.2,0.1c0,0.1,0,0.1,0,0.2l-0.7,0.8c-0.1,0.1-0.2,0.1-0.2,0
			l-0.4-0.4C334.4,65.1,334.4,65,334.5,65L334.5,65z"/>
		<path d="M334,66c0-0.1-0.1-0.1-0.2,0c0,0,0,0,0,0c-0.1,0-0.1,0.1,0,0.2c0,0,0,0,0,0c0.1,0.1,0.1,0.1,0.2,0.2
			c0.7,0.7,1.9,0.7,2.6,0s0.7-1.9,0-2.6c-0.7-0.7-1.9-0.7-2.6,0c-0.5,0.5-0.7,1.2-0.5,1.8c0,0.1,0.1,0.1,0.2,0.1
			c0.1,0,0.1-0.1,0.1-0.2c0,0,0,0,0,0c-0.2-0.5,0-1.2,0.4-1.6c0.6-0.6,1.6-0.6,2.2,0c0.3,0.3,0.5,0.7,0.5,1.1c0,0.9-0.7,1.5-1.6,1.5
			c-0.4,0-0.8-0.2-1.1-0.4C334.1,66.1,334.1,66.1,334,66L334,66z"/>
		<path d="M338.7,67.6l-0.9-0.9c-0.1-0.1-0.1-0.1-0.2,0l0,0l-0.4-0.3c0.2-0.4,0.4-0.8,0.4-1.2c0-0.1-0.1-0.1-0.1-0.2
			c-0.1,0-0.1,0.1-0.1,0.1c0,0,0,0,0,0c0,0.5-0.3,1-0.6,1.4c-0.4,0.4-1,0.6-1.5,0.6l0,0c-1.2,0-2.2-1-2.2-2.2c0-1.2,1-2.2,2.2-2.2
			c0.6,0,1.1,0.2,1.6,0.6c0.3,0.3,0.5,0.7,0.6,1.2c0,0.1,0,0.2,0.1,0.2c0.1,0,0.2,0,0.2-0.1c0,0,0,0,0-0.1c-0.1-0.5-0.3-1-0.7-1.3
			c-0.2-0.2-0.4-0.3-0.6-0.4v-1.2c0,0,0-0.1,0-0.1l-1.8-1.8c0,0-0.1,0-0.1,0h-4.7c-0.2,0-0.4,0.2-0.4,0.4c0,0,0,0,0,0v1.2
			c0,0.1,0.1,0.1,0.1,0.1l0,0c0.1,0,0.1-0.1,0.1-0.1c0,0,0,0,0,0v-1.2c0-0.1,0.1-0.1,0.1-0.1h4.6v1.3c0,0.2,0.2,0.4,0.4,0.4l0,0h1.3
			v0.9c-0.3-0.1-0.6-0.2-0.9-0.2h-3.1c-0.1,0-0.1,0.1-0.1,0.1c0,0,0,0,0,0c0,0.1,0.1,0.1,0.1,0.1l0,0h2c-0.2,0.1-0.4,0.2-0.6,0.4
			h-1.4c-0.1,0-0.1,0.1-0.1,0.1c0,0,0,0,0,0c0,0.1,0.1,0.1,0.1,0.1l0,0h1.1c-0.2,0.3-0.4,0.6-0.5,1h-0.7c-0.1,0-0.1,0.1-0.1,0.1
			c0,0.1,0.1,0.1,0.1,0.1h0.6c0,0.1,0,0.1,0,0.2c0,0.1,0,0.1,0,0.2h-0.6c-0.1,0-0.1,0.1-0.1,0.1c0,0,0,0,0,0c0,0.1,0.1,0.1,0.1,0.1
			l0,0h0.7c0.1,0.4,0.2,0.7,0.5,1h-1.1c-0.1,0-0.1,0.1-0.1,0.1c0,0,0,0,0,0c0,0.1,0.1,0.1,0.1,0.1l0,0h1.4c0.2,0.2,0.4,0.3,0.6,0.4
			h-2c-0.1,0-0.1,0.1-0.1,0.1c0,0.1,0.1,0.1,0.1,0.1h3.1c0.3,0,0.6-0.1,0.9-0.2V69c0,0.1-0.1,0.1-0.1,0.1l0,0h-6.2
			c-0.1,0-0.1-0.1-0.1-0.1c0,0,0,0,0,0v-7c0-0.1-0.1-0.1-0.1-0.1c-0.1,0-0.1,0.1-0.1,0.1v7c0,0.2,0.2,0.4,0.4,0.4l0,0h6.2
			c0.2,0,0.4-0.2,0.4-0.4c0,0,0,0,0,0v-1.7l0.2-0.1l0.4,0.3c-0.1,0.1-0.1,0.1,0,0.2c0,0,0,0,0,0l0.9,0.9c0.3,0.3,0.7,0.3,0.9,0
			S339,67.9,338.7,67.6L338.7,67.6z M334.8,61.6c-0.1,0-0.1-0.1-0.1-0.1c0,0,0,0,0,0v-1.1l1.3,1.3L334.8,61.6z M336.8,67l0.2-0.2
			c0.1-0.1,0.1-0.1,0.1-0.2l0.3,0.3l-0.3,0.3L336.8,67z M338.5,68.4c-0.2,0.2-0.4,0.2-0.5,0l-0.8-0.8l0.5-0.5l0.8,0.8
			C338.6,68,338.6,68.2,338.5,68.4L338.5,68.4z"/>
		<path d="M330.6,63.7h0.6c0.2,0,0.3-0.1,0.3-0.3v-0.6c0-0.2-0.1-0.3-0.3-0.3c0,0,0,0,0,0h-0.6c-0.2,0-0.3,0.1-0.3,0.3c0,0,0,0,0,0
			v0.6C330.3,63.5,330.4,63.7,330.6,63.7L330.6,63.7z M330.6,62.8L330.6,62.8h0.6l0,0v0.6l0,0h-0.6l0,0V62.8z"/>
		<path d="M330.3,65.3c0,0.2,0.1,0.3,0.3,0.3h0.6c0.2,0,0.3-0.1,0.3-0.3v-0.6c0-0.2-0.1-0.3-0.3-0.3c0,0,0,0,0,0h-0.6
			c-0.2,0-0.3,0.1-0.3,0.3c0,0,0,0,0,0V65.3z M330.6,64.7L330.6,64.7h0.6l0,0v0.6l0,0h-0.6l0,0V64.7z"/>
		<path d="M330.3,67.4c0,0.2,0.1,0.3,0.3,0.3h0.6c0.2,0,0.3-0.1,0.3-0.3v-0.6c0-0.2-0.1-0.3-0.3-0.3c0,0,0,0,0,0h-0.6
			c-0.2,0-0.3,0.1-0.3,0.3c0,0,0,0,0,0V67.4z M330.6,66.7L330.6,66.7h0.6l0,0v0.6l0,0h-0.6l0,0V66.7z"/>
	</g>
</g>
<g>
	<line class="st14" x1="165.3" y1="217" x2="317" y2="301"/>
	<polygon class="st15" points="163.9,223.3 157.5,212.7 169.9,212.4 	"/>
</g>
<g>
	<g>
		<g>
			<g>
				<defs>
					<rect id="SVGID_25_" x="299.3" y="268.7" width="60.2" height="60.4"/>
				</defs>
				<clipPath id="SVGID_26_">
					<use xlink:href="#SVGID_25_"  style="overflow:visible;"/>
				</clipPath>
				<path class="st58" d="M307.1,319.1c-4.8-5.3-7.8-12.3-7.8-20.1c-0.1-16.7,13.5-30.4,30.2-30.4c16.7,0,30.2,13.5,30.2,30.2
					c0,7.1-2.5,13.7-6.6,18.9c-0.8,0.9-2,1.4-3.2,1.2c-6.3-1.2-13.2-1.9-20.4-1.9c-7.8,0-15.3,0.8-22.1,2.2
					C307.3,319.2,307.2,319.2,307.1,319.1L307.1,319.1z"/>
			</g>
		</g>
		<path class="st59" d="M352.4,287.5V317h-3.5v-29.5c0-0.7-0.5-1.2-1.2-1.2h-14.1v-3.5h14.1C350.3,282.8,352.4,284.9,352.4,287.5
			L352.4,287.5z"/>
		<path class="st60" d="M353.5,302.3c0,1.6-1.3,2.9-2.9,2.9s-2.9-1.3-2.9-2.9c0-1.6,1.3-2.9,2.9-2.9
			C352.2,299.3,353.5,300.7,353.5,302.3L353.5,302.3z"/>
		<path class="st61" d="M341.8,275.8v47.2c0,1.3-1.1,2.4-2.4,2.4h-22.2c-3.7-1.6-7-4-9.7-6.9v-42.7c0-1.3,1.1-2.4,2.4-2.4h29.5
			C340.7,273.4,341.8,274.5,341.8,275.8L341.8,275.8z"/>
		<path class="st62" d="M311.1,291.7v4.7c0,0.3,0.3,0.6,0.6,0.6h30.1v-5.9h-30.1C311.4,291.1,311.1,291.3,311.1,291.7L311.1,291.7z
			 M328.8,292.6c0.8,0,1.5,0.7,1.5,1.5s-0.7,1.5-1.5,1.5s-1.5-0.7-1.5-1.5C327.3,293.2,328,292.6,328.8,292.6L328.8,292.6z
			 M311.1,283.4v4.7c0,0.3,0.3,0.6,0.6,0.6h30.1v-5.9h-30.1C311.4,282.8,311.1,283.1,311.1,283.4L311.1,283.4z M328.8,284.4
			c0.8,0,1.5,0.7,1.5,1.5s-0.7,1.5-1.5,1.5s-1.5-0.7-1.5-1.5C327.3,285.1,328,284.4,328.8,284.4L328.8,284.4z M311.1,299.9v4.7
			c0,0.3,0.3,0.6,0.6,0.6h30.1v-5.9h-30.1C311.4,299.3,311.1,299.6,311.1,299.9L311.1,299.9z M328.8,300.8c0.8,0,1.5,0.7,1.5,1.5
			s-0.7,1.5-1.5,1.5s-1.5-0.7-1.5-1.5C327.3,301.5,328,300.8,328.8,300.8L328.8,300.8z M311.7,307.6h30.1v8.3c0,1.3-1.1,2.4-2.4,2.4
			h-25.9c-1.3,0-2.4-1.1-2.4-2.4v-7.7C311.1,307.9,311.4,307.6,311.7,307.6L311.7,307.6z M339.4,273.4h-25.9c-1.3,0-2.4,1.1-2.4,2.4
			v4.1c0,0.3,0.3,0.6,0.6,0.6h30.1v-4.7C341.8,274.5,340.7,273.4,339.4,273.4L339.4,273.4z M328.8,278.4c-0.8,0-1.5-0.7-1.5-1.5
			s0.7-1.5,1.5-1.5s1.5,0.7,1.5,1.5S329.6,278.4,328.8,278.4L328.8,278.4z"/>
		<path class="st63" d="M332,276.9c0-0.8,0.7-1.5,1.5-1.5s1.5,0.7,1.5,1.5s-0.7,1.5-1.5,1.5S332,277.8,332,276.9L332,276.9z
			 M333.5,284.4c-0.8,0-1.5,0.7-1.5,1.5s0.7,1.5,1.5,1.5s1.5-0.7,1.5-1.5C335,285.1,334.3,284.4,333.5,284.4L333.5,284.4z
			 M333.5,292.6c-0.8,0-1.5,0.7-1.5,1.5s0.7,1.5,1.5,1.5s1.5-0.7,1.5-1.5S334.3,292.6,333.5,292.6L333.5,292.6z M333.5,300.8
			c-0.8,0-1.5,0.7-1.5,1.5s0.7,1.5,1.5,1.5s1.5-0.7,1.5-1.5S334.3,300.8,333.5,300.8L333.5,300.8z"/>
		<path class="st60" d="M336.7,276.9c0-0.8,0.7-1.5,1.5-1.5s1.5,0.7,1.5,1.5s-0.7,1.5-1.5,1.5S336.7,277.8,336.7,276.9L336.7,276.9z
			 M338.2,284.4c-0.8,0-1.5,0.7-1.5,1.5s0.7,1.5,1.5,1.5s1.5-0.7,1.5-1.5C339.7,285.1,339,284.4,338.2,284.4L338.2,284.4z
			 M338.2,292.6c-0.8,0-1.5,0.7-1.5,1.5s0.7,1.5,1.5,1.5s1.5-0.7,1.5-1.5C339.7,293.2,339,292.6,338.2,292.6L338.2,292.6z
			 M338.2,300.8c-0.8,0-1.5,0.7-1.5,1.5s0.7,1.5,1.5,1.5s1.5-0.7,1.5-1.5C339.7,301.5,339,300.8,338.2,300.8L338.2,300.8z"/>
		<path class="st64" d="M329.5,329c-8.9,0-16.9-3.8-22.4-10c1.1-2.3,3.5-3.9,6.2-3.9h0.2c1.6-3.1,4.8-5.2,8.5-5.2
			c1.5,0,2.9,0.3,4.2,1c2.1-3.7,6-6.1,10.5-6.1c6.1,0,11.1,4.5,12,10.4c1.8,0.2,3.4,1.1,4.5,2.4C347.6,324.6,339,329,329.5,329
			L329.5,329z"/>
		<path class="st65" d="M346.9,310.6c-2.1-1.5-4.6-2.3-7.3-2.3c-4,0-7.6,1.9-10,4.8c-0.7,0.9-1.9,1.3-3.1,1
			c-0.8-0.2-1.6-0.3-2.5-0.3c-3.4,0-6.4,1.7-8.3,4.3c-0.5,0.7-1.3,1.2-2.1,1.3c-0.2,0-0.4,0.1-0.5,0.1c-1.4,0.3-2.6,1.1-3.5,2.1
			c-0.9-0.8-1.7-1.6-2.5-2.5c1.1-2.3,3.5-3.9,6.2-3.9h0.2c1.6-3.1,4.8-5.2,8.5-5.2c1.5,0,2.9,0.3,4.2,1c2.1-3.7,6-6.1,10.5-6.1
			C341,304.9,344.8,307.2,346.9,310.6L346.9,310.6z"/>
	</g>
	<g>
		<path d="M305.6,334.1l-2.1,6.3h-0.9l-1.7-5l-1.7,5h-1l-2.1-6.3h0.9l1.7,5.1l1.8-5.1h0.8l1.7,5.1l1.7-5.1H305.6z"/>
		<path d="M305.8,338c0-1.4,1.1-2.4,2.5-2.4c1.4,0,2.5,1,2.5,2.4c0,1.4-1,2.4-2.5,2.4C306.9,340.5,305.8,339.5,305.8,338z
			 M309.9,338c0-1-0.7-1.7-1.6-1.7c-0.9,0-1.6,0.7-1.6,1.7c0,1,0.7,1.7,1.6,1.7S309.9,339,309.9,338z"/>
		<path d="M314.5,335.6v0.8c-0.1,0-0.1,0-0.2,0c-0.9,0-1.5,0.6-1.5,1.6v2.4H312v-4.8h0.8v0.8C313.1,335.9,313.7,335.6,314.5,335.6z"
			/>
		<path d="M317.4,338.2l-1,0.9v1.3h-0.9v-6.7h0.9v4.3l2.6-2.4h1l-2,2l2.2,2.8h-1.1L317.4,338.2z"/>
		<path d="M320.4,339.9l0.4-0.7c0.4,0.3,1.1,0.5,1.7,0.5c0.8,0,1.1-0.2,1.1-0.6c0-1.1-3-0.1-3-2c0-0.9,0.8-1.4,2-1.4
			c0.6,0,1.3,0.2,1.7,0.4l-0.4,0.7c-0.4-0.3-0.9-0.4-1.4-0.4c-0.8,0-1.1,0.3-1.1,0.7c0,1.1,3,0.2,3,2.1c0,0.9-0.8,1.4-2.1,1.4
			C321.6,340.5,320.8,340.2,320.4,339.9z"/>
		<path d="M330.4,338c0,1.5-1,2.4-2.4,2.4c-0.7,0-1.3-0.3-1.7-0.8v2.5h-0.9v-6.5h0.8v0.8c0.4-0.5,1-0.8,1.7-0.8
			C329.4,335.6,330.4,336.6,330.4,338z M329.6,338c0-1-0.7-1.7-1.6-1.7c-0.9,0-1.6,0.7-1.6,1.7c0,1,0.7,1.7,1.6,1.7
			C328.9,339.7,329.6,339,329.6,338z"/>
		<path d="M335.4,337.5v2.9h-0.8v-0.6c-0.3,0.4-0.8,0.7-1.6,0.7c-1.1,0-1.8-0.6-1.8-1.4c0-0.8,0.5-1.4,1.9-1.4h1.4v-0.2
			c0-0.7-0.4-1.2-1.3-1.2c-0.6,0-1.1,0.2-1.5,0.5l-0.4-0.6c0.5-0.4,1.2-0.6,2-0.6C334.6,335.6,335.4,336.2,335.4,337.5z M334.5,339
			v-0.7h-1.3c-0.9,0-1.1,0.3-1.1,0.7c0,0.5,0.4,0.8,1.1,0.8C333.8,339.8,334.3,339.5,334.5,339z"/>
		<path d="M336.6,338c0-1.4,1.1-2.4,2.5-2.4c0.9,0,1.6,0.4,1.9,1l-0.7,0.4c-0.3-0.5-0.8-0.7-1.3-0.7c-0.9,0-1.6,0.7-1.6,1.7
			c0,1,0.7,1.7,1.6,1.7c0.5,0,1-0.2,1.3-0.7l0.7,0.4c-0.4,0.7-1.1,1-1.9,1C337.6,340.5,336.6,339.5,336.6,338z"/>
		<path d="M346.4,338.3h-3.9c0.1,0.8,0.8,1.4,1.7,1.4c0.6,0,1-0.2,1.4-0.6l0.5,0.6c-0.4,0.5-1.1,0.8-1.9,0.8c-1.5,0-2.6-1-2.6-2.4
			c0-1.4,1-2.4,2.4-2.4c1.4,0,2.4,1,2.4,2.5C346.4,338.1,346.4,338.2,346.4,338.3z M342.5,337.7h3.1c-0.1-0.8-0.7-1.4-1.5-1.4
			C343.2,336.3,342.6,336.9,342.5,337.7z"/>
		<path d="M347,339.9l0.4-0.7c0.4,0.3,1.1,0.5,1.7,0.5c0.8,0,1.1-0.2,1.1-0.6c0-1.1-3-0.1-3-2c0-0.9,0.8-1.4,2-1.4
			c0.6,0,1.3,0.2,1.7,0.4l-0.4,0.7c-0.4-0.3-0.9-0.4-1.4-0.4c-0.8,0-1.1,0.3-1.1,0.7c0,1.1,3,0.2,3,2.1c0,0.9-0.8,1.4-2.1,1.4
			C348.1,340.5,347.4,340.2,347,339.9z"/>
		<path d="M354.1,338c0-1.4,1.1-2.4,2.5-2.4s2.5,1,2.5,2.4c0,1.4-1,2.4-2.5,2.4C355.1,340.5,354.1,339.5,354.1,338z M358.1,338
			c0-1-0.7-1.7-1.6-1.7c-0.9,0-1.6,0.7-1.6,1.7c0,1,0.7,1.7,1.6,1.7S358.1,339,358.1,338z"/>
		<path d="M362.8,335.6v0.8c-0.1,0-0.1,0-0.2,0c-0.9,0-1.5,0.6-1.5,1.6v2.4h-0.9v-4.8h0.8v0.8C361.3,335.9,361.9,335.6,362.8,335.6z
			"/>
		<path d="M305.1,344.9l-2.8,6.3h-0.9l-2.8-6.3h1l2.3,5.2l2.3-5.2H305.1z"/>
		<path d="M305.9,344.9h2.7c2,0,3.4,1.3,3.4,3.2c0,1.9-1.4,3.2-3.4,3.2h-2.7V344.9z M308.5,350.4c1.6,0,2.6-1,2.6-2.4
			c0-1.4-1-2.4-2.6-2.4h-1.7v4.7H308.5z"/>
		<path d="M313.4,344.9h0.9v6.3h-0.9V344.9z"/>
		<path d="M318,350.5l0.3-0.7c0.5,0.4,1.3,0.7,2.1,0.7c1.1,0,1.6-0.4,1.6-1c0-1.5-3.8-0.6-3.8-2.9c0-1,0.8-1.8,2.4-1.8
			c0.7,0,1.5,0.2,2,0.6l-0.3,0.7c-0.5-0.4-1.2-0.5-1.7-0.5c-1.1,0-1.5,0.5-1.5,1c0,1.5,3.8,0.6,3.8,2.9c0,1-0.8,1.8-2.4,1.8
			C319.5,351.3,318.5,351,318,350.5z"/>
		<path d="M323.6,348.8c0-1.4,1.1-2.4,2.5-2.4s2.5,1,2.5,2.4c0,1.4-1,2.4-2.5,2.4C324.7,351.3,323.6,350.3,323.6,348.8z
			 M327.7,348.8c0-1-0.7-1.7-1.6-1.7c-0.9,0-1.6,0.7-1.6,1.7c0,1,0.7,1.7,1.6,1.7C327,350.5,327.7,349.8,327.7,348.8z"/>
		<path d="M329.8,344.5h0.9v6.7h-0.9V344.5z"/>
		<path d="M336.7,346.4v4.8h-0.8v-0.7c-0.4,0.5-0.9,0.8-1.6,0.8c-1.2,0-2.1-0.7-2.1-2.1v-2.7h0.9v2.6c0,0.9,0.5,1.4,1.3,1.4
			c0.9,0,1.5-0.6,1.5-1.6v-2.5L336.7,346.4L336.7,346.4z"/>
		<path d="M341.1,350.9c-0.3,0.2-0.7,0.3-1,0.3c-1,0-1.5-0.5-1.5-1.5v-2.6h-0.8v-0.7h0.8v-1h0.9v1h1.4v0.7h-1.4v2.6
			c0,0.5,0.3,0.8,0.7,0.8c0.3,0,0.5-0.1,0.7-0.2L341.1,350.9z"/>
		<path d="M341.9,345c0-0.3,0.3-0.6,0.6-0.6s0.6,0.2,0.6,0.5c0,0.3-0.2,0.6-0.6,0.6C342.2,345.5,341.9,345.3,341.9,345z
			 M342.1,346.4h0.9v4.8h-0.9V346.4z"/>
		<path d="M344.2,348.8c0-1.4,1.1-2.4,2.5-2.4s2.5,1,2.5,2.4c0,1.4-1,2.4-2.5,2.4C345.2,351.3,344.2,350.3,344.2,348.8z
			 M348.3,348.8c0-1-0.7-1.7-1.6-1.7c-0.9,0-1.6,0.7-1.6,1.7c0,1,0.7,1.7,1.6,1.7C347.6,350.5,348.3,349.8,348.3,348.8z"/>
		<path d="M354.9,348.5v2.7H354v-2.6c0-0.9-0.5-1.4-1.3-1.4c-0.9,0-1.5,0.5-1.5,1.6v2.5h-0.9v-4.8h0.8v0.7c0.4-0.5,1-0.8,1.7-0.8
			C354,346.4,354.9,347.1,354.9,348.5z"/>
		<path d="M355.8,350.7l0.4-0.7c0.4,0.3,1.1,0.5,1.7,0.5c0.8,0,1.1-0.2,1.1-0.6c0-1.1-3-0.1-3-2c0-0.9,0.8-1.4,2-1.4
			c0.6,0,1.3,0.2,1.7,0.4l-0.4,0.7c-0.4-0.3-0.9-0.4-1.4-0.4c-0.8,0-1.1,0.3-1.1,0.7c0,1.1,3,0.2,3,2.1c0,0.9-0.8,1.4-2.1,1.4
			C357,351.3,356.2,351,355.8,350.7z"/>
	</g>
</g>
</svg>
