<svg xmlns="http://www.w3.org/2000/svg" xmlns:xlink="http://www.w3.org/1999/xlink" viewBox="0 0 384.03 217.42"><defs><style>.cls-1,.cls-7,.cls-9{fill:none;}.cls-2{fill:#2aa0da;}.cls-3{fill:#fff;}.cls-4{clip-path:url(#clip-path);}.cls-5{fill:#047cc1;}.cls-6{fill:#ee284b;}.cls-7{stroke:#93b0dc;}.cls-7,.cls-9{stroke-linecap:round;stroke-miterlimit:10;stroke-width:5px;}.cls-8{fill:#93b0dc;}.cls-9{stroke:#2a428c;}.cls-10{fill:#2a428c;}.cls-11{fill:#73c3f9;}.cls-12{fill:#e9efff;}.cls-13{fill:#bec8f7;}.cls-14{fill:#3c58a0;}.cls-15{fill:#ffdd40;}.cls-16{fill:#ff7186;}.cls-17{fill:#ffe98d;}.cls-18{fill:#fc90a5;}.cls-19{fill:#4fabf7;}.cls-20{fill:#1c2e7a;}.cls-21{fill:#4b6bb2;}.cls-22{fill:#49d88b;}.cls-23{clip-path:url(#clip-path-11);}.cls-24{fill:#38c674;}.cls-25{fill:#73f9a9;}.cls-26{fill:#24b55e;}.cls-27{fill:#ff826e;}.cls-28{fill:#e6e9ed;}.cls-29{fill:#fcd770;}.cls-30{fill:#f9cf58;}.cls-31{fill:#ffac3e;}.cls-32{fill:#82d361;}.cls-33{fill:#1e9ce2;}.cls-34{fill:#ff4755;}.cls-35{fill:#fc2b3a;}.cls-36{fill:#407093;}.cls-37{fill:#8bcaff;}.cls-38{fill:#2e8ccc;}.cls-39{fill:#eedfda;}.cls-40{fill:#c9beb9;}.cls-41{fill:#f9f5f5;}.cls-42{fill:#5b5353;}.cls-43{fill:#e6e2e6;}.cls-44{fill:#ecdaec;}.cls-45{fill:#e2cbe2;}.cls-46{fill:#f9f6f6;}.cls-47{fill:#dab9d8;}.cls-48{fill:#ffe27a;}.cls-49{fill:#98db7c;}</style><clipPath id="clip-path"><rect class="cls-1" x="38.4" y="158.18" width="69.11" height="13.13"/></clipPath><clipPath id="clip-path-11"><rect class="cls-1" x="298.97" y="132.49" width="59.77" height="59.77"/></clipPath></defs><g id="Layer_2" data-name="Layer 2"><g id="Capa_1" data-name="Capa 1"><path class="cls-2" d="M152.17,151.94a25.81,25.81,0,0,0,1.37-8,23.12,23.12,0,0,0-23.15-23.16,20,20,0,0,0-9.1,1.93A34.8,34.8,0,0,0,90.69,104a33.43,33.43,0,0,0-23.15,9.1,14.12,14.12,0,0,0-9.65-3.31,15.14,15.14,0,0,0-15.16,16,21.4,21.4,0,0,0-17.37,25.91,26,26,0,0,0,2.76,51.82H146.93a25.88,25.88,0,0,0,25.91-25.91C173.67,164.62,164.3,154.15,152.17,151.94Z"/><path class="cls-2" d="M147.48,206.25H28.67a28.73,28.73,0,0,1-6.07-56.79,25.25,25.25,0,0,1,3.86-16,24.93,24.93,0,0,1,13.79-9.92,17,17,0,0,1,5-11A18,18,0,0,1,58.16,107a16.26,16.26,0,0,1,9.38,2.76A37.88,37.88,0,0,1,91,101.5a36.81,36.81,0,0,1,31.7,17.91,20.43,20.43,0,0,1,8-1.37A25.87,25.87,0,0,1,156.57,144a23,23,0,0,1-.82,6.06,28.69,28.69,0,0,1-8.27,56.24Zm-89-93.73a13,13,0,0,0-9.1,3.86,11.64,11.64,0,0,0-3.3,9.37c0,1.38-.83,2.76-2.21,2.76a19,19,0,0,0-12.4,8,19.41,19.41,0,0,0-2.76,14.61,2.15,2.15,0,0,1-.55,2.2,2.8,2.8,0,0,1-1.93,1.1,23.23,23.23,0,0,0,2.48,46.32H147.48a23.18,23.18,0,0,0,3.86-46,3.19,3.19,0,0,1-1.93-1.38,3.27,3.27,0,0,1-.28-2.2,20.68,20.68,0,0,0,1.38-7.17,20.36,20.36,0,0,0-20.4-20.4,19.81,19.81,0,0,0-8,1.65,2.83,2.83,0,0,1-3.59-1.37A31.55,31.55,0,0,0,69.19,115a2.91,2.91,0,0,1-3.58,0A10.29,10.29,0,0,0,58.44,112.52Z"/><path class="cls-3" d="M139.74,177H38.38a5.91,5.91,0,0,1-5.91-5.91V157.53a5.91,5.91,0,0,1,5.91-5.91H139.74a5.92,5.92,0,0,1,5.92,5.91v13.53A5.92,5.92,0,0,1,139.74,177Z"/><path d="M111.41,165.25a3.59,3.59,0,0,1,6.21-2.21l-1,.89a2.11,2.11,0,0,0-1.64-.76,2.08,2.08,0,1,0,0,4.16,2.09,2.09,0,0,0,1.64-.77l1,.89a3.32,3.32,0,0,1-2.68,1.17A3.36,3.36,0,0,1,111.41,165.25Z"/><path d="M118.54,161.61H120v6.89h-1.45Z"/><path d="M121,166a2.75,2.75,0,1,1,2.75,2.58A2.57,2.57,0,0,1,121,166Zm4,0a1.28,1.28,0,1,0-1.28,1.39A1.26,1.26,0,0,0,125,166Z"/><path d="M132.46,163.5v5h-1.38v-.59a2.14,2.14,0,0,1-3.69-1.58V163.5h1.45v2.61c0,.84.38,1.21,1,1.21S131,166.9,131,166V163.5Z"/><path d="M138.9,161.61v6.89h-1.38v-.57a1.91,1.91,0,0,1-1.56.65,2.58,2.58,0,0,1,0-5.15,1.94,1.94,0,0,1,1.49.6v-2.42ZM137.48,166a1.28,1.28,0,1,0-1.27,1.39A1.27,1.27,0,0,0,137.48,166Z"/><g class="cls-4"><g class="cls-4"><path class="cls-5" d="M45.29,163a2.09,2.09,0,0,0-1.72-.8c-1,0-1.5.42-1.5,1s.74.81,1.61.91c1.52.19,2.93.58,2.93,2.31s-1.43,2.31-3,2.31-2.62-.45-3.16-1.78l1.14-.59a2.06,2.06,0,0,0,2,1.15c.86,0,1.67-.3,1.67-1.09s-.72-1-1.68-1.06c-1.48-.18-2.85-.57-2.85-2.2s1.47-2.11,2.81-2.12a2.94,2.94,0,0,1,2.85,1.45Z"/></g><g class="cls-4"><polygon class="cls-5" points="51.44 164.29 53.37 161.29 55.01 161.29 55.01 161.36 52.12 165.55 52.12 168.55 50.75 168.55 50.75 165.55 47.97 161.36 47.97 161.29 49.59 161.29 51.44 164.29"/></g><g class="cls-4"><polygon class="cls-5" points="61.42 161.28 62.79 161.28 62.79 168.55 61.94 168.55 61.94 168.56 58.12 163.66 58.12 168.55 56.76 168.55 56.76 161.29 57.86 161.29 61.42 165.79 61.42 161.28"/></g><g class="cls-4"><polygon class="cls-5" points="70.49 168.55 65.06 168.55 65.06 161.29 70.49 161.29 70.49 162.62 66.42 162.62 66.42 164.29 70.34 164.29 70.34 165.56 66.42 165.56 66.42 167.2 70.49 167.2 70.49 168.55"/></g><g class="cls-4"><path class="cls-5" d="M79,167.64a3.85,3.85,0,0,1-2.76,1.07A3.56,3.56,0,0,1,72.38,165a3.65,3.65,0,0,1,3.84-3.82,3.74,3.74,0,0,1,2.67,1.11l-.92.88a2.47,2.47,0,0,0-1.75-.69,2.38,2.38,0,0,0-2.5,2.52,2.33,2.33,0,0,0,2.5,2.46,2.68,2.68,0,0,0,1.83-.74Z"/></g><g class="cls-4"><polygon class="cls-5" points="82.56 162.54 80.25 162.54 80.25 161.29 86.22 161.29 86.22 162.54 83.92 162.54 83.92 168.55 82.56 168.55 82.56 162.54"/></g><g class="cls-4"><rect class="cls-6" x="88.1" y="161.29" width="1.36" height="7.26"/></g><g class="cls-4"><polygon class="cls-5" points="97.61 161.34 94.38 164.81 97.88 168.47 97.88 168.55 96.19 168.55 93.15 165.34 93.15 168.55 91.78 168.55 91.78 161.29 93.15 161.29 93.15 164.36 95.91 161.29 97.61 161.29 97.61 161.34"/></g><g class="cls-4"><path class="cls-5" d="M104.09,163a2.11,2.11,0,0,0-1.73-.8c-1,0-1.5.42-1.5,1s.75.81,1.62.91c1.51.19,2.92.58,2.92,2.31s-1.43,2.31-3.05,2.31-2.62-.45-3.16-1.78l1.14-.59a2.08,2.08,0,0,0,2,1.15c.85,0,1.66-.3,1.66-1.09s-.71-1-1.68-1.06c-1.48-.18-2.85-.57-2.85-2.2s1.48-2.11,2.81-2.12a2.94,2.94,0,0,1,2.85,1.45Z"/></g></g><line class="cls-7" x1="157.46" y1="121.97" x2="310.53" y2="40.64"/><polygon class="cls-8" points="161.99 126.62 149.54 126.18 156.14 115.61 161.99 126.62"/><line class="cls-9" x1="183.37" y1="166.95" x2="303.72" y2="166.95"/><polygon class="cls-10" points="185.19 173.19 174.4 166.95 185.19 160.72 185.19 173.19"/><path class="cls-11" d="M346.14,185.51a28.6,28.6,0,1,0-41.59-5Z"/><path class="cls-12" d="M345.78,161.18A16.67,16.67,0,0,1,335,145.5v-4.76H307.79a3.34,3.34,0,0,0-3.33,3.34v36.27a27.63,27.63,0,0,0,2.93,3.46l36.15,3.65a27.26,27.26,0,0,0,2.72-2.05V161.26a1.34,1.34,0,0,1-.48-.08Z"/><path class="cls-13" d="M319,140.74h-11.2a3.34,3.34,0,0,0-3.33,3.34v36.27a27.63,27.63,0,0,0,2.93,3.46L319,185V143.15a1.56,1.56,0,0,1,0-2.41Z"/><path class="cls-14" d="M335,145.5v-1.42H309a1.21,1.21,0,0,0-1.21,1.21v7.5A1.21,1.21,0,0,0,309,154h28.26A16.88,16.88,0,0,1,335,145.5Z"/><path class="cls-15" d="M334.59,149a1.62,1.62,0,1,1-1.62-1.62,1.62,1.62,0,0,1,1.62,1.62Z"/><path class="cls-16" d="M329.74,149a1.62,1.62,0,1,1-1.62-1.62,1.62,1.62,0,0,1,1.62,1.62Z"/><path class="cls-17" d="M334,148.76a.72.72,0,1,1-.72-.72.72.72,0,0,1,.72.72Z"/><path class="cls-18" d="M329.12,148.76a.72.72,0,0,1-1.44,0,.72.72,0,1,1,1.44,0Z"/><path class="cls-14" d="M337.26,154H309a1.21,1.21,0,0,0-1.21,1.21v7.5a1.21,1.21,0,0,0,1.21,1.2h32.71a1.21,1.21,0,0,0,1.21-1.2v-2.91a16.54,16.54,0,0,1-5.66-5.8Z"/><path class="cls-15" d="M333.34,157.35a1.62,1.62,0,0,1-.74,3.15,1.62,1.62,0,1,1,.74-3.15Z"/><path class="cls-16" d="M328.49,157.35a1.62,1.62,0,0,1-.74,3.15,1.62,1.62,0,1,1,.74-3.15Z"/><path class="cls-19" d="M338,157.34a1.62,1.62,0,1,1-1.77,1.45,1.62,1.62,0,0,1,1.77-1.45Z"/><path class="cls-11" d="M338.88,158.67a.71.71,0,0,1-.72.71.72.72,0,0,1,0-1.43.72.72,0,0,1,.72.72Z"/><path class="cls-17" d="M334,158.67a.72.72,0,1,1-.72-.72.72.72,0,0,1,.72.72Z"/><path class="cls-18" d="M329.12,158.67a.72.72,0,0,1-1.44,0,.72.72,0,1,1,1.44,0Z"/><path class="cls-14" d="M341.71,163.9H309a1.21,1.21,0,0,0-1.21,1.21v7.5a1.21,1.21,0,0,0,1.21,1.2h32.71a1.21,1.21,0,0,0,1.21-1.2v-7.5a1.21,1.21,0,0,0-1.21-1.21Z"/><path class="cls-14" d="M341.71,173.81H309a1.21,1.21,0,0,0-1.21,1.21v7.5a1.21,1.21,0,0,0,1.21,1.2h32.71a1.21,1.21,0,0,0,1.21-1.2V175a1.21,1.21,0,0,0-1.21-1.21Z"/><path class="cls-10" d="M319,153.24a.77.77,0,0,0-.25-.55,4.94,4.94,0,0,1,0-7.3.81.81,0,0,0,.25-.56.76.76,0,0,0-.75-.75H309a1.22,1.22,0,0,0-.63.18v9.56a1.21,1.21,0,0,0,.63.17h10Z"/><path class="cls-10" d="M319,163.15a.77.77,0,0,0-.25-.55,4.94,4.94,0,0,1,0-7.3.81.81,0,0,0,.25-.56V154H309a1.22,1.22,0,0,0-.63.18v9.56a1.21,1.21,0,0,0,.63.17h10Z"/><path class="cls-10" d="M318.71,165.21a.81.81,0,0,0,.25-.56v-.75H309a1.25,1.25,0,0,0-.63.18v9.56a1.24,1.24,0,0,0,.63.17h10v-.74a.73.73,0,0,0-.25-.56,4.94,4.94,0,0,1,0-7.3Z"/><path class="cls-10" d="M318.71,175.12a.81.81,0,0,0,.25-.56v-.75H309a1.25,1.25,0,0,0-.63.18v9.55a1.16,1.16,0,0,0,.63.18h9.21A.75.75,0,0,0,319,183a.73.73,0,0,0-.25-.56,4.94,4.94,0,0,1,0-7.3Z"/><path class="cls-14" d="M341.71,183.72H309a1.22,1.22,0,0,0-1.06.63,28.61,28.61,0,0,0,35,3.52v-2.94a1.21,1.21,0,0,0-1.21-1.21Z"/><path class="cls-10" d="M308.37,183.9v.85a28.5,28.5,0,0,0,9,5.6,5.09,5.09,0,0,1-.29-1.67,4.91,4.91,0,0,1,1.61-3.65.77.77,0,0,0,.25-.56.75.75,0,0,0-.75-.74H309a1.13,1.13,0,0,0-.63.17Z"/><path class="cls-15" d="M334.59,188.68a1.62,1.62,0,1,1-1.62-1.62,1.62,1.62,0,0,1,1.62,1.62Z"/><path class="cls-16" d="M329.74,188.68a1.62,1.62,0,1,1-1.62-1.62,1.62,1.62,0,0,1,1.62,1.62Z"/><path class="cls-19" d="M339.44,188.68a1.62,1.62,0,1,1-1.62-1.62,1.62,1.62,0,0,1,1.62,1.62Z"/><path class="cls-11" d="M338.88,188.4a.71.71,0,0,1-.72.71.72.72,0,0,1,0-1.43.72.72,0,0,1,.72.72Z"/><path class="cls-17" d="M334,188.4a.72.72,0,1,1-.72-.72.72.72,0,0,1,.72.72Z"/><path class="cls-18" d="M329.12,188.4a.72.72,0,0,1-1.44,0,.72.72,0,0,1,1.44,0Z"/><path class="cls-20" d="M312,151a.92.92,0,0,1-.92-.92V148a.93.93,0,1,1,1.85,0v2.1a.93.93,0,0,1-.93.92Z"/><path class="cls-20" d="M315.45,151a.93.93,0,0,1-.93-.92V148a.93.93,0,1,1,1.86,0v2.1a.93.93,0,0,1-.93.92Z"/><path class="cls-20" d="M318.88,151a.93.93,0,0,1-.93-.92V148a.93.93,0,0,1,1.86,0v2.1a.93.93,0,0,1-.93.92Z"/><path class="cls-20" d="M322.31,151a.92.92,0,0,1-.93-.92V148a.93.93,0,1,1,1.85,0v2.1a.91.91,0,0,1-.92.92Z"/><path class="cls-20" d="M312,160.92a.92.92,0,0,1-.92-.92v-2.1a.93.93,0,1,1,1.85,0V160a.93.93,0,0,1-.93.92Z"/><path class="cls-20" d="M315.45,160.92a.93.93,0,0,1-.93-.92v-2.1a.93.93,0,1,1,1.86,0V160a.93.93,0,0,1-.93.92Z"/><path class="cls-20" d="M318.88,160.92A.93.93,0,0,1,318,160v-2.1a.93.93,0,0,1,1.86,0V160a.93.93,0,0,1-.93.92Z"/><path class="cls-20" d="M322.31,160.92a.92.92,0,0,1-.93-.92v-2.1a.93.93,0,1,1,1.85,0V160a.91.91,0,0,1-.92.92Z"/><path class="cls-20" d="M312,170.83a.92.92,0,0,1-.92-.92v-2.1a.93.93,0,1,1,1.85,0v2.1a.93.93,0,0,1-.93.92Z"/><path class="cls-20" d="M315.45,170.83a.93.93,0,0,1-.93-.92v-2.1a.93.93,0,0,1,1.86,0v2.1a.93.93,0,0,1-.93.92Z"/><path class="cls-20" d="M318.88,170.83a.93.93,0,0,1-.93-.92v-2.1a.93.93,0,0,1,1.86,0v2.1a.93.93,0,0,1-.93.92Z"/><path class="cls-20" d="M322.31,170.83a.92.92,0,0,1-.93-.92v-2.1a.93.93,0,1,1,1.85,0v2.1a.91.91,0,0,1-.92.92Z"/><path class="cls-20" d="M312,180.74a.92.92,0,0,1-.92-.92v-2.1a.93.93,0,1,1,1.85,0v2.1a.93.93,0,0,1-.93.92Z"/><path class="cls-20" d="M315.45,180.74a.93.93,0,0,1-.93-.92v-2.1a.93.93,0,1,1,1.86,0v2.1a.93.93,0,0,1-.93.92Z"/><path class="cls-20" d="M318.88,180.74a.93.93,0,0,1-.93-.92v-2.1a.93.93,0,0,1,1.86,0v2.1a.93.93,0,0,1-.93.92Z"/><path class="cls-20" d="M322.31,180.74a.92.92,0,0,1-.93-.92v-2.1a.93.93,0,1,1,1.85,0v2.1a.91.91,0,0,1-.92.92Z"/><path class="cls-20" d="M312,186.7a.94.94,0,0,0-.75.38c.55.39,1.11.75,1.68,1.1v-.55a.93.93,0,0,0-.93-.93Z"/><path class="cls-20" d="M315.45,186.7a.93.93,0,0,0-.93.93v1.43c.6.31,1.21.6,1.84.87a1.36,1.36,0,0,0,0-.2v-2.1a.93.93,0,0,0-.93-.93Z"/><path class="cls-20" d="M318.88,190.66a.93.93,0,0,1-.93-.93v-2.1a.93.93,0,0,1,1.86,0v2.1a.93.93,0,0,1-.93.93Z"/><path class="cls-20" d="M322.31,190.66a.93.93,0,0,1-.93-.93v-2.1a.93.93,0,1,1,1.85,0v2.1a.92.92,0,0,1-.92.93Z"/><path class="cls-21" d="M342,162.7a.29.29,0,0,1-.28.28H309a.29.29,0,0,1-.28-.28v-7.5a.28.28,0,0,1,.28-.28h27.67a18.46,18.46,0,0,1-1-1.86H309a.28.28,0,0,1-.28-.27v-7.5A.28.28,0,0,1,309,145h25v-1.86H309a2.13,2.13,0,0,0-2.13,2.14v7.5a2.16,2.16,0,0,0,.37,1.2,2.19,2.19,0,0,0-.37,1.21v7.5a2.16,2.16,0,0,0,.37,1.2,2.19,2.19,0,0,0-.37,1.21v7.5a2.16,2.16,0,0,0,.37,1.2,2.19,2.19,0,0,0-.37,1.21v7.5a2.14,2.14,0,0,0,.27,1c.5.52,1,1,1.58,1.52v-.14a.28.28,0,0,1,.28-.28h32.71a.28.28,0,0,1,.28.28v3.5q.94-.56,1.86-1.17v-2.33a2.12,2.12,0,0,0-.38-1.21,2.09,2.09,0,0,0,.38-1.2V175a2.12,2.12,0,0,0-.38-1.21,2.09,2.09,0,0,0,.38-1.2v-7.5a2.12,2.12,0,0,0-.38-1.21,2.09,2.09,0,0,0,.38-1.2v-1.23a16.89,16.89,0,0,1-1.86-1.06v2.29Zm0,19.82a.29.29,0,0,1-.28.28H309a.29.29,0,0,1-.28-.28V175a.29.29,0,0,1,.28-.28h32.71a.29.29,0,0,1,.28.28Zm0-9.91a.28.28,0,0,1-.28.27H309a.28.28,0,0,1-.28-.27v-7.5a.28.28,0,0,1,.28-.28h32.71a.28.28,0,0,1,.28.28Z"/><path class="cls-21" d="M342,162.7a.29.29,0,0,1-.28.28H309a.29.29,0,0,1-.28-.28v-7.5a.28.28,0,0,1,.28-.28h27.67a18.46,18.46,0,0,1-1-1.86H309a.28.28,0,0,1-.28-.27v-7.5A.28.28,0,0,1,309,145h25v-1.86H309a2.13,2.13,0,0,0-2.13,2.14v7.5a2.16,2.16,0,0,0,.37,1.2,2.19,2.19,0,0,0-.37,1.21v7.5a2.16,2.16,0,0,0,.37,1.2,2.19,2.19,0,0,0-.37,1.21v7.5a2.16,2.16,0,0,0,.37,1.2,2.19,2.19,0,0,0-.37,1.21v7.5a2.14,2.14,0,0,0,.27,1c.5.52,1,1,1.58,1.52v-.14a.28.28,0,0,1,.28-.28h32.71a.28.28,0,0,1,.28.28v3.5q.94-.56,1.86-1.17v-2.33a2.12,2.12,0,0,0-.38-1.21,2.09,2.09,0,0,0,.38-1.2V175a2.12,2.12,0,0,0-.38-1.21,2.09,2.09,0,0,0,.38-1.2v-7.5a2.12,2.12,0,0,0-.38-1.21,2.09,2.09,0,0,0,.38-1.2v-1.23a16.89,16.89,0,0,1-1.86-1.06v2.29Zm0,19.82a.29.29,0,0,1-.28.28H309a.29.29,0,0,1-.28-.28V175a.29.29,0,0,1,.28-.28h32.71a.29.29,0,0,1,.28.28Zm0-9.91a.28.28,0,0,1-.28.27H309a.28.28,0,0,1-.28-.27v-7.5a.28.28,0,0,1,.28-.28h32.71a.28.28,0,0,1,.28.28Z"/><path class="cls-22" d="M357.23,139a3.61,3.61,0,0,1-2.94-3.75.6.6,0,0,0-.39-.57,23.17,23.17,0,0,0-15.29,0,.58.58,0,0,0-.39.57,3.62,3.62,0,0,1-2.94,3.75.62.62,0,0,0-.47.58v5.89a16.83,16.83,0,0,0,10.91,15.83,1.52,1.52,0,0,0,1.07,0A16.83,16.83,0,0,0,357.7,145.5v-5.89a.62.62,0,0,0-.47-.58Z"/><g class="cls-23"><path class="cls-24" d="M353.88,155.19a.55.55,0,0,0-.5-.38,1.48,1.48,0,0,1-1.5-1.18.53.53,0,0,0-.55-.4,3.93,3.93,0,0,1-4.38-3.61,1.15,1.15,0,0,0-.2-.52l-2.25-3.31a.34.34,0,0,0-.16-.29c-3.69-2.07-3.35-6-3.08-7.41a.53.53,0,0,0-.42-.63,2.08,2.08,0,0,1-1.66-1.67.51.51,0,0,0-.32-.36,1,1,0,0,1-.54-.49.58.58,0,0,0-.11.34,3.61,3.61,0,0,1-2.94,3.76.6.6,0,0,0-.46.58v5.88a16.83,16.83,0,0,0,10.91,15.83,1.52,1.52,0,0,0,1.07,0,16.57,16.57,0,0,0,7.45-5.54,1.16,1.16,0,0,1-.36-.6Z"/></g><g class="cls-23"><path class="cls-25" d="M345.39,162.2a17.75,17.75,0,0,1-11.5-16.7v-5.89a1.53,1.53,0,0,1,1.17-1.48,2.67,2.67,0,0,0,2.23-2.85,1.49,1.49,0,0,1,1-1.44,24.05,24.05,0,0,1,15.89,0,1.51,1.51,0,0,1,1,1.44,2.67,2.67,0,0,0,2.23,2.85,1.53,1.53,0,0,1,1.17,1.48v5.89a17.74,17.74,0,0,1-11.51,16.7,2.54,2.54,0,0,1-1.72,0Zm-9.65-22.33v5.63a15.88,15.88,0,0,0,10.3,15,.64.64,0,0,0,.43,0,15.89,15.89,0,0,0,10.3-15v-5.63a4.5,4.5,0,0,1-3.4-4.36,22.22,22.22,0,0,0-14.23,0,4.5,4.5,0,0,1-3.4,4.36Z"/></g><path class="cls-22" d="M353.88,155.19a.6.6,0,0,0-.16-.25,15.67,15.67,0,0,1-7.25,5.52.64.64,0,0,1-.43,0,15.88,15.88,0,0,1-10.3-15v-5.63a4.47,4.47,0,0,0,3.39-4.21.53.53,0,0,0-.27-.24,1.13,1.13,0,0,1-.61-1.41.44.44,0,0,0,0-.16,1.51,1.51,0,0,0-1,1.43,2.67,2.67,0,0,1-2.23,2.85,1.53,1.53,0,0,0-1.17,1.48v5.89a17.75,17.75,0,0,0,11.5,16.7,2.54,2.54,0,0,0,1.72,0,17.62,17.62,0,0,0,8-6.07.63.63,0,0,0-.29-.1,1.07,1.07,0,0,1-1-.84Z"/><path class="cls-24" d="M346.25,157.78a13,13,0,0,0,5.57-4.6,13.42,13.42,0,0,0,2.38-7.68v-4a6.92,6.92,0,0,1-3.09-4,19.7,19.7,0,0,0-9.71,0,6.94,6.94,0,0,1-3.1,4v4a13.42,13.42,0,0,0,2.38,7.68,13,13,0,0,0,5.57,4.6Z"/><path class="cls-26" d="M351.7,153.35a.53.53,0,0,0-.37-.12,3.93,3.93,0,0,1-4.38-3.61,1.15,1.15,0,0,0-.2-.52l-2.25-3.32a.33.33,0,0,0-.16-.28c-3.69-2.07-3.35-6-3.08-7.41a.55.55,0,0,0,0-.18,6.88,6.88,0,0,1-3,3.62v4a13.49,13.49,0,0,0,2.38,7.68,13,13,0,0,0,5.57,4.6,13,13,0,0,0,5.45-4.43Z"/><path class="cls-12" d="M345,149.56l-2.22-2.22a1.23,1.23,0,0,1,1.74-1.74l1.35,1.34,2.56-2.56a1.24,1.24,0,0,1,1.75,1.75l-3.44,3.43a1.23,1.23,0,0,1-1.74,0Z"/><path class="cls-14" d="M318.06,183.72a.93.93,0,0,1,.93-.92H309a.29.29,0,0,1-.28-.28V175a.29.29,0,0,1,.28-.28h10a.93.93,0,1,1,0-1.85H309a.29.29,0,0,1-.28-.28v-7.5a.29.29,0,0,1,.28-.28h10a.93.93,0,1,1,0-1.85H309a.29.29,0,0,1-.28-.28v-7.5a.28.28,0,0,1,.28-.28h10a.93.93,0,0,1-.93-.93h0a.93.93,0,0,1,.93-.92H309a.29.29,0,0,1-.28-.28v-7.5A.28.28,0,0,1,309,145h10a.93.93,0,1,1,0-1.85H309a2.13,2.13,0,0,0-2.13,2.13v7.5a2.13,2.13,0,0,0,.37,1.2,2.19,2.19,0,0,0-.37,1.21v7.5a2.13,2.13,0,0,0,.37,1.2,2.19,2.19,0,0,0-.37,1.21v7.5a2.13,2.13,0,0,0,.37,1.2,2.19,2.19,0,0,0-.37,1.21v7.5a2.14,2.14,0,0,0,.27,1c.5.53,1,1,1.58,1.52v-.14a.29.29,0,0,1,.28-.28h10a.93.93,0,0,1-.93-.93Z"/><path class="cls-15" d="M334.59,178.77a1.62,1.62,0,1,1-1.62-1.62,1.62,1.62,0,0,1,1.62,1.62Z"/><path class="cls-16" d="M329.74,178.77a1.62,1.62,0,1,1-1.62-1.62,1.62,1.62,0,0,1,1.62,1.62Z"/><path class="cls-19" d="M339.44,178.77a1.62,1.62,0,1,1-1.62-1.62,1.62,1.62,0,0,1,1.62,1.62Z"/><path class="cls-11" d="M338.88,178.49a.71.71,0,0,1-.72.71.72.72,0,0,1,0-1.43.72.72,0,0,1,.72.72Z"/><path class="cls-17" d="M334,178.49a.72.72,0,1,1-.72-.72.72.72,0,0,1,.72.72Z"/><path class="cls-18" d="M329.12,178.49a.72.72,0,0,1-1.44,0,.72.72,0,1,1,1.44,0Z"/><path class="cls-15" d="M334.59,168.86a1.62,1.62,0,1,1-1.62-1.62,1.62,1.62,0,0,1,1.62,1.62Z"/><path class="cls-16" d="M329.74,168.86a1.62,1.62,0,1,1-1.62-1.62,1.62,1.62,0,0,1,1.62,1.62Z"/><path class="cls-19" d="M339.44,168.86a1.62,1.62,0,1,1-1.62-1.62,1.62,1.62,0,0,1,1.62,1.62Z"/><path class="cls-11" d="M338.88,168.58a.71.71,0,0,1-.72.71.72.72,0,0,1,0-1.43.72.72,0,0,1,.72.72Z"/><path class="cls-17" d="M334,168.58a.72.72,0,1,1-.72-.72.72.72,0,0,1,.72.72Z"/><path class="cls-18" d="M329.12,168.58a.72.72,0,0,1-1.44,0,.72.72,0,1,1,1.44,0Z"/><path d="M271.1,205.83l.33-.7a3.29,3.29,0,0,0,2.09.72c1.08,0,1.55-.42,1.55-1,0-1.54-3.81-.56-3.81-2.91,0-1,.75-1.8,2.41-1.8a3.68,3.68,0,0,1,2,.56l-.29.72a3.26,3.26,0,0,0-1.73-.51c-1.07,0-1.53.45-1.53,1,0,1.54,3.81.57,3.81,2.89,0,1-.77,1.79-2.43,1.79A3.75,3.75,0,0,1,271.1,205.83Z"/><path d="M281.43,204.45h-3.87a1.62,1.62,0,0,0,1.73,1.39,1.77,1.77,0,0,0,1.38-.57l.48.56a2.61,2.61,0,0,1-4.45-1.67,2.34,2.34,0,0,1,2.4-2.43,2.31,2.31,0,0,1,2.36,2.46C281.45,204.26,281.44,204.37,281.43,204.45Zm-3.87-.62h3.07a1.54,1.54,0,0,0-3.07,0Z"/><path d="M282.21,204.16a2.38,2.38,0,0,1,2.52-2.43,2.12,2.12,0,0,1,1.94,1l-.65.42a1.49,1.49,0,0,0-1.3-.68,1.68,1.68,0,0,0,0,3.36,1.5,1.5,0,0,0,1.3-.69l.65.42a2.14,2.14,0,0,1-1.94,1A2.39,2.39,0,0,1,282.21,204.16Z"/><path d="M292.24,201.78v4.77h-.82v-.72a2,2,0,0,1-1.62.77,1.88,1.88,0,0,1-2.06-2.08v-2.74h.87v2.64c0,.94.47,1.41,1.29,1.41a1.4,1.4,0,0,0,1.47-1.59v-2.47h.87Z"/><path d="M296.45,201.73v.84h-.2a1.43,1.43,0,0,0-1.51,1.61v2.38h-.86v-4.77h.83v.8A1.83,1.83,0,0,1,296.45,201.73Z"/><path d="M301.76,204.45h-3.87a1.6,1.6,0,0,0,1.72,1.39,1.77,1.77,0,0,0,1.38-.57l.48.56a2.61,2.61,0,0,1-4.45-1.67,2.34,2.34,0,0,1,2.4-2.43,2.3,2.3,0,0,1,2.36,2.46A2.46,2.46,0,0,1,301.76,204.45Zm-3.87-.62H301a1.54,1.54,0,0,0-3.06,0Z"/><path d="M310.13,206.65l-.84-.84a3,3,0,0,1-2.11.81c-1.27,0-2.2-.68-2.2-1.64,0-.77.44-1.31,1.53-1.93a2,2,0,0,1-.76-1.45c0-.84.67-1.41,1.7-1.41s1.57.5,1.57,1.32c0,.64-.38,1.09-1.34,1.64l1.56,1.55a3.92,3.92,0,0,0,.38-1.14l.7.22a4.16,4.16,0,0,1-.55,1.44l.84.85Zm-1.35-1.34L307,203.52c-.89.5-1.17.87-1.17,1.37s.57,1,1.42,1A2.18,2.18,0,0,0,308.78,205.31Zm-2.23-3.72c0,.32.13.56.64,1.08.83-.47,1.1-.76,1.1-1.16s-.3-.69-.84-.69S306.55,201.14,306.55,201.59Z"/><path d="M313.6,203.4a3.37,3.37,0,0,1,5.74-2.25l-.59.57A2.35,2.35,0,0,0,317,201a2.43,2.43,0,1,0,1.77,4.09l.59.57a3.14,3.14,0,0,1-2.41,1A3.18,3.18,0,0,1,313.6,203.4Z"/><path d="M324.79,201.78v4.77H324v-.72a2,2,0,0,1-1.62.77,1.87,1.87,0,0,1-2.05-2.08v-2.74h.86v2.64c0,.94.47,1.41,1.29,1.41a1.4,1.4,0,0,0,1.47-1.59v-2.47h.87Z"/><path d="M325.83,206l.36-.68a3.06,3.06,0,0,0,1.68.49c.8,0,1.13-.24,1.13-.64,0-1.08-3-.15-3-2.05,0-.85.77-1.43,2-1.43a3.47,3.47,0,0,1,1.74.43l-.37.69a2.49,2.49,0,0,0-1.38-.38c-.75,0-1.12.28-1.12.66,0,1.12,3,.2,3,2.06,0,.86-.79,1.41-2.06,1.41A3.42,3.42,0,0,1,325.83,206Z"/><path d="M333.62,206.27a1.64,1.64,0,0,1-1,.33,1.36,1.36,0,0,1-1.51-1.49v-2.62h-.81v-.71h.81v-1.05h.86v1.05h1.37v.71h-1.37v2.58a.7.7,0,0,0,.75.8,1.15,1.15,0,0,0,.68-.22Z"/><path d="M334.07,204.16a2.48,2.48,0,1,1,2.48,2.44A2.37,2.37,0,0,1,334.07,204.16Zm4.08,0a1.61,1.61,0,1,0-3.21,0,1.61,1.61,0,1,0,3.21,0Z"/><path d="M348.14,203.8v2.75h-.86V203.9c0-.94-.45-1.4-1.23-1.4a1.39,1.39,0,0,0-1.44,1.59v2.46h-.86V203.9c0-.94-.45-1.4-1.23-1.4s-1.43.55-1.43,1.59v2.46h-.87v-4.77h.83v.71a1.93,1.93,0,0,1,1.65-.76,1.76,1.76,0,0,1,1.65.88,2.16,2.16,0,0,1,1.84-.88A1.83,1.83,0,0,1,348.14,203.8Z"/><path d="M357.7,200.24v6.31h-.9v-2.81h-3.62v2.81h-.9v-6.31h.9V203h3.62v-2.71Z"/><path d="M359,204.16a2.48,2.48,0,1,1,2.49,2.44A2.38,2.38,0,0,1,359,204.16Zm4.09,0a1.61,1.61,0,1,0-3.22,0,1.61,1.61,0,1,0,3.22,0Z"/><path d="M364.57,206l.36-.68a3.08,3.08,0,0,0,1.68.49c.8,0,1.13-.24,1.13-.64,0-1.08-3-.15-3-2.05,0-.85.76-1.43,2-1.43a3.44,3.44,0,0,1,1.73.43l-.36.69a2.51,2.51,0,0,0-1.38-.38c-.76,0-1.13.28-1.13.66,0,1.12,3,.2,3,2.06,0,.86-.8,1.41-2.07,1.41A3.42,3.42,0,0,1,364.57,206Z"/><path d="M372.37,206.27a1.66,1.66,0,0,1-1,.33,1.36,1.36,0,0,1-1.52-1.49v-2.62H369v-.71h.81v-1.05h.87v1.05H372v.71h-1.36v2.58a.7.7,0,0,0,.74.8,1.13,1.13,0,0,0,.68-.22Z"/><path d="M377.54,204.45h-3.87a1.62,1.62,0,0,0,1.73,1.39,1.77,1.77,0,0,0,1.38-.57l.48.56a2.61,2.61,0,0,1-4.45-1.67,2.34,2.34,0,0,1,2.4-2.43,2.31,2.31,0,0,1,2.36,2.46C377.56,204.26,377.55,204.37,377.54,204.45Zm-3.87-.62h3.07a1.54,1.54,0,0,0-3.07,0Z"/><path d="M383.26,199.87v6.68h-.83v-.76a2,2,0,0,1-1.7.81,2.44,2.44,0,0,1,0-4.87,2,2,0,0,1,1.67.77v-2.63Zm-.86,4.29a1.61,1.61,0,1,0-1.6,1.68A1.56,1.56,0,0,0,382.4,204.16Z"/><path d="M277.38,211.05h.9v6.3h-.9Z"/><path d="M284.58,214.6v2.75h-.87V214.7c0-.94-.47-1.39-1.29-1.39a1.42,1.42,0,0,0-1.51,1.58v2.46h-.86v-4.77h.83v.72a2,2,0,0,1,1.72-.77A1.85,1.85,0,0,1,284.58,214.6Z"/><path d="M287.15,212.16v.41h1.39v.72h-1.37v4.06h-.87v-4.06h-.81v-.72h.81v-.42a1.44,1.44,0,0,1,1.58-1.54,1.59,1.59,0,0,1,1,.28l-.26.66a1.08,1.08,0,0,0-.67-.23C287.41,211.32,287.15,211.61,287.15,212.16Z"/><path d="M292.64,212.53v.84h-.2a1.42,1.42,0,0,0-1.5,1.61v2.38h-.87v-4.77h.83v.8A1.83,1.83,0,0,1,292.64,212.53Z"/><path d="M297.47,214.47v2.88h-.82v-.63a1.75,1.75,0,0,1-1.56.68c-1.08,0-1.77-.57-1.77-1.4s.5-1.4,1.92-1.4h1.37v-.17c0-.73-.42-1.15-1.28-1.15a2.43,2.43,0,0,0-1.51.51l-.36-.65a3.19,3.19,0,0,1,2-.61A1.78,1.78,0,0,1,297.47,214.47Zm-.86,1.42v-.67h-1.33c-.86,0-1.1.34-1.1.74s.39.77,1.05.77A1.37,1.37,0,0,0,296.61,215.89Z"/><path d="M298.47,216.84l.36-.68a3,3,0,0,0,1.67.49c.81,0,1.14-.24,1.14-.64,0-1.08-3-.15-3-2,0-.85.77-1.43,2-1.43a3.5,3.5,0,0,1,1.74.43l-.37.69a2.49,2.49,0,0,0-1.38-.38c-.75,0-1.12.28-1.12.66,0,1.12,3,.2,3,2.06,0,.86-.79,1.41-2.06,1.41A3.42,3.42,0,0,1,298.47,216.84Z"/><path d="M306.27,217.07a1.69,1.69,0,0,1-1,.33,1.36,1.36,0,0,1-1.51-1.49v-2.62h-.81v-.71h.81v-1.05h.86v1.05h1.37v.71h-1.37v2.58a.7.7,0,0,0,.75.8,1.15,1.15,0,0,0,.68-.22Z"/><path d="M309.87,212.53v.84h-.19a1.43,1.43,0,0,0-1.51,1.61v2.38h-.86v-4.77h.83v.8A1.81,1.81,0,0,1,309.87,212.53Z"/><path d="M315.45,212.57v4.78h-.82v-.72a2,2,0,0,1-1.62.77,1.88,1.88,0,0,1-2.06-2.08v-2.75h.87v2.65c0,.94.47,1.4,1.29,1.4a1.39,1.39,0,0,0,1.47-1.58v-2.47Z"/><path d="M316.65,215a2.38,2.38,0,0,1,2.52-2.43,2.13,2.13,0,0,1,1.95,1l-.66.42a1.49,1.49,0,0,0-1.3-.68,1.68,1.68,0,0,0,0,3.36,1.5,1.5,0,0,0,1.3-.69l.66.41a2.14,2.14,0,0,1-1.95,1A2.39,2.39,0,0,1,316.65,215Z"/><path d="M325,217.07a1.67,1.67,0,0,1-1.05.33,1.36,1.36,0,0,1-1.51-1.49v-2.62h-.81v-.71h.81v-1.05h.86v1.05h1.37v.71h-1.37v2.58a.7.7,0,0,0,.75.8,1.13,1.13,0,0,0,.68-.22Z"/><path d="M330.47,212.57v4.78h-.82v-.72a2,2,0,0,1-1.62.77,1.88,1.88,0,0,1-2.06-2.08v-2.75h.87v2.65c0,.94.47,1.4,1.29,1.4A1.39,1.39,0,0,0,329.6,215v-2.47Z"/><path d="M334.68,212.53v.84h-.2A1.42,1.42,0,0,0,333,215v2.38h-.87v-4.77h.83v.8A1.82,1.82,0,0,1,334.68,212.53Z"/><path d="M340,215.25h-3.87a1.61,1.61,0,0,0,1.73,1.39,1.76,1.76,0,0,0,1.37-.57l.48.56a2.61,2.61,0,0,1-4.45-1.67,2.34,2.34,0,0,1,2.4-2.43A2.3,2.3,0,0,1,340,215,2.46,2.46,0,0,1,340,215.25Zm-3.87-.62h3.06a1.54,1.54,0,0,0-3.06,0Z"/><path d="M343.17,216.63l.34-.71a3.19,3.19,0,0,0,2.08.73c1.08,0,1.55-.42,1.55-1,0-1.54-3.81-.56-3.81-2.91,0-1,.75-1.8,2.41-1.8a3.68,3.68,0,0,1,2,.56l-.29.72a3.26,3.26,0,0,0-1.73-.51c-1.07,0-1.53.45-1.53,1,0,1.54,3.81.57,3.81,2.89,0,1-.77,1.79-2.43,1.79A3.75,3.75,0,0,1,343.17,216.63Z"/><path d="M348.77,215a2.48,2.48,0,1,1,2.49,2.44A2.37,2.37,0,0,1,348.77,215Zm4.09,0a1.61,1.61,0,1,0-3.22,0,1.61,1.61,0,1,0,3.22,0Z"/><path d="M354.93,210.67h.86v6.68h-.86Z"/><path d="M361.88,212.57v4.78h-.81v-.72a2,2,0,0,1-1.62.77,1.88,1.88,0,0,1-2.06-2.08v-2.75h.87v2.65c0,.94.47,1.4,1.28,1.4A1.4,1.4,0,0,0,361,215v-2.47Z"/><path d="M366.21,217.07a1.64,1.64,0,0,1-1,.33,1.36,1.36,0,0,1-1.51-1.49v-2.62h-.81v-.71h.81v-1.05h.86v1.05h1.37v.71h-1.37v2.58a.7.7,0,0,0,.75.8,1.1,1.1,0,0,0,.67-.22Z"/><path d="M367.1,211.1a.57.57,0,0,1,.59-.57.57.57,0,1,1,0,1.13A.57.57,0,0,1,367.1,211.1Zm.16,1.47h.86v4.78h-.86Z"/><path d="M369.33,215a2.48,2.48,0,1,1,2.48,2.44A2.37,2.37,0,0,1,369.33,215Zm4.08,0a1.61,1.61,0,1,0-3.21,0,1.61,1.61,0,1,0,3.21,0Z"/><path d="M380,214.6v2.75h-.86V214.7c0-.94-.47-1.39-1.29-1.39a1.41,1.41,0,0,0-1.51,1.58v2.46h-.87v-4.77h.83v.72a2,2,0,0,1,1.72-.77A1.85,1.85,0,0,1,380,214.6Z"/><path d="M284.06,76.87c0,1.08-.82,1.71-2.41,1.71h-3V72.27h2.83c1.45,0,2.26.62,2.26,1.63a1.5,1.5,0,0,1-.85,1.41A1.52,1.52,0,0,1,284.06,76.87ZM279.54,73v2h1.85c.92,0,1.44-.34,1.44-1s-.52-1-1.44-1Zm3.61,3.8c0-.73-.54-1-1.54-1h-2.07v2.1h2.07C282.61,77.85,283.15,77.53,283.15,76.8Z"/><path d="M289.78,73.8v4.77H289v-.72a1.94,1.94,0,0,1-1.62.78,1.88,1.88,0,0,1-2-2.08V73.8h.86v2.65c0,.94.47,1.4,1.29,1.4a1.39,1.39,0,0,0,1.47-1.58V73.8Z"/><path d="M290.82,78.07l.36-.68a3.13,3.13,0,0,0,1.67.49c.81,0,1.14-.24,1.14-.65,0-1.07-3-.14-3-2,0-.85.77-1.43,2-1.43a3.5,3.5,0,0,1,1.74.43l-.37.68A2.56,2.56,0,0,0,293,74.5c-.75,0-1.12.28-1.12.65,0,1.13,3,.21,3,2.07,0,.86-.79,1.41-2.06,1.41A3.42,3.42,0,0,1,290.82,78.07Z"/><path d="M295.78,72.33a.57.57,0,0,1,.58-.57.56.56,0,0,1,.59.55.57.57,0,0,1-.59.58A.56.56,0,0,1,295.78,72.33Zm.15,1.47h.87v4.77h-.87Z"/><path d="M303,75.83v2.75h-.86V75.93c0-.94-.47-1.4-1.29-1.4a1.42,1.42,0,0,0-1.51,1.59v2.46h-.87V73.81h.83v.72a2,2,0,0,1,1.72-.77A1.85,1.85,0,0,1,303,75.83Z"/><path d="M308.89,76.48H305a1.61,1.61,0,0,0,1.73,1.39,1.8,1.8,0,0,0,1.38-.57l.47.56a2.6,2.6,0,0,1-4.44-1.67,2.34,2.34,0,0,1,2.39-2.43,2.3,2.3,0,0,1,2.36,2.46A2.46,2.46,0,0,1,308.89,76.48ZM305,75.86h3.06a1.54,1.54,0,0,0-3.06,0Z"/><path d="M309.5,78.07l.36-.68a3.17,3.17,0,0,0,1.68.49c.8,0,1.13-.24,1.13-.65,0-1.07-3-.14-3-2,0-.85.76-1.43,2-1.43a3.45,3.45,0,0,1,1.74.43l-.37.68a2.55,2.55,0,0,0-1.37-.37c-.76,0-1.13.28-1.13.65,0,1.13,3,.21,3,2.07,0,.86-.79,1.41-2.06,1.41A3.42,3.42,0,0,1,309.5,78.07Z"/><path d="M314,78.07l.36-.68a3.17,3.17,0,0,0,1.68.49c.8,0,1.13-.24,1.13-.65,0-1.07-3-.14-3-2,0-.85.77-1.43,2-1.43a3.47,3.47,0,0,1,1.74.43l-.37.68a2.56,2.56,0,0,0-1.38-.37c-.75,0-1.12.28-1.12.65,0,1.13,3,.21,3,2.07,0,.86-.79,1.41-2.06,1.41A3.42,3.42,0,0,1,314,78.07Z"/><path d="M321.16,75.42a3.19,3.19,0,0,1,3.34-3.22,3.13,3.13,0,0,1,2.39,1l-.58.57a2.35,2.35,0,0,0-1.77-.75,2.43,2.43,0,1,0,1.77,4.09l.58.57a3.14,3.14,0,0,1-2.4,1A3.19,3.19,0,0,1,321.16,75.42Z"/><path d="M327.41,76.19a2.48,2.48,0,1,1,2.49,2.44A2.38,2.38,0,0,1,327.41,76.19Zm4.09,0a1.61,1.61,0,1,0-3.22,0,1.61,1.61,0,1,0,3.22,0Z"/><path d="M338.1,75.83v2.75h-.87V75.93c0-.94-.46-1.4-1.28-1.4a1.42,1.42,0,0,0-1.52,1.59v2.46h-.86V73.81h.83v.72a2,2,0,0,1,1.72-.77A1.85,1.85,0,0,1,338.1,75.83Z"/><path d="M342.38,78.3a1.66,1.66,0,0,1-1,.33,1.37,1.37,0,0,1-1.52-1.5V74.51H339V73.8h.81v-1h.87v1h1.37v.71h-1.37V77.1a.7.7,0,0,0,.75.8,1,1,0,0,0,.67-.23Z"/><path d="M343.27,72.33a.57.57,0,0,1,.59-.57.56.56,0,0,1,.58.55.59.59,0,0,1-1.17,0Zm.15,1.47h.87v4.77h-.87Z"/><path d="M350.46,75.83v2.75h-.86V75.93c0-.94-.47-1.4-1.29-1.4a1.42,1.42,0,0,0-1.51,1.59v2.46h-.87V73.81h.83v.72a2.06,2.06,0,0,1,1.72-.77A1.85,1.85,0,0,1,350.46,75.83Z"/><path d="M356.51,73.8v4.77h-.82v-.72a1.92,1.92,0,0,1-1.62.78A1.88,1.88,0,0,1,352,76.55V73.8h.86v2.65c0,.94.47,1.4,1.29,1.4a1.4,1.4,0,0,0,1.48-1.58V73.8Z"/><path d="M358,72.33a.57.57,0,0,1,.59-.57.56.56,0,0,1,.58.55.59.59,0,0,1-1.17,0Zm.16,1.47H359v4.77h-.86Z"/><path d="M363.35,78.3a1.66,1.66,0,0,1-1,.33,1.37,1.37,0,0,1-1.52-1.5V74.51H360V73.8h.81v-1h.87v1H363v.71h-1.37V77.1a.7.7,0,0,0,.75.8,1,1,0,0,0,.67-.23Z"/><path d="M368.53,73.8l-2.32,5.25c-.42,1-1,1.33-1.7,1.33a1.8,1.8,0,0,1-1.22-.44l.37-.65a1.23,1.23,0,0,0,.85.35c.41,0,.68-.19.91-.74l.15-.33-2.1-4.77h.9L366,77.62l1.65-3.82Z"/><path d="M376.49,78.67l-.84-.83a3,3,0,0,1-2.1.81c-1.28,0-2.21-.68-2.21-1.64,0-.77.44-1.31,1.53-1.94a1.94,1.94,0,0,1-.75-1.44c0-.84.66-1.41,1.7-1.41s1.56.49,1.56,1.31c0,.64-.37,1.1-1.34,1.65l1.56,1.55a4,4,0,0,0,.39-1.14l.69.22a4.24,4.24,0,0,1-.55,1.44l.85.85Zm-1.35-1.34-1.79-1.78c-.88.49-1.16.86-1.16,1.37s.56,1,1.41,1A2.13,2.13,0,0,0,375.14,77.33Zm-2.22-3.72c0,.33.12.56.64,1.08.82-.46,1.09-.75,1.09-1.15s-.29-.69-.83-.69S372.92,73.16,372.92,73.61Z"/><path d="M273.37,86.22A3.19,3.19,0,0,1,276.71,83a3.11,3.11,0,0,1,2.4,1l-.59.57a2.34,2.34,0,0,0-1.77-.75,2.42,2.42,0,1,0,0,4.84,2.34,2.34,0,0,0,1.77-.75l.59.57a3.15,3.15,0,0,1-2.4,1A3.19,3.19,0,0,1,273.37,86.22Z"/><path d="M284.49,84.6l-2.31,5.25c-.43,1-1,1.33-1.7,1.33a1.85,1.85,0,0,1-1.23-.44l.37-.65a1.23,1.23,0,0,0,.85.35c.42,0,.68-.19.91-.74l.16-.33-2.11-4.77h.9L282,88.42l1.64-3.82Z"/><path d="M290.24,87a2.32,2.32,0,0,1-2.41,2.44,2,2,0,0,1-1.7-.81v.76h-.83V82.7h.86v2.62a2,2,0,0,1,1.67-.76A2.32,2.32,0,0,1,290.24,87Zm-.87,0a1.61,1.61,0,1,0-1.61,1.68A1.57,1.57,0,0,0,289.37,87Z"/><path d="M295.73,87.28h-3.87a1.62,1.62,0,0,0,1.73,1.39A1.8,1.8,0,0,0,295,88.1l.47.56A2.6,2.6,0,0,1,291,87a2.34,2.34,0,0,1,2.39-2.43A2.3,2.3,0,0,1,295.75,87,2.46,2.46,0,0,1,295.73,87.28Zm-3.87-.62h3.06a1.54,1.54,0,0,0-3.06,0Z"/><path d="M299.51,84.56v.84h-.2a1.42,1.42,0,0,0-1.5,1.61v2.38H297V84.6h.82v.8A1.84,1.84,0,0,1,299.51,84.56Z"/><path d="M302.61,88.65l.33-.7a3.21,3.21,0,0,0,2.08.73c1.09,0,1.56-.42,1.56-1,0-1.54-3.82-.57-3.82-2.91,0-1,.76-1.8,2.41-1.8a3.71,3.71,0,0,1,2,.56l-.3.72a3.26,3.26,0,0,0-1.73-.51c-1.07,0-1.53.45-1.53,1,0,1.54,3.82.57,3.82,2.89,0,1-.78,1.79-2.44,1.79A3.7,3.7,0,0,1,302.61,88.65Z"/><path d="M312.94,87.28h-3.87a1.62,1.62,0,0,0,1.73,1.39,1.78,1.78,0,0,0,1.37-.57l.48.56A2.6,2.6,0,0,1,308.21,87a2.33,2.33,0,0,1,2.39-2.43A2.3,2.3,0,0,1,313,87,2.46,2.46,0,0,1,312.94,87.28Zm-3.87-.62h3.06a1.54,1.54,0,0,0-3.06,0Z"/><path d="M313.71,87a2.39,2.39,0,0,1,2.52-2.43,2.13,2.13,0,0,1,1.95,1l-.66.42a1.48,1.48,0,0,0-1.3-.68,1.68,1.68,0,0,0,0,3.35,1.49,1.49,0,0,0,1.3-.68l.66.41a2.14,2.14,0,0,1-1.95,1A2.4,2.4,0,0,1,313.71,87Z"/><path d="M323.74,84.6v4.77h-.82v-.72a1.94,1.94,0,0,1-1.62.78,1.88,1.88,0,0,1-2.05-2.08V84.6h.86v2.65c0,.94.47,1.4,1.29,1.4a1.39,1.39,0,0,0,1.47-1.58V84.6Z"/><path d="M328,84.56v.84h-.2a1.42,1.42,0,0,0-1.5,1.61v2.38h-.87V84.6h.83v.8A1.84,1.84,0,0,1,328,84.56Z"/><path d="M328.86,83.13a.57.57,0,0,1,.58-.57.56.56,0,1,1,0,1.12A.55.55,0,0,1,328.86,83.13ZM329,84.6h.87v4.77H329Z"/><path d="M334.21,89.1a1.69,1.69,0,0,1-1,.33,1.36,1.36,0,0,1-1.51-1.5V85.31h-.81V84.6h.81v-1h.86v1h1.37v.71h-1.37V87.9a.7.7,0,0,0,.75.8,1.09,1.09,0,0,0,.68-.23Z"/><path d="M339.38,84.6l-2.31,5.25c-.43,1-1,1.33-1.7,1.33a1.85,1.85,0,0,1-1.23-.44l.37-.65a1.23,1.23,0,0,0,.85.35c.42,0,.68-.19.91-.74l.16-.33-2.11-4.77h.9l1.67,3.82,1.64-3.82Z"/><path d="M342.16,88.65l.33-.7a3.21,3.21,0,0,0,2.08.73c1.09,0,1.56-.42,1.56-1,0-1.54-3.82-.57-3.82-2.91,0-1,.76-1.8,2.41-1.8a3.71,3.71,0,0,1,2,.56l-.3.72a3.26,3.26,0,0,0-1.73-.51c-1.07,0-1.53.45-1.53,1,0,1.54,3.82.57,3.82,2.89,0,1-.77,1.79-2.44,1.79A3.72,3.72,0,0,1,342.16,88.65Z"/><path d="M347.76,87a2.48,2.48,0,1,1,2.48,2.44A2.37,2.37,0,0,1,347.76,87Zm4.09,0a1.61,1.61,0,1,0-1.61,1.68A1.57,1.57,0,0,0,351.85,87Z"/><path d="M353.91,82.69h.87v6.68h-.87Z"/><path d="M360.87,84.6v4.77h-.82v-.72a1.92,1.92,0,0,1-1.62.78,1.88,1.88,0,0,1-2.05-2.08V84.6h.86v2.65c0,.94.47,1.4,1.29,1.4A1.4,1.4,0,0,0,360,87.07V84.6Z"/><path d="M365.2,89.1a1.66,1.66,0,0,1-1,.33,1.37,1.37,0,0,1-1.52-1.5V85.31h-.81V84.6h.81v-1h.87v1h1.37v.71h-1.37V87.9a.7.7,0,0,0,.74.8,1.05,1.05,0,0,0,.68-.23Z"/><path d="M366.09,83.13a.57.57,0,0,1,.58-.57.56.56,0,1,1,0,1.12A.55.55,0,0,1,366.09,83.13Zm.15,1.47h.87v4.77h-.87Z"/><path d="M368.31,87a2.48,2.48,0,1,1,2.49,2.44A2.38,2.38,0,0,1,368.31,87Zm4.09,0a1.61,1.61,0,1,0-3.21,0,1.61,1.61,0,1,0,3.21,0Z"/><path d="M379,86.63v2.75h-.87V86.73c0-.94-.46-1.4-1.28-1.4a1.42,1.42,0,0,0-1.52,1.59v2.46h-.86V84.61h.83v.72a2,2,0,0,1,1.72-.77A1.85,1.85,0,0,1,379,86.63Z"/><path d="M380,88.87l.36-.68a3.17,3.17,0,0,0,1.68.49c.8,0,1.13-.24,1.13-.65,0-1.07-3-.14-3-2,0-.86.76-1.43,2-1.43a3.5,3.5,0,0,1,1.74.43l-.37.68a2.5,2.5,0,0,0-1.38-.37c-.76,0-1.13.27-1.13.65,0,1.13,3,.21,3,2.06,0,.87-.79,1.42-2.06,1.42A3.43,3.43,0,0,1,380,88.87Z"/><circle class="cls-8" cx="333.48" cy="33.75" r="29.35" transform="translate(246.75 357.51) rotate(-80.78)"/><path class="cls-27" d="M315.31,51.36l-1.51,1.51A27.7,27.7,0,0,1,306,37.47H303.5l4.28-8.56,4.28,8.56h-1.74a23.49,23.49,0,0,0,6.5,12.38Z"/><path class="cls-27" d="M322.77,11.78A10.51,10.51,0,0,0,322,7.84a27.85,27.85,0,0,1,7.18-2.15V3.21l8.57,4.28-.54.27h0l-8,4V10a23.9,23.9,0,0,0-6.44,2.18c0-.14,0-.28,0-.43Z"/><path class="cls-27" d="M359.17,33.19h2.14A27.66,27.66,0,0,1,356,49.6l1.75,1.76-9.09,3,.2-.58,2.83-8.51,1.24,1.24A23.42,23.42,0,0,0,357,33.19Z"/><path class="cls-28" d="M342,56.74c0,.24,0,.46,0,.69a8.56,8.56,0,0,1-17.07,0c0-.23,0-.45,0-.69a8.57,8.57,0,0,1,17.13,0Z"/><path class="cls-28" d="M322.76,12.2a10.7,10.7,0,0,1-10.69,10.28,9.67,9.67,0,0,1-1.88-.17A10.7,10.7,0,1,1,322,7.84a10.55,10.55,0,0,1,.76,3.94c0,.15,0,.29,0,.42Z"/><path class="cls-28" d="M354.89,1.07a10.7,10.7,0,0,1,1.87,21.24,9.64,9.64,0,0,1-1.87.17,10.71,10.71,0,1,1,0-21.41Z"/><path class="cls-29" d="M344.18,31.05v4.28l-2.61.63a7.12,7.12,0,0,1-.41,1l1.41,2.3-3,3-2.3-1.41a7.66,7.66,0,0,1-1,.41l-.63,2.61h-4.28l-.63-2.61a6.65,6.65,0,0,1-1-.41l-2.3,1.41-3-3,1.4-2.3a7.59,7.59,0,0,1-.4-1l-2.62-.63V31.05l2.62-.63a6.61,6.61,0,0,1,.4-1l-1.4-2.3,3-3,2.3,1.4a6.61,6.61,0,0,1,1-.4l.63-2.62h4.28l.63,2.62a7.59,7.59,0,0,1,1,.4l2.3-1.4,3,3-1.41,2.3a6.65,6.65,0,0,1,.41,1Zm-6.42,2.14a4.28,4.28,0,1,0-4.28,4.28,4.28,4.28,0,0,0,4.28-4.28Z"/><path d="M366.67,11.78A11.78,11.78,0,0,0,343.6,8.43a26.28,26.28,0,0,0-4.33-1.38L328.12,1.48V4.79a28.13,28.13,0,0,0-5.56,1.67,11.77,11.77,0,1,0-13.85,16.6,27.55,27.55,0,0,0-1.37,4.33l-5.57,11.15h3.3a28.73,28.73,0,0,0,8,15.09l.75.76,1.54-1.54A27,27,0,0,0,324,58.2a9.62,9.62,0,0,0,19,0,26.82,26.82,0,0,0,4.85-2.43l11.84-3.94-2.34-2.34a28.67,28.67,0,0,0,5-16.3V32.12h-2.17a26.46,26.46,0,0,0-2-9.06,11.81,11.81,0,0,0,8.42-11.28ZM354.89,2.14a9.64,9.64,0,1,1-9.64,9.64,9.64,9.64,0,0,1,9.64-9.64ZM329.36,6.75l.91-.14V4.94l5.1,2.55L330.27,10V8.74L329,9a24.58,24.58,0,0,0-5.22,1.59,11.28,11.28,0,0,0-.43-2.11,26.23,26.23,0,0,1,6-1.7Zm-26.93,5a9.64,9.64,0,1,1,9.64,9.63,9.65,9.65,0,0,1-9.64-9.63ZM307,37.31l-.14-.91h-1.67l2.55-5.1,2.55,5.1H309l.23,1.26a24.52,24.52,0,0,0,6.06,12.17l-1.51,1.51a26.43,26.43,0,0,1-6.77-14Zm26.44,26.93a7.5,7.5,0,1,1,7.49-7.5,7.51,7.51,0,0,1-7.49,7.5ZM355.09,49l-.55.74,1.18,1.18-5.41,1.8,1.8-5.41.92.92.73-1.06a24.41,24.41,0,0,0,4.32-12.88h2.14A26.53,26.53,0,0,1,355.09,49Zm3-16.85H356v1.07a22.32,22.32,0,0,1-3.26,11.66l-1.52-1.53-3.27,9.81a24.34,24.34,0,0,1-4.84,2.73,9.63,9.63,0,0,0-19.18,0,24.85,24.85,0,0,1-7.05-4.53l1.49-1.49-.75-.76a22.35,22.35,0,0,1-5.94-10.55h2.16l-4.63-9.25a24.4,24.4,0,0,1,1.68-5.8c.4,0,.81.06,1.21.06a11.78,11.78,0,0,0,11.72-10.64,23.43,23.43,0,0,1,4.34-1.56v2.16l9.26-4.63a24.66,24.66,0,0,1,5.79,1.68c0,.4-.06.81-.06,1.22a11.79,11.79,0,0,0,11.78,11.77c.41,0,.82,0,1.22-.06a24.13,24.13,0,0,1,2,8.63Z"/><path d="M342.37,29.5,343.91,27l-4.21-4.22-2.54,1.54h0l-.7-2.88h-6l-.71,2.88h0l-2.53-1.54L323,27l1.54,2.53h0l-2.88.7v6l2.88.7h0L323,39.41l4.22,4.21,2.53-1.54h0l.7,2.88h6l.7-2.88h0l2.53,1.54,4.22-4.21-1.54-2.54h0l2.88-.7v-6l-2.88-.7Zm.74,5-2.36.57-.19.56a7.12,7.12,0,0,1-.36.86l-.26.52,1.27,2.08-1.84,1.84-2.08-1.27-.53.26a6,6,0,0,1-.86.36l-.55.19-.57,2.36h-2.61l-.57-2.36-.55-.19a6.5,6.5,0,0,1-.86-.36l-.53-.26-2.08,1.27-1.84-1.84L327,37l-.26-.52a7.12,7.12,0,0,1-.36-.86l-.19-.56-2.36-.57v-2.6l2.36-.58.19-.55a6.5,6.5,0,0,1,.36-.86l.26-.52-1.27-2.09,1.84-1.83,2.08,1.26.53-.26a8.14,8.14,0,0,1,.86-.35l.55-.19.58-2.37h2.6l.57,2.37.56.19a8,8,0,0,1,.85.35l.53.26,2.08-1.26,1.84,1.83-1.27,2.09.26.52a6.5,6.5,0,0,1,.36.86l.19.55,2.36.58v2.6Z"/><path d="M333.48,27.84a5.35,5.35,0,1,0,5.35,5.35,5.36,5.36,0,0,0-5.35-5.35Zm0,8.56a3.21,3.21,0,1,1,3.21-3.21,3.22,3.22,0,0,1-3.21,3.21Z"/><path class="cls-30" d="M306.43,17l1,.24,1-.24v-.47l-1-.24-1,.24Z"/><path class="cls-31" d="M309.42,17l1,.24,1-.24v-.47l-1-.24-1,.24Z"/><path class="cls-32" d="M312.4,17l1,.24,1-.24v-.47l-1-.24-1,.24Z"/><path class="cls-33" d="M315.39,17l1,.24,1-.24v-.47l-1-.24-1,.24Z"/><path class="cls-30" d="M308.38,16.48h-1.95V14.56a.27.27,0,0,1,.27-.27h1.41a.27.27,0,0,1,.27.27v1.92Z"/><path class="cls-31" d="M311.36,16.48h-1.94V13.11a.26.26,0,0,1,.26-.26h1.42a.26.26,0,0,1,.26.26v3.37Z"/><path class="cls-32" d="M314.35,16.48h-2V11.67a.26.26,0,0,1,.27-.26h1.41a.26.26,0,0,1,.27.26v4.81Z"/><path class="cls-33" d="M317.33,16.48h-1.94V10.23a.27.27,0,0,1,.27-.27h1.41a.26.26,0,0,1,.26.27v6.25Z"/><path class="cls-34" d="M316.26,7.6,316,5.28a.13.13,0,0,0-.16-.11l-2.26.59a.13.13,0,0,0,0,.23l.59.41s-1.52,3-7,4.64v.15a9.94,9.94,0,0,0,7.89-3.73l.41-.14.59.41a.13.13,0,0,0,.2-.13Z"/><path class="cls-35" d="M315.23,7.15a.13.13,0,0,0-.18,0,9.7,9.7,0,0,1-7.79,3.87h-.09a.25.25,0,0,0,.09.49,10.92,10.92,0,0,0,8.21-4.21Z"/><path class="cls-36" d="M318.44,17.35H305.32a.19.19,0,0,1-.19-.2.18.18,0,0,1,.19-.19h13.12a.19.19,0,0,1,.2.19A.2.2,0,0,1,318.44,17.35Z"/><path class="cls-37" d="M354.94,17.19a1.09,1.09,0,0,1-.69-.24l-1.73-1.34a4.92,4.92,0,0,1-1.91-3.89V8.82a.23.23,0,0,1,.24-.23h.52a4.11,4.11,0,0,0,2.93-.94,2.86,2.86,0,0,0,.29-.33.44.44,0,0,1,.7,0,2.78,2.78,0,0,0,.29.34,4.17,4.17,0,0,0,2.92.93H359a.23.23,0,0,1,.23.23v2.9a4.92,4.92,0,0,1-.5,2.16,5,5,0,0,1-1.4,1.73L355.62,17A1.09,1.09,0,0,1,354.94,17.19Z"/><path class="cls-38" d="M359,8.58h-.53a5.76,5.76,0,0,1-1.62-.22v1.91a5.32,5.32,0,0,1-.54,2.35,5.44,5.44,0,0,1-1.51,1.86L353,15.93h0l1.3,1a1.11,1.11,0,0,0,.69.24,1.13,1.13,0,0,0,.69-.24l1.73-1.34a5,5,0,0,0,1.4-1.73,4.92,4.92,0,0,0,.5-2.16V8.82A.24.24,0,0,0,359,8.58Z"/><path class="cls-39" d="M356.13,12.58a.38.38,0,0,1-.37-.37V10.89a.88.88,0,1,0-1.76,0v1.32a.37.37,0,0,1-.74,0V10.89a1.62,1.62,0,1,1,3.24,0v1.32A.37.37,0,0,1,356.13,12.58Z"/><path class="cls-40" d="M354.88,9.27a1.24,1.24,0,0,0-.27,0A1.61,1.61,0,0,1,356,10.89v1.32a.36.36,0,0,1-.1.25.36.36,0,0,0,.27.12.36.36,0,0,0,.37-.37V10.9a1.63,1.63,0,0,0-1.62-1.63Z"/><path class="cls-41" d="M356.45,14.64h-3a.45.45,0,0,1-.45-.45v-2a.45.45,0,0,1,.45-.45h3a.45.45,0,0,1,.45.45v2a.45.45,0,0,1-.45.45Z"/><path class="cls-39" d="M356.51,11.76h-.34v1.76a.38.38,0,0,1-.39.39H353v.34a.4.4,0,0,0,.39.39h3.15a.4.4,0,0,0,.39-.39V12.16a.39.39,0,0,0-.39-.4Z"/><path class="cls-42" d="M355.39,13.08a.43.43,0,0,0-.46-.43.42.42,0,0,0-.4.4.42.42,0,0,0,.25.41.05.05,0,0,1,0,0v.38a0,0,0,0,0,.05,0h.22a0,0,0,0,0,.05,0V13.5a.05.05,0,0,1,0,0,.41.41,0,0,0,.25-.38Z"/><path d="M361.11,13.48v-.93a.37.37,0,0,0-.13-.27l-1.52-1.21V8.82a.44.44,0,0,0-.43-.43h-.39V8.12l1.88-1.89h.09a.37.37,0,1,0-.37-.37.19.19,0,0,0,0,.08l-1.9,1.9a.39.39,0,0,0-.1.25v.28a4.59,4.59,0,0,1-.68-.07V7.39l1.16-1.16h.08a.37.37,0,0,0,.36-.37.36.36,0,0,0-.36-.36.37.37,0,0,0-.37.36s0,.06,0,.08l-1.17,1.17a.39.39,0,0,0-.1.25v.87a3.62,3.62,0,0,1-.75-.26V6.18a.37.37,0,0,0,.17-.31.37.37,0,0,0-.73,0,.37.37,0,0,0,.17.31V7.77a3.18,3.18,0,0,1-.33-.26,4,4,0,0,1-.26-.32.63.63,0,0,0-.51-.25h0a.63.63,0,0,0-.51.25,2.69,2.69,0,0,1-.27.32,2.8,2.8,0,0,1-.41.32V6.18a.37.37,0,0,0,.17-.31.37.37,0,0,0-.73,0,.37.37,0,0,0,.17.31V8a4.55,4.55,0,0,1-.78.24v-.9a.35.35,0,0,0-.1-.25L351.31,6a.19.19,0,0,0,0-.08.37.37,0,0,0-.73,0,.36.36,0,0,0,.37.37H351l1.15,1.16v.94a6.37,6.37,0,0,1-.68.06V8.1a.35.35,0,0,0-.1-.25L349.52,6V5.88a.36.36,0,0,0-.36-.37.37.37,0,1,0,0,.73h.08l1.89,1.89v.27h-.28a.43.43,0,0,0-.43.43v.26a.2.2,0,1,0,.39,0V8.82a0,0,0,0,1,0,0h.53a5.34,5.34,0,0,0,2.25-.45h0a2.87,2.87,0,0,0,.78-.54,3.27,3.27,0,0,0,.3-.35.26.26,0,0,1,.2-.1h0a.23.23,0,0,1,.19.1c.1.12.2.24.31.35a4.22,4.22,0,0,0,3.06,1H359a0,0,0,0,1,0,0v2.9a4.87,4.87,0,0,1-.48,2.08l-.23.4a.2.2,0,0,0,.07.27.17.17,0,0,0,.1,0,.18.18,0,0,0,.16-.09l.25-.44a6.63,6.63,0,0,0,.33-.88l.42.32v2.74a.36.36,0,0,0,.19.67.36.36,0,0,0,.19-.67V13.39a.34.34,0,0,0-.14-.28l-.57-.43a5.23,5.23,0,0,0,.1-1v-.15l1.26,1v.91a.38.38,0,0,0-.17.31.37.37,0,0,0,.73,0,.36.36,0,0,0-.17-.31Z"/><path d="M358.26,18.09V16.27a.36.36,0,0,0-.11-.25l-.45-.45a4.81,4.81,0,0,0,.51-.5.19.19,0,0,0,0-.27.18.18,0,0,0-.27,0,5,5,0,0,1-.67.63l-1.73,1.35a1,1,0,0,1-.57.19,1,1,0,0,1-.57-.19l-1.73-1.35a4.68,4.68,0,0,1-1.35-1.65,4.73,4.73,0,0,1-.48-2.08V10a.19.19,0,0,0-.2-.19.19.19,0,0,0-.19.19v1l-1.64,1.3a.37.37,0,0,0-.13.27v.93a.38.38,0,0,0-.17.31.37.37,0,0,0,.37.37.36.36,0,0,0,.35-.37.37.37,0,0,0-.16-.31v-.91l1.38-1.09v.24a4.47,4.47,0,0,0,.08.89l-.67.5a.35.35,0,0,0-.14.28v2.76a.38.38,0,0,0-.17.31.37.37,0,0,0,.36.37.36.36,0,0,0,.36-.37.34.34,0,0,0-.16-.3V13.41l.51-.38a4.63,4.63,0,0,0,.35.94,5.11,5.11,0,0,0,1.17,1.55l-.5.51a.31.31,0,0,0-.1.24V18.1a.35.35,0,0,0-.17.3.36.36,0,0,0,.36.37.37.37,0,0,0,.37-.37.35.35,0,0,0-.17-.3V16.29l.51-.52,1.72,1.34a1.38,1.38,0,0,0,.81.27,1.27,1.27,0,0,0,.8-.27l1.66-1.29.47.47V18.1a.33.33,0,0,0-.17.3.36.36,0,0,0,.36.37.37.37,0,0,0,.37-.37.38.38,0,0,0-.17-.31Z"/><circle cx="354.94" cy="16.46" r="0.22"/><path d="M355.16,8.07a.22.22,0,0,0-.22-.22.22.22,0,1,0,0,.44A.22.22,0,0,0,355.16,8.07Z"/><circle cx="358.51" cy="9.38" r="0.22"/><circle cx="351.34" cy="9.38" r="0.22"/><path d="M353,13.13a.19.19,0,0,0-.19.19v.87a.65.65,0,0,0,.65.64h3a.65.65,0,0,0,.65-.64v-2a.66.66,0,0,0-.4-.6v-.73a1.82,1.82,0,0,0-3.63,0v.79a.64.64,0,0,0-.29.53v.19a.2.2,0,0,0,.19.19.2.2,0,0,0,.2-.19v-.19a.25.25,0,0,1,.25-.25h3a.26.26,0,0,1,.26.25v2a.26.26,0,0,1-.26.26h-3a.25.25,0,0,1-.25-.26v-.86a.19.19,0,0,0-.2-.19Zm1.91-3.66a1.43,1.43,0,0,1,1.43,1.42v.68H356v-.68a1.08,1.08,0,0,0-2.16,0v.68h-.34v-.68a1.43,1.43,0,0,1,1.42-1.42Zm.69,2.1h-1.38v-.68a.69.69,0,0,1,1.38,0v.68Z"/><path d="M354.85,13.93h.22a0,0,0,0,0,.05,0V13.5a.05.05,0,0,1,0,0,.41.41,0,0,0,.25-.38.43.43,0,0,0-.86,0,.42.42,0,0,0,.25.41.05.05,0,0,1,0,0v.38a0,0,0,0,0,.05,0Z"/><path class="cls-43" d="M336.31,58.84l.53-.53.75.75-.53.53Z"/><path class="cls-44" d="M336.31,58.84l.53-.53.75.75-.53.53Z"/><path class="cls-45" d="M336.31,58.84l.25-.25.76.75-.26.25Z"/><path class="cls-46" d="M329.47,52.42a.28.28,0,0,1,.28-.28h4.72l1.73,1.74v7.25a.28.28,0,0,1-.28.28h-6.17a.29.29,0,0,1-.28-.28V52.42Z"/><path class="cls-44" d="M335.92,61.07h-6.17a.29.29,0,0,1-.28-.28v.34a.29.29,0,0,0,.28.28h6.17a.28.28,0,0,0,.28-.28v-.34A.28.28,0,0,1,335.92,61.07Z"/><path class="cls-45" d="M334.75,53.88h1.45l-1.73-1.74v1.45A.28.28,0,0,0,334.75,53.88Z"/><path class="cls-45" d="M334.75,53.88h1.45l-1.73-1.74v1.45A.28.28,0,0,0,334.75,53.88Z"/><circle class="cls-45" cx="335.19" cy="57.18" r="2.33"/><path class="cls-47" d="M336.83,58.49a2.32,2.32,0,0,1-3.29,0,2.27,2.27,0,0,1-.67-1.48,2.31,2.31,0,0,0,.67,1.82,2.33,2.33,0,0,0,4-1.82A2.34,2.34,0,0,1,336.83,58.49Z"/><circle class="cls-48" cx="335.19" cy="57.18" r="1.68"/><path class="cls-30" d="M336.38,58a1.69,1.69,0,0,1-2.87-1,1.65,1.65,0,0,0,.49,1.36A1.68,1.68,0,0,0,336.86,57,1.68,1.68,0,0,1,336.38,58Z"/><path class="cls-49" d="M335,57.88a.29.29,0,0,1-.21-.09l-.38-.37a.3.3,0,0,1,.41-.43l.17.18.53-.55a.31.31,0,0,1,.42,0,.3.3,0,0,1,0,.42l-.73.75a.3.3,0,0,1-.21.09Z"/><path class="cls-32" d="M336,56.7l-.73.75a.3.3,0,0,1-.21.09.32.32,0,0,1-.21-.08l-.38-.38,0,0a.29.29,0,0,0,0,.38l.38.37a.29.29,0,0,0,.21.09.3.3,0,0,0,.21-.09L336,57a.29.29,0,0,0,0-.37l0,0Z"/><path class="cls-34" d="M337.7,59l-.74.74.89.88a.51.51,0,0,0,.74,0,.53.53,0,0,0,0-.74Z"/><path class="cls-35" d="M338.1,60.33l-.89-.89-.25.26.89.88a.51.51,0,0,0,.74,0,.56.56,0,0,0,.1-.15.52.52,0,0,1-.59-.1Z"/><path class="cls-49" d="M331.21,55.68h-.61a.17.17,0,0,1-.17-.18v-.61a.18.18,0,0,1,.17-.17h.61a.18.18,0,0,1,.18.17v.61A.18.18,0,0,1,331.21,55.68Z"/><path class="cls-49" d="M331.21,57.64h-.61a.17.17,0,0,1-.17-.17v-.61a.18.18,0,0,1,.17-.18h.61a.18.18,0,0,1,.18.18v.61A.18.18,0,0,1,331.21,57.64Z"/><path class="cls-49" d="M331.21,59.65h-.61a.17.17,0,0,1-.17-.18v-.61a.18.18,0,0,1,.17-.17h.61a.18.18,0,0,1,.18.17v.61A.18.18,0,0,1,331.21,59.65Z"/><path class="cls-32" d="M331.21,55.34h-.61a.17.17,0,0,1-.17-.17v.33a.18.18,0,0,0,.17.18h.61a.18.18,0,0,0,.18-.18v-.33A.18.18,0,0,1,331.21,55.34Z"/><path class="cls-32" d="M331.21,57.31h-.61a.17.17,0,0,1-.17-.18v.34a.17.17,0,0,0,.17.17h.61a.18.18,0,0,0,.18-.17v-.34A.18.18,0,0,1,331.21,57.31Z"/><path class="cls-32" d="M331.21,59.31h-.61a.17.17,0,0,1-.17-.17v.33a.18.18,0,0,0,.17.18h.61a.18.18,0,0,0,.18-.18v-.33A.18.18,0,0,1,331.21,59.31Z"/><path class="cls-44" d="M334.47,53.6v.33a.27.27,0,0,0,.28.28h1.45v-.33h-1.45A.28.28,0,0,1,334.47,53.6Z"/><path d="M335,58a.44.44,0,0,0,.31-.13l.74-.76a.44.44,0,0,0,0-.61.43.43,0,0,0-.62,0L335,57l-.07-.08a.45.45,0,0,0-.62,0,.44.44,0,0,0,0,.62l.39.38A.45.45,0,0,0,335,58Zm-.5-.92a.16.16,0,0,1,.22,0l.17.17a.14.14,0,0,0,.2,0l.53-.54a.16.16,0,0,1,.22.22l-.73.75a.16.16,0,0,1-.22,0l-.39-.37a.16.16,0,0,1,0-.22Z"/><path d="M334,58.11a.13.13,0,0,0-.19,0,.12.12,0,0,0,0,.19,1.63,1.63,0,0,0,.17.2,1.83,1.83,0,1,0-.45-.74.14.14,0,0,0,.17.09.14.14,0,0,0,.1-.18,1.51,1.51,0,0,1,.38-1.56,1.55,1.55,0,0,1,2.18,0,1.5,1.5,0,0,1,.46,1.09,1.55,1.55,0,0,1-2.64,1.1,1.22,1.22,0,0,1-.15-.17Z"/><path d="M338.7,59.75l-.89-.89a.15.15,0,0,0-.2,0h0l-.35-.34a2.52,2.52,0,0,0,.4-1.19.15.15,0,0,0-.13-.15.14.14,0,0,0-.15.13,2.22,2.22,0,0,1-.64,1.41,2.18,2.18,0,0,1-1.55.64h0A2.19,2.19,0,0,1,333,57.18a2.19,2.19,0,0,1,3.74-1.55,2.18,2.18,0,0,1,.61,1.16.14.14,0,1,0,.27,0,2.35,2.35,0,0,0-.68-1.3,2.45,2.45,0,0,0-.59-.44V53.87a.13.13,0,0,0,0-.1L334.57,52a.13.13,0,0,0-.1,0h-4.73a.42.42,0,0,0-.42.42v1.18a.14.14,0,0,0,.14.14.14.14,0,0,0,.14-.14V52.41a.15.15,0,0,1,.15-.14h4.58v1.32a.42.42,0,0,0,.42.42h1.32v.86a2.72,2.72,0,0,0-.85-.16h-3.14a.14.14,0,0,0-.14.14.14.14,0,0,0,.14.14h2a2.44,2.44,0,0,0-.56.41h-1.41a.14.14,0,0,0-.14.14.14.14,0,0,0,.14.14h1.15a2.41,2.41,0,0,0-.46,1h-.69a.14.14,0,0,0,0,.28h.65a1.62,1.62,0,0,0,0,.22,1.09,1.09,0,0,0,0,.18h-.65a.14.14,0,0,0-.14.14.14.14,0,0,0,.14.14h.68a2.7,2.7,0,0,0,.47,1h-1.15a.14.14,0,0,0-.14.14.14.14,0,0,0,.14.14h1.41a2.73,2.73,0,0,0,.56.4h-2a.14.14,0,0,0,0,.28h3.11a2.63,2.63,0,0,0,.88-.16v1.64a.14.14,0,0,1-.14.14h-6.19a.14.14,0,0,1-.14-.14v-7a.14.14,0,0,0-.28,0v7a.42.42,0,0,0,.42.42h6.19a.42.42,0,0,0,.42-.42V59.36l.18-.11.35.34a.14.14,0,0,0,0,.21l.89.88a.66.66,0,1,0,.94-.93Zm-3.95-6a.14.14,0,0,1-.14-.14V52.47l1.26,1.26Zm2,5.36.18-.16a1.22,1.22,0,0,0,.15-.17l.32.31-.34.33Zm1.74,1.4a.39.39,0,0,1-.55,0l-.78-.79.54-.54.79.79A.4.4,0,0,1,338.5,60.49Z"/><path d="M330.6,55.82h.61a.32.32,0,0,0,.31-.32v-.61a.31.31,0,0,0-.31-.32h-.61a.32.32,0,0,0-.32.32v.61A.32.32,0,0,0,330.6,55.82Zm0-.93a0,0,0,0,1,0,0h.62a0,0,0,0,1,0,0v.61s0,0,0,0h-.62a0,0,0,0,1,0,0Z"/><path d="M330.28,57.47a.31.31,0,0,0,.31.31h.62a.31.31,0,0,0,.31-.31v-.61a.31.31,0,0,0-.31-.32h-.62a.31.31,0,0,0-.31.32Zm.28-.61a0,0,0,0,1,0,0h.62s0,0,0,0v.61a0,0,0,0,1,0,0h-.62a0,0,0,0,1,0,0Z"/><path d="M330.28,59.48a.31.31,0,0,0,.31.31h.62a.31.31,0,0,0,.31-.31v-.61a.31.31,0,0,0-.31-.32h-.62a.31.31,0,0,0-.31.32Zm.28-.61a0,0,0,0,1,0,0h.62s0,0,0,0v.61a0,0,0,0,1,0,0h-.62a0,0,0,0,1,0,0Z"/></g></g></svg>