<svg height="512" viewBox="0 0 58 58" width="512" xmlns="http://www.w3.org/2000/svg"><g id="015---Scalability" fill="none"><path id="Path" d="m28 46v10c-.0032948 1.1032019-.8967981 1.9967052-2 2h-24c-1.10320187-.0032948-1.9967052-.8967981-2-2v-24c.0032948-1.1032019.89679813-1.9967052 2-2h10z" fill="#3c99f3"/><rect id="Rectangle" fill="#006dd9" height="46" rx="2" width="46" x="12"/><g fill="#f1f3f6"><path id="Path" d="m16.032 40.7 1.225-4.9c.091369-.3669846.3732026-.656378.7376408-.7574268.3644381-.1010487.7550554.0018924 1.0223592.2694268l3.675 3.675c.2675344.2673038.3704755.6579211.2694268 1.0223592-.1010488.3644382-.3904422.6462718-.7574268.7376408l-4.9 1.225c-.3573437.0886851-.7350317-.0162772-.9953773-.2766227-.2603455-.2603456-.3653078-.6380336-.2766227-.9953773z"/><path id="Path" d="m54 5.305-1.225 4.9c-.091369.3669846-.3732026.656378-.7376408.7574268-.3644381.1010487-.7550554-.0018924-1.0223592-.2694268l-3.675-3.676c-.2668928-.26756144-.3694113-.65790755-.2684351-1.02208426.1009763-.36417672.3898678-.6459955.7564351-.73791574l4.9-1.225c.3576517-.08946322.7360135.01539001.996601.2761823.2605874.26079229.3651433.63923639.275399.9968177z"/><path id="Path" d="m20.01 39c-.4043959-.0000863-.7689341-.2437275-.923678-.6173454-.1547439-.373618-.0692299-.8036603.216678-1.0896546l30.012-30c.3923789-.37897221 1.0160848-.37355237 1.4018186.01218142.3857338.3857338.3911536 1.00943969.0121814 1.40181858l-30.012 30c-.1874927.1875494-.4418052.2929434-.707.293z"/></g></g></svg>