<?xml version="1.0" encoding="utf-8"?>
<!-- Generator: Adobe Illustrator 23.0.6, SVG Export Plug-In . SVG Version: 6.00 Build 0)  -->
<svg version="1.1" id="Layer_1" xmlns="http://www.w3.org/2000/svg" xmlns:xlink="http://www.w3.org/1999/xlink" x="0px" y="0px"
	 viewBox="0 0 1155 473" style="enable-background:new 0 0 1155 473;" xml:space="preserve">
<style type="text/css">
	.st0{clip-path:url(#SVGID_2_);fill:url(#SVGID_3_);}
	.st1{fill:none;}
	.st2{fill:#E3E3E3;}
	.st3{fill:#DB4F5D;}
	.st4{fill:#EDC0AA;}
	.st5{fill:#E0A489;}
	.st6{fill:#282828;}
	.st7{fill:#3B3B3D;}
	.st8{fill:#EFEFF0;}
	.st9{fill:#CED0D1;}
	.st10{fill:#D1515E;}
	.st11{fill:#F2C4AE;}
	.st12{fill:#864242;}
	.st13{fill:#323232;}
	.st14{fill:none;stroke:#FFFFFF;stroke-width:2.1029;stroke-miterlimit:10;stroke-dasharray:6.3294,6.3294;}
	.st15{fill:#454440;}
	.st16{fill:#E6C783;}
	.st17{fill:#DB6489;}
	.st18{fill:#F0E3B9;}
	.st19{fill:#D16985;}
	.st20{fill:#D86D25;}
	.st21{fill:#D6D6D6;}
	.st22{fill:#5BACDB;}
	.st23{fill:#54AAD1;}
	.st24{fill:#BC1E2D;}
	.st25{fill:#FFCEB7;}
	.st26{fill:#895A59;}
	.st27{fill:#DA251D;}
	.st28{fill:#C4211A;}
	.st29{fill:#EFEFEF;}
	.st30{fill:#4B3118;}
	.st31{fill:#DBB19D;}
	.st32{fill:#5592DB;}
	.st33{fill:#3B2314;}
	.st34{fill:#603813;}
	.st35{fill:#518BD1;}
	.st36{fill:#404041;}
	.st37{fill:#7F3F95;}
	.st38{fill:#FFC7AD;}
	.st39{fill:#A753C4;}
	.st40{fill:#EBBEA8;}
	.st41{fill:#D1443B;}
	.st42{fill:#DE4840;}
	.st43{fill:#A83731;}
	.st44{fill:#F35B74;}
	.st45{fill:#F0BBA3;}
	.st46{fill:#26A7DE;}
	.st47{fill:none;stroke:#FFFFFF;stroke-width:2.1029;stroke-miterlimit:10;}
	.st48{fill:none;stroke:#F92B2B;stroke-width:2.1029;stroke-miterlimit:10;}
	.st49{fill:none;stroke:#69B720;stroke-width:2.1029;stroke-miterlimit:10;stroke-dasharray:6.3086;}
	.st50{fill:none;stroke:#FFFFFF;stroke-width:2.1029;stroke-miterlimit:10;stroke-dasharray:6.3086;}
	.st51{fill:#FFFFFF;stroke:#FFFFFF;stroke-width:1.3879;stroke-miterlimit:10;}
	.st52{fill:none;stroke:#69B720;stroke-width:2.1029;stroke-miterlimit:10;stroke-dasharray:5.58;}
	.st53{font-family:'Helvetica-Bold';}
	.st54{font-size:10.5143px;}
	.st55{fill:none;stroke:#C0590F;stroke-width:2.6361;stroke-miterlimit:10;}
	.st56{font-size:11.5446px;}
	.st57{fill-rule:evenodd;clip-rule:evenodd;fill:#C0590F;}
	.st58{fill-rule:evenodd;clip-rule:evenodd;fill:#69B720;}
	.st59{font-size:16.8229px;}
	.st60{font-family:'Helvetica';}
	.st61{fill:none;stroke:#C0590F;stroke-width:2.636;stroke-miterlimit:10;stroke-dasharray:5.58,5.58;}
	.st62{fill:#C0590F;}
	.st63{fill:#FFFFFF;}
	.st64{font-family:'MyriadPro-Regular';}
</style>
<g>
	<defs>
		<rect id="SVGID_1_" x="0.38" y="0.08" width="1159.2" height="478.8"/>
	</defs>
	<clipPath id="SVGID_2_">
		<use xlink:href="#SVGID_1_"  style="overflow:visible;"/>
	</clipPath>
	
		<radialGradient id="SVGID_3_" cx="214.1253" cy="231.1816" r="815.262" gradientTransform="matrix(2.3759 0 0 1.1192 72.2516 -38.7373)" gradientUnits="userSpaceOnUse">
		<stop  offset="0" style="stop-color:#1B4D75"/>
		<stop  offset="0.0353" style="stop-color:#19476C"/>
		<stop  offset="0.203" style="stop-color:#102E45"/>
		<stop  offset="0.3693" style="stop-color:#091A27"/>
		<stop  offset="0.5317" style="stop-color:#040B11"/>
		<stop  offset="0.6885" style="stop-color:#010304"/>
		<stop  offset="0.8333" style="stop-color:#000000"/>
	</radialGradient>
	<ellipse class="st0" cx="581" cy="220" rx="1937" ry="912.44"/>
</g>
<g>
	<g>
		<g>
			<g>
				<polygon class="st1" points="137.23,95.54 137,95.86 137,95.86 137.23,95.54 				"/>
				<polygon class="st1" points="133,90.01 132.3,89.32 133,90.01 				"/>
				<polygon class="st1" points="141.57,95.74 141.65,95.86 141.65,95.86 141.57,95.74 				"/>
				<polygon class="st1" points="146.66,95.86 148.07,91.53 146.66,95.86 				"/>
				<polygon class="st1" points="145.66,90.01 146.36,89.32 145.66,90.01 				"/>
				<polygon class="st1" points="132,95.86 132,95.86 130.59,91.53 				"/>
				<polygon class="st2" points="146.66,95.86 145.05,100.8 141.65,95.86 141.65,95.86 142.49,97.08 140.44,99.89 141.19,103.57 
					144.14,103.57 146.66,95.86 				"/>
				<path class="st2" d="M136.2,97.04l0.81-1.17l0,0l-3.39,4.94L132,95.86l0,0l2.52,7.71h2.52l1.06-3.68
					C137.46,98.94,136.83,97.99,136.2,97.04z"/>
				<path class="st3" d="M139.28,99.62c-0.56,0-0.98,0.17-1.18,0.28l-1.06,3.68h4.16l-0.76-3.68
					C140.23,99.79,139.82,99.62,139.28,99.62z"/>
				<path class="st4" d="M133,90.01L133,90.01L133,90.01l4.76,4.76h3.15l4.76-4.76l0,0l0,0l-0.09-0.69l-0.73-5.37l0,0l0.4,2.92
					c-0.79,1.03-4.53,3.13-6.12,3.14c-1.54,0.02-5.52-2.68-5.8-2.88l-0.24,2.18l0,0L133,90.01z"/>
				<polygon class="st4" points="141.57,95.74 140.91,94.77 141.57,95.74 				"/>
				<polygon class="st4" points="137.75,94.77 137.23,95.54 137.23,95.54 				"/>
				<polygon class="st4" points="136.94,84.61 133.56,84.89 133.37,86.59 133.59,85.11 				"/>
				<path class="st5" d="M145.24,86.87l-0.4-2.92l-0.07-0.53l-7.83,1.18l-3.35,0.51l-0.21,1.48l-0.08,0.54c0,0,0.01,0,0.02,0.01
					c0.28,0.19,4.26,2.89,5.8,2.88C140.71,90,144.45,87.9,145.24,86.87z"/>
				<path class="st6" d="M130.74,100.6l-4.53-1.96l2.17-6.5l-11.28,3.28c0,0-2.38,2.38-5.59,8.16h16.77l-0.86-2.01L130.74,100.6z"/>
				<polygon class="st7" points="130.59,91.53 132.3,89.32 128.57,91.53 128.37,92.13 126.21,98.64 130.74,100.6 127.42,101.56 
					128.27,103.57 133.3,103.57 134.52,103.57 132,95.86 				"/>
				<polygon class="st8" points="132,95.86 133.61,100.8 137,95.86 137.23,95.54 137.75,94.77 133,90.01 132.3,89.32 130.59,91.53 
									"/>
				<polygon class="st9" points="133,90.01 133.07,89.32 133.07,89.32 132.3,89.32 133,90.01 				"/>
				<path class="st6" d="M161.57,95.41l-11.28-3.28l2.17,6.5l-4.53,1.96l3.32,0.96l-0.86,2.01h16.77
					C163.95,97.79,161.57,95.41,161.57,95.41z"/>
				<polygon class="st7" points="147.92,100.6 152.45,98.64 150.28,92.13 150.08,91.53 146.36,89.32 148.07,91.53 146.66,95.86 
					144.14,103.57 145.36,103.57 150.39,103.57 151.24,101.56 				"/>
				<polygon class="st8" points="140.91,94.77 141.57,95.74 141.65,95.86 145.05,100.8 146.66,95.86 148.07,91.53 146.36,89.32 
					145.66,90.01 				"/>
				<polygon class="st9" points="145.66,90.01 146.36,89.32 145.57,89.32 145.57,89.32 145.66,90.01 				"/>
				<path class="st10" d="M140.91,94.77h-3.15l-0.53,0.77L137,95.86l-0.81,1.17c0.63,0.95,1.26,1.91,1.9,2.86
					c0.21-0.1,0.63-0.28,1.18-0.28c0.54,0,0.95,0.17,1.16,0.28l2.05-2.81l-0.84-1.22l-0.08-0.12L140.91,94.77z"/>
			</g>
			<path class="st11" d="M149.31,69.88c0,0,0.72-14.1-10.72-14.05c-11.43-0.05-10.72,14.05-10.72,14.05
				c-1.32-0.08-2.8-0.11-2.49,3.48c0.3,3.59,3.64,3.93,3.64,3.93c0.2,3.63,2.52,7.15,4.23,8.66c1.71,1.51,5.34,1.51,5.34,1.51
				s3.63,0,5.34-1.51c1.71-1.51,4.03-5.04,4.23-8.66c0,0,3.34-0.34,3.64-3.93C152.11,69.76,150.64,69.8,149.31,69.88z"/>
			<path class="st12" d="M126.5,60.58c1.71-5.84,12.32-10.02,18.87-5.34c0.2-0.92,0.74-1.24,1.95-1.53
				c-0.63,0.69-0.96,1.03-0.83,1.6c0.53-0.65,1.26-0.53,2.09-0.44c-0.9,0.18-1.42,0.67-1.63,1.25c1.54,0.24,5.39,2.91,4.69,7.06
				c-1.17,6.97-1.36,6.7-1.36,6.7s-1.06,0.83-1.51,3.1c0,0-0.53-6.42-0.76-7.4c-0.23-0.98-2.19-3.93-2.19-3.93
				s-6.46,5.09-11.67,4.33c0,0,1.76-1.18,0.77-2.93c-0.66,0.93-1.49,2.81-3.79,2.71c0.82-0.6,0.89-1.31,0.6-2.24
				c-0.49,0.98-2.51,2.23-2.69,2.07l-0.45,6.65c0,0-0.55-2.41-2.09-2.25C126.5,69.97,125.72,63.24,126.5,60.58z"/>
			<path class="st13" d="M140.54,69.83c-0.61,0.2-1.34,0.49-1.95,0.49s-1.34-0.29-1.95-0.49c-1.54-0.51-5.25-0.85-7.88-0.21
				c-0.34,0.08-0.57,0.39-0.55,0.73l0.02,0.34c0.01,0.26,0.17,0.48,0.4,0.6c0.11,0.06,0.21,0.17,0.27,0.37
				c0.16,0.53,0.53,2.7,1.2,3.55c0.83,1.06,2.63,1.1,3.85,1.04c1.64-0.07,2.71-0.8,3.17-2.03c0.46-1.23,0.72-2.29,1.01-2.62
				c0.16-0.18,0.34-0.19,0.48-0.19c0.14,0,0.32,0.01,0.48,0.19c0.29,0.33,0.55,1.39,1.01,2.62c0.46,1.23,1.53,1.96,3.17,2.03
				c1.22,0.05,3.01,0.01,3.85-1.04c0.67-0.85,1.04-3.03,1.2-3.55c0.06-0.2,0.16-0.31,0.27-0.37c0.23-0.12,0.38-0.34,0.4-0.6
				l0.02-0.34c0.02-0.34-0.21-0.65-0.55-0.73C145.79,68.98,142.08,69.32,140.54,69.83z M136.37,74.23
				c-0.44,0.83-1.18,1.25-2.29,1.39c-1.11,0.14-2.43-0.08-3.1-0.47c-0.59-0.35-0.87-1.46-1.01-2.13c-0.14-0.67-0.39-2.11,0.3-2.59
				c0.69-0.47,2.41-0.51,3.55-0.44c0.86,0.05,2.73,0.28,3.08,0.95C137.25,71.61,136.73,73.56,136.37,74.23z M147.21,73.01
				c-0.14,0.67-0.43,1.78-1.01,2.13c-0.67,0.4-1.99,0.62-3.1,0.47s-1.85-0.56-2.29-1.39c-0.36-0.67-0.88-2.62-0.53-3.29
				c0.35-0.67,2.22-0.9,3.08-0.95c1.14-0.07,2.87-0.04,3.55,0.44C147.6,70.9,147.35,72.35,147.21,73.01z"/>
		</g>
		<g>
			<circle class="st14" cx="138.52" cy="82.62" r="36.27"/>
		</g>
	</g>
	<g>
		<g>
			<path class="st11" d="M407.56,355.41c0,0,0.72-14.1-10.72-14.05c-11.43-0.05-10.72,14.05-10.72,14.05
				c-1.32-0.08-2.8-0.11-2.49,3.48s3.64,3.93,3.64,3.93c0.2,3.63,2.52,7.15,4.23,8.66c1.71,1.51,5.34,1.51,5.34,1.51
				s3.63,0,5.34-1.51c1.71-1.51,4.03-5.04,4.23-8.66c0,0,3.34-0.34,3.64-3.93S408.88,355.34,407.56,355.41z"/>
			<path class="st15" d="M403.8,340.64c0.03-0.08,0.06-0.15,0.09-0.23c0.32-0.69,0.84-1.03,1.56-1.19
				c-0.41-0.04-0.78-0.04-1.18,0.11c-0.4,0.15-0.76,0.44-1.04,0.77c-1.37-2.52-5.56-3.05-8.97-2.38
				c-11.3,2.23-10.73,10.91-8.33,17.68c0.21,0.09,0.68,0.19,0.84,0.52c0.33,0.66,0.45,0.45,0.45,0.45c0,0,0.04-3.25,0.04-4.15
				c-0.01-1.03,0.75-5.63,3.45-6.72c0.41-0.17,0.87-0.16,1.35-0.06c-0.71,1.65-0.23,3.07,0.09,3.83c0.73,1.78,1.83,1.91,1.83,1.91
				s-0.3-0.26,0.58-1.76c0.53-0.9,3.62-1.73,5.43-1.87c1.97-0.15,3.15-0.71,3.84-1.36c0.14,0.08,0.26,0.19,0.36,0.32
				c0.9,1.27,2.62,4.67,2.61,5.7c0,0.9,0.04,4.15,0.04,4.15c0,0,0.13,0.21,0.45-0.45c0.16-0.33,0.39-0.46,0.6-0.55
				C409.1,350.93,411.61,342.55,403.8,340.64z"/>
			<path class="st13" d="M407.15,355.85c-0.07-0.48-0.26-0.21-0.78-0.23c0-0.01-0.01-0.02-0.01-0.04c-0.64-1.69-3.22-1.88-3.73-1.9
				c-1.49-0.06-2.62,0.32-3.36,1.11c-0.22,0.24-0.4,0.51-0.54,0.81l-0.03-0.57l-0.03-0.03c-0.02-0.02-0.38-0.7-1.73-0.7
				c-1.28,0-1.68,0.67-1.7,0.7l0,0.03l-0.02,0.55c-0.14-0.3-0.32-0.57-0.54-0.8c-0.74-0.79-1.88-1.17-3.36-1.11
				c-0.51,0.02-3.09,0.2-3.73,1.9c-0.01,0.01-0.01,0.03-0.02,0.04c-0.51,0.01-0.71-0.25-0.77,0.23c-0.06,0.43,0.28,0.46,0.6,0.46
				c-0.24,1.46,0.18,3.3,1.36,4.2c0.68,0.53,1.54,0.77,2.47,0.77c0,0,0,0,0,0c0.84,0,1.68-0.19,2.37-0.62
				c1.34-0.82,1.99-2.54,1.93-3.84c-0.01-0.17-0.03-0.34-0.06-0.51l0.01,0l0.03-1.18c0.09-0.09,0.52-0.41,1.44-0.41
				c0.99,0,1.38,0.32,1.47,0.41l0.07,1.18l0.01,0c-0.03,0.17-0.06,0.34-0.06,0.51c-0.06,1.3,0.59,3.04,1.93,3.87
				c0.69,0.42,1.53,0.65,2.37,0.65c0.93,0,1.79-0.28,2.47-0.81c1.18-0.91,1.6-2.78,1.35-4.24
				C406.87,356.31,407.21,356.28,407.15,355.85z M393.44,360.46c-0.64,0.4-1.43,0.61-2.22,0.61c-0.87,0-1.66-0.26-2.3-0.75
				c-0.6-0.46-1.03-1.25-1.22-2.2c-0.16-0.85-0.11-1.76,0.15-2.44c0.21-0.57,0.71-1.01,1.48-1.32c0.81-0.32,1.66-0.39,1.99-0.4
				c0.09,0,0.19-0.01,0.28-0.01c3.34,0,3.61,2.4,3.63,2.88C395.29,358.06,394.69,359.69,393.44,360.46z M406.24,358.12
				c-0.18,0.96-0.61,1.74-1.22,2.2c-0.63,0.49-1.43,0.75-2.3,0.75c-0.79,0-1.58-0.22-2.22-0.61c-1.25-0.77-1.85-2.4-1.79-3.61
				c0.02-0.48,0.3-2.88,3.63-2.88c0.09,0,0.19,0,0.28,0.01c0.33,0.01,1.19,0.08,1.99,0.4c0.77,0.31,1.27,0.75,1.48,1.32
				C406.35,356.36,406.4,357.27,406.24,358.12z"/>
			<g>
				<polygon class="st1" points="403.91,375.55 404.6,374.85 403.91,375.55 				"/>
				<path class="st16" d="M419.81,380.95l-13.51-3.86l-3.02,9.25l-3.47-5.06l0,0l0.92,1.34l-2.05,2.81l0.76,3.68h25.97
					C422.19,383.33,419.81,380.95,419.81,380.95z"/>
				<path class="st16" d="M394.44,382.57l1.03-1.49l0,0l-3.61,5.26l-2.98-9.13l-13.54,3.74c0,0-2.38,2.38-5.59,8.16h25.54l1.06-3.68
					C395.71,384.48,395.08,383.53,394.44,382.57z"/>
				<path class="st4" d="M391.69,371.63c-0.01,0-0.01-0.01-0.02-0.01l-0.06,0.51L391.69,371.63
					C391.69,371.63,391.69,371.63,391.69,371.63z"/>
				<path class="st4" d="M402.43,371.25c-0.08,0.08-0.17,0.16-0.25,0.23C402.26,371.41,402.35,371.33,402.43,371.25z"/>
				<path class="st4" d="M402.7,370.98c0.08-0.09,0.17-0.18,0.25-0.27C402.86,370.8,402.78,370.9,402.7,370.98z"/>
				<path class="st4" d="M402.44,371.24c0.08-0.08,0.17-0.16,0.25-0.25C402.6,371.08,402.52,371.16,402.44,371.24z"/>
				<polygon class="st4" points="399.82,381.28 399.82,381.28 399.15,380.31 				"/>
				<polygon class="st4" points="395.47,381.08 395.47,381.08 396,380.31 				"/>
				<path class="st4" d="M396,380.31h3.15l4.76-4.76l0,0l0,0l-0.09-0.69l-0.6-4.45c-0.08,0.1-0.16,0.19-0.25,0.28
					c0.08-0.09,0.16-0.18,0.24-0.28l0.27,2c-0.79,1.03-4.53,3.13-6.12,3.14c-1.54,0.02-5.52-2.68-5.8-2.88l-0.32,2.88L396,380.31z"
					/>
				<path class="st17" d="M397.52,385.15c-0.56,0-0.98,0.17-1.18,0.28l-1.06,3.68h2.35h1.8l-0.76-3.68
					C398.48,385.33,398.07,385.16,397.52,385.15z"/>
				<polygon class="st18" points="395.47,381.08 396,380.31 391.24,375.55 390.55,374.85 388.84,377.07 388.88,377.21 
					391.86,386.34 				"/>
				<polygon class="st9" points="391.32,374.85 390.55,374.85 391.24,375.55 				"/>
				<polygon class="st18" points="399.15,380.31 399.82,381.28 403.29,386.34 406.31,377.09 406.32,377.07 404.6,374.85 
					403.91,375.55 				"/>
				<polygon class="st9" points="403.91,375.55 404.6,374.85 403.82,374.85 403.82,374.86 403.91,375.55 				"/>
				<path class="st19" d="M396,380.31l-0.53,0.77l-1.03,1.49c0.63,0.95,1.26,1.91,1.9,2.86c0.21-0.1,0.63-0.28,1.18-0.28
					c0.54,0,0.95,0.17,1.16,0.28l2.05-2.81l-0.92-1.34l-0.67-0.97H396z"/>
				<path class="st5" d="M397.36,375.55c1.6-0.02,5.34-2.11,6.12-3.14l-0.27-2c-0.08,0.1-0.16,0.19-0.24,0.28
					c-0.01,0.01-0.01,0.01-0.02,0.02c-0.08,0.09-0.17,0.19-0.25,0.27c0,0-0.01,0.01-0.01,0.01c-0.08,0.09-0.17,0.17-0.25,0.25
					c0,0,0,0-0.01,0.01c-0.08,0.08-0.17,0.16-0.25,0.23c-1.71,1.51-5.34,1.51-5.34,1.51s-3.38,0-5.15-1.36c0,0,0,0,0,0l-0.07,0.49
					l-0.08,0.54c0,0,0.01,0,0.02,0.01C391.84,372.87,395.82,375.57,397.36,375.55z"/>
			</g>
		</g>
		<g>
			<circle class="st14" cx="396.65" cy="367.03" r="36.27"/>
		</g>
	</g>
	<g>
		<g>
			<path class="st11" d="M607.79,355.41c0,0,0.72-14.1-10.72-14.05c-11.43-0.05-10.72,14.05-10.72,14.05
				c-1.32-0.08-2.8-0.11-2.49,3.48c0.3,3.59,3.64,3.93,3.64,3.93c0.2,3.63,2.52,7.15,4.23,8.66c1.71,1.51,5.34,1.51,5.34,1.51
				s3.63,0,5.34-1.51c1.71-1.51,4.03-5.04,4.23-8.66c0,0,3.34-0.34,3.64-3.93C610.58,355.3,609.11,355.34,607.79,355.41z"/>
			<g>
				<path class="st20" d="M607.84,343.08c0.81-0.95,1.62-1.87,1.07-3.88c-0.58,0.54-2.51,0.38-2.85,0.14
					c0.77-0.47,1.69-1.41,0.94-2.94c-4.86,1.33-15.29-1.87-18.51,3.97c0.04-0.71-0.24-1.04-0.77-1.12c0.21,0.65,0.22,0.92-0.02,1.35
					c-0.32-0.57-0.55-0.93-1.36-0.57c0.51,0.54,0.55,0.83,0.5,1.79c-1.51,0.74-3.28,3.41-2.52,8.85c0.76,4.02,1.02,4.68,1.02,4.66
					c0,0,1.05,0.78,1.52,3.18c0,0.02,0.49-6.82,0.71-7.91c0.22-1.06,2.16-4.56,2.16-4.57c-0.01-0.04,4.38,2.17,9.69,3.1
					c1.42,0.23,4.48,0.33,7.41-0.49c0.07,3.03,0.14,6.05,0.21,9.06c0,0,0.56-2.6,2.09-2.33c0-0.01,0.33-3.79,0.41-7.18
					c1.69-1.35,1.9-3.31,1.67-4.71C610.79,343.64,608.74,343.61,607.84,343.08z"/>
			</g>
			<g>
				<polygon class="st1" points="604.14,375.55 604.83,374.85 604.14,375.55 				"/>
				<path class="st21" d="M594.67,382.57l1.03-1.49l0,0l-3.61,5.26l-2.98-9.13l-13.54,3.74c0,0-2.38,2.38-5.59,8.16h25.54l1.06-3.68
					C595.94,384.48,595.31,383.53,594.67,382.57z"/>
				<path class="st21" d="M620.04,380.95l-13.51-3.86l-3.02,9.25l-2.76-4.03l0.21,0.31l-2.05,2.81l0.76,3.68h25.97
					C622.42,383.33,620.04,380.95,620.04,380.95z"/>
				<path class="st4" d="M602.66,371.25c-0.08,0.08-0.17,0.16-0.25,0.23C602.49,371.41,602.58,371.33,602.66,371.25z"/>
				<path class="st4" d="M591.92,371.63c-0.01,0-0.01-0.01-0.02-0.01l-0.06,0.51L591.92,371.63
					C591.92,371.63,591.92,371.63,591.92,371.63z"/>
				<path class="st4" d="M602.67,371.24c0.08-0.08,0.17-0.16,0.25-0.25C602.83,371.08,602.75,371.16,602.67,371.24z"/>
				<polygon class="st4" points="595.7,381.08 595.7,381.08 596.23,380.31 				"/>
				<path class="st4" d="M596.23,380.31h3.15l4.76-4.76l0,0l0,0l-0.09-0.7l0,0l-0.6-4.45c-0.17,0.21-0.35,0.4-0.51,0.58
					c0.17-0.18,0.34-0.37,0.51-0.57l0.27,2c-0.79,1.03-4.53,3.13-6.12,3.14c-1.54,0.02-5.52-2.68-5.8-2.88l-0.32,2.88L596.23,380.31
					z"/>
				<path class="st22" d="M597.75,385.15c-0.56,0-0.98,0.17-1.18,0.28l-1.06,3.68h2.35h1.8l-0.76-3.68
					C598.7,385.33,598.3,385.16,597.75,385.15z"/>
				<polygon class="st8" points="595.7,381.08 596.23,380.31 591.47,375.55 591.47,375.55 590.78,374.85 589.06,377.07 
					589.11,377.21 592.09,386.34 				"/>
				<polygon class="st9" points="591.55,374.85 590.78,374.85 591.47,375.55 				"/>
				<polygon class="st8" points="599.38,380.31 599.38,380.31 600.76,382.31 603.52,386.34 606.54,377.09 606.54,377.07 
					604.83,374.85 604.14,375.55 				"/>
				<polygon class="st9" points="604.14,375.55 604.14,375.55 604.83,374.85 604.04,374.85 604.04,374.85 				"/>
				<path class="st23" d="M599.38,380.31L599.38,380.31h-3.15l-0.53,0.77l-1.03,1.49c0.63,0.95,1.26,1.91,1.9,2.86
					c0.21-0.1,0.63-0.28,1.18-0.28c0.54,0,0.95,0.17,1.16,0.28l2.05-2.81l-0.21-0.31L599.38,380.31z"/>
				<path class="st5" d="M597.59,375.55c1.6-0.02,5.34-2.11,6.12-3.14l-0.27-2c-0.17,0.21-0.34,0.4-0.51,0.57
					c0,0-0.01,0.01-0.01,0.01c-0.08,0.09-0.17,0.17-0.25,0.25c0,0,0,0-0.01,0.01c-0.08,0.08-0.17,0.16-0.25,0.23
					c-1.71,1.51-5.34,1.51-5.34,1.51s-3.37,0-5.15-1.36c0,0,0,0,0,0l-0.07,0.49l-0.08,0.54c0,0,0.01,0,0.02,0.01
					C592.07,372.87,596.05,375.57,597.59,375.55z"/>
			</g>
		</g>
		<g>
			<circle class="st14" cx="597.99" cy="367.03" r="36.27"/>
		</g>
	</g>
	<g>
		<g>
			<path class="st1" d="M270.96,88.41c-0.23,0.03-0.39,0.08-0.49,0.15C270.63,88.51,270.79,88.46,270.96,88.41z"/>
			<path class="st1" d="M268.42,69.08c0.08,0.06,0.15,0.12,0.22,0.19c-0.01-0.08-0.02-0.18-0.02-0.3c-0.02,0.08-0.04,0.15-0.06,0.23
				C268.52,69.16,268.47,69.11,268.42,69.08z"/>
			<polygon class="st1" points="274.04,88.54 273.9,88.67 274.04,88.54 			"/>
			<path class="st24" d="M265.83,69.49c0.03-0.05,0.07-0.1,0.11-0.15c0,0,0.01-0.01,0.01-0.01c0.11-0.14,0.23-0.25,0.36-0.35
				c0.02-0.01,0.03-0.03,0.05-0.04c0.03-0.02,0.07-0.04,0.1-0.06c0.03-0.01,0.05-0.03,0.08-0.04c0.03-0.02,0.06-0.03,0.1-0.05
				c0.04-0.02,0.07-0.03,0.11-0.04c0.03-0.01,0.05-0.02,0.08-0.03c0.06-0.02,0.13-0.03,0.19-0.04c0.02,0,0.05-0.01,0.07-0.01
				c0.05-0.01,0.09-0.01,0.14-0.01c0.03,0,0.05,0,0.08,0c0.05,0,0.1,0,0.15,0.01c0.02,0,0.05,0,0.07,0.01
				c0.07,0.01,0.14,0.02,0.21,0.05c0.23,0.12,0.46,0.23,0.69,0.35c0.05,0.04,0.09,0.08,0.14,0.12c0.02-0.08,0.04-0.15,0.06-0.23
				c0,0,0,0,0,0c0-0.02,0.01-0.04,0.01-0.05c0.02-0.1,0.05-0.2,0.08-0.3c0.01-0.04,0.03-0.09,0.04-0.13c0.03-0.1,0.06-0.2,0.09-0.3
				c0.02-0.05,0.03-0.1,0.05-0.15c0.03-0.1,0.07-0.2,0.1-0.3c0.02-0.05,0.04-0.11,0.06-0.16c0.04-0.1,0.07-0.2,0.11-0.3
				c0.02-0.06,0.05-0.12,0.07-0.18c0.04-0.1,0.08-0.2,0.12-0.3c0.03-0.07,0.06-0.13,0.09-0.2c0.04-0.1,0.09-0.2,0.13-0.3
				c0.03-0.07,0.07-0.14,0.1-0.21c0.05-0.1,0.09-0.19,0.14-0.29c0.04-0.08,0.08-0.15,0.12-0.23c0.05-0.1,0.1-0.19,0.15-0.29
				c0.04-0.08,0.09-0.16,0.14-0.25c0.05-0.1,0.11-0.19,0.16-0.29c0.05-0.09,0.11-0.17,0.16-0.26c0.06-0.09,0.11-0.19,0.17-0.28
				c0.06-0.09,0.12-0.19,0.18-0.28c0.06-0.09,0.12-0.18,0.18-0.28c0.07-0.1,0.14-0.2,0.21-0.3c0.06-0.09,0.12-0.18,0.19-0.27
				c0.08-0.11,0.16-0.21,0.24-0.32c0.06-0.09,0.13-0.17,0.19-0.26c0.09-0.12,0.18-0.23,0.27-0.35c0.06-0.08,0.13-0.16,0.19-0.24
				c0.11-0.13,0.22-0.27,0.34-0.4c0.06-0.07,0.11-0.13,0.17-0.2c0.17-0.2,0.35-0.4,0.54-0.61c0,0-0.28,6.72,9.97,9.14
				c0.18,0.04,0.36,0.09,0.53,0.15c0.04,0.01,0.08,0.03,0.12,0.04c0.17,0.06,0.33,0.12,0.49,0.18c0.01,0,0.02,0.01,0.03,0.02
				c0.15,0.06,0.29,0.13,0.43,0.2c0.04,0.02,0.07,0.04,0.1,0.06c0.14,0.08,0.28,0.16,0.41,0.25c0.02,0.01,0.03,0.02,0.05,0.04
				c0.12,0.08,0.23,0.16,0.34,0.25c0.03,0.02,0.06,0.05,0.09,0.07c0.12,0.1,0.23,0.2,0.34,0.3c0.02,0.02,0.04,0.04,0.06,0.06
				c0.09,0.09,0.19,0.19,0.27,0.29c0.02,0.03,0.05,0.05,0.07,0.08c0.1,0.11,0.19,0.23,0.28,0.35c0.02,0.02,0.04,0.05,0.05,0.08
				c0.07,0.11,0.15,0.21,0.21,0.32c0.02,0.03,0.04,0.06,0.05,0.09c0.08,0.13,0.15,0.26,0.22,0.39c0.02,0.03,0.03,0.06,0.05,0.1
				c0.06,0.12,0.11,0.23,0.16,0.35c0.01,0.03,0.03,0.06,0.04,0.09c0.06,0.14,0.11,0.29,0.16,0.43c0.01,0.04,0.03,0.08,0.04,0.11
				c0.04,0.13,0.08,0.25,0.12,0.38c0.01,0.03,0.02,0.06,0.03,0.09c0.04,0.15,0.08,0.31,0.12,0.46c0.01,0.04,0.02,0.09,0.03,0.13
				c0.03,0.14,0.06,0.27,0.08,0.41c0.01,0.03,0.01,0.06,0.02,0.09c0.03,0.16,0.05,0.32,0.07,0.48c0.01,0.05,0.01,0.1,0.02,0.15
				c0.02,0.15,0.03,0.29,0.04,0.44c0,0.03,0.01,0.05,0.01,0.08c0.01,0.17,0.02,0.33,0.03,0.5c0,0.05,0,0.11,0.01,0.16
				c0.01,0.16,0.01,0.31,0.01,0.47c0,0.03,0,0.07,0,0.1c0,0.16,0,0.32,0,0.47c0,0.06,0,0.11,0,0.17c0,0.17-0.01,0.34-0.02,0.51
				c0,0,0,0,0,0l0,0c-0.12,2.28-0.59,4.63-1.12,6.66c4.98-6.36,6.46-11,6.49-15.01c0.17-19.74-14.39-18.67-14.39-18.67
				s-12.94-1.13-14.03,18.1c0.06-0.3,0.17-0.56,0.31-0.78C265.83,69.5,265.83,69.5,265.83,69.49z"/>
			<path class="st24" d="M279.55,85.26C279.55,85.26,279.55,85.26,279.55,85.26C279.55,85.26,279.55,85.26,279.55,85.26z"/>
			<path class="st24" d="M279.52,85.26c0.01,0,0.02,0,0.02,0S279.53,85.26,279.52,85.26z"/>
			<path class="st24" d="M279.47,85.26c0.01,0,0.02,0,0.03,0C279.49,85.26,279.48,85.26,279.47,85.26z"/>
			<path class="st24" d="M279.38,85.26c0.02,0,0.03,0,0.04,0C279.41,85.26,279.4,85.26,279.38,85.26z"/>
			<path class="st24" d="M279.77,85.25c0.01,0,0.02,0,0.03,0C279.79,85.25,279.78,85.25,279.77,85.25z"/>
			<path class="st24" d="M279.89,85.24c0.01,0,0.03,0,0.04,0C279.92,85.24,279.9,85.24,279.89,85.24z"/>
			<path class="st24" d="M279.27,85.25c0.02,0,0.04,0,0.05,0C279.31,85.25,279.29,85.25,279.27,85.25z"/>
			<path class="st24" d="M279.67,85.26C279.67,85.26,279.67,85.26,279.67,85.26C279.67,85.26,279.67,85.26,279.67,85.26z"/>
			<path class="st24" d="M279.59,85.26c0.01,0,0.01,0,0.02,0C279.6,85.26,279.59,85.26,279.59,85.26z"/>
			<path class="st24" d="M279.13,85.23c0.02,0,0.04,0,0.06,0.01C279.17,85.24,279.15,85.24,279.13,85.23z"/>
			<path class="st24" d="M277.22,84.79c0.04,0.01,0.08,0.03,0.13,0.04C277.31,84.82,277.27,84.8,277.22,84.79z"/>
			<path class="st24" d="M276.88,84.67c0.05,0.02,0.09,0.04,0.13,0.05C276.97,84.7,276.93,84.68,276.88,84.67z"/>
			<path class="st24" d="M277.55,84.9c0.04,0.01,0.08,0.02,0.12,0.03C277.62,84.92,277.59,84.91,277.55,84.9z"/>
			<path class="st24" d="M276.53,84.52c0.05,0.02,0.09,0.04,0.14,0.06C276.62,84.56,276.57,84.54,276.53,84.52z"/>
			<path class="st24" d="M278.96,85.21c0.02,0,0.04,0.01,0.06,0.01C279,85.22,278.98,85.22,278.96,85.21z"/>
			<path class="st24" d="M278.14,85.06c0.02,0.01,0.05,0.01,0.07,0.02C278.18,85.07,278.16,85.06,278.14,85.06z"/>
			<path class="st24" d="M280.05,85.22c0.01,0,0.02,0,0.03,0C280.07,85.22,280.06,85.22,280.05,85.22z"/>
			<path class="st24" d="M278.79,85.19c0.01,0,0.03,0,0.04,0.01C278.82,85.19,278.8,85.19,278.79,85.19z"/>
			<path class="st24" d="M277.85,84.99c0.03,0.01,0.07,0.02,0.1,0.03C277.92,85,277.89,84.99,277.85,84.99z"/>
			<path class="st24" d="M282.39,84.59c0.03-0.01,0.06-0.02,0.09-0.04C282.45,84.56,282.42,84.57,282.39,84.59z"/>
			<path class="st24" d="M281.79,84.81c0.01,0,0.02-0.01,0.03-0.01C281.81,84.8,281.8,84.81,281.79,84.81z"/>
			<path class="st24" d="M282.07,84.71c0.03-0.01,0.06-0.02,0.09-0.03C282.13,84.69,282.1,84.7,282.07,84.71z"/>
			<path class="st24" d="M280.24,85.19c0.01,0,0.03,0,0.04-0.01C280.27,85.19,280.25,85.19,280.24,85.19z"/>
			<path class="st24" d="M270.96,88.41c1.83-0.53,4.01-0.75,4.01-0.75l-0.94,0.88l0,0l2.15-2.03l0.06,0.06l0.02-0.99l0,0l0.03-1.17
				c0,0,0,0,0,0c-2.38-1.08-5.59-3.54-7.85-9.19c0,0-2.35,0.8-2.97-3.88c-0.01-0.04-0.01-0.08-0.01-0.13
				c-0.01,0.33-0.02,0.66-0.02,1c0,0,0,9.85,5.02,16.34c0,0,0,0,0,0C270.57,88.49,270.73,88.44,270.96,88.41z"/>
			<path class="st24" d="M288.04,79.98c-0.01,0.02-0.02,0.03-0.03,0.04c-0.09,0.12-0.17,0.23-0.26,0.34
				c-0.03,0.04-0.06,0.08-0.09,0.12c-0.11,0.14-0.23,0.28-0.34,0.41c-0.05,0.06-0.11,0.12-0.16,0.18c-0.06,0.07-0.12,0.13-0.18,0.2
				c-0.07,0.08-0.14,0.16-0.22,0.23c-0.04,0.04-0.08,0.08-0.12,0.12c-0.08,0.08-0.16,0.16-0.24,0.24c-0.03,0.03-0.06,0.06-0.09,0.09
				c-0.09,0.08-0.17,0.17-0.26,0.25c-0.01,0.01-0.01,0.01-0.02,0.02c0,0,0,0,0,0c-1.14,1.05-2.26,1.73-3.25,2.18l0,0v1.25v0.94
				l0.09-0.09l2.29,2.15l-0.02,0.06c0.01,0,0.01,0,0.02,0c0.01-0.02,0.02-0.04,0.03-0.06l-1.07-1.01c0,0,2.03,0.2,3.81,0.69
				c-1.49-3.37-0.28-6.38,0.12-8.4C288.05,79.96,288.05,79.97,288.04,79.98C288.04,79.98,288.04,79.98,288.04,79.98z"/>
			<path class="st24" d="M280.65,85.12c0.02,0,0.03-0.01,0.05-0.01C280.68,85.11,280.67,85.12,280.65,85.12z"/>
			<path class="st24" d="M280.43,85.16c0.02,0,0.04-0.01,0.06-0.01C280.47,85.16,280.45,85.16,280.43,85.16z"/>
			<path class="st24" d="M281.44,84.92c0.02-0.01,0.05-0.01,0.07-0.02C281.49,84.91,281.46,84.91,281.44,84.92z"/>
			<path class="st24" d="M281.17,85c0.03-0.01,0.05-0.01,0.08-0.02C281.22,84.98,281.19,84.99,281.17,85z"/>
			<path class="st24" d="M280.92,85.06c0.02,0,0.03-0.01,0.05-0.01C280.96,85.05,280.94,85.06,280.92,85.06z"/>
			<path class="st25" d="M268.46,75.24c2.26,5.64,5.46,8.11,7.85,9.19c0.08,0.03,0.15,0.07,0.23,0.1c0.05,0.02,0.09,0.04,0.14,0.06
				c0.07,0.03,0.14,0.06,0.21,0.08c0.05,0.02,0.09,0.04,0.13,0.05c0.07,0.03,0.14,0.05,0.21,0.07c0.04,0.01,0.08,0.03,0.13,0.04
				c0.07,0.02,0.13,0.04,0.2,0.06c0.04,0.01,0.08,0.02,0.12,0.03c0.06,0.02,0.13,0.04,0.19,0.05c0.03,0.01,0.07,0.02,0.1,0.03
				c0.06,0.02,0.13,0.03,0.19,0.05c0.02,0.01,0.05,0.01,0.07,0.02c0.22,0.05,0.41,0.09,0.58,0.11c0.01,0,0.03,0,0.04,0.01
				c0.05,0.01,0.09,0.01,0.13,0.02c0.02,0,0.04,0.01,0.06,0.01c0.04,0,0.07,0.01,0.11,0.01c0.02,0,0.04,0,0.06,0.01
				c0.03,0,0.06,0.01,0.08,0.01c0.02,0,0.04,0,0.05,0c0.02,0,0.04,0,0.06,0c0.02,0,0.03,0,0.04,0c0.01,0,0.03,0,0.04,0
				c0.01,0,0.02,0,0.03,0c0.01,0,0.01,0,0.02,0c0.01,0,0.02,0,0.02,0s0.01,0,0.01,0c0,0,0,0,0.01,0c0.01,0,0.02,0,0.03,0
				c0,0,0.01,0,0.02,0c0.02,0,0.04,0,0.06,0c0,0,0.01,0,0.01,0c0.03,0,0.06,0,0.09-0.01c0.01,0,0.02,0,0.03,0
				c0.03,0,0.06-0.01,0.09-0.01c0.01,0,0.03,0,0.04,0c0.04,0,0.08-0.01,0.12-0.01c0.01,0,0.02,0,0.03,0
				c0.05-0.01,0.11-0.01,0.16-0.02c0.01,0,0.03,0,0.04-0.01c0.05-0.01,0.09-0.02,0.14-0.02c0.02,0,0.04-0.01,0.06-0.01
				c0.05-0.01,0.1-0.02,0.16-0.03c0.02,0,0.03-0.01,0.05-0.01c0.07-0.02,0.15-0.03,0.23-0.05c0.02,0,0.03-0.01,0.05-0.01
				c0.06-0.02,0.13-0.03,0.2-0.05c0.03-0.01,0.05-0.01,0.08-0.02c0.06-0.02,0.13-0.04,0.19-0.06c0.02-0.01,0.05-0.01,0.07-0.02
				c0.09-0.03,0.18-0.06,0.28-0.09c0.01,0,0.02-0.01,0.03-0.01c0.08-0.03,0.17-0.06,0.25-0.09c0.03-0.01,0.06-0.02,0.09-0.03
				c0.07-0.03,0.15-0.06,0.22-0.09c0.03-0.01,0.06-0.02,0.09-0.04c0.1-0.04,0.21-0.09,0.32-0.14c0.99-0.45,2.11-1.13,3.25-2.18
				c0,0,0,0,0,0c0.01-0.01,0.01-0.01,0.02-0.02c0.09-0.08,0.17-0.16,0.26-0.25c0.03-0.03,0.06-0.06,0.09-0.09
				c0.08-0.08,0.16-0.16,0.24-0.24c0.04-0.04,0.08-0.08,0.12-0.12c0.07-0.08,0.14-0.15,0.22-0.23c0.06-0.06,0.12-0.13,0.18-0.2
				c0.05-0.06,0.11-0.12,0.16-0.18c0.11-0.13,0.23-0.27,0.34-0.41c0.03-0.04,0.06-0.08,0.09-0.12c0.09-0.11,0.17-0.23,0.26-0.34
				c0.01-0.02,0.02-0.03,0.03-0.04c0,0,0,0,0,0c0-0.01,0.01-0.01,0.01-0.02c0.18-0.24,0.35-0.49,0.52-0.75l0,0c0,0,0,0,0,0
				c0.01-0.17,0.01-0.34,0.02-0.51c0-0.06,0-0.11,0-0.17c0-0.16,0-0.32,0-0.47c0-0.03,0-0.07,0-0.1c0-0.16-0.01-0.31-0.01-0.47
				c0-0.05,0-0.11-0.01-0.16c-0.01-0.17-0.02-0.34-0.03-0.5c0-0.03,0-0.05-0.01-0.08c-0.01-0.15-0.03-0.29-0.04-0.44
				c-0.01-0.05-0.01-0.1-0.02-0.15c-0.02-0.16-0.04-0.33-0.07-0.48c-0.01-0.03-0.01-0.06-0.02-0.09c-0.02-0.14-0.05-0.27-0.08-0.41
				c-0.01-0.04-0.02-0.09-0.03-0.13c-0.04-0.16-0.07-0.31-0.12-0.46c-0.01-0.03-0.02-0.06-0.03-0.09c-0.04-0.13-0.08-0.26-0.12-0.38
				c-0.01-0.04-0.03-0.08-0.04-0.11c-0.05-0.15-0.11-0.29-0.16-0.43c-0.01-0.03-0.03-0.06-0.04-0.09c-0.05-0.12-0.11-0.24-0.16-0.35
				c-0.02-0.03-0.03-0.06-0.05-0.1c-0.07-0.13-0.14-0.27-0.22-0.39c-0.02-0.03-0.04-0.06-0.05-0.09c-0.07-0.11-0.14-0.22-0.21-0.32
				c-0.02-0.03-0.03-0.05-0.05-0.08c-0.09-0.12-0.18-0.24-0.28-0.35c-0.02-0.03-0.05-0.05-0.07-0.08c-0.09-0.1-0.18-0.2-0.27-0.29
				c-0.02-0.02-0.04-0.04-0.06-0.06c-0.11-0.1-0.22-0.2-0.34-0.3c-0.03-0.02-0.06-0.05-0.09-0.07c-0.11-0.09-0.22-0.17-0.34-0.25
				c-0.02-0.01-0.03-0.02-0.05-0.04c-0.13-0.09-0.27-0.17-0.41-0.25c-0.03-0.02-0.07-0.04-0.1-0.06c-0.14-0.07-0.28-0.14-0.43-0.2
				c-0.01-0.01-0.02-0.01-0.03-0.02c-0.16-0.07-0.32-0.13-0.49-0.18c-0.04-0.01-0.08-0.03-0.12-0.04c-0.17-0.05-0.35-0.11-0.53-0.15
				c-10.25-2.42-9.97-9.14-9.97-9.14c-0.19,0.2-0.37,0.41-0.54,0.61c-0.06,0.07-0.11,0.13-0.17,0.2c-0.11,0.13-0.23,0.27-0.34,0.4
				c-0.07,0.08-0.13,0.16-0.19,0.24c-0.09,0.12-0.19,0.23-0.27,0.35c-0.07,0.09-0.13,0.17-0.19,0.26c-0.08,0.11-0.16,0.21-0.24,0.32
				c-0.07,0.09-0.13,0.18-0.19,0.27c-0.07,0.1-0.14,0.2-0.21,0.3c-0.06,0.09-0.12,0.18-0.18,0.28c-0.06,0.09-0.12,0.19-0.18,0.28
				c-0.06,0.09-0.12,0.19-0.17,0.28c-0.05,0.09-0.11,0.18-0.16,0.26c-0.06,0.1-0.11,0.19-0.16,0.29c-0.05,0.08-0.09,0.17-0.14,0.25
				c-0.05,0.1-0.1,0.19-0.15,0.29c-0.04,0.08-0.08,0.15-0.12,0.23c-0.05,0.1-0.1,0.2-0.14,0.29c-0.03,0.07-0.07,0.14-0.1,0.21
				c-0.05,0.1-0.09,0.2-0.13,0.3c-0.03,0.07-0.06,0.13-0.09,0.2c-0.04,0.1-0.08,0.2-0.12,0.3c-0.02,0.06-0.05,0.12-0.07,0.18
				c-0.04,0.1-0.08,0.2-0.11,0.3c-0.02,0.05-0.04,0.11-0.06,0.16c-0.04,0.1-0.07,0.2-0.1,0.3c-0.02,0.05-0.03,0.1-0.05,0.15
				c-0.03,0.1-0.06,0.2-0.09,0.3c-0.01,0.05-0.03,0.09-0.04,0.13c-0.03,0.1-0.05,0.2-0.08,0.3c0,0.02-0.01,0.04-0.01,0.05
				c0,0,0,0,0,0c0.01,0.11,0.01,0.22,0.02,0.3c-0.07-0.07-0.15-0.13-0.22-0.19c-0.23-0.12-0.46-0.24-0.69-0.35
				c-0.07-0.02-0.14-0.03-0.21-0.05c-0.02,0-0.05-0.01-0.07-0.01c-0.05-0.01-0.1-0.01-0.15-0.01c-0.03,0-0.05,0-0.08,0
				c-0.05,0-0.09,0.01-0.14,0.01c-0.02,0-0.05,0-0.07,0.01c-0.06,0.01-0.13,0.02-0.19,0.04c-0.03,0.01-0.05,0.02-0.08,0.03
				c-0.04,0.01-0.08,0.03-0.11,0.04c-0.03,0.01-0.07,0.03-0.1,0.05c-0.03,0.01-0.05,0.03-0.08,0.04c-0.04,0.02-0.07,0.04-0.1,0.06
				c-0.02,0.01-0.04,0.03-0.05,0.04c-0.13,0.1-0.26,0.21-0.36,0.35c0,0-0.01,0.01-0.01,0.01c-0.04,0.05-0.07,0.1-0.11,0.15
				c0,0-0.01,0.01-0.01,0.01c-0.14,0.22-0.25,0.49-0.31,0.78c-0.06,0.29-0.08,0.6-0.04,0.94c0,0.04,0.01,0.08,0.01,0.13
				C266.11,76.04,268.46,75.24,268.46,75.24z"/>
			<path class="st26" d="M285.17,88.73c-0.01,0-0.01,0-0.02,0l-0.05,0.14C285.12,88.81,285.15,88.77,285.17,88.73z"/>
			<path class="st26" d="M288.97,94.31c0,0-2.91,2.01-4.09,3.05c-1.18,1.03-3.7,5.37-3.7,5.37h15.88c0,0-1.93-10.46-3.7-11.63
				c-0.15-0.1-0.37-0.2-0.66-0.32l-5.27,2.77L288.97,94.31z"/>
			<path class="st26" d="M277.94,102.37c-0.01,0.23-0.02,0.35-0.02,0.35h0L277.94,102.37L277.94,102.37z"/>
			<path class="st26" d="M281.16,102.34l-0.01,0.01l0.03,0.37h0C281.18,102.73,281.17,102.59,281.16,102.34z"/>
			<path class="st26" d="M274.22,97.35c-1.18-1.03-4.09-3.05-4.09-3.05l1.54-0.77l-5.34-2.8c-0.34,0.13-0.6,0.25-0.76,0.36
				c-1.78,1.17-3.7,11.63-3.7,11.63h16.05C277.92,102.73,275.4,98.39,274.22,97.35z"/>
			<path class="st25" d="M279.54,89.74l3.26-3.14v-0.94c-1.04,0.35-2.5,0.81-3.16,0.85c-0.64,0.04-2.21-0.49-3.36-0.92l-0.02,0.99
				L279.54,89.74z"/>
			<path class="st9" d="M282.38,93.97c0.1-0.19,0.24-0.43,0.39-0.71l-0.64-0.69l-1.66,1.25l0.68,8.53l0.01-0.01
				C281.08,101.01,280.96,96.53,282.38,93.97z"/>
			<path class="st9" d="M276.32,93.25c0.16,0.29,0.29,0.54,0.4,0.73c1.44,2.58,1.3,7.11,1.22,8.4l0,0.01l0.66-8.55l-1.66-1.25
				L276.32,93.25z"/>
			<path class="st9" d="M279.54,93.65c-0.3-0.05-0.93,0.18-0.93,0.18c0.71-0.24,1.31-0.16,1.62-0.08
				C280.02,93.69,279.72,93.62,279.54,93.65z"/>
			<path class="st27" d="M279.54,89.74l-2.6,2.83l1.66,1.25c0,0,0.46-0.16,0.93-0.16c0.21,0,0.54,0.04,0.69,0.08
				c0.15,0.04,0.24,0.08,0.24,0.08l1.66-1.25L279.54,89.74z"/>
			<path class="st28" d="M280.47,93.82c0,0-0.09-0.04-0.24-0.08c-0.32-0.08-0.91-0.16-1.62,0.08l-0.66,8.55l-0.03,0.35l0,0.01h3.26
				l0-0.01l-0.03-0.37L280.47,93.82z"/>
			<path class="st29" d="M279.54,89.74l-3.28-3.17l-0.06-0.06l-2.15,2.03l-0.13,0.13c0.25,0.5,1.6,3.06,2.42,4.58l0.62-0.68
				L279.54,89.74z"/>
			<path class="st29" d="M279.54,89.74l2.6,2.83l0.64,0.69c0.74-1.37,1.93-3.62,2.33-4.4l0.05-0.14l0.02-0.06l-2.29-2.15l-0.09,0.09
				L279.54,89.74z"/>
			<path class="st30" d="M276.72,93.97c-0.11-0.19-0.24-0.44-0.4-0.73c-0.82-1.51-2.17-4.08-2.42-4.58l0.13-0.13l0.94-0.88
				c0,0-2.19,0.22-4.01,0.75c-0.17,0.05-0.33,0.1-0.49,0.15c0,0,0,0,0,0c-0.18,0.06-0.36,0.13-0.53,0.2
				c-1.9,0.79-3.95,1.78-3.95,1.78l0.35,0.18l5.34,2.8l-1.54,0.77c0,0,2.91,2.01,4.09,3.05c1.18,1.03,3.7,5.37,3.7,5.37
				s0.01-0.13,0.02-0.35C278.01,101.08,278.15,96.56,276.72,93.97z"/>
			<path class="st30" d="M285.2,88.67c-0.01,0.02-0.02,0.04-0.03,0.06c-0.02,0.04-0.04,0.08-0.07,0.13c-0.4,0.78-1.59,3.03-2.33,4.4
				c-0.15,0.28-0.28,0.52-0.39,0.71c-1.42,2.56-1.3,7.03-1.22,8.37c0.01,0.25,0.03,0.38,0.03,0.38s2.51-4.34,3.7-5.37
				c1.18-1.03,4.09-3.05,4.09-3.05l-1.54-0.77l5.27-2.77l0.42-0.22c0,0-2.06-0.99-3.95-1.78c-0.37-0.16-0.79-0.29-1.23-0.41
				c-1.78-0.49-3.81-0.69-3.81-0.69L285.2,88.67z"/>
			<path class="st31" d="M279.63,86.51c0.66-0.04,2.12-0.5,3.16-0.85v-1.25l0,0c-0.11,0.05-0.21,0.09-0.32,0.14
				c-0.03,0.01-0.06,0.02-0.09,0.04c-0.07,0.03-0.15,0.06-0.22,0.09c-0.03,0.01-0.06,0.02-0.09,0.03c-0.09,0.03-0.17,0.06-0.25,0.09
				c-0.01,0-0.02,0.01-0.03,0.01c-0.09,0.03-0.19,0.06-0.28,0.09c-0.02,0.01-0.05,0.01-0.07,0.02c-0.07,0.02-0.13,0.04-0.19,0.06
				c-0.03,0.01-0.05,0.01-0.08,0.02c-0.07,0.02-0.13,0.03-0.2,0.05c-0.02,0-0.03,0.01-0.05,0.01c-0.08,0.02-0.15,0.04-0.23,0.05
				c-0.02,0-0.03,0.01-0.05,0.01c-0.05,0.01-0.11,0.02-0.16,0.03c-0.02,0-0.04,0.01-0.06,0.01c-0.05,0.01-0.1,0.02-0.14,0.02
				c-0.01,0-0.03,0-0.04,0.01c-0.06,0.01-0.11,0.02-0.16,0.02c-0.01,0-0.02,0-0.03,0c-0.04,0.01-0.08,0.01-0.12,0.01
				c-0.01,0-0.03,0-0.04,0c-0.03,0-0.06,0.01-0.09,0.01c-0.01,0-0.02,0-0.03,0c-0.03,0-0.07,0-0.09,0.01c0,0-0.01,0-0.01,0
				c-0.02,0-0.05,0-0.06,0c-0.01,0-0.01,0-0.02,0c-0.01,0-0.03,0-0.03,0c0,0,0,0-0.01,0c-0.01,0-0.01,0-0.01,0s-0.01,0-0.02,0
				c0,0-0.01,0-0.02,0c-0.01,0-0.02,0-0.03,0c-0.01,0-0.03,0-0.04,0c-0.01,0-0.03,0-0.04,0c-0.02,0-0.04,0-0.06,0
				c-0.02,0-0.03,0-0.05,0c-0.03,0-0.05,0-0.08-0.01c-0.02,0-0.04,0-0.06-0.01c-0.03,0-0.07-0.01-0.11-0.01
				c-0.02,0-0.04-0.01-0.06-0.01c-0.04-0.01-0.08-0.01-0.13-0.02c-0.01,0-0.03,0-0.04-0.01c-0.17-0.03-0.36-0.06-0.58-0.11
				c-0.02-0.01-0.05-0.01-0.07-0.02c-0.06-0.01-0.12-0.03-0.19-0.05c-0.03-0.01-0.06-0.02-0.1-0.03c-0.06-0.02-0.13-0.04-0.19-0.05
				c-0.04-0.01-0.08-0.02-0.12-0.03c-0.06-0.02-0.13-0.04-0.2-0.06c-0.04-0.01-0.08-0.03-0.13-0.04c-0.07-0.02-0.14-0.05-0.21-0.07
				c-0.04-0.02-0.09-0.03-0.13-0.05c-0.07-0.03-0.14-0.05-0.21-0.08c-0.05-0.02-0.09-0.04-0.14-0.06c-0.08-0.03-0.15-0.06-0.23-0.1
				c0,0,0,0,0,0l-0.03,1.17l0,0C277.43,86.02,278.99,86.55,279.63,86.51z"/>
		</g>
		<g>
			<circle class="st14" cx="279.73" cy="82.62" r="36.27"/>
		</g>
	</g>
	<g>
		<g>
			<polygon class="st1" points="427.42,100.8 427.42,100.8 426.52,103.57 430.45,91.53 			"/>
			<polygon class="st1" points="415.99,100.8 412.97,91.53 416.9,103.57 415.99,100.8 			"/>
			<polygon class="st1" points="419.6,95.54 419.38,95.86 419.38,95.86 419.6,95.54 			"/>
			<polygon class="st2" points="424.66,96.77 424.87,97.08 422.81,99.89 423.57,103.57 426.52,103.57 427.42,100.8 			"/>
			<path class="st2" d="M418.58,97.04l0.81-1.17l0,0l-3.39,4.94l0.9,2.77h2.52l1.06-3.68C419.84,98.94,419.21,97.99,418.58,97.04z"
				/>
			<path class="st32" d="M421.65,99.62c-0.56,0-0.98,0.17-1.18,0.28l-1.06,3.68h4.16l-0.76-3.68
				C422.61,99.79,422.2,99.62,421.65,99.62z"/>
			<path class="st4" d="M423.28,94.77l4.76-4.76l-0.43-3.14c-0.79,1.03-4.53,3.13-6.12,3.14c-1.54,0.02-5.52-2.68-5.8-2.88
				l-0.32,2.88l4.76,4.76H423.28z"/>
			<polygon class="st4" points="420.13,94.77 419.6,95.54 419.6,95.54 			"/>
			<path class="st33" d="M413.12,100.6l-4.53-1.96l2.17-6.5v0l-11.28,3.28c0,0-2.38,2.38-5.59,8.16h16.77l-0.86-2.01L413.12,100.6z"
				/>
			<polygon class="st34" points="414.68,89.32 410.95,91.53 410.75,92.13 408.58,98.64 413.12,100.6 409.79,101.56 410.65,103.57 
				415.67,103.57 416.9,103.57 412.97,91.53 			"/>
			<polygon class="st8" points="415.99,100.8 415.99,100.8 419.38,95.86 419.6,95.54 420.13,94.77 415.37,90.01 414.68,89.32 
				412.97,91.53 			"/>
			<path class="st33" d="M443.95,95.41l-11.28-3.28l2.17,6.5l-4.53,1.96l3.32,0.96l-0.86,2.01h16.77
				C446.33,97.79,443.95,95.41,443.95,95.41z"/>
			<polygon class="st34" points="430.3,100.6 434.83,98.64 432.66,92.13 432.46,91.53 428.73,89.32 430.45,91.53 426.52,103.57 
				427.74,103.57 432.76,103.57 433.62,101.56 			"/>
			<polygon class="st8" points="423.28,94.77 424.66,96.77 427.42,100.8 427.42,100.8 430.45,91.53 428.73,89.32 428.04,90.01 
				423.28,94.77 			"/>
			<path class="st35" d="M423.28,94.77L423.28,94.77h-3.15l-0.53,0.77l-0.22,0.32l-0.81,1.17c0.63,0.95,1.26,1.91,1.9,2.86
				c0.21-0.1,0.63-0.28,1.18-0.28c0.54,0,0.95,0.17,1.16,0.28l2.05-2.81l-0.21-0.31L423.28,94.77z"/>
			<path class="st11" d="M431.69,69.88c0,0,0.72-14.1-10.72-14.05c-11.43-0.05-10.72,14.05-10.72,14.05
				c-1.32-0.08-2.8-0.11-2.49,3.48c0.3,3.59,3.64,3.93,3.64,3.93c0.2,3.63,2.52,7.15,4.23,8.66c1.71,1.51,5.34,1.51,5.34,1.51
				s3.63,0,5.34-1.51c1.71-1.51,4.03-5.04,4.23-8.66c0,0,3.34-0.34,3.64-3.93C434.49,69.76,433.01,69.8,431.69,69.88z"/>
			<polygon class="st9" points="414.68,89.32 415.45,89.32 415.37,90.01 			"/>
			<polygon class="st9" points="428.73,89.32 427.95,89.32 428.04,90.01 			"/>
			<path class="st12" d="M433.69,58.24c-1.15-2.37-12.95-7.68-19.5-3c-0.2-0.92-0.74-1.72-1.6-2.31c0.63,0.69,0.91,1.5,0.86,2.33
				c-0.53-0.65-1.54-0.92-2.36-0.83c0.9,0.18,1.59,0.78,1.53,1.68c-1.54,0.24-5.48,1.4-4.69,7.06c0.98,7,1.36,6.7,1.36,6.7
				s1.06,0.83,1.51,3.1c0,0,0.53-6.42,0.76-7.4c0.23-0.98,2.19-3.93,2.19-3.93s8.01,6.42,13.22,5.67c0,0,2.04-0.38,3.55-1.74
				l0.45,6.65c0,0,0.55-2.41,2.09-2.25C433.06,69.97,434.9,60.73,433.69,58.24z"/>
			<g>
				<path class="st36" d="M420.92,80.52c-0.27,0.03-0.73-0.05-0.79-0.05c-0.33-0.02-0.67,0.03-0.96,0.16
					c-0.22,0.1-0.38,0.24-0.56,0.38c-0.92,0.66-1.92,0.51-2.29,0.07c-0.29-0.36,1.09,0.01,1.62-0.8c-0.03,0.03-0.01,0.01-0.01,0.01
					c0.33-0.47,0.77-0.84,1.36-1.07c0.45-0.18,1.07-0.33,1.63-0.33c0.29,0,0.53,0.19,0.58,0.43
					C421.57,79.76,421.59,80.44,420.92,80.52z"/>
				<path class="st36" d="M421.69,80.52c0.27,0.03,0.73-0.05,0.79-0.05c0.33-0.02,0.67,0.03,0.96,0.16c0.22,0.1,0.38,0.24,0.56,0.38
					c0.92,0.66,1.92,0.51,2.29,0.07c0.29-0.36-1.09,0.01-1.62-0.8c0.03,0.03,0.01,0.01,0.01,0.01c-0.33-0.47-0.77-0.84-1.36-1.07
					c-0.45-0.18-1.07-0.33-1.63-0.33c-0.29,0-0.53,0.19-0.58,0.43C421.04,79.76,421.03,80.44,421.69,80.52z"/>
			</g>
			<path class="st5" d="M426.31,85.94c-1.71,1.51-5.34,1.51-5.34,1.51s-3.38,0-5.15-1.36l-0.07,0.49l-0.08,0.54
				c0,0,0.01,0,0.02,0.01c0.28,0.19,4.26,2.89,5.8,2.88c1.6-0.02,5.34-2.11,6.12-3.14l-0.27-2
				C426.99,85.29,426.64,85.65,426.31,85.94z"/>
		</g>
		<g>
			
				<ellipse transform="matrix(0.9997 -0.0238 0.0238 0.9997 -1.8463 10.0371)" class="st14" cx="420.93" cy="82.62" rx="36.27" ry="36.27"/>
		</g>
	</g>
	<g>
		<g>
			<g>
				<path class="st20" d="M557.26,90.35l2.29-2.15l0.05,0.05l0.06-1.9c-2.71-0.93-6.53-3.38-8.17-9.84
					c-0.37-1.45-0.51-4.36,0.19-5.98c3.93,1.19,11.38,0.03,17.53-7.12c0.59,3.5,2.9,5.73,4.8,7.22c0.06,2.12-0.3,5.52-0.7,6.96
					c-1.63,5.76-4.72,8-7.16,8.86v0c0,0,0,0,0,0l0,0.25v1.52l0.02-0.02l2.29,2.15l-0.01,0.03c0.37,0.09,0.75,0.17,1.13,0.26
					c3.72-1.27,6.95-3.33,6.33-5.21c-1.04-3.12,0.23-8.76,0.23-8.76c2.9-21.05-12.5-20.84-13.52-20.8
					c-1.02-0.04-16.42-0.26-13.52,20.8c0,0,1.27,5.64,0.23,8.76c-0.64,1.92,2.73,4.03,6.55,5.29c0.47-0.11,0.94-0.22,1.4-0.33
					L557.26,90.35z"/>
				<path class="st37" d="M576.38,92.56c0.09,0.04,0.16,0.07,0.23,0.11C576.54,92.63,576.47,92.59,576.38,92.56z"/>
				<path class="st37" d="M576.61,92.67c0.07,0.04,0.13,0.07,0.18,0.1C576.74,92.74,576.68,92.7,576.61,92.67z"/>
				<path class="st37" d="M549.18,92.67c0.07-0.04,0.15-0.07,0.23-0.11C549.32,92.59,549.25,92.63,549.18,92.67z"/>
				<path class="st37" d="M549,92.77c0.05-0.03,0.11-0.07,0.18-0.1C549.11,92.7,549.05,92.74,549,92.77
					c-1.78,1.17-3.7,11.63-3.7,11.63h0C545.3,104.4,547.22,93.94,549,92.77z"/>
				<path class="st37" d="M573.86,101.29c0.2-3.82,1.22-6.65,2.52-8.74c-1.2-0.53-4.03-1.27-6.8-1.92
					c-0.38-0.09-0.76-0.18-1.13-0.26l-1.88,5.13l-3.71-4.04l-3.71,4.04l-1.87-5.11c-0.46,0.11-0.93,0.21-1.4,0.33
					c-2.66,0.63-5.31,1.33-6.47,1.84c1.3,2.09,2.32,4.92,2.52,8.74c0.06,1.19,0.06,2.22-0.01,3.11h10.9h0.14h10.9
					C573.8,103.51,573.79,102.48,573.86,101.29z"/>
				<path class="st38" d="M562.86,91.39l3.29-3.18V86.7l0,0.38c-1.09,0.54-2.34,1.08-3.17,1.04c-0.79-0.03-2.25-0.58-3.34-1.02
					l0.03-0.74c1.83,0.6,3.3,0.6,3.3,0.6s1.29,0.13,3.19-0.5v0c2.44-0.85,5.53-3.09,7.16-8.86c0.41-1.44,0.76-4.85,0.7-6.96
					c-1.91-1.49-4.21-3.72-4.8-7.22c-6.14,7.15-13.6,8.31-17.53,7.12c-0.71,1.62-0.56,4.53-0.19,5.98c1.64,6.46,5.47,8.91,8.17,9.84
					l-0.06,1.9L562.86,91.39z"/>
				<polygon class="st29" points="566.17,88.19 566.15,88.21 562.86,91.39 559.6,88.24 559.55,88.19 557.26,90.35 557.28,90.39 
					559.15,95.5 562.86,91.46 566.57,95.5 568.45,90.37 568.46,90.35 				"/>
				<path class="st39" d="M551.93,101.29c-0.2-3.82-1.22-6.65-2.52-8.74l0,0c0,0,0,0,0,0c-0.09,0.04-0.16,0.07-0.23,0.11
					c0,0,0,0,0,0c-0.07,0.04-0.13,0.07-0.18,0.1c-1.78,1.17-3.7,11.63-3.7,11.63h6.63C551.99,103.51,552,102.48,551.93,101.29z"/>
				<path class="st39" d="M576.79,92.77c-0.05-0.03-0.11-0.07-0.18-0.1c0,0,0,0,0,0c-0.07-0.04-0.15-0.07-0.23-0.11c0,0,0,0,0,0v0
					c-1.3,2.09-2.32,4.92-2.52,8.74c-0.06,1.19-0.06,2.22,0.01,3.11h6.63C580.49,104.4,578.57,93.94,576.79,92.77z"/>
				<path class="st40" d="M562.96,86.95c0,0-1.47,0-3.3-0.6l-0.03,0.74c1.09,0.45,2.55,0.99,3.34,1.02
					c0.83,0.04,2.08-0.51,3.17-1.04l0-0.38l0-0.25c0,0,0,0,0,0C564.26,87.08,562.96,86.95,562.96,86.95z"/>
			</g>
			<path class="st39" d="M563.23,94.67c0-0.18-0.15-0.33-0.33-0.33c-0.18,0-0.33,0.15-0.33,0.33c0,0.18,0.15,0.33,0.33,0.33
				C563.08,95,563.23,94.85,563.23,94.67z"/>
			<path class="st39" d="M563.23,98.54c0-0.18-0.15-0.33-0.33-0.33c-0.18,0-0.33,0.15-0.33,0.33c0,0.18,0.15,0.33,0.33,0.33
				C563.08,98.87,563.23,98.72,563.23,98.54z"/>
			<path class="st39" d="M563.23,102.4c0-0.18-0.15-0.33-0.33-0.33c-0.18,0-0.33,0.15-0.33,0.33s0.15,0.33,0.33,0.33
				C563.08,102.73,563.23,102.59,563.23,102.4z"/>
		</g>
		<g>
			<circle class="st14" cx="562.14" cy="82.62" r="36.27"/>
		</g>
	</g>
	<g>
		<g>
			<path class="st11" d="M714.59,68.17c0,0,1.96-13.17-10.78-13.17c-12.79,0-10.65,13.17-10.65,13.17c-1.32-0.08-2.8-0.11-2.49,3.48
				s3.64,3.93,3.64,3.93c0.2,3.63,2.52,7.15,4.23,8.66s5.34,1.51,5.34,1.51s3.63,0,5.34-1.51c1.71-1.51,4.03-5.04,4.23-8.66
				c0,0,3.34-0.34,3.64-3.93C717.39,68.06,715.92,68.1,714.59,68.17z"/>
			<path class="st15" d="M703.9,52c-0.01,0-0.02,0-0.03,0c-0.01,0-0.02,0-0.03,0c-11.15-0.58-11.31,10.51-10.83,16.17
				c0.21,0.09,0.45,0.22,0.6,0.55c0.33,0.66,0.45,0.45,0.45,0.45c0,0,0.04-3.25,0.04-4.15c-0.01-1.03,1.65-6.57,3.43-7.09
				c1.78-0.63,4.26,2.01,6.2,1.98c0.04,0,0.09,0,0.13,0c0.04,0,0.09,0,0.13,0c1.94,0.03,4.43-2.6,6.2-1.98
				c1.79,0.52,3.45,6.06,3.43,7.09c0,0.9,0.04,4.15,0.04,4.15c0,0,0.13,0.21,0.45-0.45c0.16-0.33,0.39-0.46,0.6-0.55
				C715.21,62.52,715.05,51.42,703.9,52z"/>
			<g>
				<polygon class="st1" points="698.89,99.1 695.87,89.83 699.8,101.87 698.89,99.1 				"/>
				<polygon class="st1" points="702.28,94.16 702.28,94.16 702.5,93.84 702.5,93.84 				"/>
				<polygon class="st1" points="706.85,94.04 706.93,94.16 706.93,94.16 706.85,94.04 				"/>
				<polygon class="st1" points="710.94,88.31 711.64,87.61 710.94,88.31 				"/>
				<polygon class="st1" points="710.32,99.1 710.32,99.1 709.42,101.87 713.35,89.83 				"/>
				<polygon class="st41" points="706.93,94.16 706.93,94.16 707.77,95.38 705.72,98.19 706.47,101.87 709.42,101.87 710.32,99.1 
									"/>
				<path class="st41" d="M701.48,95.33l0.81-1.17l0,0l-3.39,4.94l0.9,2.77h2.52l1.06-3.68C702.74,97.24,702.11,96.28,701.48,95.33z
					"/>
				<polygon class="st4" points="702.5,93.84 703.03,93.07 702.5,93.84 				"/>
				<polygon class="st4" points="698.67,84.74 698.65,84.89 698.67,84.74 				"/>
				<path class="st4" d="M706.18,93.07l4.76-4.76l0,0l0,0l-0.09-0.7l-0.44-3.25l0,0l0.11,0.8c-0.79,1.03-4.53,3.13-6.12,3.14
					c-1.54,0.02-5.52-2.68-5.8-2.88l-0.32,2.88l4.76,4.76H706.18z"/>
				<polygon class="st4" points="706.18,93.07 706.85,94.04 706.85,94.04 				"/>
				<path class="st6" d="M696.02,98.9l-4.53-1.96l2.17-6.5l-11.28,3.28c0,0-2.38,2.38-5.59,8.16h16.77l-0.86-2.01L696.02,98.9z"/>
				<polygon class="st7" points="697.58,87.61 693.85,89.83 693.65,90.43 691.49,96.93 696.02,98.9 692.7,99.85 693.55,101.87 
					698.58,101.87 699.8,101.87 695.87,89.83 				"/>
				<polygon class="st42" points="698.89,99.1 698.89,99.1 702.28,94.16 702.5,93.84 703.03,93.07 698.28,88.31 697.58,87.61 
					695.87,89.83 				"/>
				<polygon class="st43" points="698.35,87.61 697.58,87.61 698.28,88.31 				"/>
				<path class="st6" d="M726.85,93.71l-11.28-3.28l2.17,6.5l-4.53,1.96l3.32,0.96l-0.86,2.01h16.77
					C729.23,96.09,726.85,93.71,726.85,93.71z"/>
				<polygon class="st7" points="713.2,98.9 717.73,96.93 715.56,90.43 715.36,89.83 711.64,87.61 713.35,89.83 709.42,101.87 
					710.64,101.87 715.67,101.87 716.52,99.85 				"/>
				<polygon class="st42" points="706.18,93.07 706.85,94.04 706.93,94.16 710.32,99.1 710.32,99.1 713.35,89.83 711.64,87.61 
					710.94,88.31 				"/>
				<polygon class="st43" points="710.94,88.31 711.64,87.61 710.85,87.61 710.85,87.61 710.94,88.31 				"/>
				<path class="st7" d="M707.77,95.38l-0.84-1.22l-0.08-0.12l-0.67-0.97h-3.15l-0.53,0.77l-0.22,0.32l-0.81,1.17
					c0.63,0.95,1.26,1.91,1.9,2.86l-1.06,3.68c0.68,0.02,1.37,0.04,2.09,0.04c0.71,0,1.4-0.01,2.06-0.04
					c-0.25-1.23-0.5-2.45-0.76-3.68L707.77,95.38z"/>
				<path class="st5" d="M710.52,85.17l-0.11-0.8l-0.16-1.2c-0.35,0.42-0.7,0.79-1.03,1.07c-1.71,1.51-5.34,1.51-5.34,1.51
					s-3.38,0-5.15-1.36l-0.05,0.35l-0.02,0.15l-0.08,0.54c0,0,0.01,0,0.02,0.01c0.28,0.19,4.26,2.89,5.8,2.88
					C705.99,88.29,709.73,86.2,710.52,85.17z"/>
			</g>
			<path class="st15" d="M709.64,79.76c-0.1-0.48-0.37-0.92-0.77-1.24c-0.16-0.15-0.33-0.26-0.5-0.32
				c-0.34-0.17-0.74-0.28-1.18-0.31c-0.48-0.03-1.03-0.02-1.62,0c-1.65,0.05-3.45,0.07-4.87,0.08c-0.26,0.07-0.49,0.18-0.71,0.33
				c-0.01,0-0.01,0.01-0.02,0.01c-0.01,0.01-0.02,0.01-0.03,0.02c-0.8,0.5-1.37,1.91-1.37,3.57c0,1.1,0.25,2.08,0.65,2.77
				c0.55,1.14,2.6,1.98,5.04,1.98c1.84,0,3.46-0.48,4.38-1.21c0.78-0.52,1.34-1.91,1.34-3.54C709.99,81.1,709.86,80.37,709.64,79.76
				z M708.36,83.96c-0.49,0.31-1.11,0.56-1.82,0.74c-0.4,0.1-0.81-0.07-1.06-0.4c-0.27-0.36-0.7-0.59-1.2-0.59
				c-0.5,0-0.93,0.24-1.2,0.6c-0.24,0.33-0.65,0.5-1.05,0.4c-0.71-0.17-1.33-0.42-1.82-0.72c-0.22-0.6-0.47-0.78-0.47-2.1
				c0-0.33,0.15-1.31,0.19-1.61c1.14-0.22,3.26,0.95,4.25-0.12c0.96,1.06,3.02,0.03,4.46,0.18c0.04,0.28,0.06,1.25,0.06,1.56
				C708.7,83.11,708.57,83.37,708.36,83.96z"/>
		</g>
		<g>
			<circle class="st14" cx="703.35" cy="82.62" r="36.27"/>
		</g>
	</g>
	<g>
		<g>
			<g>
				<path class="st1" d="M853.98,65.19c0.06,0.19,0.12,0.37,0.17,0.56c0-0.01,0-0.02,0-0.02C854.11,65.53,854.05,65.36,853.98,65.19
					z"/>
				<path class="st38" d="M855.33,69.64c0,0.05-0.01,0.09-0.01,0.14c-0.42,0.39-0.86,1.3-1.21,1.77c0.28-1.64,0.61-3.36,0.05-5.8
					c-0.05-0.18-0.11-0.37-0.17-0.56c-0.61-1.52-2.06-1.89-3.64-2.39c-2.14-0.68-4.36-0.17-6.49-0.71c-1.34-0.34-2.4-1.53-3.74-1.62
					c-6.16-0.42-7.32,6.25-6.57,11.08c-0.45-0.59-0.85-1.21-1.21-1.85c-1.37-0.71-2.89,0.45-2.62,2.49
					c0.62,4.68,2.97,3.88,2.97,3.88c4.03,10.07,11.08,10.02,11.08,10.02s7.05,0.05,11.08-10.02c0,0,2.35,0.8,2.97-3.88
					C858.08,70.22,856.66,69.07,855.33,69.64z"/>
				<path class="st12" d="M855.91,61.48C856.17,63.2,855.71,60.04,855.91,61.48L855.91,61.48z"/>
				<path class="st12" d="M840.11,60.47c1.34,0.09,2.39,1.28,3.74,1.62c2.14,0.54,4.36,0.03,6.49,0.71c1.57,0.5,3.03,0.87,3.64,2.39
					c0.07,0.17,0.12,0.34,0.17,0.54c0,0.01,0,0.02,0,0.02c0.56,2.44,0.23,4.16-0.05,5.8c0.34-0.47,0.79-1.37,1.21-1.77
					c0-0.05,0.01-0.09,0.01-0.14c0.24-2.93,1.06-5.02,0.59-8.17c-0.57-3.98-2.08-6.43-5.78-8.12c0.18-4.06-4.36-6.48-7.94-5.76
					c-2.12,0.43-3.35,1.68-4.54,3.36c-0.86,1.22-0.76,1.34-1.79,2.23c-0.78,0.68-1.7,1.08-2.44,1.87c-3.93,4.2-3.67,10.05-1.1,14.64
					c0.36,0.64,0.77,1.26,1.21,1.85C832.79,66.72,833.95,60.05,840.11,60.47z"/>
			</g>
			<g>
				<path class="st44" d="M846.36,93.4l-1.66,1.25l0.71,8.9h15.88c0,0-1.93-10.46-3.7-11.63c-0.89-0.59-4.78-1.57-8.21-2.37
					l-1.87,5.1L846.36,93.4z"/>
				<path class="st44" d="M843.76,94.5C843.76,94.5,843.76,94.5,843.76,94.5c0.01,0,0.03,0,0.05,0
					C843.79,94.5,843.78,94.5,843.76,94.5z"/>
				<path class="st44" d="M841.17,93.4l-1.15,1.25l-1.88-5.13c-3.47,0.8-7.44,1.8-8.34,2.39c-1.78,1.17-3.7,11.63-3.7,11.63h16.05
					l0.69-8.9L841.17,93.4z"/>
				<path class="st45" d="M843.76,90.58l3.19-3.19v-2.11c-1.85,0.83-3.19,0.82-3.19,0.82s-1.39,0.01-3.3-0.87l-0.05,2.12l0,0
					L843.76,90.58z"/>
				<path class="st46" d="M844.7,94.66l1.66-1.25l-2.6-2.83l-2.6,2.83l1.66,1.25l-0.69,8.9l0,0.01h3.26l0-0.01L844.7,94.66z
					 M843.76,94.5c0.01,0,0.03,0,0.05,0C843.79,94.5,843.77,94.5,843.76,94.5C843.76,94.5,843.76,94.5,843.76,94.5z"/>
				<polygon class="st29" points="841.17,93.4 843.76,90.58 840.42,87.35 840.42,87.35 838.13,89.5 838.14,89.53 840.02,94.66 				
					"/>
				<polygon class="st29" points="843.76,90.58 846.36,93.4 847.51,94.66 849.38,89.56 849.4,89.5 846.95,87.39 				"/>
			</g>
			<path class="st13" d="M846.75,69.47c-1.05,0.47-2.18,1.33-2.89,1.33c-0.72,0-1.92-0.86-2.97-1.33c-1.31-0.59-5.35-1.5-8.2-0.38
				c0,0.24,0,0.49,0,0.73c0,0,0.53,0.19,0.68,1.03c0.14,0.85,0.26,2.21,0.66,3.08c0.41,0.91,0.81,1.59,3.05,2.03
				c2.24,0.43,3.39-0.08,4.28-1.1c0.89-1.01,1.56-2.5,1.79-2.74c0.23-0.25,0.44-0.35,0.72-0.35c0.29,0,0.49,0.11,0.72,0.35
				c0.23,0.25,0.89,1.73,1.78,2.74c0.89,1.01,2.03,1.53,4.27,1.09c2.24-0.44,2.62-1.12,3.03-2.03c0.39-0.87,0.47-2.23,0.61-3.08
				c0.14-0.85,0.59-1.03,0.59-1.03c0-0.24,0-0.49,0-0.73C852.33,67.98,848.06,68.88,846.75,69.47z M841.74,73.47
				c-0.38,0.66-1.09,1.97-2.42,2.17c-1.45,0.23-2.85-0.13-3.85-0.66c-1-0.53-1.15-1.59-1.3-2.47c-0.14-0.88-0.14-2.6,0.34-2.99
				c0.48-0.39,2.41-0.35,3.61-0.21c1.11,0.12,3,0.57,3.85,1.5C842.81,71.75,842.03,72.96,841.74,73.47z M853.56,72.51
				c-0.14,0.88-0.29,1.94-1.3,2.47c-1,0.53-2.4,0.89-3.85,0.67c-1.32-0.2-2.04-1.51-2.42-2.17c-0.29-0.51-1.07-1.72-0.23-2.66
				c0.84-0.94,2.74-1.38,3.85-1.5c1.2-0.14,3.13-0.18,3.61,0.21C853.71,69.92,853.71,71.63,853.56,72.51z"/>
			<g>
				<path class="st12" d="M855.24,83.93c-1.18-1.39-1.79-2.95-2.04-4.51c-1.24,2.06-2.61,3.48-3.91,4.47c0,0,0,0,0,0
					c5.46,6.19-1.71,19.69-1.71,19.69s4.9,0,10.64-0.01C859.57,99.05,859.7,89.2,855.24,83.93z"/>
			</g>
		</g>
		<g>
			<circle class="st14" cx="844.55" cy="82.62" r="36.27"/>
		</g>
	</g>
	<g>
		<path class="st47" d="M218.71,76.77l-10.03,5.3c-0.15,0.08-0.34,0.08-0.49,0l-10.03-5.3c-0.37-0.2-0.37-0.73,0-0.93l10.03-5.3
			c0.15-0.08,0.34-0.08,0.49,0l10.03,5.3C219.09,76.04,219.09,76.58,218.71,76.77z"/>
		<path class="st47" d="M218.71,76.9c0.37,0.2,0.37,0.73,0,0.93l-10.03,5.3c-0.15,0.08-0.34,0.08-0.49,0l-10.03-5.3
			c-0.37-0.2-0.37-0.73,0-0.93l0.04-0.04"/>
		<path class="st47" d="M218.71,77.95c0.37,0.2,0.37,0.73,0,0.93l-10.03,5.3c-0.15,0.08-0.34,0.08-0.49,0l-10.03-5.3
			c-0.37-0.2-0.37-0.73,0-0.93l0.04-0.04"/>
		<path class="st47" d="M218.71,79c0.37,0.2,0.37,0.73,0,0.93l-10.03,5.3c-0.15,0.08-0.34,0.08-0.49,0l-10.03-5.3
			c-0.37-0.2-0.37-0.73,0-0.93l0.04-0.04"/>
		<path class="st47" d="M218.71,80.05c0.37,0.2,0.37,0.73,0,0.93l-10.03,5.3c-0.15,0.08-0.34,0.08-0.49,0l-10.03-5.3
			c-0.37-0.2-0.37-0.73,0-0.93l0.04-0.04"/>
		<path class="st47" d="M218.71,81.1c0.37,0.2,0.37,0.73,0,0.93l-10.03,5.3c-0.15,0.08-0.34,0.08-0.49,0l-10.03-5.3
			c-0.37-0.2-0.37-0.73,0-0.93l0.04-0.04"/>
		<path class="st47" d="M218.71,82.15c0.37,0.2,0.37,0.73,0,0.93l-10.03,5.3c-0.15,0.08-0.34,0.08-0.49,0l-10.03-5.3
			c-0.37-0.2-0.37-0.73,0-0.93l0.04-0.04"/>
		<path class="st47" d="M218.71,83.2c0.37,0.2,0.37,0.73,0,0.93l-10.03,5.3c-0.15,0.08-0.34,0.08-0.49,0l-10.03-5.3
			c-0.37-0.2-0.37-0.73,0-0.93l0.04-0.04"/>
		<path class="st47" d="M218.71,84.26c0.37,0.2,0.37,0.73,0,0.93l-10.03,5.3c-0.15,0.08-0.34,0.08-0.49,0l-10.03-5.3
			c-0.37-0.2-0.37-0.73,0-0.93l0.04-0.04"/>
		<path class="st47" d="M218.71,85.31c0.37,0.2,0.37,0.73,0,0.93l-10.03,5.3c-0.15,0.08-0.34,0.08-0.49,0l-10.03-5.3
			c-0.37-0.2-0.37-0.73,0-0.93l0.04-0.04"/>
		<path class="st47" d="M218.71,86.36c0.37,0.2,0.37,0.73,0,0.93l-10.03,5.3c-0.15,0.08-0.34,0.08-0.49,0l-10.03-5.3
			c-0.37-0.2-0.37-0.73,0-0.93l0.04-0.04"/>
	</g>
	<g>
		<path class="st47" d="M361.18,76.77l-10.03,5.3c-0.15,0.08-0.34,0.08-0.49,0l-10.03-5.3c-0.37-0.2-0.37-0.73,0-0.93l10.03-5.3
			c0.15-0.08,0.34-0.08,0.49,0l10.03,5.3C361.55,76.04,361.55,76.58,361.18,76.77z"/>
		<path class="st47" d="M361.18,76.9c0.37,0.2,0.37,0.73,0,0.93l-10.03,5.3c-0.15,0.08-0.34,0.08-0.49,0l-10.03-5.3
			c-0.37-0.2-0.37-0.73,0-0.93l0.04-0.04"/>
		<path class="st47" d="M361.18,77.95c0.37,0.2,0.37,0.73,0,0.93l-10.03,5.3c-0.15,0.08-0.34,0.08-0.49,0l-10.03-5.3
			c-0.37-0.2-0.37-0.73,0-0.93l0.04-0.04"/>
		<path class="st47" d="M361.18,79c0.37,0.2,0.37,0.73,0,0.93l-10.03,5.3c-0.15,0.08-0.34,0.08-0.49,0l-10.03-5.3
			c-0.37-0.2-0.37-0.73,0-0.93l0.04-0.04"/>
		<path class="st47" d="M361.18,80.05c0.37,0.2,0.37,0.73,0,0.93l-10.03,5.3c-0.15,0.08-0.34,0.08-0.49,0l-10.03-5.3
			c-0.37-0.2-0.37-0.73,0-0.93l0.04-0.04"/>
		<path class="st47" d="M361.18,81.1c0.37,0.2,0.37,0.73,0,0.93l-10.03,5.3c-0.15,0.08-0.34,0.08-0.49,0l-10.03-5.3
			c-0.37-0.2-0.37-0.73,0-0.93l0.04-0.04"/>
		<path class="st47" d="M361.18,82.15c0.37,0.2,0.37,0.73,0,0.93l-10.03,5.3c-0.15,0.08-0.34,0.08-0.49,0l-10.03-5.3
			c-0.37-0.2-0.37-0.73,0-0.93l0.04-0.04"/>
		<path class="st47" d="M361.18,83.2c0.37,0.2,0.37,0.73,0,0.93l-10.03,5.3c-0.15,0.08-0.34,0.08-0.49,0l-10.03-5.3
			c-0.37-0.2-0.37-0.73,0-0.93l0.04-0.04"/>
		<path class="st47" d="M361.18,84.26c0.37,0.2,0.37,0.73,0,0.93l-10.03,5.3c-0.15,0.08-0.34,0.08-0.49,0l-10.03-5.3
			c-0.37-0.2-0.37-0.73,0-0.93l0.04-0.04"/>
		<path class="st47" d="M361.18,85.31c0.37,0.2,0.37,0.73,0,0.93l-10.03,5.3c-0.15,0.08-0.34,0.08-0.49,0l-10.03-5.3
			c-0.37-0.2-0.37-0.73,0-0.93l0.04-0.04"/>
		<path class="st1" d="M361.18,86.36c0.37,0.2,0.37,0.73,0,0.93l-10.03,5.3c-0.15,0.08-0.34,0.08-0.49,0l-10.03-5.3
			c-0.37-0.2-0.37-0.73,0-0.93l0.04-0.04"/>
	</g>
	<g>
		<path class="st47" d="M501.55,76.77l-10.03,5.3c-0.15,0.08-0.34,0.08-0.49,0L481,76.77c-0.37-0.2-0.37-0.73,0-0.93l10.03-5.3
			c0.15-0.08,0.34-0.08,0.49,0l10.03,5.3C501.92,76.04,501.92,76.58,501.55,76.77z"/>
		<path class="st47" d="M501.55,76.9c0.37,0.2,0.37,0.73,0,0.93l-10.03,5.3c-0.15,0.08-0.34,0.08-0.49,0L481,77.83
			c-0.37-0.2-0.37-0.73,0-0.93l0.04-0.04"/>
		<path class="st47" d="M501.55,77.95c0.37,0.2,0.37,0.73,0,0.93l-10.03,5.3c-0.15,0.08-0.34,0.08-0.49,0L481,78.88
			c-0.37-0.2-0.37-0.73,0-0.93l0.04-0.04"/>
		<path class="st47" d="M501.55,79c0.37,0.2,0.37,0.73,0,0.93l-10.03,5.3c-0.15,0.08-0.34,0.08-0.49,0L481,79.93
			c-0.37-0.2-0.37-0.73,0-0.93l0.04-0.04"/>
		<path class="st47" d="M501.55,80.05c0.37,0.2,0.37,0.73,0,0.93l-10.03,5.3c-0.15,0.08-0.34,0.08-0.49,0L481,80.98
			c-0.37-0.2-0.37-0.73,0-0.93l0.04-0.04"/>
		<path class="st47" d="M501.55,81.1c0.37,0.2,0.37,0.73,0,0.93l-10.03,5.3c-0.15,0.08-0.34,0.08-0.49,0L481,82.03
			c-0.37-0.2-0.37-0.73,0-0.93l0.04-0.04"/>
		<path class="st47" d="M501.55,82.15c0.37,0.2,0.37,0.73,0,0.93l-10.03,5.3c-0.15,0.08-0.34,0.08-0.49,0L481,83.08
			c-0.37-0.2-0.37-0.73,0-0.93l0.04-0.04"/>
		<path class="st47" d="M501.55,83.2c0.37,0.2,0.37,0.73,0,0.93l-10.03,5.3c-0.15,0.08-0.34,0.08-0.49,0L481,84.13
			c-0.37-0.2-0.37-0.73,0-0.93l0.04-0.04"/>
		<path class="st47" d="M501.55,84.26c0.37,0.2,0.37,0.73,0,0.93l-10.03,5.3c-0.15,0.08-0.34,0.08-0.49,0L481,85.19
			c-0.37-0.2-0.37-0.73,0-0.93l0.04-0.04"/>
		<path class="st47" d="M501.55,85.31c0.37,0.2,0.37,0.73,0,0.93l-10.03,5.3c-0.15,0.08-0.34,0.08-0.49,0L481,86.24
			c-0.37-0.2-0.37-0.73,0-0.93l0.04-0.04"/>
		<path class="st47" d="M501.55,86.36c0.37,0.2,0.37,0.73,0,0.93l-10.03,5.3c-0.15,0.08-0.34,0.08-0.49,0L481,87.29
			c-0.37-0.2-0.37-0.73,0-0.93l0.04-0.04"/>
	</g>
	<g>
		<path class="st47" d="M644.02,76.77l-10.03,5.3c-0.15,0.08-0.34,0.08-0.49,0l-10.03-5.3c-0.37-0.2-0.37-0.73,0-0.93l10.03-5.3
			c0.15-0.08,0.34-0.08,0.49,0l10.03,5.3C644.39,76.04,644.39,76.58,644.02,76.77z"/>
		<path class="st47" d="M644.02,76.9c0.37,0.2,0.37,0.73,0,0.93l-10.03,5.3c-0.15,0.08-0.34,0.08-0.49,0l-10.03-5.3
			c-0.37-0.2-0.37-0.73,0-0.93l0.04-0.04"/>
		<path class="st47" d="M644.02,77.95c0.37,0.2,0.37,0.73,0,0.93l-10.03,5.3c-0.15,0.08-0.34,0.08-0.49,0l-10.03-5.3
			c-0.37-0.2-0.37-0.73,0-0.93l0.04-0.04"/>
		<path class="st47" d="M644.02,79c0.37,0.2,0.37,0.73,0,0.93l-10.03,5.3c-0.15,0.08-0.34,0.08-0.49,0l-10.03-5.3
			c-0.37-0.2-0.37-0.73,0-0.93l0.04-0.04"/>
		<path class="st47" d="M644.02,80.05c0.37,0.2,0.37,0.73,0,0.93l-10.03,5.3c-0.15,0.08-0.34,0.08-0.49,0l-10.03-5.3
			c-0.37-0.2-0.37-0.73,0-0.93l0.04-0.04"/>
		<path class="st47" d="M644.02,81.1c0.37,0.2,0.37,0.73,0,0.93l-10.03,5.3c-0.15,0.08-0.34,0.08-0.49,0l-10.03-5.3
			c-0.37-0.2-0.37-0.73,0-0.93l0.04-0.04"/>
		<path class="st47" d="M644.02,82.15c0.37,0.2,0.37,0.73,0,0.93l-10.03,5.3c-0.15,0.08-0.34,0.08-0.49,0l-10.03-5.3
			c-0.37-0.2-0.37-0.73,0-0.93l0.04-0.04"/>
		<path class="st47" d="M644.02,83.2c0.37,0.2,0.37,0.73,0,0.93l-10.03,5.3c-0.15,0.08-0.34,0.08-0.49,0l-10.03-5.3
			c-0.37-0.2-0.37-0.73,0-0.93l0.04-0.04"/>
		<path class="st47" d="M644.02,84.26c0.37,0.2,0.37,0.73,0,0.93l-10.03,5.3c-0.15,0.08-0.34,0.08-0.49,0l-10.03-5.3
			c-0.37-0.2-0.37-0.73,0-0.93l0.04-0.04"/>
		<path class="st47" d="M644.02,85.31c0.37,0.2,0.37,0.73,0,0.93l-10.03,5.3c-0.15,0.08-0.34,0.08-0.49,0l-10.03-5.3
			c-0.37-0.2-0.37-0.73,0-0.93l0.04-0.04"/>
		<path class="st47" d="M644.02,86.36c0.37,0.2,0.37,0.73,0,0.93l-10.03,5.3c-0.15,0.08-0.34,0.08-0.49,0l-10.03-5.3
			c-0.37-0.2-0.37-0.73,0-0.93l0.04-0.04"/>
	</g>
	<g>
		<path class="st47" d="M783.86,76.77l-10.03,5.3c-0.15,0.08-0.34,0.08-0.49,0l-10.03-5.3c-0.37-0.2-0.37-0.73,0-0.93l10.03-5.3
			c0.15-0.08,0.34-0.08,0.49,0l10.03,5.3C784.23,76.04,784.23,76.58,783.86,76.77z"/>
		<path class="st47" d="M783.86,76.9c0.37,0.2,0.37,0.73,0,0.93l-10.03,5.3c-0.15,0.08-0.34,0.08-0.49,0l-10.03-5.3
			c-0.37-0.2-0.37-0.73,0-0.93l0.04-0.04"/>
		<path class="st47" d="M783.86,77.95c0.37,0.2,0.37,0.73,0,0.93l-10.03,5.3c-0.15,0.08-0.34,0.08-0.49,0l-10.03-5.3
			c-0.37-0.2-0.37-0.73,0-0.93l0.04-0.04"/>
		<path class="st47" d="M783.86,79c0.37,0.2,0.37,0.73,0,0.93l-10.03,5.3c-0.15,0.08-0.34,0.08-0.49,0l-10.03-5.3
			c-0.37-0.2-0.37-0.73,0-0.93l0.04-0.04"/>
		<path class="st47" d="M783.86,80.05c0.37,0.2,0.37,0.73,0,0.93l-10.03,5.3c-0.15,0.08-0.34,0.08-0.49,0l-10.03-5.3
			c-0.37-0.2-0.37-0.73,0-0.93l0.04-0.04"/>
		<path class="st47" d="M783.86,81.1c0.37,0.2,0.37,0.73,0,0.93l-10.03,5.3c-0.15,0.08-0.34,0.08-0.49,0l-10.03-5.3
			c-0.37-0.2-0.37-0.73,0-0.93l0.04-0.04"/>
		<path class="st47" d="M783.86,82.15c0.37,0.2,0.37,0.73,0,0.93l-10.03,5.3c-0.15,0.08-0.34,0.08-0.49,0l-10.03-5.3
			c-0.37-0.2-0.37-0.73,0-0.93l0.04-0.04"/>
		<path class="st47" d="M783.86,83.2c0.37,0.2,0.37,0.73,0,0.93l-10.03,5.3c-0.15,0.08-0.34,0.08-0.49,0l-10.03-5.3
			c-0.37-0.2-0.37-0.73,0-0.93l0.04-0.04"/>
		<path class="st47" d="M783.86,84.26c0.37,0.2,0.37,0.73,0,0.93l-10.03,5.3c-0.15,0.08-0.34,0.08-0.49,0l-10.03-5.3
			c-0.37-0.2-0.37-0.73,0-0.93l0.04-0.04"/>
		<path class="st47" d="M783.86,85.31c0.37,0.2,0.37,0.73,0,0.93l-10.03,5.3c-0.15,0.08-0.34,0.08-0.49,0l-10.03-5.3
			c-0.37-0.2-0.37-0.73,0-0.93l0.04-0.04"/>
		<path class="st47" d="M783.86,86.36c0.37,0.2,0.37,0.73,0,0.93l-10.03,5.3c-0.15,0.08-0.34,0.08-0.49,0l-10.03-5.3
			c-0.37-0.2-0.37-0.73,0-0.93l0.04-0.04"/>
	</g>
	<g>
		<path class="st47" d="M507.86,334.9l-10.03,5.3c-0.15,0.08-0.34,0.08-0.49,0l-10.03-5.3c-0.37-0.2-0.37-0.73,0-0.93l10.03-5.3
			c0.15-0.08,0.34-0.08,0.49,0l10.03,5.3C508.23,334.17,508.23,334.7,507.86,334.9z"/>
		<path class="st47" d="M507.86,335.02c0.37,0.2,0.37,0.73,0,0.93l-10.03,5.3c-0.15,0.08-0.34,0.08-0.49,0l-10.03-5.3
			c-0.37-0.2-0.37-0.73,0-0.93l0.04-0.04"/>
	</g>
	<line class="st48" x1="175.58" y1="82.35" x2="197.14" y2="82.35"/>
	<line class="st48" x1="220.27" y1="82.35" x2="241.82" y2="82.35"/>
	<line class="st48" x1="317" y1="82.35" x2="338.55" y2="82.35"/>
	<line class="st48" x1="362.21" y1="82.35" x2="383.77" y2="82.35"/>
	<line class="st48" x1="457.89" y1="82.35" x2="479.45" y2="82.35"/>
	<line class="st48" x1="503.1" y1="82.35" x2="524.66" y2="82.35"/>
	<line class="st48" x1="599.83" y1="82.35" x2="621.39" y2="82.35"/>
	<line class="st48" x1="645.05" y1="82.35" x2="666.6" y2="82.35"/>
	<line class="st48" x1="740.73" y1="82.35" x2="762.28" y2="82.35"/>
	<line class="st48" x1="785.41" y1="82.35" x2="806.97" y2="82.35"/>
	<line class="st49" x1="78.85" y1="375.7" x2="360.63" y2="375.7"/>
	<line class="st50" x1="436.34" y1="375.7" x2="457.89" y2="375.7"/>
	<line class="st50" x1="504.15" y1="375.7" x2="525.71" y2="375.7"/>
	<line class="st50" x1="544.11" y1="375.7" x2="560.93" y2="375.7"/>
	<line class="st49" x1="634.01" y1="375.7" x2="904.22" y2="375.7"/>
	<circle class="st47" cx="43.1" cy="229.03" r="13.14"/>
	<circle class="st51" cx="938.39" cy="229.03" r="8.67"/>
	<polyline class="st48" points="47.31,215.89 79.9,82.35 101.46,82.35 	"/>
	<polyline class="st48" points="937.61,220.35 903.98,82.58 882.67,82.35 	"/>
	<line class="st49" x1="937.8" y1="237.71" x2="903.66" y2="375.36"/>
	<line class="st52" x1="45.99" y1="241.52" x2="79.16" y2="375.26"/>
	<text transform="matrix(1 0 0 1 115.311 231.8887)" class="st29 st53 st54">INFRASTRUCTURE</text>
	<rect x="107.54" y="210.89" class="st55" width="112.5" height="34.7"/>
	<text transform="matrix(1 0 0 1 293.8315 231.8887)" class="st29 st53 st54">APPLICATION</text>
	<rect x="286.5" y="210.89" class="st55" width="85.92" height="34.7"/>
	<text transform="matrix(1 0 0 1 443.7504 231.8887)" class="st29 st53 st54">TESTING/VALIDATION</text>
	<rect x="437.29" y="210.89" class="st55" width="125.65" height="34.7"/>
	<text transform="matrix(1 0 0 1 654.5825 231.8887)" class="st29 st53 st54">RELEASE</text>
	<rect x="648.08" y="210.89" class="st55" width="62.66" height="34.7"/>
	<text transform="matrix(1 0 0 1 793.5815 231.8887)" class="st29 st53 st54">OPERATION</text>
	<rect x="787.71" y="210.89" class="st55" width="74.24" height="34.7"/>
	<line class="st47" x1="56.51" y1="228.77" x2="107.77" y2="228.77"/>
	<line class="st47" x1="220.53" y1="228.77" x2="286.51" y2="228.77"/>
	<line class="st47" x1="372.2" y1="228.77" x2="437.39" y2="228.77"/>
	<line class="st47" x1="565.27" y1="228.77" x2="646.02" y2="228.77"/>
	<line class="st47" x1="710.76" y1="228.77" x2="785.74" y2="228.77"/>
	<line class="st47" x1="864.11" y1="228.77" x2="929.98" y2="228.77"/>
	<text transform="matrix(1 0 0 1 99.9165 140.7012)"><tspan x="0" y="0" class="st29 st53 st56">INFRA/CLOUD</tspan><tspan x="6.41" y="13.85" class="st29 st53 st56">ARCHITECT</tspan></text>
	<text transform="matrix(1 0 0 1 241.1152 140.7012)" class="st29 st53 st56">DEVELOPERS</text>
	<text transform="matrix(1 0 0 1 372.1557 140.7012)" class="st29 st53 st56">TEST ENGINEERS</text>
	<text transform="matrix(1 0 0 1 535.6127 140.7012)"><tspan x="0" y="0" class="st29 st53 st56">RELEASE</tspan><tspan x="-6.74" y="13.85" class="st29 st53 st56">ENGINEERS</tspan></text>
	<text transform="matrix(1 0 0 1 676.1596 140.7012)" class="st29 st53 st56">SECURITY</text>
	<text transform="matrix(1 0 0 1 797.393 140.7012)" class="st29 st53 st56">OPS ENGINEERS</text>
	<path class="st57" d="M368.19,191.72c0,0.01,0.01,0.02,0.01,0.02c0,0,0,0.01,0,0.01c0,0,0,0.01,0,0.01c0,0.47-0.38,0.85-0.85,0.85
		c0.01,0-7.59-0.03-7.59-0.03c-0.47,0-0.85-0.38-0.85-0.85c0-0.47,0.38-0.85,0.85-0.85h6.77c0.02-0.28,0.05-0.56,0.05-0.85
		c0-8.94-7.25-16.19-16.19-16.19c-8.94,0-16.19,7.25-16.19,16.19c0,0.29,0.03,0.57,0.05,0.85h6.77c0.47,0,0.85,0.38,0.85,0.85
		c0,0.47-0.38,0.85-0.85,0.85c0,0-7.6,0.03-7.59,0.03c-0.47,0-0.85-0.38-0.85-0.85c0-0.01,0-0.01,0-0.01c0-0.01,0-0.01,0-0.01
		c0-0.01,0.01-0.02,0.01-0.02c-0.05-0.55-0.09-1.11-0.09-1.68c0-9.88,8.01-17.89,17.89-17.89c9.88,0,17.89,8.01,17.89,17.89
		C368.27,190.61,368.24,191.17,368.19,191.72z M344.86,181.63c0.33-0.18,0.74-0.12,1.01,0.11l-0.04-0.07
		c7.47,5.47,9.01,7.98,9.04,8.03c1.22,2.01,0.49,4.58-1.62,5.73c-2.11,1.16-4.82,0.47-6.04-1.54c-0.03-0.05-1.55-2.57-2.8-11.45
		l0.04,0.07C344.38,182.18,344.53,181.82,344.86,181.63z M348.75,193.07c0.47,0.78,1.35,1.26,2.3,1.26c0.46,0,0.92-0.12,1.32-0.34
		c0.61-0.34,1.05-0.88,1.24-1.53c0.18-0.65,0.09-1.33-0.26-1.9c-0.01-0.02-1.34-2.03-6.87-6.26
		C347.57,190.96,348.74,193.05,348.75,193.07z"/>
	<path class="st58" d="M332.49,294.66c0-9.88,8.01-17.89,17.89-17.89c9.88,0,17.89,8.01,17.89,17.89c0,0.57-0.03,1.13-0.09,1.68
		c0,0.01,0.01,0.01,0.01,0.02c0,0,0,0.01,0,0.01c0,0,0,0.01,0,0.01c0,0.47-0.38,0.85-0.85,0.85c0.01,0-7.59-0.03-7.59-0.03
		c-0.47,0-0.85-0.38-0.85-0.85c0-0.47,0.38-0.85,0.85-0.85h6.77c0.02-0.28,0.05-0.56,0.05-0.85c0-8.94-7.25-16.19-16.19-16.19
		c-8.94,0-16.19,7.25-16.19,16.19c0,0.29,0.03,0.57,0.05,0.85h6.77c0.47,0,0.85,0.38,0.85,0.85c0,0.47-0.38,0.85-0.85,0.85
		c0,0-7.6,0.03-7.59,0.03c-0.47,0-0.85-0.38-0.85-0.85c0-0.01,0-0.01,0-0.01c0-0.01,0-0.01,0-0.01c0-0.01,0.01-0.02,0.01-0.02
		C332.53,295.79,332.49,295.23,332.49,294.66z M356.3,287.14l0.04-0.07c-1.25,8.88-2.77,11.41-2.8,11.45
		c-1.22,2.01-3.92,2.7-6.04,1.54s-2.84-3.73-1.62-5.73c0.03-0.05,1.56-2.56,9.04-8.03l-0.04,0.07c0.28-0.24,0.68-0.3,1.01-0.11
		C356.23,286.43,356.38,286.8,356.3,287.14z M354.28,288.92c-5.53,4.23-6.85,6.24-6.87,6.26c-0.35,0.57-0.44,1.25-0.26,1.9
		c0.18,0.65,0.62,1.19,1.24,1.53c0.4,0.22,0.86,0.34,1.32,0.34c0.95,0,1.83-0.48,2.3-1.26
		C352.02,297.67,353.19,295.57,354.28,288.92z"/>
	<text transform="matrix(1 0 0 1 393.4897 189.8633)"><tspan x="0" y="0" class="st29 st53 st59">7-12 Months </tspan><tspan x="102.82" y="0" class="st29 st60 st59">Traditional Lifecycle</tspan></text>
	<text transform="matrix(1 0 0 1 392.9496 292.378)"><tspan x="0" y="0" class="st29 st53 st59">4-6 Weeks </tspan><tspan x="86.96" y="0" class="st29 st60 st59">DevOps Lifecycle</tspan></text>
	<g>
		<g>
			<path class="st61" d="M432.74,402.28c33.68,32.52,89.38,30.17,125.86-5.33"/>
			<g>
				<polygon class="st62" points="432.25,409.17 433.57,409.09 433.13,402.6 439.63,402.64 439.63,401.32 431.72,401.28 				"/>
			</g>
			<g>
				<polygon class="st62" points="559.15,403.84 557.83,403.77 558.22,397.28 551.72,397.37 551.7,396.05 559.62,395.94 				"/>
			</g>
		</g>
	</g>
	<path class="st55" d="M533.98,363.12c5.54,0.62,9.54,5.61,8.92,11.15c-0.49,4.43-4.49,7.63-8.92,7.14
		c-3.55-0.39-6.1-3.59-5.71-7.14c0.32-2.84,2.87-4.88,5.71-4.57c2.27,0.25,3.91,2.3,3.65,4.57c-0.2,1.82-1.84,3.13-3.65,2.92
		c-1.45-0.16-2.5-1.47-2.34-2.92c0.13-1.16,1.18-2,2.34-1.87c0.93,0.1,1.6,0.94,1.5,1.87c-0.08,0.74-0.75,1.28-1.5,1.2"/>
	<g>
		<g>
			<path class="st47" d="M477.77,371.35c-1.7-2.37-4.24-4.22-7.13-4.38c-2.54-0.14-5.11,1.13-6.58,3.2
				c-1.47,2.08-1.83,4.89-0.96,7.28c0.8,2.21,2.61,4.03,4.82,4.84c2.21,0.81,4.77,0.6,6.81-0.57c1.18-0.67,2.17-1.63,3.14-2.58
				c2.27-2.2,4.54-4.4,6.8-6.61c1.87-1.82,3.79-3.67,6.14-4.79s5.26-1.42,7.52-0.11c2.51,1.46,3.65,4.63,3.44,7.53
				c-0.21,2.99-1.89,6.05-4.69,7.13c-2.1,0.81-4.53,0.42-6.51-0.65c-1.65-0.88-3.02-2.19-4.23-3.62"/>
			<g>
				<polygon class="st63" points="478.78,366 477.73,365.94 477.41,371.11 472.27,370.42 472.13,371.46 478.39,372.3 				"/>
			</g>
			<g>
				<polygon class="st63" points="491.91,377.62 491.84,378.67 486.67,378.28 486.66,383.46 485.6,383.46 485.62,377.14 				"/>
			</g>
		</g>
	</g>
	<g>
		<path class="st47" d="M989.47,138.1l-10.03,5.3c-0.15,0.08-0.34,0.08-0.49,0l-10.03-5.3c-0.37-0.2-0.37-0.73,0-0.93l10.03-5.3
			c0.15-0.08,0.34-0.08,0.49,0l10.03,5.3C989.84,137.37,989.84,137.91,989.47,138.1z"/>
		<path class="st47" d="M989.47,138.22c0.37,0.2,0.37,0.73,0,0.93l-10.03,5.3c-0.15,0.08-0.34,0.08-0.49,0l-10.03-5.3
			c-0.37-0.2-0.37-0.73,0-0.93l0.04-0.04"/>
		<path class="st47" d="M989.47,139.28c0.37,0.2,0.37,0.73,0,0.93l-10.03,5.3c-0.15,0.08-0.34,0.08-0.49,0l-10.03-5.3
			c-0.37-0.2-0.37-0.73,0-0.93l0.04-0.04"/>
		<path class="st47" d="M989.47,140.33c0.37,0.2,0.37,0.73,0,0.93l-10.03,5.3c-0.15,0.08-0.34,0.08-0.49,0l-10.03-5.3
			c-0.37-0.2-0.37-0.73,0-0.93l0.04-0.04"/>
		<path class="st47" d="M989.47,141.38c0.37,0.2,0.37,0.73,0,0.93l-10.03,5.3c-0.15,0.08-0.34,0.08-0.49,0l-10.03-5.3
			c-0.37-0.2-0.37-0.73,0-0.93l0.04-0.04"/>
		<path class="st47" d="M989.47,142.43c0.37,0.2,0.37,0.73,0,0.93l-10.03,5.3c-0.15,0.08-0.34,0.08-0.49,0l-10.03-5.3
			c-0.37-0.2-0.37-0.73,0-0.93l0.04-0.04"/>
		<path class="st47" d="M989.47,143.48c0.37,0.2,0.37,0.73,0,0.93l-10.03,5.3c-0.15,0.08-0.34,0.08-0.49,0l-10.03-5.3
			c-0.37-0.2-0.37-0.73,0-0.93l0.04-0.04"/>
		<path class="st47" d="M989.47,144.53c0.37,0.2,0.37,0.73,0,0.93l-10.03,5.3c-0.15,0.08-0.34,0.08-0.49,0l-10.03-5.3
			c-0.37-0.2-0.37-0.73,0-0.93l0.04-0.04"/>
		<path class="st47" d="M989.47,145.58c0.37,0.2,0.37,0.73,0,0.93l-10.03,5.3c-0.15,0.08-0.34,0.08-0.49,0l-10.03-5.3
			c-0.37-0.2-0.37-0.73,0-0.93l0.04-0.04"/>
		<path class="st47" d="M989.47,146.64c0.37,0.2,0.37,0.73,0,0.93l-10.03,5.3c-0.15,0.08-0.34,0.08-0.49,0l-10.03-5.3
			c-0.37-0.2-0.37-0.73,0-0.93l0.04-0.04"/>
		<path class="st47" d="M989.47,147.69c0.37,0.2,0.37,0.73,0,0.93l-10.03,5.3c-0.15,0.08-0.34,0.08-0.49,0l-10.03-5.3
			c-0.37-0.2-0.37-0.73,0-0.93l0.04-0.04"/>
	</g>
	<text transform="matrix(1 0 0 1 1009.2621 146.0347)" class="st29 st64 st56">SIZE OF WORKLOAD</text>
	<g>
		<g>
			<path class="st55" d="M963.58,194.58c9.76,8.66,25.16,7.99,35.65-1.57"/>
			<g>
				<polygon class="st62" points="963.65,201.44 964.96,201.25 964.04,194.82 970.53,194.38 970.43,193.06 962.54,193.6 				"/>
			</g>
			<g>
				<polygon class="st62" points="999.31,199.89 998,199.73 998.79,193.28 992.3,192.97 992.36,191.65 1000.27,192.03 				"/>
			</g>
		</g>
	</g>
	<text transform="matrix(1 0 0 1 1009.6889 198.6577)" class="st29 st64 st56">HIGH SPEED FEEDBACK</text>
	<g>
		<g>
			<path class="st47" d="M974.75,246.36c-1.7-2.37-4.24-4.22-7.13-4.38c-2.54-0.14-5.11,1.13-6.58,3.2
				c-1.47,2.08-1.83,4.89-0.96,7.28c0.8,2.21,2.61,4.03,4.82,4.84c2.21,0.81,4.77,0.6,6.81-0.57c1.18-0.67,2.17-1.63,3.14-2.58
				c2.27-2.2,4.54-4.4,6.8-6.61c1.87-1.82,3.79-3.67,6.14-4.79s5.26-1.42,7.52-0.11c2.51,1.46,3.65,4.63,3.44,7.53
				c-0.21,2.99-1.89,6.05-4.69,7.13c-2.1,0.81-4.53,0.42-6.51-0.65c-1.65-0.88-3.02-2.19-4.23-3.62"/>
			<g>
				<polygon class="st63" points="975.76,241.01 974.71,240.95 974.4,246.12 969.26,245.43 969.12,246.47 975.38,247.31 				"/>
			</g>
			<g>
				<polygon class="st63" points="988.9,252.63 988.82,253.68 983.65,253.29 983.64,258.47 982.59,258.47 982.6,252.16 				"/>
			</g>
		</g>
	</g>
	<text transform="matrix(1 0 0 1 1009.7993 252.1065)" class="st29 st64 st56">DevOps PEOPLE</text>
	<path class="st55" d="M977.58,294.07c5.54,0.62,9.54,5.61,8.92,11.15c-0.49,4.43-4.49,7.63-8.92,7.14
		c-3.55-0.39-6.1-3.59-5.71-7.14c0.32-2.84,2.87-4.88,5.71-4.57c2.27,0.25,3.91,2.3,3.65,4.57c-0.2,1.82-1.84,3.13-3.65,2.92
		c-1.45-0.16-2.5-1.47-2.34-2.92c0.13-1.16,1.18-2,2.34-1.87c0.93,0.1,1.6,0.94,1.5,1.87c-0.08,0.74-0.75,1.28-1.5,1.2"/>
	<text transform="matrix(1 0 0 1 1009.7758 305.5528)"><tspan x="0" y="0" class="st29 st64 st56">OPEN XFORMATION </tspan><tspan x="0" y="13.85" class="st29 st64 st56">PLATFORM</tspan></text>
	<text transform="matrix(1 0 0 1 358.0414 428.792)"><tspan x="0" y="0" class="st29 st53 st56">INFRA/CLOUD</tspan><tspan x="6.41" y="13.85" class="st29 st53 st56">ARCHITECT</tspan></text>
	<text transform="matrix(1 0 0 1 576.81 428.792)" class="st29 st53 st56">DevOps</text>
</g>
</svg>
