<svg xmlns="http://www.w3.org/2000/svg" viewBox="0 0 136 117.78"><defs><style>.cls-1{fill:#2b7b78;}.cls-2{fill:#fff;}</style></defs><g id="Layer_2" data-name="Layer 2"><g id="Layer_1-2" data-name="Layer 1"><polygon class="cls-1" points="102 0 34 0 0 58.89 34 117.78 102 117.78 136 58.89 102 0"/><path class="cls-2" d="M71.85,35.5a1.08,1.08,0,1,0,0-2.15H40.63a1.08,1.08,0,1,0,0,2.15Z"/><path class="cls-2" d="M39.1,51.58V79.82a2.29,2.29,0,0,0,2.28,2.28H94.72a1.08,1.08,0,1,0,0-2.15H86.66V62a1.79,1.79,0,0,0-2.89-1.42l-2.71,2.08a1.81,1.81,0,0,0-.7,1.43V80H76.25V69.19a1.8,1.8,0,0,0-1.8-1.8h-2.7a1.79,1.79,0,0,0-1.8,1.8V80H65.84V65.55a1.8,1.8,0,0,0-2.9-1.42l-2.71,2.11a1.78,1.78,0,0,0-.69,1.42V80H55.43V73.6a1.8,1.8,0,0,0-2.9-1.43l-2.7,2.09a1.82,1.82,0,0,0-.71,1.43V80H41.38a.13.13,0,0,1-.13-.13V51.58a1.08,1.08,0,1,0-2.15,0ZM82.51,64.23l2-1.54V80h-2ZM72.1,69.54h2V80h-2ZM61.69,67.83l2-1.56V80h-2Zm-10.41,8,2-1.54V80h-2Z"/><path class="cls-2" d="M71.93,62.53l-3.78-3.48a4,4,0,0,0-5.1-.22L45.67,72.24A1.07,1.07,0,1,0,47,73.94l17.39-13.4a1.8,1.8,0,0,1,2.33.1l3.77,3.47a4,4,0,0,0,5.11.23L91.56,52,91,55.49a1.07,1.07,0,0,0,2.12.33L94,50.13a1.46,1.46,0,0,0-1.36-1.68l-5.75-.32a1.07,1.07,0,0,0-.12,2.14l3.28.19L74.26,62.63a1.8,1.8,0,0,1-2.33-.1Z"/><path class="cls-2" d="M101.62,27.33H36.06a3.88,3.88,0,0,0-3.88,3.88V87a3.88,3.88,0,0,0,3.88,3.88h65.56A3.88,3.88,0,0,0,105.5,87V83.54a1.08,1.08,0,1,0-2.15,0V87a1.74,1.74,0,0,1-1.73,1.73H36.06A1.74,1.74,0,0,1,34.33,87V41.52h3.33a1.08,1.08,0,1,0,0-2.16H34.33V31.21a1.74,1.74,0,0,1,1.73-1.73h65.56a1.74,1.74,0,0,1,1.73,1.73v8.15H42.69a1.08,1.08,0,0,0,0,2.16h60.66v37a1.08,1.08,0,0,0,2.15,0V31.21a3.88,3.88,0,0,0-3.88-3.88Z"/><path class="cls-2" d="M89.12,34.42a3.2,3.2,0,1,0-3.19,3.2,3.19,3.19,0,0,0,3.19-3.2Zm-4.24,0a1,1,0,1,1,1.05,1,1,1,0,0,1-1.05-1Z"/><path class="cls-2" d="M97.92,34.42a3.2,3.2,0,1,0-3.2,3.2,3.19,3.19,0,0,0,3.2-3.2Zm-4.24,0a1,1,0,1,1,1,1,1,1,0,0,1-1-1Z"/></g></g></svg>