<svg xmlns="http://www.w3.org/2000/svg" viewBox="0 0 136 117.78"><defs><style>.cls-1{fill:#cb2029;}.cls-2{fill:#fff;}</style></defs><g id="Layer_2" data-name="Layer 2"><g id="Layer_1-2" data-name="Layer 1"><polygon class="cls-1" points="102 0 34 0 0 58.89 34 117.78 102 117.78 136 58.89 102 0"/><path class="cls-2" d="M61.27,83.12V63.7a1.22,1.22,0,0,0-1.21-1.22H52a1.22,1.22,0,1,0,0,2.43h6.86V83.12a5.26,5.26,0,1,0,2.43,0Zm-1.21,7.94a2.83,2.83,0,1,1,2.83-2.83,2.83,2.83,0,0,1-2.83,2.83Z"/><path class="cls-2" d="M74.2,83.12V63.7A1.22,1.22,0,0,0,73,62.48H64.91a1.22,1.22,0,1,0,0,2.43h6.86V83.12a5.26,5.26,0,1,0,2.43,0ZM73,91.06a2.83,2.83,0,1,1,2.82-2.83A2.83,2.83,0,0,1,73,91.06Z"/><path class="cls-2" d="M94.8,74.9a5.26,5.26,0,0,0-5.11,4H87.13V63.7a1.22,1.22,0,0,0-1.22-1.22H77.83a1.22,1.22,0,0,0,0,2.43H84.7V80.15a1.21,1.21,0,0,0,1.21,1.21h3.78A5.26,5.26,0,1,0,94.8,74.9Zm0,8.08a2.83,2.83,0,1,1,2.83-2.83A2.83,2.83,0,0,1,94.8,83Z"/><path class="cls-2" d="M101.61,43.64a13.15,13.15,0,0,0-6.32-4.3A22.95,22.95,0,0,0,52.81,28.48,10.35,10.35,0,0,0,49.67,28a10.51,10.51,0,0,0-10.24,8.26A14.56,14.56,0,0,0,43.1,64.91h2.82v14H43.35a5.25,5.25,0,1,0,0,2.42h3.78a1.21,1.21,0,0,0,1.21-1.21V63.7a1.22,1.22,0,0,0-1.21-1.22h-4a12.13,12.13,0,0,1-2.37-24,1.2,1.2,0,0,0,1-1,8.06,8.06,0,0,1,8-7,7.93,7.93,0,0,1,3.19.66,1.21,1.21,0,0,0,1.54-.53,20.53,20.53,0,0,1,38.5,9.72,1.2,1.2,0,0,0,.93,1.17,10.65,10.65,0,0,1-2.41,21h-.66a1.22,1.22,0,0,0,0,2.43h.66a13.07,13.07,0,0,0,10.19-21.27ZM38.24,83a2.83,2.83,0,1,1,2.83-2.83A2.83,2.83,0,0,1,38.24,83Z"/><path class="cls-2" d="M87.64,41.54h0a1.2,1.2,0,0,0,1.2-1.22,16,16,0,0,0-1.12-5.81,1.21,1.21,0,0,0-2.25.89,13.9,13.9,0,0,1,1,4.94,1.21,1.21,0,0,0,1.21,1.2Z"/><path class="cls-2" d="M83.21,31.55a1.22,1.22,0,0,0,.94.44,1.2,1.2,0,0,0,.77-.28A1.22,1.22,0,0,0,85.08,30a16.45,16.45,0,0,0-12.7-6,1.22,1.22,0,1,0,0,2.43,14,14,0,0,1,10.83,5.13Z"/></g></g></svg>