<svg xmlns="http://www.w3.org/2000/svg" viewBox="0 0 136 117.78"><defs><style>.cls-1{fill:#e96d25;}.cls-2{fill:#fff;}</style></defs><g id="Layer_2" data-name="Layer 2"><g id="Layer_1-2" data-name="Layer 1"><polygon class="cls-1" points="102 0 34 0 0 58.89 34 117.78 102 117.78 136 58.89 102 0"/><path class="cls-2" d="M91.33,41.32a18.15,18.15,0,0,1,15.19,17l3.35,2.24,3.26-2.18A24.75,24.75,0,0,0,91.66,34.71l1.43,2.14a1.65,1.65,0,0,1,0,1.83Z"/><path class="cls-2" d="M48.75,83.73A24.9,24.9,0,0,0,65.63,73.66a24.58,24.58,0,0,0,4.6-13.58L67,57.89l-3.35,2.24a18.16,18.16,0,0,1-15.19,17l1.76,2.64a1.65,1.65,0,0,1,0,1.83Z"/><path class="cls-2" d="M27.62,62.13,25,63.89a1.65,1.65,0,0,1-1.83,0L21,62.46A24.75,24.75,0,0,0,44.66,83.92l2.18-3.26-2.23-3.34a18.17,18.17,0,0,1-17-15.19Z"/><path class="cls-2" d="M85.5,77.11a18.2,18.2,0,0,1-13.2-9.57,27.73,27.73,0,0,1-3.3,7,24.86,24.86,0,0,0,16.17,9.21l-1.43-2.14a1.66,1.66,0,0,1,0-1.84Z"/><path class="cls-2" d="M109,63.89l-2.64-1.76a18.15,18.15,0,0,1-17,15.19L87.1,80.66l2.17,3.26a24.74,24.74,0,0,0,23.66-21.46l-2.15,1.43a1.65,1.65,0,0,1-1.83,0Z"/><path class="cls-2" d="M61.63,50.89a27.73,27.73,0,0,1,3.3-7,24.82,24.82,0,0,0-18.56-9.39L44.2,37.77l2.23,3.34a18.17,18.17,0,0,1,15.2,9.78Z"/><path class="cls-2" d="M27.41,58.3a18.16,18.16,0,0,1,15.2-17l-1.76-2.64a1.65,1.65,0,0,1,0-1.83l1.43-2.14A24.75,24.75,0,0,0,20.81,58.36l3.26,2.18Z"/><path class="cls-2" d="M66.05,54.54a1.65,1.65,0,0,1,1.83,0l2.64,1.76a18.15,18.15,0,0,1,17-15.19l2.24-3.34-2.17-3.25A24.84,24.84,0,0,0,68.31,44.77,24.5,24.5,0,0,0,63.88,56Z"/></g></g></svg>