<svg xmlns="http://www.w3.org/2000/svg" xmlns:xlink="http://www.w3.org/1999/xlink" viewBox="0 0 136 117.78"><defs><style>.cls-1{fill:none;}.cls-2{fill:#2c75a2;}.cls-3{fill:#447884;}.cls-4{clip-path:url(#clip-path);}.cls-5{fill:#fff;}</style><clipPath id="clip-path"><rect class="cls-1" x="30.77" y="23.16" width="75.23" height="75.23"/></clipPath></defs><g id="Layer_2" data-name="Layer 2"><g id="Layer_1-2" data-name="Layer 1"><polygon class="cls-2" points="102 0 34 0 0 58.89 34 117.78 102 117.78 136 58.89 102 0"/><path class="cls-1" d="M64.45,33.46A1.19,1.19,0,0,0,64,33l-15-8.4a1.38,1.38,0,0,0-1.28,0l-15,8.4a1.33,1.33,0,0,0-.49.48,1.38,1.38,0,0,0-.17.66V52.33a1.29,1.29,0,0,0,.66,1.14l15,8.4a1.32,1.32,0,0,0,1.28,0l15-8.4a1.32,1.32,0,0,0,.67-1.14V34.12a1.28,1.28,0,0,0-.18-.66Z"/><path class="cls-1" d="M64.63,34.12V52.33A1.32,1.32,0,0,1,64,53.47l-15,8.4a1.32,1.32,0,0,1-.64.16V42.49l16.12-9a1.28,1.28,0,0,1,.18.66Z"/><path class="cls-1" d="M64.45,33.46l-16.12,9-16.13-9a1.33,1.33,0,0,1,.49-.48l15-8.4a1.38,1.38,0,0,1,1.28,0L64,33a1.19,1.19,0,0,1,.49.48Z"/><path class="cls-1" d="M91.67,73.26l-5-3.48a1.23,1.23,0,0,0-1.42,0l-5,3.48a1.46,1.46,0,0,0-.41.48,1.34,1.34,0,0,0-.13.55v5.57a1.26,1.26,0,0,0,.54,1l5,3.48a1.23,1.23,0,0,0,1.42,0l5-3.48a1.28,1.28,0,0,0,.54-1V74.29a1.52,1.52,0,0,0-.13-.55,1.46,1.46,0,0,0-.41-.48Z"/><path class="cls-1" d="M79.13,85.8l-5-3.48a1.25,1.25,0,0,0-1.43,0l-5,3.48a1.46,1.46,0,0,0-.41.48,1.48,1.48,0,0,0-.13.55V92.4a1.31,1.31,0,0,0,.54,1l5,3.48a1.25,1.25,0,0,0,1.43,0l5-3.48a1.26,1.26,0,0,0,.54-1V86.83a1.47,1.47,0,0,0-.12-.55,1.49,1.49,0,0,0-.42-.48Z"/><path class="cls-1" d="M104.62,61.2a1.42,1.42,0,0,0-.41-.47l-5-3.49a1.25,1.25,0,0,0-1.43,0l-5,3.49a1.35,1.35,0,0,0-.42.47,1.56,1.56,0,0,0-.12.56v5.56a1.26,1.26,0,0,0,.54,1l5,3.49a1.25,1.25,0,0,0,1.43,0l5-3.49a1.31,1.31,0,0,0,.54-1V61.76a1.58,1.58,0,0,0-.13-.56Z"/><path class="cls-1" d="M92.08,73.74,85.94,78,79.8,73.74a1.46,1.46,0,0,1,.41-.48l5-3.48a1.23,1.23,0,0,1,1.42,0l5,3.48a1.46,1.46,0,0,1,.41.48Z"/><path class="cls-1" d="M92.21,74.29v5.57a1.28,1.28,0,0,1-.54,1l-5,3.48a1.18,1.18,0,0,1-.71.23V78l6.14-4.26a1.52,1.52,0,0,1,.13.55Z"/><line class="cls-3" x1="92.1" y1="73.73" x2="92.08" y2="73.74"/><line class="cls-3" x1="79.8" y1="73.74" x2="79.78" y2="73.73"/><path class="cls-1" d="M79.67,86.83V92.4a1.26,1.26,0,0,1-.54,1l-5,3.48a1.23,1.23,0,0,1-.72.23v-6.6l6.15-4.26a1.47,1.47,0,0,1,.12.55Z"/><path class="cls-1" d="M79.55,86.28,73.4,90.54l-6.14-4.26a1.46,1.46,0,0,1,.41-.48l5-3.48a1.25,1.25,0,0,1,1.43,0l5,3.48a1.49,1.49,0,0,1,.42.48Z"/><line class="cls-3" x1="79.56" y1="86.27" x2="79.55" y2="86.28"/><line class="cls-3" x1="67.26" y1="86.28" x2="67.25" y2="86.27"/><path class="cls-1" d="M104.75,61.76v5.56a1.31,1.31,0,0,1-.54,1l-5,3.49a1.29,1.29,0,0,1-.71.22V65.47l6.14-4.27a1.58,1.58,0,0,1,.13.56Z"/><path class="cls-1" d="M104.62,61.2l-6.14,4.27L92.33,61.2a1.35,1.35,0,0,1,.42-.47l5-3.49a1.25,1.25,0,0,1,1.43,0l5,3.49a1.42,1.42,0,0,1,.41.47Z"/><line class="cls-3" x1="104.63" y1="61.19" x2="104.62" y2="61.2"/><line class="cls-3" x1="92.33" y1="61.2" x2="92.32" y2="61.19"/><g class="cls-4"><path class="cls-5" d="M84.51,85.41a2.53,2.53,0,0,0,2.86,0l5-3.5a2.5,2.5,0,0,0,1.07-2V74.3a2.52,2.52,0,0,0-1.07-2.06l-5-3.49a2.5,2.5,0,0,0-2.86,0l-5,3.49a2.52,2.52,0,0,0-1.07,2.06v5.56a2.5,2.5,0,0,0,1.07,2Zm-3.59-5.55V76.05l3.77,2.61v3.81Zm6.27,2.61V78.66L91,76.05v3.81ZM85.94,70.81,90,73.65l-4.08,2.83-4.08-2.83Z"/><path class="cls-5" d="M72,81.29l-5,3.49a2.5,2.5,0,0,0-1.07,2.06v5.55A2.52,2.52,0,0,0,67,94.45l5,3.49a2.5,2.5,0,0,0,2.86,0l5-3.49a2.52,2.52,0,0,0,1.07-2.06V86.84a2.5,2.5,0,0,0-1.07-2.06l-5-3.5a2.51,2.51,0,0,0-2.86,0Zm1.43,2.06,4.08,2.83L73.4,89l-4.08-2.84Zm-5,9v-3.8l3.76,2.61V95ZM74.66,95V91.2l3.76-2.61v3.8Z"/><path class="cls-5" d="M104.93,59.7l-5-3.49a2.53,2.53,0,0,0-2.86,0L92,59.7A2.55,2.55,0,0,0,91,61.76v5.56A2.55,2.55,0,0,0,92,69.38l5,3.49a2.55,2.55,0,0,0,2.87,0l5-3.5A2.49,2.49,0,0,0,106,67.32V61.76a2.52,2.52,0,0,0-1.07-2.06Zm-6.45-1.43,4.08,2.84-4.08,2.83L94.4,61.11Zm-5,9V63.51l3.76,2.61v3.81Zm6.27,2.61V66.12l3.76-2.61v3.81Z"/><path class="cls-5" d="M32.08,54.56l15,8.4a2.53,2.53,0,0,0,2.5,0l8.58-4.8L74,67.81l-2.11.53a1.26,1.26,0,0,0,.31,2.47,1.54,1.54,0,0,0,.3,0l5-1.25A1.25,1.25,0,0,0,78.38,68l-1.25-5a1.27,1.27,0,0,0-.57-.79,1.26,1.26,0,0,0-1.74.43,1.32,1.32,0,0,0-.13,1l.52,2L60.66,56.75l3.91-2.19a2.54,2.54,0,0,0,1.31-2.23V34.12a2.54,2.54,0,0,0-1.31-2.23l-15-8.4a2.55,2.55,0,0,0-2.51,0l-6.41,3.6a1.25,1.25,0,0,0,1.22,2.18l6.47-3.59L62,33.37,48.33,41.05,34.59,33.36l3.06-1.72a1.25,1.25,0,1,0-1.22-2.19l-4.35,2.44a2.54,2.54,0,0,0-1.31,2.23V52.33a2.54,2.54,0,0,0,1.31,2.23ZM33.3,35.5l13.77,7.72V60.08L33.28,52.33ZM49.58,60.06V43.22L63.37,35.5l0,16.88Z"/></g><path class="cls-5" d="M42.06,34.74a1.22,1.22,0,0,0,.61-.17l6.27-3.51a1.25,1.25,0,0,0,.52-1.73,1.26,1.26,0,0,0-.77-.6,1.3,1.3,0,0,0-1,.15l-6.26,3.51a1.24,1.24,0,0,0-.61,1.41,1.26,1.26,0,0,0,1.22.94Z"/><path class="cls-5" d="M37,40.72A1.25,1.25,0,0,0,35.79,42v8.19a1.26,1.26,0,0,0,2.51,0V42A1.25,1.25,0,0,0,37,40.72Z"/></g></g></svg>