<svg xmlns="http://www.w3.org/2000/svg" viewBox="0 0 136 117.78"><defs><style>.cls-1{fill:#81376c;}.cls-2{fill:#fff;}</style></defs><g id="Layer_2" data-name="Layer 2"><g id="Layer_1-2" data-name="Layer 1"><polygon class="cls-1" points="102 0 34 0 0 58.89 34 117.78 102 117.78 136 58.89 102 0"/><path class="cls-2" d="M98.53,38.73H96.21V26a1.15,1.15,0,0,0-1.15-1.15H39.5A1.15,1.15,0,0,0,38.34,26V38.73H36a3.47,3.47,0,0,0-3.48,3.47v37A3.48,3.48,0,0,0,36,82.71H61.49v4.63H56.86A1.16,1.16,0,0,0,55.7,88.5V92H53.39v2.31H81.17V92H78.85V88.5a1.16,1.16,0,0,0-1.16-1.16H73.06V82.71H98.53A3.47,3.47,0,0,0,102,79.24v-37a3.47,3.47,0,0,0-3.47-3.47ZM93.9,70H40.66V36.41H93.9Zm0-42.83v7H40.66v-7ZM36,41h2.31V71.13a1.16,1.16,0,0,0,1.16,1.16H95.06a1.16,1.16,0,0,0,1.15-1.16V41h2.32a1.16,1.16,0,0,1,1.16,1.16V74.61H34.87V42.2A1.16,1.16,0,0,1,36,41ZM76.54,92H58V89.65H76.54Zm-5.79-4.63h-7V82.71h7Zm27.78-7H36a1.15,1.15,0,0,1-1.16-1.15V76.92H99.69v2.32a1.15,1.15,0,0,1-1.16,1.15Z"/><rect class="cls-2" x="42.97" y="29.47" width="2.31" height="2.31"/><rect class="cls-2" x="47.6" y="29.47" width="2.31" height="2.31"/><rect class="cls-2" x="52.23" y="29.47" width="2.31" height="2.31"/><path class="cls-2" d="M68.43,39.88a1.14,1.14,0,0,0-1.15-1.15H62.65a1.15,1.15,0,0,0-1.16,1.15V56.09H59.17V43.36A1.15,1.15,0,0,0,58,42.2H53.39a1.16,1.16,0,0,0-1.16,1.16V56.09H49.91v-7A1.14,1.14,0,0,0,48.76,48H44.13A1.15,1.15,0,0,0,43,49.14v7H41.81V58.4H69.59V56.09H68.43ZM45.29,56.09V50.3H47.6v5.79Zm9.25,0V44.51h2.32V56.09Zm9.26,0V41h2.32V56.09Z"/><path class="cls-2" d="M88.11,58.4H81.17V51.46A1.16,1.16,0,0,0,80,50.3a9.26,9.26,0,1,0,9.26,9.26,1.16,1.16,0,0,0-1.16-1.16ZM80,66.5a6.94,6.94,0,0,1-1.16-13.79v6.85A1.16,1.16,0,0,0,80,60.72h6.85A7,7,0,0,1,80,66.5Z"/><path class="cls-2" d="M83.48,46.83A1.16,1.16,0,0,0,82.32,48v8.1a1.16,1.16,0,0,0,1.16,1.16h8.1a1.16,1.16,0,0,0,1.16-1.16,9.27,9.27,0,0,0-9.26-9.26Zm1.16,8.1V49.24a7,7,0,0,1,5.69,5.69Z"/><path class="cls-2" d="M46.44,60.72a3.47,3.47,0,1,0,3.47,3.47,3.47,3.47,0,0,0-3.47-3.47Zm0,4.63a1.16,1.16,0,1,1,1.16-1.16,1.15,1.15,0,0,1-1.16,1.16Z"/><rect class="cls-2" x="73.06" y="38.73" width="2.31" height="2.31"/><rect class="cls-2" x="77.69" y="38.73" width="13.89" height="2.31"/><rect class="cls-2" x="73.06" y="43.36" width="4.63" height="2.31"/><rect class="cls-2" x="52.23" y="63.03" width="17.36" height="2.31"/></g></g></svg>