<svg xmlns="http://www.w3.org/2000/svg" xmlns:xlink="http://www.w3.org/1999/xlink" viewBox="0 0 136 117.78"><defs><style>.cls-1{fill:none;}.cls-2{fill:#67873c;}.cls-3{clip-path:url(#clip-path);}.cls-4{fill:#fff;}</style><clipPath id="clip-path"><rect class="cls-1" x="27.97" y="16.89" width="77.24" height="73.32"/></clipPath></defs><g id="Layer_2" data-name="Layer 2"><g id="Layer_1-2" data-name="Layer 1"><polygon class="cls-2" points="102 0 34 0 0 58.89 34 117.78 102 117.78 136 58.89 102 0"/><g class="cls-3"><path class="cls-4" d="M105.21,58.91a1.14,1.14,0,0,0-.57-1L86.43,47.42l0-18.55a1.15,1.15,0,0,0-.57-1L67.12,17A1.16,1.16,0,0,0,66,17L47.32,27.89a1.14,1.14,0,0,0-.57,1l0,18.53L28.58,57.93a1.15,1.15,0,0,0-.56,1L28,78.1a1.13,1.13,0,0,0,.56,1l18.8,10.85a1.09,1.09,0,0,0,1.13,0l8.64-5A1.13,1.13,0,0,0,56,83L49,87l0-16.57,16.41-9.53,0,16.57-4.66,2.71a1.13,1.13,0,1,0,1.14,2l4.66-2.7L84.79,89.93a1.11,1.11,0,0,0,1.14,0L104.6,79.08a1.13,1.13,0,0,0,.56-1l0-6.47a1.14,1.14,0,0,0-1.13-1.13h0a1.14,1.14,0,0,0-1.14,1.13v5.82L86.49,87l.05-16.57,16.4-9.53v5.54a1.13,1.13,0,0,0,1.13,1.13h0a1.13,1.13,0,0,0,1.13-1.13l0-7.5ZM65.54,40.37,65.5,57,49,47.41l0-16.58Zm-17.72,9,16.54,9.55L47.94,68.45,31.41,58.91Zm19.92,11.5,16.53,9.54,0,16.58L67.7,77.45Zm17.67,7.59L68.87,58.91l16.42-9.54,16.53,9.55ZM66.55,19.33l16.54,9.54L74.26,34a1.13,1.13,0,1,0,1.13,2l8.82-5.12,0,16.56L67.76,56.94l0-16.57,3-1.74a1.13,1.13,0,1,0-1.14-2l-3,1.73L50.14,28.87ZM30.28,60.87l16.53,9.54,0,16.58L30.23,77.45Z"/></g></g></g></svg>