<svg id="Layer_1" data-name="Layer 1" xmlns="http://www.w3.org/2000/svg" viewBox="0 0 348.43 348.5"><defs><style>.cls-1{fill:#67873c;}.cls-2{fill:#2c75a2;}.cls-3,.cls-8{fill:#e96d25;}.cls-4{fill:#cb2029;}.cls-5{fill:#81376c;}.cls-6,.cls-7,.cls-9{fill:none;}.cls-6,.cls-7{stroke:#000;}.cls-6{stroke-width:2px;}.cls-7,.cls-8,.cls-9{stroke-width:3px;}.cls-8,.cls-9{stroke:#e96d25;}</style></defs><path class="cls-1" d="M34.8,147.75l41,14A131,131,0,0,1,199.24,74.53V31.28A174.3,174.3,0,0,0,34.8,147.75Z" transform="translate(-24.99 -31.28)"/><path class="cls-2" d="M364,149l-40.84,14.3a131.07,131.07,0,0,0-115.62-88V32A174.33,174.33,0,0,1,364,149Z" transform="translate(-24.99 -31.28)"/><path class="cls-3" d="M366.39,156.38,325.48,170.7a131.16,131.16,0,0,1-45.76,138.15L304.91,344a174.51,174.51,0,0,0,61.48-187.66Z" transform="translate(-24.99 -31.28)"/><path class="cls-4" d="M273.13,313.72a131.07,131.07,0,0,1-146,1.17L100.61,349.2a174.35,174.35,0,0,0,197.71-.31Z" transform="translate(-24.99 -31.28)"/><path class="cls-5" d="M68.24,205.53a130.78,130.78,0,0,1,5-35.95l-41-14A174.51,174.51,0,0,0,93.92,344.36l26.43-34.24A130.8,130.8,0,0,1,68.24,205.53Z" transform="translate(-24.99 -31.28)"/><path class="cls-6" d="M302.22,140.4a119.49,119.49,0,0,1,19.15,74.27c-4.88,65.36-62.68,115.14-128,110.27S78.18,262.27,83.05,196.9s62.68-115.15,128-110.28a119.53,119.53,0,0,1,58.69,20.61" transform="translate(-24.99 -31.28)"/><polygon points="250.49 80.11 240.04 77.61 244.33 75.68 244.79 71.01 250.49 80.11"/><circle class="cls-7" cx="177.22" cy="175" r="4.94"/><circle class="cls-8" cx="192.22" cy="174.5" r="4.94"/><circle class="cls-9" cx="162.22" cy="175" r="4.94"/><path class="cls-6" d="M110,195.6V194a11.29,11.29,0,0,1,11.3-11.29h15.19A11.29,11.29,0,0,1,147.78,194" transform="translate(-24.99 -31.28)"/><path class="cls-6" d="M147.78,194v2.37a11.29,11.29,0,0,1-11.3,11.29h-.71" transform="translate(-24.99 -31.28)"/><path class="cls-6" d="M148.62,194.72h7.11A11.3,11.3,0,0,1,167,206v2.36a11.3,11.3,0,0,1-11.3,11.3H144.57" transform="translate(-24.99 -31.28)"/><path class="cls-6" d="M144,204.71h.68A11.42,11.42,0,0,1,156.21,216v2.36a11.42,11.42,0,0,1-11.54,11.3H129.15a11.44,11.44,0,0,1-11.45-10h-5.92a11.42,11.42,0,0,1-11.53-11.3V206a11.42,11.42,0,0,1,11.53-11.3h13" transform="translate(-24.99 -31.28)"/><line class="cls-6" x1="98.71" y1="188.39" x2="92.34" y2="188.39"/><line class="cls-6" x1="98.97" y1="188.39" x2="98.71" y2="188.39"/><line class="cls-6" x1="99.67" y1="188.39" x2="98.97" y2="188.39"/><path class="cls-6" d="M249,195.6V194a11.29,11.29,0,0,1,11.3-11.29h15.19A11.29,11.29,0,0,1,286.78,194" transform="translate(-24.99 -31.28)"/><path class="cls-6" d="M286.78,194v2.37a11.29,11.29,0,0,1-11.3,11.29h-.71" transform="translate(-24.99 -31.28)"/><path class="cls-6" d="M287.62,194.72h7.11A11.3,11.3,0,0,1,306,206v2.36a11.3,11.3,0,0,1-11.3,11.3H283.57" transform="translate(-24.99 -31.28)"/><path class="cls-6" d="M283,204.71h.68A11.42,11.42,0,0,1,295.21,216v2.36a11.42,11.42,0,0,1-11.54,11.3H268.15a11.44,11.44,0,0,1-11.45-10h-5.92a11.42,11.42,0,0,1-11.53-11.3V206a11.42,11.42,0,0,1,11.53-11.3h13" transform="translate(-24.99 -31.28)"/><line class="cls-6" x1="237.71" y1="188.39" x2="231.34" y2="188.39"/><line class="cls-6" x1="237.97" y1="188.39" x2="237.71" y2="188.39"/><line class="cls-6" x1="238.67" y1="188.39" x2="237.97" y2="188.39"/></svg>