<svg id="Capa_1" enable-background="new 0 0 512 512" height="512" viewBox="0 0 512 512" width="512" xmlns="http://www.w3.org/2000/svg"><g><path d="m287.42 255.995-.01.01-2.41 28.93-29 3.36-27.333-5.36-4.077-26.93 5.077-23.403 26.333-8.897 24.333 2.23z" fill="#ff641a"/><path d="m173.74 308.265c-13.63 14.02-32.69 22.74-53.74 22.74-41.35 0-75-33.65-75-75 0-41.36 33.65-75.01 75-75.01 21.05 0 40.11 8.72 53.74 22.73l50.85 52.28 31.41-32.3-49.98-51.38c-21.8-22.41-52.28-36.33-86.02-36.33-66.27 0-120 53.73-120 120.01 0 66.27 53.73 120 120 120 33.74 0 64.22-13.92 86.02-36.33l49.98-51.38-31.41-32.29z" fill="#ff641a"/><path d="m256 288.295-49.98 51.38c-21.8 22.41-52.28 36.33-86.02 36.33-66.27 0-120-53.73-120-120h45c0 41.35 33.65 75 75 75 21.05 0 40.11-8.72 53.74-22.74l50.85-52.26z" fill="#f03800"/><path d="m392 135.995c-33.74 0-64.22 13.92-86.02 36.33l-49.98 51.38 31.42 32.29 50.84-52.27c13.63-14.01 32.69-22.73 53.74-22.73 41.35 0 75 33.65 75 75.01 0 41.35-33.65 75-75 75-21.05 0-40.11-8.72-53.74-22.74l-50.83-52.26-.01-.01-.01.01-31.41 32.29 49.98 51.38c21.8 22.41 52.28 36.33 86.02 36.33 66.27 0 120-53.73 120-120 0-66.28-53.73-120.01-120-120.01z" fill="#f03800"/><path d="m512 256.005c0 66.27-53.73 120-120 120-33.74 0-64.22-13.92-86.02-36.33l-49.98-51.38 31.41-32.29h.02l50.83 52.26c13.63 14.02 32.69 22.74 53.74 22.74 41.35 0 75-33.65 75-75z" fill="#ff641a"/></g></svg>